<svg width="110" height="31" viewBox="0 0 110 31" fill="none" xmlns="http://www.w3.org/2000/svg">
<path d="M0 10C0 8.34315 1.34315 7 3 7H107C108.657 7 110 8.34315 110 10V28C110 29.6569 108.657 31 107 31H3C1.34314 31 0 29.6569 0 28V10Z" fill="#00868E"/>
<path d="M0 3C0 1.34315 1.34315 0 3 0H107C108.657 0 110 1.34315 110 3V25C110 26.6569 108.657 28 107 28H3C1.34314 28 0 26.6569 0 25V3Z" fill="#39B7BF"/>
<path d="M14.13 10.27H18.71V11.4H14.13V10.27ZM18.27 10.27H19.5C19.5 10.27 19.5 10.31 19.5 10.39C19.5 10.47 19.5 10.56 19.5 10.66C19.5 10.7533 19.4967 10.8267 19.49 10.88C19.47 12.14 19.4467 13.2067 19.42 14.08C19.3933 14.9533 19.3567 15.67 19.31 16.23C19.27 16.79 19.2167 17.2267 19.15 17.54C19.09 17.8467 19.0133 18.0667 18.92 18.2C18.7867 18.4 18.65 18.5433 18.51 18.63C18.37 18.7167 18.2067 18.7767 18.02 18.81C17.84 18.85 17.62 18.87 17.36 18.87C17.1067 18.87 16.8433 18.8667 16.57 18.86C16.5633 18.6867 16.5233 18.48 16.45 18.24C16.3767 18 16.2867 17.7933 16.18 17.62C16.4467 17.64 16.69 17.6533 16.91 17.66C17.13 17.66 17.2967 17.66 17.41 17.66C17.5767 17.66 17.7067 17.5967 17.8 17.47C17.8733 17.3767 17.9333 17.1867 17.98 16.9C18.0333 16.6067 18.0767 16.19 18.11 15.65C18.15 15.11 18.18 14.4233 18.2 13.59C18.2267 12.7567 18.25 11.7467 18.27 10.56V10.27ZM15.6 10.8H16.82C16.8067 11.42 16.7833 12.04 16.75 12.66C16.7167 13.28 16.6533 13.8833 16.56 14.47C16.4733 15.0567 16.3367 15.62 16.15 16.16C15.9633 16.7 15.7133 17.2033 15.4 17.67C15.0867 18.13 14.69 18.5433 14.21 18.91C14.11 18.75 13.9767 18.58 13.81 18.4C13.6433 18.22 13.48 18.0733 13.32 17.96C13.76 17.6467 14.12 17.2867 14.4 16.88C14.6867 16.4733 14.91 16.0333 15.07 15.56C15.23 15.0867 15.3433 14.5867 15.41 14.06C15.4767 13.5333 15.52 12.9967 15.54 12.45C15.5667 11.8967 15.5867 11.3467 15.6 10.8ZM11.75 14.66L12.93 13.25V18.9H11.75V14.66ZM10.45 11.28H13.44V12.36H10.45V11.28ZM11.75 9.51H12.93V11.86H11.75V9.51ZM12.81 13.91C12.8967 13.97 13.0167 14.0733 13.17 14.22C13.33 14.36 13.5 14.5167 13.68 14.69C13.86 14.8567 14.0233 15.0133 14.17 15.16C14.3233 15.3 14.4333 15.4033 14.5 15.47L13.79 16.38C13.6967 16.2533 13.58 16.1033 13.44 15.93C13.3067 15.75 13.16 15.57 13 15.39C12.8467 15.2033 12.7 15.03 12.56 14.87C12.42 14.7033 12.2967 14.5667 12.19 14.46L12.81 13.91ZM13.12 11.28H13.35L13.55 11.23L14.22 11.68C13.98 12.3133 13.6767 12.9367 13.31 13.55C12.9433 14.1633 12.54 14.7233 12.1 15.23C11.6667 15.7367 11.23 16.1667 10.79 16.52C10.7567 16.4133 10.7 16.29 10.62 16.15C10.5467 16.0033 10.47 15.8633 10.39 15.73C10.31 15.59 10.2367 15.4833 10.17 15.41C10.5767 15.13 10.9733 14.78 11.36 14.36C11.7467 13.9333 12.0933 13.4733 12.4 12.98C12.7067 12.48 12.9467 11.99 13.12 11.51V11.28ZM13.99 13.18L14.76 13.82C14.5467 14.0267 14.3467 14.2367 14.16 14.45C13.9733 14.6567 13.8033 14.8333 13.65 14.98L13.11 14.49C13.25 14.3233 13.4033 14.1133 13.57 13.86C13.7433 13.6067 13.8833 13.38 13.99 13.18ZM26.15 9.95H28.73V11.04H26.15V9.95ZM26.15 12.21H28.73V13.27H26.15V12.21ZM26.14 14.5H28.74V15.57H26.14V14.5ZM28.22 9.95H29.37V17.57C29.37 17.8633 29.3367 18.0933 29.27 18.26C29.2033 18.4333 29.0833 18.57 28.91 18.67C28.7367 18.7633 28.5167 18.8233 28.25 18.85C27.99 18.8767 27.6733 18.8867 27.3 18.88C27.28 18.72 27.2367 18.5267 27.17 18.3C27.1033 18.08 27.0333 17.8933 26.96 17.74C27.1733 17.7533 27.3833 17.76 27.59 17.76C27.8033 17.76 27.9467 17.76 28.02 17.76C28.0933 17.76 28.1433 17.7467 28.17 17.72C28.2033 17.6867 28.22 17.6333 28.22 17.56V9.95ZM25.65 9.95H26.78V13.63C26.78 14.0233 26.7667 14.4533 26.74 14.92C26.72 15.3867 26.6733 15.86 26.6 16.34C26.5333 16.8133 26.4367 17.2733 26.31 17.72C26.1833 18.1667 26.01 18.5667 25.79 18.92C25.73 18.8467 25.64 18.7633 25.52 18.67C25.4 18.5833 25.28 18.5 25.16 18.42C25.04 18.34 24.9333 18.28 24.84 18.24C25.0933 17.8067 25.2767 17.3233 25.39 16.79C25.5033 16.2567 25.5733 15.7167 25.6 15.17C25.6333 14.6167 25.65 14.1033 25.65 13.63V9.95ZM20.42 10.68H25.32V11.73H20.42V10.68ZM21.72 12.32H24.11V13.23H21.72V12.32ZM21.72 13.87H24.11V14.79H21.72V13.87ZM20.3 15.46H25.25V16.51H20.3V15.46ZM21.2 9.62H22.28V15.84H21.2V9.62ZM23.53 9.62H24.63V15.84H23.53V9.62ZM21.54 16.58L22.68 16.91C22.4933 17.2767 22.2633 17.64 21.99 18C21.7167 18.3667 21.4467 18.6733 21.18 18.92C21.1133 18.8467 21.02 18.7667 20.9 18.68C20.7867 18.5933 20.6667 18.5067 20.54 18.42C20.42 18.3333 20.3133 18.2633 20.22 18.21C20.4867 18.01 20.7367 17.7633 20.97 17.47C21.21 17.1767 21.4 16.88 21.54 16.58ZM23.03 17.03L23.94 16.53C24.0733 16.67 24.21 16.83 24.35 17.01C24.4967 17.1833 24.6333 17.3567 24.76 17.53C24.8933 17.6967 25 17.85 25.08 17.99L24.11 18.55C24.0433 18.4167 23.9467 18.26 23.82 18.08C23.7 17.9067 23.57 17.7267 23.43 17.54C23.29 17.3533 23.1567 17.1833 23.03 17.03ZM31.77 11.05H37.73V10.65H31.05V9.95H38.81V11.75H31.77V11.05ZM31.43 11.05H32.55C32.4433 11.37 32.33 11.7033 32.21 12.05C32.09 12.39 31.98 12.6867 31.88 12.94L30.79 12.87C30.9033 12.6167 31.0167 12.3267 31.13 12C31.2433 11.6667 31.3433 11.35 31.43 11.05ZM31.53 12.14H38.73V12.84H31.32L31.53 12.14ZM38.33 12.14H39.46C39.46 12.14 39.4567 12.1767 39.45 12.25C39.45 12.3233 39.45 12.39 39.45 12.45C39.4233 12.7767 39.39 13.0333 39.35 13.22C39.31 13.4067 39.2467 13.55 39.16 13.65C39.0867 13.7233 38.9967 13.78 38.89 13.82C38.79 13.86 38.6867 13.8833 38.58 13.89C38.48 13.8967 38.3467 13.9 38.18 13.9C38.0133 13.9 37.83 13.8967 37.63 13.89C37.6233 13.7833 37.6 13.6633 37.56 13.53C37.52 13.39 37.4767 13.27 37.43 13.17C37.55 13.1833 37.6567 13.1933 37.75 13.2C37.85 13.2067 37.9267 13.2067 37.98 13.2C38.0267 13.2 38.0667 13.1967 38.1 13.19C38.1333 13.1833 38.1633 13.1633 38.19 13.13C38.23 13.09 38.26 13.0033 38.28 12.87C38.3 12.7367 38.3167 12.5333 38.33 12.26V12.14ZM33.34 9.5H34.43V11.57C34.43 11.9233 34.3867 12.2567 34.3 12.57C34.2133 12.8767 34.05 13.1567 33.81 13.41C33.57 13.6633 33.2233 13.8833 32.77 14.07C32.3167 14.2567 31.72 14.4067 30.98 14.52C30.9467 14.4333 30.8967 14.3333 30.83 14.22C30.7633 14.1 30.6933 13.9833 30.62 13.87C30.5467 13.7567 30.4767 13.6633 30.41 13.59C31.05 13.51 31.5633 13.4033 31.95 13.27C32.3367 13.1367 32.63 12.9833 32.83 12.81C33.03 12.6367 33.1633 12.4467 33.23 12.24C33.3033 12.0267 33.34 11.7967 33.34 11.55V9.5ZM35.55 9.5H36.68V13.54H35.55V9.5ZM32.89 15.23V15.63H37.21V15.23H32.89ZM32.89 16.27V16.69H37.21V16.27H32.89ZM32.89 14.19V14.59H37.21V14.19H32.89ZM31.72 13.51H38.43V17.37H31.72V13.51ZM35.56 17.84L36.52 17.24C36.88 17.3533 37.2467 17.4767 37.62 17.61C38 17.7367 38.36 17.8633 38.7 17.99C39.04 18.1167 39.33 18.23 39.57 18.33L38.23 18.91C38.0367 18.81 37.7967 18.6967 37.51 18.57C37.2233 18.45 36.9133 18.3267 36.58 18.2C36.2467 18.0733 35.9067 17.9533 35.56 17.84ZM33.36 17.25L34.43 17.73C34.1567 17.89 33.84 18.0467 33.48 18.2C33.12 18.3533 32.75 18.4933 32.37 18.62C31.9967 18.7467 31.6367 18.85 31.29 18.93C31.23 18.85 31.1467 18.7533 31.04 18.64C30.9333 18.5333 30.8267 18.4267 30.72 18.32C30.6133 18.22 30.5133 18.1367 30.42 18.07C30.78 18.01 31.14 17.94 31.5 17.86C31.8667 17.7733 32.21 17.68 32.53 17.58C32.85 17.4733 33.1267 17.3633 33.36 17.25ZM42.11 10.17H48.24V11.32H42.11V10.17ZM42.11 12.48H48.26V13.6H42.11V12.48ZM42.09 14.84H48.3V15.97H42.09V14.84ZM41.42 10.17H42.6V13.77C42.6 14.1633 42.5833 14.5933 42.55 15.06C42.5167 15.5267 42.45 15.9967 42.35 16.47C42.2567 16.9367 42.1133 17.3833 41.92 17.81C41.7333 18.2367 41.4867 18.6167 41.18 18.95C41.12 18.87 41.03 18.78 40.91 18.68C40.79 18.58 40.6667 18.4833 40.54 18.39C40.42 18.2967 40.3167 18.2233 40.23 18.17C40.5033 17.87 40.72 17.54 40.88 17.18C41.04 16.8133 41.1567 16.4367 41.23 16.05C41.31 15.6567 41.36 15.2667 41.38 14.88C41.4067 14.4867 41.42 14.1133 41.42 13.76V10.17ZM47.82 10.17H49.02V17.48C49.02 17.8 48.98 18.0467 48.9 18.22C48.82 18.4 48.6767 18.5367 48.47 18.63C48.27 18.7233 48.0133 18.7833 47.7 18.81C47.3867 18.8367 47 18.8467 46.54 18.84C46.52 18.68 46.47 18.4867 46.39 18.26C46.31 18.0333 46.23 17.8433 46.15 17.69C46.3433 17.6967 46.5367 17.7033 46.73 17.71C46.9233 17.71 47.0933 17.71 47.24 17.71C47.3933 17.71 47.5033 17.71 47.57 17.71C47.6633 17.71 47.7267 17.6933 47.76 17.66C47.8 17.6267 47.82 17.5633 47.82 17.47V10.17ZM44.5 10.63H45.71V18.77H44.5V10.63ZM54.86 9.98C54.8267 10.16 54.7733 10.3933 54.7 10.68C54.6267 10.9667 54.52 11.29 54.38 11.65C54.2733 11.8967 54.15 12.1533 54.01 12.42C53.8767 12.68 53.74 12.9133 53.6 13.12C53.6867 13.08 53.7967 13.0467 53.93 13.02C54.0633 12.9867 54.2 12.9633 54.34 12.95C54.4867 12.93 54.6167 12.92 54.73 12.92C55.15 12.92 55.4967 13.04 55.77 13.28C56.05 13.52 56.19 13.8767 56.19 14.35C56.19 14.4833 56.19 14.6467 56.19 14.84C56.1967 15.0333 56.2033 15.2367 56.21 15.45C56.2167 15.6567 56.2233 15.86 56.23 16.06C56.2367 16.26 56.24 16.44 56.24 16.6H55.04C55.0533 16.4867 55.06 16.3533 55.06 16.2C55.0667 16.04 55.07 15.8733 55.07 15.7C55.0767 15.5267 55.08 15.36 55.08 15.2C55.0867 15.0333 55.09 14.8833 55.09 14.75C55.09 14.43 55.0033 14.21 54.83 14.09C54.6633 13.9633 54.4767 13.9 54.27 13.9C53.99 13.9 53.7067 13.97 53.42 14.11C53.14 14.2433 52.9033 14.4033 52.71 14.59C52.5633 14.7367 52.4133 14.9 52.26 15.08C52.1133 15.26 51.9533 15.4633 51.78 15.69L50.71 14.89C51.1433 14.49 51.5167 14.1033 51.83 13.73C52.15 13.3567 52.42 12.9867 52.64 12.62C52.86 12.2533 53.04 11.8867 53.18 11.52C53.28 11.2533 53.36 10.9767 53.42 10.69C53.4867 10.3967 53.5267 10.1233 53.54 9.87L54.86 9.98ZM51.1 10.9C51.3533 10.94 51.6467 10.97 51.98 10.99C52.3133 11.01 52.6067 11.02 52.86 11.02C53.3 11.02 53.78 11.01 54.3 10.99C54.8267 10.97 55.36 10.9367 55.9 10.89C56.44 10.8367 56.9533 10.77 57.44 10.69L57.43 11.85C57.0767 11.8967 56.6933 11.94 56.28 11.98C55.8733 12.0133 55.4567 12.0433 55.03 12.07C54.61 12.09 54.2067 12.1067 53.82 12.12C53.4333 12.1267 53.09 12.13 52.79 12.13C52.6567 12.13 52.49 12.13 52.29 12.13C52.0967 12.1233 51.8967 12.1167 51.69 12.11C51.4833 12.0967 51.2867 12.0833 51.1 12.07V10.9ZM59.02 13.74C58.9133 13.7733 58.7867 13.8167 58.64 13.87C58.5 13.9167 58.3567 13.9667 58.21 14.02C58.07 14.0667 57.9433 14.1133 57.83 14.16C57.51 14.2867 57.13 14.44 56.69 14.62C56.2567 14.8 55.8033 15.01 55.33 15.25C55.03 15.41 54.7767 15.5667 54.57 15.72C54.3633 15.8733 54.2067 16.03 54.1 16.19C53.9933 16.3433 53.94 16.5133 53.94 16.7C53.94 16.84 53.97 16.9567 54.03 17.05C54.09 17.1367 54.18 17.2067 54.3 17.26C54.42 17.3133 54.57 17.35 54.75 17.37C54.93 17.39 55.1433 17.4 55.39 17.4C55.8167 17.4 56.2867 17.3767 56.8 17.33C57.3133 17.2767 57.79 17.2067 58.23 17.12L58.19 18.41C57.9767 18.4367 57.7067 18.4633 57.38 18.49C57.0533 18.5233 56.7133 18.5467 56.36 18.56C56.0133 18.5733 55.68 18.58 55.36 18.58C54.84 18.58 54.3733 18.53 53.96 18.43C53.5467 18.33 53.22 18.16 52.98 17.92C52.7467 17.6733 52.63 17.3367 52.63 16.91C52.63 16.5633 52.7067 16.25 52.86 15.97C53.02 15.69 53.23 15.4367 53.49 15.21C53.75 14.9833 54.0333 14.78 54.34 14.6C54.6533 14.4133 54.96 14.2433 55.26 14.09C55.5667 13.93 55.8433 13.7933 56.09 13.68C56.3367 13.5667 56.5667 13.4667 56.78 13.38C57 13.2867 57.21 13.1933 57.41 13.1C57.6033 13.0133 57.79 12.93 57.97 12.85C58.15 12.7633 58.3333 12.6733 58.52 12.58L59.02 13.74ZM65.89 16.75H68.63V17.88H65.89V16.75ZM65.36 10.37H69.19V18.46H67.98V11.49H66.52V18.61H65.36V10.37ZM62.23 11.31H63.44V13.23C63.44 13.6567 63.41 14.12 63.35 14.62C63.2967 15.12 63.1833 15.6267 63.01 16.14C62.8433 16.6533 62.6033 17.1467 62.29 17.62C61.9833 18.0867 61.58 18.5033 61.08 18.87C61.0267 18.7833 60.9467 18.68 60.84 18.56C60.7333 18.44 60.6233 18.3233 60.51 18.21C60.4033 18.0967 60.3067 18.0133 60.22 17.96C60.68 17.6333 61.0433 17.2733 61.31 16.88C61.5833 16.48 61.7833 16.07 61.91 15.65C62.0433 15.2233 62.13 14.8033 62.17 14.39C62.21 13.97 62.23 13.58 62.23 13.22V11.31ZM61.41 10.77H64.85V11.88H61.41V10.77ZM60.37 13.47H65.09V14.6H60.37V13.47ZM63.15 14.87C63.23 14.9433 63.34 15.0567 63.48 15.21C63.6267 15.3567 63.7833 15.5233 63.95 15.71C64.1167 15.8967 64.2833 16.0833 64.45 16.27C64.6167 16.4567 64.7633 16.6267 64.89 16.78C65.0233 16.9267 65.12 17.0367 65.18 17.11L64.37 18.13C64.2767 17.9833 64.1667 17.82 64.04 17.64C63.9133 17.4533 63.7767 17.2633 63.63 17.07C63.4833 16.8767 63.3367 16.6867 63.19 16.5C63.0433 16.3133 62.9 16.14 62.76 15.98C62.6267 15.8133 62.51 15.67 62.41 15.55L63.15 14.87ZM61.3 9.51L62.45 9.74C62.37 10.18 62.2633 10.6133 62.13 11.04C61.9967 11.46 61.8467 11.86 61.68 12.24C61.5133 12.6133 61.3367 12.94 61.15 13.22C61.0767 13.1533 60.98 13.0767 60.86 12.99C60.7467 12.9033 60.6267 12.8167 60.5 12.73C60.3733 12.6433 60.2667 12.5767 60.18 12.53C60.4533 12.1633 60.6833 11.71 60.87 11.17C61.0633 10.63 61.2067 10.0767 61.3 9.51ZM73.61 9.97C73.5767 10.09 73.54 10.24 73.5 10.42C73.46 10.6 73.42 10.79 73.38 10.99C73.34 11.1833 73.3033 11.3733 73.27 11.56C73.2433 11.7467 73.2233 11.91 73.21 12.05C73.33 11.85 73.4733 11.6567 73.64 11.47C73.8067 11.2767 73.9933 11.1033 74.2 10.95C74.4133 10.79 74.6433 10.6633 74.89 10.57C75.1433 10.4767 75.41 10.43 75.69 10.43C76.1567 10.43 76.5767 10.5733 76.95 10.86C77.3233 11.1467 77.6167 11.5567 77.83 12.09C78.05 12.6233 78.16 13.2567 78.16 13.99C78.16 14.6967 78.0567 15.3167 77.85 15.85C77.6433 16.3767 77.3467 16.8267 76.96 17.2C76.5733 17.5733 76.11 17.8767 75.57 18.11C75.0367 18.35 74.44 18.53 73.78 18.65L73.02 17.49C73.5733 17.4033 74.08 17.2867 74.54 17.14C75.0067 16.9867 75.4067 16.78 75.74 16.52C76.08 16.26 76.34 15.9267 76.52 15.52C76.7067 15.1067 76.8 14.6 76.8 14C76.8 13.4867 76.7467 13.0533 76.64 12.7C76.5333 12.34 76.3767 12.0667 76.17 11.88C75.97 11.6933 75.73 11.6 75.45 11.6C75.1567 11.6 74.8767 11.6967 74.61 11.89C74.3433 12.0833 74.1033 12.3367 73.89 12.65C73.6833 12.9567 73.5167 13.29 73.39 13.65C73.27 14.01 73.2033 14.3567 73.19 14.69C73.1833 14.83 73.18 14.9833 73.18 15.15C73.1867 15.3167 73.2067 15.5167 73.24 15.75L72.01 15.83C71.9833 15.6367 71.9533 15.3967 71.92 15.11C71.8933 14.8167 71.88 14.5 71.88 14.16C71.88 13.9267 71.8867 13.6767 71.9 13.41C71.92 13.1433 71.94 12.8733 71.96 12.6C71.9867 12.32 72.0167 12.04 72.05 11.76C72.09 11.48 72.1267 11.2133 72.16 10.96C72.1867 10.7667 72.2067 10.5767 72.22 10.39C72.2333 10.2033 72.24 10.0433 72.24 9.91L73.61 9.97ZM84.74 10.02C84.7 10.1533 84.66 10.3167 84.62 10.51C84.58 10.7033 84.55 10.8533 84.53 10.96C84.4833 11.1867 84.4233 11.4633 84.35 11.79C84.2833 12.1167 84.2067 12.4633 84.12 12.83C84.04 13.1967 83.9567 13.5467 83.87 13.88C83.7833 14.2333 83.6767 14.6167 83.55 15.03C83.4233 15.4367 83.2867 15.8533 83.14 16.28C83 16.7 82.8567 17.1033 82.71 17.49C82.5633 17.87 82.42 18.21 82.28 18.51L80.89 18.04C81.0367 17.7867 81.1933 17.48 81.36 17.12C81.5267 16.7533 81.6867 16.36 81.84 15.94C82 15.52 82.1467 15.1033 82.28 14.69C82.4133 14.2767 82.5267 13.8933 82.62 13.54C82.6867 13.3067 82.75 13.0667 82.81 12.82C82.87 12.5733 82.9233 12.3333 82.97 12.1C83.0167 11.8667 83.0567 11.65 83.09 11.45C83.13 11.2433 83.16 11.0633 83.18 10.91C83.2 10.7233 83.2133 10.5367 83.22 10.35C83.2267 10.1633 83.2233 10.0133 83.21 9.9L84.74 10.02ZM82.19 11.51C82.5967 11.51 83.02 11.49 83.46 11.45C83.9 11.41 84.3433 11.3533 84.79 11.28C85.2367 11.2067 85.68 11.12 86.12 11.02V12.27C85.7067 12.3633 85.2667 12.4433 84.8 12.51C84.3333 12.5767 83.8733 12.63 83.42 12.67C82.9667 12.7033 82.55 12.72 82.17 12.72C81.93 12.72 81.7133 12.7167 81.52 12.71C81.3267 12.6967 81.14 12.6867 80.96 12.68L80.93 11.43C81.19 11.4567 81.4133 11.4767 81.6 11.49C81.7867 11.5033 81.9833 11.51 82.19 11.51ZM85.33 13.04C85.61 13.0133 85.92 12.99 86.26 12.97C86.6 12.95 86.93 12.94 87.25 12.94C87.5367 12.94 87.8267 12.9467 88.12 12.96C88.42 12.9733 88.7167 12.9967 89.01 13.03L88.98 14.23C88.7333 14.1967 88.46 14.17 88.16 14.15C87.8667 14.1233 87.5667 14.11 87.26 14.11C86.92 14.11 86.59 14.12 86.27 14.14C85.9567 14.1533 85.6433 14.18 85.33 14.22V13.04ZM85.87 15.56C85.83 15.7 85.7967 15.8467 85.77 16C85.7433 16.1467 85.73 16.2767 85.73 16.39C85.73 16.4967 85.7533 16.5967 85.8 16.69C85.8467 16.7833 85.92 16.8667 86.02 16.94C86.12 17.0067 86.2567 17.06 86.43 17.1C86.61 17.14 86.8333 17.16 87.1 17.16C87.44 17.16 87.78 17.1433 88.12 17.11C88.4667 17.07 88.82 17.0167 89.18 16.95L89.13 18.23C88.85 18.2633 88.54 18.2933 88.2 18.32C87.86 18.3533 87.49 18.37 87.09 18.37C86.25 18.37 85.6067 18.2333 85.16 17.96C84.72 17.68 84.5 17.2867 84.5 16.78C84.5 16.5533 84.52 16.3233 84.56 16.09C84.6 15.8567 84.64 15.64 84.68 15.44L85.87 15.56ZM92.6 10.85C92.5733 10.97 92.55 11.1067 92.53 11.26C92.5167 11.4133 92.5033 11.5633 92.49 11.71C92.4833 11.8567 92.48 11.9767 92.48 12.07C92.4733 12.29 92.47 12.5167 92.47 12.75C92.4767 12.9833 92.4833 13.2233 92.49 13.47C92.5033 13.71 92.52 13.95 92.54 14.19C92.5867 14.67 92.6533 15.0933 92.74 15.46C92.8267 15.8267 92.94 16.1133 93.08 16.32C93.22 16.52 93.3967 16.62 93.61 16.62C93.7233 16.62 93.8333 16.5567 93.94 16.43C94.0533 16.3033 94.1533 16.14 94.24 15.94C94.3333 15.7333 94.4133 15.5167 94.48 15.29C94.5533 15.0633 94.6167 14.85 94.67 14.65L95.67 15.87C95.45 16.45 95.23 16.9133 95.01 17.26C94.7967 17.6 94.5733 17.8467 94.34 18C94.1067 18.1467 93.8533 18.22 93.58 18.22C93.22 18.22 92.8767 18.1 92.55 17.86C92.23 17.62 91.9567 17.2333 91.73 16.7C91.5033 16.16 91.3433 15.4433 91.25 14.55C91.2167 14.2433 91.19 13.92 91.17 13.58C91.1567 13.24 91.1467 12.9167 91.14 12.61C91.14 12.3033 91.14 12.05 91.14 11.85C91.14 11.71 91.1333 11.5433 91.12 11.35C91.1067 11.1567 91.0867 10.9833 91.06 10.83L92.6 10.85ZM97.6 11.08C97.7867 11.3067 97.9667 11.5833 98.14 11.91C98.3133 12.2367 98.4733 12.5867 98.62 12.96C98.7667 13.3333 98.8967 13.7167 99.01 14.11C99.1233 14.4967 99.2133 14.8767 99.28 15.25C99.3533 15.6167 99.4 15.9533 99.42 16.26L98.1 16.77C98.0667 16.3633 98.0067 15.92 97.92 15.44C97.8333 14.96 97.7167 14.4767 97.57 13.99C97.4233 13.5033 97.2467 13.0433 97.04 12.61C96.84 12.1767 96.6033 11.8033 96.33 11.49L97.6 11.08Z" fill="white"/>
</svg>
