<svg width="18" height="21" viewBox="0 0 18 21" fill="none" xmlns="http://www.w3.org/2000/svg">
<mask id="mask0_1_3227" style="mask-type:alpha" maskUnits="userSpaceOnUse" x="0" y="0" width="18" height="21">
<rect width="17.46" height="20.1471" fill="#2FB3BC"/>
</mask>
<g mask="url(#mask0_1_3227)">
<path d="M16.0143 0H1.4456C0.645959 0 0 0.644563 0 1.44569V16.1747C0 16.976 0.645959 17.6206 1.4456 17.6206H3.00443L1.97282 18.6461C1.61593 18.9818 1.60685 19.545 1.95177 19.8913C2.29656 20.2378 2.85969 20.2317 3.19567 19.8763L5.4621 17.6206H12.0025L14.2674 19.8763C14.6062 20.2137 15.1559 20.2137 15.4946 19.8734C15.8335 19.5346 15.8321 18.9848 15.4932 18.6461L14.4616 17.6206H16.0143C16.8154 17.6206 17.46 16.976 17.46 16.1747V1.44569C17.46 0.644563 16.8154 0 16.0143 0ZM5.03889 1.34939H12.4218V3.14728H5.03889V1.34939ZM2.75128 15.9022C2.15499 15.9022 1.67316 15.4205 1.67316 14.8255C1.67316 14.2307 2.15499 13.7503 2.75128 13.7503C3.34619 13.7503 3.82801 14.2307 3.82801 14.8255C3.82801 15.4205 3.34619 15.9022 2.75128 15.9022ZM14.7103 15.9022C14.1153 15.9022 13.6319 15.4205 13.6319 14.8255C13.6319 14.2307 14.1153 13.7503 14.7103 13.7503C15.3049 13.7503 15.7884 14.2307 15.7884 14.8255C15.7884 15.4205 15.3049 15.9022 14.7103 15.9022ZM16.0249 11.7791H1.43514V4.58995H16.0249V11.7791Z" fill="#2FB3BC"/>
</g>
</svg>
