<svg width="17" height="17" viewBox="0 0 17 17" fill="none" xmlns="http://www.w3.org/2000/svg">
<rect width="17" height="17" rx="3" fill="#ADACAC"/>
<path d="M4.54 5.01H9.31V5.58H4.54V5.01ZM6.52 4.16H7.2V8.6H6.52V4.16ZM6.52 8.79H7.2V9.84H6.52V8.79ZM4.47 9.57H9.35V10.15H4.47V9.57ZM6.2 10.7H8.26V11.27H6.2V10.7ZM8.09 10.7H8.77C8.77 10.7 8.77 10.7333 8.77 10.8C8.77 10.8667 8.76333 10.9267 8.75 10.98C8.72333 11.42 8.69333 11.78 8.66 12.06C8.62667 12.34 8.58667 12.5567 8.54 12.71C8.49333 12.87 8.43667 12.99 8.37 13.07C8.29667 13.1367 8.21333 13.1867 8.12 13.22C8.03333 13.2533 7.93 13.2767 7.81 13.29C7.70333 13.2967 7.55333 13.2967 7.36 13.29C7.16667 13.29 6.96333 13.2833 6.75 13.27C6.74333 13.1833 6.72333 13.0833 6.69 12.97C6.66333 12.8567 6.62333 12.7567 6.57 12.67C6.77667 12.69 6.96667 12.7033 7.14 12.71C7.31333 12.7167 7.43667 12.72 7.51 12.72C7.57667 12.72 7.63333 12.7133 7.68 12.7C7.72667 12.6933 7.76667 12.67 7.8 12.63C7.86667 12.5633 7.92 12.3933 7.96 12.12C8.00667 11.8467 8.05 11.4 8.09 10.78V10.7ZM5.96 9.77H6.65C6.61 10.2767 6.53 10.7533 6.41 11.2C6.29667 11.6467 6.11333 12.05 5.86 12.41C5.61333 12.77 5.27 13.0733 4.83 13.32C4.78333 13.2333 4.71667 13.14 4.63 13.04C4.54333 12.94 4.46333 12.86 4.39 12.8C4.78333 12.5933 5.08667 12.3367 5.3 12.03C5.51333 11.7167 5.66667 11.3667 5.76 10.98C5.86 10.5933 5.92667 10.19 5.96 9.77ZM5.46 7.71V8.35H8.32V7.71H5.46ZM5.46 6.6V7.22H8.32V6.6H5.46ZM4.83 6.09H8.98V8.86H4.83V6.09ZM7.6 4.41L7.95 4.05C8.13667 4.11 8.33 4.19667 8.53 4.31C8.73 4.41667 8.89 4.52 9.01 4.62L8.65 5.02C8.53 4.92 8.37 4.81 8.17 4.69C7.97667 4.57 7.78667 4.47667 7.6 4.41ZM10.05 5.96H13.61V6.66H10.05V5.96ZM10.31 4.1L11.07 4.21C10.9633 4.82333 10.8333 5.42 10.68 6C10.5267 6.58 10.3467 7.12 10.14 7.62C9.93333 8.12 9.7 8.56 9.44 8.94C9.4 8.9 9.34 8.84667 9.26 8.78C9.18667 8.71333 9.11 8.65 9.03 8.59C8.95 8.52333 8.88 8.47333 8.82 8.44C9.06667 8.09333 9.28667 7.69 9.48 7.23C9.67333 6.77 9.83667 6.27333 9.97 5.74C10.11 5.2 10.2233 4.65333 10.31 4.1ZM12.23 6.34L12.95 6.41C12.7967 7.55667 12.5667 8.57 12.26 9.45C11.96 10.3233 11.55 11.0767 11.03 11.71C10.51 12.3433 9.84333 12.8833 9.03 13.33C9.01 13.27 8.97333 13.2 8.92 13.12C8.86667 13.04 8.81333 12.96 8.76 12.88C8.70667 12.8067 8.65667 12.7467 8.61 12.7C9.38333 12.32 10.01 11.8367 10.49 11.25C10.9767 10.6633 11.3567 9.96333 11.63 9.15C11.9033 8.33 12.1033 7.39333 12.23 6.34ZM10.43 6.56C10.5767 7.48667 10.7833 8.35667 11.05 9.17C11.3233 9.97667 11.6733 10.6833 12.1 11.29C12.5333 11.8967 13.0633 12.3667 13.69 12.7C13.63 12.7467 13.5667 12.8033 13.5 12.87C13.4333 12.9433 13.3733 13.0167 13.32 13.09C13.2667 13.17 13.22 13.2433 13.18 13.31C12.5267 12.9233 11.9767 12.4033 11.53 11.75C11.09 11.0967 10.73 10.34 10.45 9.48C10.17 8.62 9.94667 7.68 9.78 6.66L10.43 6.56Z" fill="white"/>
</svg>
