<svg width="113" height="22" viewBox="0 0 113 22" fill="none" xmlns="http://www.w3.org/2000/svg">
<rect x="0.5" y="0.5" width="112" height="21" rx="10.5" fill="white" stroke="#FE8B00"/>
<path d="M15.55 7.13C15.5233 7.24333 15.4967 7.37 15.47 7.51C15.4433 7.64333 15.4167 7.77 15.39 7.89C15.3633 8.03 15.33 8.19667 15.29 8.39C15.25 8.57667 15.21 8.77 15.17 8.97C15.1367 9.16333 15.1 9.35333 15.06 9.54C14.9933 9.82 14.9067 10.1467 14.8 10.52C14.7 10.8933 14.5833 11.2933 14.45 11.72C14.3233 12.1467 14.1767 12.5767 14.01 13.01C13.85 13.4433 13.6733 13.87 13.48 14.29C13.2933 14.7033 13.0933 15.08 12.88 15.42L11.71 14.96C11.9433 14.6467 12.16 14.2967 12.36 13.91C12.56 13.5233 12.7433 13.1233 12.91 12.71C13.0767 12.2967 13.2267 11.89 13.36 11.49C13.4933 11.09 13.6067 10.72 13.7 10.38C13.7933 10.0333 13.8667 9.73333 13.92 9.48C14.0133 9.04667 14.0867 8.62 14.14 8.2C14.2 7.77333 14.2267 7.37 14.22 6.99L15.55 7.13ZM19 8.1C19.1533 8.31333 19.3167 8.58 19.49 8.9C19.6633 9.22 19.8333 9.55667 20 9.91C20.1667 10.2633 20.3167 10.6067 20.45 10.94C20.5833 11.2667 20.69 11.55 20.77 11.79L19.64 12.31C19.5733 12.0367 19.48 11.73 19.36 11.39C19.24 11.05 19.1033 10.7033 18.95 10.35C18.7967 9.99667 18.6333 9.66333 18.46 9.35C18.2867 9.03667 18.11 8.77333 17.93 8.56L19 8.1ZM11.62 9.22C11.7933 9.23333 11.9633 9.24 12.13 9.24C12.2967 9.23333 12.4667 9.22667 12.64 9.22C12.8 9.21333 12.9967 9.20333 13.23 9.19C13.4633 9.17 13.7133 9.15 13.98 9.13C14.2533 9.11 14.5233 9.09 14.79 9.07C15.0567 9.04333 15.3033 9.02333 15.53 9.01C15.7567 8.99 15.9433 8.98 16.09 8.98C16.43 8.98 16.73 9.03667 16.99 9.15C17.25 9.26333 17.4567 9.45667 17.61 9.73C17.7633 9.99667 17.84 10.3667 17.84 10.84C17.84 11.2267 17.82 11.65 17.78 12.11C17.7467 12.57 17.69 13.01 17.61 13.43C17.53 13.85 17.4167 14.2 17.27 14.48C17.11 14.8267 16.8967 15.0633 16.63 15.19C16.3633 15.3167 16.0467 15.38 15.68 15.38C15.4933 15.38 15.29 15.3633 15.07 15.33C14.85 15.3033 14.6567 15.2733 14.49 15.24L14.3 14.06C14.4333 14.0933 14.5767 14.1267 14.73 14.16C14.8833 14.1933 15.03 14.22 15.17 14.24C15.3167 14.2533 15.4333 14.26 15.52 14.26C15.6933 14.26 15.8433 14.23 15.97 14.17C16.1033 14.11 16.2133 13.99 16.3 13.81C16.4 13.61 16.48 13.3533 16.54 13.04C16.6067 12.72 16.6533 12.3767 16.68 12.01C16.7133 11.6433 16.73 11.2933 16.73 10.96C16.73 10.68 16.69 10.4733 16.61 10.34C16.5367 10.2067 16.4233 10.1167 16.27 10.07C16.1233 10.0233 15.9433 10 15.73 10C15.5767 10 15.3667 10.0133 15.1 10.04C14.8333 10.06 14.5467 10.0867 14.24 10.12C13.9333 10.1467 13.65 10.1767 13.39 10.21C13.13 10.2433 12.9267 10.27 12.78 10.29C12.6467 10.31 12.4733 10.3333 12.26 10.36C12.0533 10.3867 11.8767 10.4133 11.73 10.44L11.62 9.22ZM26.69 7.57C26.6433 7.63667 26.59 7.71333 26.53 7.8C26.4767 7.88 26.4233 7.96333 26.37 8.05C26.25 8.22333 26.1133 8.43667 25.96 8.69C25.8133 8.93667 25.66 9.2 25.5 9.48C25.34 9.75333 25.1833 10.0267 25.03 10.3C24.8833 10.5733 24.7467 10.8233 24.62 11.05C24.82 10.91 25.0267 10.81 25.24 10.75C25.4533 10.69 25.66 10.66 25.86 10.66C26.2267 10.66 26.5167 10.77 26.73 10.99C26.95 11.21 27.07 11.5267 27.09 11.94C27.0967 12.1 27.1 12.2867 27.1 12.5C27.1 12.7133 27.1 12.9233 27.1 13.13C27.1067 13.33 27.1167 13.5033 27.13 13.65C27.15 13.8633 27.2233 14.0167 27.35 14.11C27.4833 14.2033 27.64 14.25 27.82 14.25C28.0533 14.25 28.2633 14.1833 28.45 14.05C28.6433 13.9167 28.8133 13.7367 28.96 13.51C29.1067 13.2767 29.2333 13.0167 29.34 12.73C29.4467 12.4433 29.5367 12.1533 29.61 11.86L30.57 12.64C30.3967 13.2067 30.1767 13.7033 29.91 14.13C29.65 14.55 29.33 14.8767 28.95 15.11C28.5767 15.3433 28.1367 15.46 27.63 15.46C27.27 15.46 26.9733 15.3933 26.74 15.26C26.5067 15.1333 26.3333 14.9667 26.22 14.76C26.1067 14.5533 26.0433 14.3367 26.03 14.11C26.0167 13.9233 26.0067 13.72 26 13.5C26 13.2733 25.9967 13.0567 25.99 12.85C25.99 12.6367 25.9833 12.4567 25.97 12.31C25.9567 12.1233 25.8967 11.9767 25.79 11.87C25.69 11.7633 25.5433 11.71 25.35 11.71C25.11 11.71 24.8833 11.7833 24.67 11.93C24.4567 12.07 24.2633 12.2567 24.09 12.49C23.9167 12.7233 23.77 12.9767 23.65 13.25C23.5767 13.3967 23.5 13.57 23.42 13.77C23.3467 13.97 23.2733 14.1767 23.2 14.39C23.1333 14.6033 23.0667 14.8067 23 15C22.94 15.1933 22.8933 15.3567 22.86 15.49L21.6 15.06C21.7267 14.7267 21.8833 14.3467 22.07 13.92C22.2567 13.4867 22.46 13.0333 22.68 12.56C22.9 12.08 23.1233 11.6067 23.35 11.14C23.5833 10.6733 23.8033 10.2333 24.01 9.82C24.2233 9.4 24.4133 9.03333 24.58 8.72C24.7467 8.40667 24.8733 8.17 24.96 8.01C25.0267 7.88333 25.1 7.74333 25.18 7.59C25.26 7.43 25.34 7.25333 25.42 7.06L26.69 7.57ZM35.65 7.05C35.6167 7.17667 35.58 7.33333 35.54 7.52C35.5 7.7 35.47 7.84333 35.45 7.95C35.4033 8.18333 35.3467 8.46333 35.28 8.79C35.2133 9.11 35.1367 9.45 35.05 9.81C34.97 10.17 34.8867 10.5167 34.8 10.85C34.7133 11.2033 34.6067 11.5867 34.48 12C34.3533 12.4133 34.2167 12.83 34.07 13.25C33.93 13.67 33.7867 14.0733 33.64 14.46C33.4933 14.84 33.3533 15.1767 33.22 15.47L31.97 15.05C32.1233 14.7967 32.28 14.4867 32.44 14.12C32.6 13.7533 32.7567 13.3633 32.91 12.95C33.07 12.53 33.2167 12.1133 33.35 11.7C33.4833 11.2867 33.5967 10.9067 33.69 10.56C33.7567 10.32 33.8167 10.0767 33.87 9.83C33.93 9.57667 33.9833 9.33333 34.03 9.1C34.0833 8.86 34.1267 8.63667 34.16 8.43C34.2 8.22333 34.23 8.04667 34.25 7.9C34.27 7.72667 34.2833 7.55333 34.29 7.38C34.2967 7.2 34.2933 7.05333 34.28 6.94L35.65 7.05ZM33.19 8.59C33.59 8.59 34.0067 8.57333 34.44 8.54C34.88 8.5 35.3233 8.44333 35.77 8.37C36.2233 8.29 36.6633 8.2 37.09 8.1V9.22C36.6767 9.31333 36.2367 9.39333 35.77 9.46C35.31 9.52667 34.8567 9.58 34.41 9.62C33.9633 9.65333 33.5533 9.67 33.18 9.67C32.9467 9.67 32.7333 9.66667 32.54 9.66C32.3467 9.64667 32.16 9.63667 31.98 9.63L31.95 8.52C32.2033 8.54667 32.4233 8.56667 32.61 8.58C32.8033 8.58667 32.9967 8.59 33.19 8.59ZM36.34 10.08C36.62 10.0533 36.9233 10.0333 37.25 10.02C37.5833 10 37.9133 9.99 38.24 9.99C38.5267 9.99 38.8167 9.99667 39.11 10.01C39.41 10.0167 39.7033 10.0367 39.99 10.07L39.96 11.15C39.7067 11.1167 39.4333 11.09 39.14 11.07C38.8533 11.0433 38.5567 11.03 38.25 11.03C37.9167 11.03 37.5933 11.04 37.28 11.06C36.9667 11.0733 36.6533 11.0967 36.34 11.13V10.08ZM36.79 12.57C36.75 12.7167 36.7167 12.8667 36.69 13.02C36.6633 13.1733 36.65 13.3067 36.65 13.42C36.65 13.5333 36.67 13.64 36.71 13.74C36.7567 13.84 36.8333 13.9267 36.94 14C37.0467 14.0733 37.1933 14.1333 37.38 14.18C37.5733 14.22 37.8167 14.24 38.11 14.24C38.4433 14.24 38.78 14.2233 39.12 14.19C39.46 14.15 39.8033 14.0967 40.15 14.03L40.11 15.18C39.83 15.2133 39.5233 15.2433 39.19 15.27C38.8567 15.3033 38.4933 15.32 38.1 15.32C37.2733 15.32 36.64 15.1867 36.2 14.92C35.7667 14.6467 35.55 14.26 35.55 13.76C35.55 13.54 35.5667 13.32 35.6 13.1C35.64 12.88 35.68 12.67 35.72 12.47L36.79 12.57ZM46.69 7.57C46.6433 7.63667 46.59 7.71333 46.53 7.8C46.4767 7.88 46.4233 7.96333 46.37 8.05C46.25 8.22333 46.1133 8.43667 45.96 8.69C45.8133 8.93667 45.66 9.2 45.5 9.48C45.34 9.75333 45.1833 10.0267 45.03 10.3C44.8833 10.5733 44.7467 10.8233 44.62 11.05C44.82 10.91 45.0267 10.81 45.24 10.75C45.4533 10.69 45.66 10.66 45.86 10.66C46.2267 10.66 46.5167 10.77 46.73 10.99C46.95 11.21 47.07 11.5267 47.09 11.94C47.0967 12.1 47.1 12.2867 47.1 12.5C47.1 12.7133 47.1 12.9233 47.1 13.13C47.1067 13.33 47.1167 13.5033 47.13 13.65C47.15 13.8633 47.2233 14.0167 47.35 14.11C47.4833 14.2033 47.64 14.25 47.82 14.25C48.0533 14.25 48.2633 14.1833 48.45 14.05C48.6433 13.9167 48.8133 13.7367 48.96 13.51C49.1067 13.2767 49.2333 13.0167 49.34 12.73C49.4467 12.4433 49.5367 12.1533 49.61 11.86L50.57 12.64C50.3967 13.2067 50.1767 13.7033 49.91 14.13C49.65 14.55 49.33 14.8767 48.95 15.11C48.5767 15.3433 48.1367 15.46 47.63 15.46C47.27 15.46 46.9733 15.3933 46.74 15.26C46.5067 15.1333 46.3333 14.9667 46.22 14.76C46.1067 14.5533 46.0433 14.3367 46.03 14.11C46.0167 13.9233 46.0067 13.72 46 13.5C46 13.2733 45.9967 13.0567 45.99 12.85C45.99 12.6367 45.9833 12.4567 45.97 12.31C45.9567 12.1233 45.8967 11.9767 45.79 11.87C45.69 11.7633 45.5433 11.71 45.35 11.71C45.11 11.71 44.8833 11.7833 44.67 11.93C44.4567 12.07 44.2633 12.2567 44.09 12.49C43.9167 12.7233 43.77 12.9767 43.65 13.25C43.5767 13.3967 43.5 13.57 43.42 13.77C43.3467 13.97 43.2733 14.1767 43.2 14.39C43.1333 14.6033 43.0667 14.8067 43 15C42.94 15.1933 42.8933 15.3567 42.86 15.49L41.6 15.06C41.7267 14.7267 41.8833 14.3467 42.07 13.92C42.2567 13.4867 42.46 13.0333 42.68 12.56C42.9 12.08 43.1233 11.6067 43.35 11.14C43.5833 10.6733 43.8033 10.2333 44.01 9.82C44.2233 9.4 44.4133 9.03333 44.58 8.72C44.7467 8.40667 44.8733 8.17 44.96 8.01C45.0267 7.88333 45.1 7.74333 45.18 7.59C45.26 7.43 45.34 7.25333 45.42 7.06L46.69 7.57ZM51.84 15V13.93H53.45V9.03H52.11V8.21C52.47 8.14333 52.78 8.06333 53.04 7.97C53.3067 7.87 53.55 7.75 53.77 7.61H54.75V13.93H56.17V15H51.84ZM58.7308 10.23H64.2208V11.28H58.7308V10.23ZM63.8708 10.23H64.9908C64.9908 10.23 64.9908 10.2633 64.9908 10.33C64.9908 10.39 64.9908 10.4567 64.9908 10.53C64.9908 10.6033 64.9874 10.6633 64.9808 10.71C64.9474 11.47 64.9141 12.1233 64.8808 12.67C64.8474 13.21 64.8074 13.6633 64.7608 14.03C64.7208 14.39 64.6708 14.6767 64.6108 14.89C64.5508 15.0967 64.4741 15.25 64.3808 15.35C64.2608 15.5033 64.1308 15.61 63.9908 15.67C63.8574 15.73 63.6974 15.7733 63.5108 15.8C63.3374 15.82 63.1108 15.83 62.8308 15.83C62.5574 15.83 62.2708 15.8233 61.9708 15.81C61.9641 15.65 61.9274 15.4667 61.8608 15.26C61.7941 15.06 61.7108 14.8833 61.6108 14.73C61.9108 14.7567 62.1841 14.7733 62.4308 14.78C62.6841 14.7867 62.8708 14.79 62.9908 14.79C63.0841 14.79 63.1608 14.78 63.2208 14.76C63.2874 14.74 63.3474 14.7033 63.4008 14.65C63.4874 14.5633 63.5574 14.37 63.6108 14.07C63.6641 13.77 63.7108 13.3233 63.7508 12.73C63.7974 12.1367 63.8374 11.37 63.8708 10.43V10.23ZM59.9208 6.68L61.0808 7.02C60.8341 7.59333 60.5408 8.14667 60.2008 8.68C59.8608 9.20667 59.4908 9.69333 59.0908 10.14C58.6974 10.5867 58.2908 10.9733 57.8708 11.3C57.8041 11.2267 57.7141 11.1367 57.6008 11.03C57.4874 10.9167 57.3708 10.8067 57.2508 10.7C57.1374 10.5933 57.0341 10.5067 56.9408 10.44C57.3608 10.1667 57.7574 9.83333 58.1308 9.44C58.5108 9.04667 58.8541 8.61667 59.1608 8.15C59.4674 7.67667 59.7208 7.18667 59.9208 6.68ZM63.6408 6.66C63.8008 6.98 63.9941 7.31 64.2208 7.65C64.4474 7.98333 64.6941 8.31 64.9608 8.63C65.2341 8.95 65.5141 9.25 65.8008 9.53C66.0874 9.81 66.3674 10.05 66.6408 10.25C66.5474 10.33 66.4408 10.4267 66.3208 10.54C66.2074 10.6533 66.0974 10.77 65.9908 10.89C65.8841 11.0033 65.7974 11.1133 65.7308 11.22C65.4508 10.9667 65.1674 10.6833 64.8808 10.37C64.5941 10.05 64.3108 9.71 64.0308 9.35C63.7574 8.99 63.4974 8.61667 63.2508 8.23C63.0108 7.84333 62.7908 7.46 62.5908 7.08L63.6408 6.66ZM60.6008 10.54H61.7708C61.7241 11.0933 61.6441 11.6367 61.5308 12.17C61.4241 12.6967 61.2474 13.1967 61.0008 13.67C60.7541 14.1367 60.4041 14.5633 59.9508 14.95C59.5041 15.33 58.9141 15.6567 58.1808 15.93C58.1341 15.83 58.0708 15.72 57.9908 15.6C57.9174 15.48 57.8341 15.36 57.7408 15.24C57.6541 15.1267 57.5674 15.0333 57.4808 14.96C58.1474 14.74 58.6774 14.47 59.0708 14.15C59.4708 13.83 59.7741 13.4767 59.9808 13.09C60.1874 12.7033 60.3308 12.2967 60.4108 11.87C60.4974 11.4367 60.5608 10.9933 60.6008 10.54ZM67.5208 8.22C67.7141 8.21333 67.8974 8.20667 68.0708 8.2C68.2441 8.18667 68.3808 8.17667 68.4808 8.17C68.6741 8.15 68.9208 8.12667 69.2208 8.1C69.5208 8.07333 69.8608 8.04333 70.2408 8.01C70.6274 7.97 71.0374 7.93333 71.4708 7.9C71.9041 7.86 72.3508 7.82 72.8108 7.78C73.1641 7.75333 73.5108 7.73 73.8508 7.71C74.1908 7.68333 74.5108 7.66333 74.8108 7.65C75.1108 7.63 75.3741 7.61667 75.6008 7.61L75.6108 8.76C75.4308 8.75333 75.2208 8.75333 74.9808 8.76C74.7474 8.76667 74.5141 8.78 74.2808 8.8C74.0541 8.82 73.8508 8.85333 73.6708 8.9C73.3574 8.98667 73.0674 9.13 72.8008 9.33C72.5341 9.53 72.3041 9.76667 72.1108 10.04C71.9174 10.3067 71.7674 10.5933 71.6608 10.9C71.5608 11.2067 71.5108 11.5067 71.5108 11.8C71.5108 12.1467 71.5708 12.45 71.6908 12.71C71.8108 12.97 71.9741 13.1933 72.1808 13.38C72.3941 13.56 72.6408 13.71 72.9208 13.83C73.2008 13.95 73.5008 14.04 73.8208 14.1C74.1408 14.16 74.4674 14.2 74.8008 14.22L74.3808 15.43C73.9741 15.41 73.5741 15.3467 73.1808 15.24C72.7941 15.14 72.4274 15 72.0808 14.82C71.7408 14.64 71.4408 14.4167 71.1808 14.15C70.9208 13.8833 70.7141 13.5767 70.5608 13.23C70.4141 12.8767 70.3408 12.48 70.3408 12.04C70.3408 11.5467 70.4208 11.0933 70.5808 10.68C70.7474 10.2667 70.9508 9.90667 71.1908 9.6C71.4374 9.28667 71.6841 9.04667 71.9308 8.88C71.7374 8.9 71.5008 8.92667 71.2208 8.96C70.9474 8.98667 70.6508 9.02 70.3308 9.06C70.0108 9.09333 69.6874 9.13333 69.3608 9.18C69.0341 9.22 68.7208 9.26333 68.4208 9.31C68.1274 9.35667 67.8674 9.40333 67.6408 9.45L67.5208 8.22ZM74.1808 9.8C74.2608 9.91333 74.3508 10.0533 74.4508 10.22C74.5508 10.38 74.6474 10.5433 74.7408 10.71C74.8341 10.8767 74.9141 11.03 74.9808 11.17L74.3008 11.48C74.1741 11.2133 74.0474 10.97 73.9208 10.75C73.8008 10.5233 73.6641 10.3033 73.5108 10.09L74.1808 9.8ZM75.2908 9.36C75.3708 9.47333 75.4641 9.61 75.5708 9.77C75.6774 9.92333 75.7808 10.0833 75.8808 10.25C75.9808 10.4167 76.0674 10.5667 76.1408 10.7L75.4608 11.03C75.3274 10.7633 75.1941 10.5233 75.0608 10.31C74.9341 10.0967 74.7908 9.88 74.6308 9.66L75.2908 9.36ZM79.1508 9.39H84.4108V10.36H79.1508V9.39ZM77.3308 11.2H86.2708V12.21H77.3308V11.2ZM79.8108 11.99H80.9708C80.9241 12.4567 80.8441 12.89 80.7308 13.29C80.6241 13.69 80.4541 14.0533 80.2208 14.38C79.9941 14.7067 79.6774 14.9967 79.2708 15.25C78.8641 15.5033 78.3374 15.7167 77.6908 15.89C77.6574 15.7967 77.6074 15.69 77.5408 15.57C77.4741 15.45 77.3974 15.3333 77.3108 15.22C77.2308 15.1067 77.1508 15.0133 77.0708 14.94C77.6441 14.8133 78.1008 14.6567 78.4408 14.47C78.7874 14.2767 79.0541 14.0567 79.2408 13.81C79.4274 13.5633 79.5574 13.2867 79.6308 12.98C79.7108 12.6733 79.7708 12.3433 79.8108 11.99ZM82.3808 11.83H83.4608V14.38C83.4608 14.5333 83.4874 14.6333 83.5408 14.68C83.5941 14.72 83.7108 14.74 83.8908 14.74C83.9374 14.74 84.0074 14.74 84.1008 14.74C84.2008 14.74 84.3108 14.74 84.4308 14.74C84.5508 14.74 84.6641 14.74 84.7708 14.74C84.8774 14.74 84.9574 14.74 85.0108 14.74C85.1241 14.74 85.2108 14.7133 85.2708 14.66C85.3308 14.6 85.3708 14.48 85.3908 14.3C85.4174 14.12 85.4374 13.85 85.4508 13.49C85.5241 13.55 85.6174 13.6067 85.7308 13.66C85.8508 13.7067 85.9708 13.7533 86.0908 13.8C86.2174 13.8467 86.3274 13.8833 86.4208 13.91C86.3808 14.3833 86.3141 14.75 86.2208 15.01C86.1341 15.2767 86.0041 15.46 85.8308 15.56C85.6574 15.66 85.4174 15.71 85.1108 15.71C85.0508 15.71 84.9574 15.71 84.8308 15.71C84.7108 15.71 84.5774 15.71 84.4308 15.71C84.2841 15.71 84.1474 15.71 84.0208 15.71C83.8941 15.71 83.8041 15.71 83.7508 15.71C83.3841 15.71 83.1008 15.67 82.9008 15.59C82.7074 15.5167 82.5708 15.38 82.4908 15.18C82.4174 14.9867 82.3808 14.7233 82.3808 14.39V11.83ZM81.2008 6.54H82.3508V8.29H81.2008V6.54ZM77.5308 7.53H86.0708V9.84H84.9208V8.55H78.6208V9.84H77.5308V7.53ZM91.2808 9.95H92.4208V14.6C92.4208 14.9133 92.3741 15.1533 92.2808 15.32C92.1874 15.4867 92.0241 15.61 91.7908 15.69C91.5574 15.77 91.2641 15.82 90.9108 15.84C90.5574 15.86 90.1341 15.87 89.6408 15.87C89.6074 15.7167 89.5474 15.5333 89.4608 15.32C89.3741 15.1067 89.2908 14.9267 89.2108 14.78C89.4574 14.7867 89.7008 14.7933 89.9408 14.8C90.1874 14.8067 90.4041 14.81 90.5908 14.81C90.7841 14.81 90.9174 14.8067 90.9908 14.8C91.0974 14.8 91.1708 14.7833 91.2108 14.75C91.2574 14.7167 91.2808 14.6567 91.2808 14.57V9.95ZM87.8008 7.25H94.8508V8.31H87.8008V7.25ZM94.4508 7.25H94.7408L95.0008 7.18L95.8408 7.8C95.5408 8.16667 95.1974 8.54 94.8108 8.92C94.4308 9.3 94.0308 9.66 93.6108 10C93.1908 10.34 92.7774 10.6367 92.3708 10.89C92.3174 10.81 92.2441 10.7233 92.1508 10.63C92.0641 10.5367 91.9741 10.4467 91.8808 10.36C91.7874 10.2667 91.7041 10.19 91.6308 10.13C91.8974 9.96333 92.1674 9.77333 92.4408 9.56C92.7208 9.34 92.9874 9.11 93.2408 8.87C93.4941 8.63 93.7241 8.39333 93.9308 8.16C94.1441 7.92667 94.3174 7.71333 94.4508 7.52V7.25ZM98.1508 12.56L97.9608 8.72L97.9208 7.43H99.2408L99.2008 8.72L99.0208 12.56H98.1508ZM98.5808 15.14C98.3408 15.14 98.1408 15.0567 97.9808 14.89C97.8208 14.7167 97.7408 14.5033 97.7408 14.25C97.7408 13.99 97.8208 13.78 97.9808 13.62C98.1408 13.4533 98.3408 13.37 98.5808 13.37C98.8274 13.37 99.0274 13.4533 99.1808 13.62C99.3408 13.78 99.4208 13.99 99.4208 14.25C99.4208 14.5033 99.3408 14.7167 99.1808 14.89C99.0274 15.0567 98.8274 15.14 98.5808 15.14Z" fill="#FE8B00"/>
</svg>
