<svg width="36" height="46" viewBox="0 0 36 46" fill="none" xmlns="http://www.w3.org/2000/svg">
<path d="M4.994 40.226C5.08733 40.24 5.19467 40.2517 5.316 40.261C5.43733 40.2657 5.53767 40.268 5.617 40.268H9.446C9.55333 40.268 9.66067 40.2657 9.768 40.261C9.88 40.2517 9.98267 40.24 10.076 40.226V40.996C9.978 40.9867 9.873 40.9797 9.761 40.975C9.65367 40.9703 9.54867 40.968 9.446 40.968H5.617C5.53767 40.968 5.43733 40.9703 5.316 40.975C5.19467 40.9797 5.08733 40.9867 4.994 40.996V40.226ZM7.094 44.426V40.66H7.857V44.426H7.094ZM4.56 43.978C4.66733 43.992 4.777 44.0037 4.889 44.013C5.001 44.0223 5.10833 44.027 5.211 44.027H9.831C9.943 44.027 10.0503 44.0223 10.153 44.013C10.2557 43.999 10.3513 43.9873 10.44 43.978V44.783C10.342 44.769 10.2347 44.7597 10.118 44.755C10.0013 44.7503 9.90567 44.748 9.831 44.748H5.211C5.10833 44.748 5.001 44.7503 4.889 44.755C4.78167 44.7597 4.672 44.769 4.56 44.783V43.978ZM17.223 40.268C17.1903 40.3053 17.1507 40.3543 17.104 40.415C17.062 40.471 17.0247 40.52 16.992 40.562C16.894 40.7347 16.7563 40.9377 16.579 41.171C16.4063 41.4043 16.208 41.64 15.984 41.878C15.7647 42.1113 15.529 42.3167 15.277 42.494L14.696 42.025C14.85 41.9363 14.9993 41.8313 15.144 41.71C15.2933 41.584 15.431 41.4533 15.557 41.318C15.6877 41.1827 15.802 41.052 15.9 40.926C15.998 40.7953 16.0727 40.6787 16.124 40.576C16.0587 40.576 15.9467 40.576 15.788 40.576C15.634 40.576 15.4473 40.576 15.228 40.576C15.0133 40.576 14.7823 40.576 14.535 40.576C14.2923 40.576 14.0497 40.576 13.807 40.576C13.5643 40.576 13.338 40.576 13.128 40.576C12.918 40.576 12.7383 40.576 12.589 40.576C12.4397 40.576 12.3393 40.576 12.288 40.576C12.148 40.576 12.0127 40.5807 11.882 40.59C11.7513 40.5947 11.6113 40.604 11.462 40.618V39.841C11.5927 39.855 11.728 39.869 11.868 39.883C12.008 39.897 12.148 39.904 12.288 39.904C12.3393 39.904 12.442 39.904 12.596 39.904C12.75 39.904 12.9343 39.904 13.149 39.904C13.3683 39.904 13.604 39.904 13.856 39.904C14.108 39.904 14.36 39.904 14.612 39.904C14.864 39.904 15.0997 39.904 15.319 39.904C15.5383 39.904 15.725 39.904 15.879 39.904C16.033 39.904 16.1403 39.904 16.201 39.904C16.2523 39.904 16.3153 39.904 16.39 39.904C16.4693 39.8993 16.544 39.8923 16.614 39.883C16.6887 39.8737 16.7447 39.8643 16.782 39.855L17.223 40.268ZM14.395 41.199C14.395 41.563 14.3857 41.9083 14.367 42.235C14.3483 42.5617 14.304 42.872 14.234 43.166C14.1687 43.4553 14.066 43.7283 13.926 43.985C13.786 44.237 13.597 44.475 13.359 44.699C13.121 44.923 12.8177 45.1283 12.449 45.315L11.805 44.79C11.9077 44.7573 12.0173 44.713 12.134 44.657C12.2553 44.5963 12.3697 44.5263 12.477 44.447C12.729 44.2837 12.932 44.1063 13.086 43.915C13.24 43.7237 13.3543 43.5183 13.429 43.299C13.5083 43.075 13.562 42.8347 13.59 42.578C13.6227 42.3213 13.639 42.0483 13.639 41.759C13.639 41.6657 13.6367 41.5747 13.632 41.486C13.6273 41.3973 13.6157 41.3017 13.597 41.199H14.395ZM18.413 40.128C18.539 40.1373 18.6767 40.1467 18.826 40.156C18.9753 40.1653 19.1083 40.17 19.225 40.17H22.704C22.7973 40.17 22.8977 40.17 23.005 40.17C23.117 40.1653 23.2033 40.1607 23.264 40.156C23.2593 40.2353 23.2547 40.331 23.25 40.443C23.25 40.5503 23.25 40.6507 23.25 40.744V44.363C23.25 44.4843 23.2523 44.6197 23.257 44.769C23.2663 44.9137 23.2733 45.0257 23.278 45.105H22.48C22.48 45.0257 22.4823 44.9277 22.487 44.811C22.4917 44.6897 22.494 44.566 22.494 44.44V40.877H19.225C19.0897 40.877 18.9427 40.8793 18.784 40.884C18.6253 40.8887 18.5017 40.8957 18.413 40.905V40.128ZM18.329 43.964C18.4317 43.9687 18.5553 43.9757 18.7 43.985C18.8447 43.9943 18.9917 43.999 19.141 43.999H22.907V44.727H19.169C19.029 44.727 18.8797 44.7293 18.721 44.734C18.5623 44.7387 18.4317 44.7457 18.329 44.755V43.964ZM25.518 39.785C25.644 39.869 25.7887 39.974 25.952 40.1C26.1153 40.2213 26.281 40.352 26.449 40.492C26.6217 40.632 26.785 40.7673 26.939 40.898C27.093 41.0287 27.2167 41.1453 27.31 41.248L26.757 41.815C26.6683 41.7217 26.5517 41.6097 26.407 41.479C26.2623 41.3437 26.106 41.206 25.938 41.066C25.7747 40.9213 25.6113 40.786 25.448 40.66C25.2847 40.5293 25.1377 40.4197 25.007 40.331L25.518 39.785ZM24.797 44.468C25.189 44.4073 25.5507 44.328 25.882 44.23C26.2133 44.1273 26.5167 44.013 26.792 43.887C27.072 43.7563 27.324 43.6233 27.548 43.488C27.9213 43.2593 28.2643 42.9957 28.577 42.697C28.8943 42.3983 29.172 42.0903 29.41 41.773C29.648 41.4557 29.837 41.1477 29.977 40.849L30.404 41.612C30.236 41.9153 30.0283 42.2187 29.781 42.522C29.5383 42.8253 29.263 43.117 28.955 43.397C28.647 43.6723 28.311 43.922 27.947 44.146C27.7137 44.2907 27.457 44.4307 27.177 44.566C26.9017 44.7013 26.603 44.8227 26.281 44.93C25.9637 45.0373 25.6253 45.1237 25.266 45.189L24.797 44.468Z" fill="#2FB3BC"/>
<path d="M30.1513 0H5.55752C2.49416 0 0 2.49416 0 5.55752V20.6648C0 23.7282 2.49416 26.2223 5.55752 26.2223H30.1513C33.2147 26.2223 35.7088 23.7282 35.7088 20.6648V5.55752C35.7088 2.49416 33.2147 0 30.1513 0ZM34.1238 20.6608C34.1238 22.8507 32.3411 24.6373 30.1474 24.6373H5.55752C3.36771 24.6373 1.58109 22.8546 1.58109 20.6608V5.55357C1.58109 3.36376 3.36376 1.57714 5.55752 1.57714H30.1513C32.3411 1.57714 34.1277 3.35981 34.1277 5.55357V20.6608H34.1238Z" fill="#2FB3BC"/>
<path d="M30.1279 7.6416H5.62109V9.22269H30.1279V7.6416Z" fill="#2FB3BC"/>
<path d="M30.1279 12.1191H5.62109V13.7002H30.1279V12.1191Z" fill="#2FB3BC"/>
<path d="M4.34766 21.3885H24.3326V16.3369H4.34766V21.3885ZM5.92874 17.918H22.7515V19.8074H5.92874V17.918Z" fill="#2FB3BC"/>
<path d="M27.4471 17.7871H25.4707V19.3682H27.4471V17.7871Z" fill="#2FB3BC"/>
<path d="M30.1267 17.7871H28.1504V19.3682H30.1267V17.7871Z" fill="#2FB3BC"/>
</svg>
