<svg width="38" height="47" viewBox="0 0 38 47" fill="none" xmlns="http://www.w3.org/2000/svg">
<path d="M4.984 41.765C4.984 41.8957 5.03067 42.01 5.124 42.108C5.222 42.2013 5.33633 42.248 5.467 42.248C5.60233 42.248 5.71667 42.2013 5.81 42.108C5.90333 42.01 5.95 41.8957 5.95 41.765C5.95 41.6297 5.90333 41.5153 5.81 41.422C5.71667 41.3287 5.60233 41.282 5.467 41.282C5.33633 41.282 5.222 41.3287 5.124 41.422C5.03067 41.5153 4.984 41.6297 4.984 41.765ZM4.599 41.765C4.599 41.6017 4.63633 41.4547 4.711 41.324C4.79033 41.1887 4.89533 41.0813 5.026 41.002C5.16133 40.9227 5.30833 40.883 5.467 40.883C5.63033 40.883 5.77733 40.9227 5.908 41.002C6.04333 41.0813 6.15067 41.1887 6.23 41.324C6.30933 41.4547 6.349 41.6017 6.349 41.765C6.349 41.9237 6.30933 42.0707 6.23 42.206C6.15067 42.3367 6.04333 42.4417 5.908 42.521C5.77733 42.5957 5.63033 42.633 5.467 42.633C5.30833 42.633 5.16133 42.5957 5.026 42.521C4.89533 42.4417 4.79033 42.3367 4.711 42.206C4.63633 42.0707 4.599 41.9237 4.599 41.765ZM0.315 44.089C0.413 44.0097 0.501667 43.9327 0.581 43.858C0.660333 43.7833 0.749 43.697 0.847 43.599C0.931 43.515 1.02667 43.41 1.134 43.284C1.24133 43.158 1.35567 43.0203 1.477 42.871C1.603 42.7217 1.729 42.57 1.855 42.416C1.981 42.262 2.1 42.1173 2.212 41.982C2.408 41.7533 2.604 41.6273 2.8 41.604C3.00067 41.576 3.227 41.6833 3.479 41.926C3.62833 42.0613 3.787 42.2153 3.955 42.388C4.123 42.5607 4.28867 42.7333 4.452 42.906C4.62 43.0787 4.77167 43.2373 4.907 43.382C5.06567 43.55 5.243 43.7413 5.439 43.956C5.63967 44.166 5.84267 44.383 6.048 44.607C6.258 44.8263 6.45167 45.034 6.629 45.23L6.02 45.874C5.86133 45.6733 5.691 45.4657 5.509 45.251C5.327 45.0363 5.14733 44.8263 4.97 44.621C4.79733 44.4157 4.63867 44.229 4.494 44.061C4.39133 43.9443 4.277 43.8183 4.151 43.683C4.02967 43.5477 3.906 43.4123 3.78 43.277C3.65867 43.1417 3.54433 43.018 3.437 42.906C3.32967 42.794 3.241 42.703 3.171 42.633C3.045 42.5117 2.94 42.4557 2.856 42.465C2.772 42.4697 2.674 42.542 2.562 42.682C2.48267 42.7753 2.39167 42.8873 2.289 43.018C2.191 43.1487 2.08833 43.2863 1.981 43.431C1.87367 43.571 1.76867 43.7087 1.666 43.844C1.56333 43.9747 1.47467 44.0867 1.4 44.18C1.32533 44.278 1.25067 44.3807 1.176 44.488C1.10133 44.5953 1.036 44.6887 0.98 44.768L0.315 44.089ZM9.1 41.912C9.13267 41.982 9.17467 42.087 9.226 42.227C9.27733 42.3623 9.331 42.5093 9.387 42.668C9.44767 42.822 9.50133 42.969 9.548 43.109C9.59933 43.249 9.63667 43.3563 9.66 43.431L9.002 43.669C8.98333 43.585 8.95067 43.4753 8.904 43.34C8.85733 43.2 8.806 43.0553 8.75 42.906C8.694 42.752 8.638 42.605 8.582 42.465C8.53067 42.325 8.484 42.213 8.442 42.129L9.1 41.912ZM11.655 42.36C11.6223 42.4487 11.5943 42.5257 11.571 42.591C11.5523 42.6563 11.536 42.717 11.522 42.773C11.4287 43.1463 11.3027 43.5127 11.144 43.872C10.99 44.2313 10.7893 44.5697 10.542 44.887C10.22 45.2977 9.85367 45.6453 9.443 45.93C9.037 46.21 8.63567 46.427 8.239 46.581L7.658 45.986C7.91933 45.9113 8.19 45.804 8.47 45.664C8.75 45.524 9.01833 45.356 9.275 45.16C9.53633 44.964 9.76267 44.747 9.954 44.509C10.1127 44.3083 10.2573 44.0797 10.388 43.823C10.5187 43.5617 10.626 43.2863 10.71 42.997C10.794 42.703 10.8523 42.409 10.885 42.115L11.655 42.36ZM7.469 42.276C7.511 42.3553 7.56 42.465 7.616 42.605C7.67667 42.7403 7.73733 42.8873 7.798 43.046C7.86333 43.2047 7.924 43.3563 7.98 43.501C8.036 43.6457 8.08033 43.767 8.113 43.865L7.448 44.11C7.42 44.0213 7.378 43.9023 7.322 43.753C7.266 43.599 7.20533 43.4403 7.14 43.277C7.07933 43.1137 7.01867 42.9643 6.958 42.829C6.902 42.689 6.853 42.584 6.811 42.514L7.469 42.276ZM13.587 45.356C13.587 45.2813 13.587 45.146 13.587 44.95C13.587 44.7493 13.587 44.5137 13.587 44.243C13.587 43.9677 13.587 43.683 13.587 43.389C13.587 43.0903 13.587 42.801 13.587 42.521C13.587 42.241 13.587 41.9937 13.587 41.779C13.587 41.5643 13.587 41.408 13.587 41.31C13.587 41.198 13.5823 41.0697 13.573 40.925C13.5637 40.7757 13.5473 40.6427 13.524 40.526H14.385C14.3757 40.638 14.364 40.7663 14.35 40.911C14.3407 41.0557 14.336 41.1887 14.336 41.31C14.336 41.4687 14.336 41.6693 14.336 41.912C14.336 42.15 14.336 42.409 14.336 42.689C14.336 42.969 14.336 43.2513 14.336 43.536C14.336 43.8207 14.336 44.089 14.336 44.341C14.336 44.5883 14.336 44.803 14.336 44.985C14.336 45.167 14.336 45.2907 14.336 45.356C14.336 45.4307 14.3383 45.5217 14.343 45.629C14.3477 45.7363 14.3547 45.846 14.364 45.958C14.3733 46.0653 14.3827 46.1633 14.392 46.252H13.531C13.5497 46.1307 13.5637 45.986 13.573 45.818C13.5823 45.6453 13.587 45.4913 13.587 45.356ZM14.175 42.353C14.4037 42.4183 14.6603 42.5 14.945 42.598C15.2297 42.6913 15.5167 42.794 15.806 42.906C16.0953 43.0133 16.3707 43.1207 16.632 43.228C16.8933 43.3353 17.115 43.4333 17.297 43.522L16.982 44.285C16.786 44.1777 16.5643 44.0703 16.317 43.963C16.0743 43.851 15.8247 43.7437 15.568 43.641C15.3113 43.5383 15.0617 43.445 14.819 43.361C14.581 43.277 14.3663 43.2047 14.175 43.144V42.353ZM20.552 42.15H23.142V42.759H20.552V42.15ZM20.559 43.83H23.149V44.432H20.559V43.83ZM20.559 45.51H23.142V46.119H20.559V45.51ZM20.237 40.484H23.457V46.504H22.792V41.114H20.874V46.539H20.237V40.484ZM17.29 41.569H19.95V42.199H17.29V41.569ZM18.368 40.092H19.005V46.581H18.368V40.092ZM18.34 41.975L18.753 42.122C18.6877 42.4067 18.6107 42.7007 18.522 43.004C18.4333 43.3027 18.3307 43.5967 18.214 43.886C18.102 44.1707 17.9807 44.439 17.85 44.691C17.724 44.9383 17.591 45.1507 17.451 45.328C17.4137 45.2347 17.3623 45.1297 17.297 45.013C17.2317 44.8963 17.1733 44.796 17.122 44.712C17.248 44.558 17.3717 44.376 17.493 44.166C17.619 43.9513 17.7357 43.7227 17.843 43.48C17.9503 43.2327 18.046 42.9807 18.13 42.724C18.2187 42.4673 18.2887 42.2177 18.34 41.975ZM18.956 42.682C19.0073 42.7287 19.082 42.8103 19.18 42.927C19.2827 43.039 19.39 43.1627 19.502 43.298C19.6187 43.4287 19.7237 43.5523 19.817 43.669C19.915 43.781 19.9827 43.8627 20.02 43.914L19.628 44.453C19.5813 44.3597 19.5137 44.2477 19.425 44.117C19.341 43.9817 19.25 43.8417 19.152 43.697C19.054 43.5523 18.9583 43.4193 18.865 43.298C18.7717 43.172 18.6947 43.0693 18.634 42.99L18.956 42.682ZM28.35 41.954L28.763 41.513C28.973 41.6343 29.1993 41.7697 29.442 41.919C29.6847 42.0683 29.9157 42.22 30.135 42.374C30.3543 42.5233 30.534 42.6587 30.674 42.78L30.24 43.277C30.1093 43.1557 29.9343 43.0157 29.715 42.857C29.5003 42.6983 29.2717 42.5397 29.029 42.381C28.791 42.2223 28.5647 42.08 28.35 41.954ZM28.77 43.025H29.106V44.061C29.106 44.145 29.1177 44.2523 29.141 44.383C29.169 44.509 29.2157 44.6467 29.281 44.796C29.351 44.9407 29.4467 45.09 29.568 45.244C29.694 45.3933 29.8527 45.538 30.044 45.678C30.24 45.8133 30.4757 45.9323 30.751 46.035C30.6903 46.1097 30.6203 46.2007 30.541 46.308C30.4663 46.42 30.4057 46.5157 30.359 46.595C30.1117 46.5017 29.8947 46.3827 29.708 46.238C29.5213 46.0933 29.3627 45.9417 29.232 45.783C29.106 45.6197 29.0033 45.4633 28.924 45.314C28.8493 45.1647 28.798 45.0363 28.77 44.929C28.7373 45.0363 28.679 45.1647 28.595 45.314C28.5157 45.4587 28.4037 45.6127 28.259 45.776C28.1143 45.9347 27.9393 46.084 27.734 46.224C27.5287 46.3687 27.286 46.4923 27.006 46.595C26.978 46.5437 26.943 46.4853 26.901 46.42C26.859 46.3547 26.8123 46.2893 26.761 46.224C26.7143 46.1587 26.67 46.105 26.628 46.063C26.9313 45.9557 27.188 45.832 27.398 45.692C27.608 45.552 27.7807 45.405 27.916 45.251C28.0513 45.097 28.1563 44.9477 28.231 44.803C28.3057 44.6537 28.357 44.516 28.385 44.39C28.4177 44.2593 28.434 44.1497 28.434 44.061V43.025H28.77ZM28.483 40.092H29.134C29.1153 40.512 29.078 40.8923 29.022 41.233C28.966 41.569 28.8703 41.87 28.735 42.136C28.6043 42.402 28.413 42.6353 28.161 42.836C27.9137 43.032 27.587 43.1977 27.181 43.333C27.1483 43.2583 27.0947 43.1673 27.02 43.06C26.95 42.9527 26.88 42.8687 26.81 42.808C27.174 42.7007 27.4633 42.5653 27.678 42.402C27.8927 42.2387 28.056 42.0473 28.168 41.828C28.28 41.6087 28.357 41.3567 28.399 41.072C28.441 40.7827 28.469 40.456 28.483 40.092ZM27.447 40.533L28 40.645C27.9673 40.8783 27.902 41.114 27.804 41.352C27.7107 41.5853 27.5847 41.779 27.426 41.933L26.908 41.695C27.048 41.569 27.1647 41.401 27.258 41.191C27.3513 40.9763 27.4143 40.757 27.447 40.533ZM27.377 43.564L27.958 43.676C27.9113 43.9467 27.832 44.2103 27.72 44.467C27.608 44.719 27.4587 44.9243 27.272 45.083L26.74 44.796C26.9033 44.6653 27.0387 44.488 27.146 44.264C27.2533 44.0353 27.3303 43.802 27.377 43.564ZM29.939 40.498L30.576 40.708C30.4593 40.9087 30.338 41.1117 30.212 41.317C30.0907 41.5177 29.981 41.6903 29.883 41.835L29.386 41.639C29.4513 41.5363 29.519 41.4197 29.589 41.289C29.659 41.1537 29.7243 41.016 29.785 40.876C29.8503 40.736 29.9017 40.61 29.939 40.498ZM30.002 43.508L30.646 43.725C30.5247 43.9397 30.3963 44.159 30.261 44.383C30.1303 44.6023 30.0067 44.7867 29.89 44.936L29.386 44.74C29.456 44.628 29.5283 44.502 29.603 44.362C29.6823 44.2173 29.7547 44.0703 29.82 43.921C29.89 43.7717 29.9507 43.634 30.002 43.508ZM24.521 42.22H26.6V42.731H24.521V42.22ZM24.542 40.323H26.572V40.841H24.542V40.323ZM24.521 43.165H26.6V43.676H24.521V43.165ZM24.192 41.254H26.831V41.786H24.192V41.254ZM24.808 44.124H26.607V46.203H24.808V45.671H26.033V44.656H24.808V44.124ZM24.507 44.124H25.074V46.504H24.507V44.124ZM36.071 40.764H36.764V45.699C36.764 45.9137 36.7337 46.0793 36.673 46.196C36.6123 46.3127 36.5073 46.399 36.358 46.455C36.204 46.5157 36.001 46.5507 35.749 46.56C35.497 46.574 35.196 46.581 34.846 46.581C34.832 46.511 34.8087 46.4317 34.776 46.343C34.748 46.259 34.7153 46.1727 34.678 46.084C34.6407 46 34.6033 45.9277 34.566 45.867C34.748 45.8763 34.9253 45.8833 35.098 45.888C35.2753 45.888 35.4317 45.888 35.567 45.888C35.707 45.888 35.805 45.888 35.861 45.888C35.9357 45.8833 35.9893 45.8693 36.022 45.846C36.0547 45.818 36.071 45.7667 36.071 45.692V40.764ZM32.004 42.164H32.648V45.377H32.004V42.164ZM32.277 42.164H34.923V44.824H32.277V44.194H34.265V42.794H32.277V42.164ZM31.311 40.575H37.604V41.24H31.311V40.575Z" fill="#2FB3BC"/>
<path d="M24.2182 8.25327C26.495 8.25327 28.3449 6.39945 28.3449 4.12664C28.3449 1.85382 26.491 0 24.2182 0C21.9454 0 20.0916 1.85382 20.0916 4.12664C20.0916 6.39945 21.9454 8.25327 24.2182 8.25327ZM24.2182 1.58109C25.6214 1.58109 26.7638 2.72342 26.7638 4.12664C26.7638 5.52985 25.6214 6.67219 24.2182 6.67219C22.815 6.67219 21.6727 5.52985 21.6727 4.12664C21.6727 2.72342 22.815 1.58109 24.2182 1.58109ZM13.9846 8.25327C16.2614 8.25327 18.1113 6.39945 18.1113 4.12664C18.1113 1.85382 16.2574 0 13.9846 0C11.7118 0 9.858 1.85382 9.858 4.12664C9.858 6.39945 11.7118 8.25327 13.9846 8.25327ZM13.9846 1.58109C15.3878 1.58109 16.5302 2.72342 16.5302 4.12664C16.5302 5.52985 15.3878 6.67219 13.9846 6.67219C12.5814 6.67219 11.4391 5.52985 11.4391 4.12664C11.4391 2.72342 12.5814 1.58109 13.9846 1.58109ZM32.0802 8.57739C29.8034 8.57739 27.9535 10.4312 27.9535 12.704C27.9535 14.9768 29.8074 16.8307 32.0802 16.8307C34.353 16.8307 36.2068 14.9768 36.2068 12.704C36.2068 10.4312 34.353 8.57739 32.0802 8.57739ZM32.0802 15.2535C30.677 15.2535 29.5346 14.1112 29.5346 12.708C29.5346 11.3048 30.677 10.1624 32.0802 10.1624C33.4834 10.1624 34.6257 11.3048 34.6257 12.708C34.6257 14.1112 33.4834 15.2535 32.0802 15.2535ZM10.2533 12.704C10.2533 10.4273 8.39944 8.57739 6.12663 8.57739C3.85382 8.57739 2 10.4312 2 12.704C2 14.9768 3.85382 16.8307 6.12663 16.8307C8.39944 16.8307 10.2533 14.9768 10.2533 12.704ZM6.12663 15.2535C4.72342 15.2535 3.58109 14.1112 3.58109 12.708C3.58109 11.3048 4.72342 10.1624 6.12663 10.1624C7.52985 10.1624 8.67218 11.3048 8.67218 12.708C8.67218 14.1112 7.52985 15.2535 6.12663 15.2535ZM26.0641 14.0796C21.9296 10.1624 15.455 10.1624 11.3205 14.0796C9.37972 15.9176 8.39549 18.1983 8.39549 20.8585C8.39549 23.1669 9.14256 25.0326 10.6209 26.4041C13.4866 29.0643 18.0955 28.8865 18.6923 28.8509C18.7911 28.8548 19.0006 28.8667 19.2971 28.8667C20.7754 28.8667 24.3763 28.6216 26.7677 26.4041C28.2421 25.0326 28.9931 23.1669 28.9931 20.8585C28.9931 18.1983 28.0089 15.9176 26.0681 14.0796H26.0641ZM25.6926 25.242C23.1984 27.5623 18.7911 27.2777 18.7477 27.2737H18.6884H18.6291C18.5856 27.2737 14.1744 27.5623 11.6842 25.242C10.5458 24.1827 9.96867 22.7084 9.96867 20.8585C9.96867 18.6529 10.7869 16.7556 12.3996 15.2259C15.8661 11.9412 21.5027 11.9412 24.9692 15.2259C26.5819 16.7556 27.4001 18.6489 27.4001 20.8585C27.4001 22.7084 26.8231 24.1827 25.6847 25.242H25.6926Z" fill="#2FB3BC"/>
</svg>
