<svg width="37" height="55" viewBox="0 0 37 55" fill="none" xmlns="http://www.w3.org/2000/svg">
<path d="M5.404 48.491C5.46467 48.5703 5.52767 48.6683 5.593 48.785C5.663 48.9017 5.73067 49.0183 5.796 49.135C5.86133 49.2517 5.91733 49.3567 5.964 49.45L5.509 49.646C5.439 49.506 5.35033 49.3427 5.243 49.156C5.14033 48.9693 5.04233 48.8107 4.949 48.68L5.404 48.491ZM6.195 48.19C6.25567 48.2787 6.321 48.3813 6.391 48.498C6.46567 48.6147 6.538 48.7313 6.608 48.848C6.678 48.96 6.734 49.058 6.776 49.142L6.321 49.345C6.24633 49.1957 6.15533 49.03 6.048 48.848C5.94533 48.666 5.845 48.5097 5.747 48.379L6.195 48.19ZM1.449 51.865C1.52367 51.6737 1.596 51.4707 1.666 51.256C1.74067 51.0413 1.80833 50.8197 1.869 50.591C1.92967 50.3577 1.981 50.1267 2.023 49.898C2.06967 49.6693 2.10467 49.45 2.128 49.24L2.919 49.401C2.905 49.4617 2.88867 49.5293 2.87 49.604C2.85133 49.674 2.83267 49.744 2.814 49.814C2.8 49.884 2.786 49.9447 2.772 49.996C2.74867 50.108 2.716 50.2527 2.674 50.43C2.63667 50.6027 2.59 50.7893 2.534 50.99C2.478 51.186 2.41733 51.3867 2.352 51.592C2.29133 51.7927 2.226 51.9793 2.156 52.152C2.072 52.3713 1.974 52.5977 1.862 52.831C1.75 53.0597 1.631 53.2837 1.505 53.503C1.379 53.7223 1.253 53.923 1.127 54.105L0.364 53.783C0.583333 53.4937 0.788667 53.1763 0.98 52.831C1.17133 52.481 1.32767 52.159 1.449 51.865ZM4.9 51.648C4.83 51.466 4.75067 51.2723 4.662 51.067C4.578 50.8617 4.48933 50.6563 4.396 50.451C4.30733 50.241 4.21867 50.045 4.13 49.863C4.04133 49.681 3.95967 49.5247 3.885 49.394L4.606 49.156C4.676 49.2867 4.75533 49.443 4.844 49.625C4.93733 49.807 5.03067 50.003 5.124 50.213C5.21733 50.4183 5.30833 50.6237 5.397 50.829C5.48567 51.0343 5.565 51.2257 5.635 51.403C5.70033 51.571 5.77033 51.76 5.845 51.97C5.92433 52.18 6.00133 52.397 6.076 52.621C6.15533 52.8403 6.22767 53.055 6.293 53.265C6.35833 53.4703 6.41433 53.657 6.461 53.825L5.663 54.084C5.60233 53.8273 5.53 53.559 5.446 53.279C5.362 52.999 5.27333 52.719 5.18 52.439C5.09133 52.159 4.998 51.8953 4.9 51.648ZM11.648 49.289C11.62 49.3217 11.585 49.3753 11.543 49.45C11.501 49.5247 11.4683 49.5923 11.445 49.653C11.347 49.877 11.2257 50.1267 11.081 50.402C10.941 50.6773 10.78 50.9527 10.598 51.228C10.4207 51.4987 10.234 51.746 10.038 51.97C9.78133 52.264 9.49667 52.551 9.184 52.831C8.876 53.111 8.54933 53.37 8.204 53.608C7.85867 53.8413 7.50167 54.0443 7.133 54.217L6.566 53.622C6.944 53.4727 7.308 53.2883 7.658 53.069C8.01267 52.8497 8.34167 52.6093 8.645 52.348C8.94833 52.0867 9.21433 51.8277 9.443 51.571C9.60167 51.3937 9.75567 51.1977 9.905 50.983C10.0543 50.7637 10.1873 50.5443 10.304 50.325C10.4207 50.1057 10.5047 49.905 10.556 49.723C10.514 49.723 10.4277 49.723 10.297 49.723C10.1663 49.723 10.01 49.723 9.828 49.723C9.65067 49.723 9.464 49.723 9.268 49.723C9.07667 49.723 8.89 49.723 8.708 49.723C8.53067 49.723 8.37667 49.723 8.246 49.723C8.11533 49.723 8.029 49.723 7.987 49.723C7.89833 49.723 7.80033 49.7277 7.693 49.737C7.59033 49.7417 7.49467 49.7487 7.406 49.758C7.322 49.7627 7.26133 49.765 7.224 49.765V48.974C7.27067 48.9787 7.34067 48.9857 7.434 48.995C7.52733 48.9997 7.62533 49.0067 7.728 49.016C7.83067 49.0207 7.917 49.023 7.987 49.023C8.03833 49.023 8.12933 49.023 8.26 49.023C8.39533 49.023 8.55167 49.023 8.729 49.023C8.911 49.023 9.1 49.023 9.296 49.023C9.492 49.023 9.67867 49.023 9.856 49.023C10.0333 49.023 10.1873 49.023 10.318 49.023C10.4487 49.023 10.5373 49.023 10.584 49.023C10.7147 49.023 10.8337 49.016 10.941 49.002C11.0483 48.988 11.1323 48.9717 11.193 48.953L11.648 49.289ZM10.129 51.508C10.3157 51.662 10.5117 51.8347 10.717 52.026C10.9223 52.2173 11.123 52.4157 11.319 52.621C11.515 52.8217 11.697 53.0153 11.865 53.202C12.0377 53.3887 12.1823 53.5543 12.299 53.699L11.683 54.245C11.5103 54.0117 11.312 53.7667 11.088 53.51C10.864 53.2533 10.626 52.9967 10.374 52.74C10.122 52.4787 9.87 52.236 9.618 52.012L10.129 51.508ZM14.175 53.356C14.175 53.2813 14.175 53.146 14.175 52.95C14.175 52.7493 14.175 52.5137 14.175 52.243C14.175 51.9677 14.175 51.683 14.175 51.389C14.175 51.0903 14.175 50.801 14.175 50.521C14.175 50.241 14.175 49.9937 14.175 49.779C14.175 49.5643 14.175 49.408 14.175 49.31C14.175 49.198 14.1703 49.0697 14.161 48.925C14.1517 48.7757 14.1353 48.6427 14.112 48.526H14.973C14.9637 48.638 14.952 48.7663 14.938 48.911C14.9287 49.0557 14.924 49.1887 14.924 49.31C14.924 49.4687 14.924 49.6693 14.924 49.912C14.924 50.15 14.924 50.409 14.924 50.689C14.924 50.969 14.924 51.2513 14.924 51.536C14.924 51.8207 14.924 52.089 14.924 52.341C14.924 52.5883 14.924 52.803 14.924 52.985C14.924 53.167 14.924 53.2907 14.924 53.356C14.924 53.4307 14.9263 53.5217 14.931 53.629C14.9357 53.7363 14.9427 53.846 14.952 53.958C14.9613 54.0653 14.9707 54.1633 14.98 54.252H14.119C14.1377 54.1307 14.1517 53.986 14.161 53.818C14.1703 53.6453 14.175 53.4913 14.175 53.356ZM14.763 50.353C14.9917 50.4183 15.2483 50.5 15.533 50.598C15.8177 50.6913 16.1047 50.794 16.394 50.906C16.6833 51.0133 16.9587 51.1207 17.22 51.228C17.4813 51.3353 17.703 51.4333 17.885 51.522L17.57 52.285C17.374 52.1777 17.1523 52.0703 16.905 51.963C16.6623 51.851 16.4127 51.7437 16.156 51.641C15.8993 51.5383 15.6497 51.445 15.407 51.361C15.169 51.277 14.9543 51.2047 14.763 51.144V50.353ZM18.361 51.389C18.977 51.2257 19.5417 51.032 20.055 50.808C20.573 50.5793 21.0257 50.3437 21.413 50.101C21.6603 49.9517 21.9007 49.7837 22.134 49.597C22.372 49.4103 22.596 49.2167 22.806 49.016C23.016 48.8153 23.2003 48.6217 23.359 48.435L23.947 48.995C23.7417 49.205 23.52 49.4127 23.282 49.618C23.044 49.8233 22.792 50.0217 22.526 50.213C22.2647 50.3997 21.9963 50.577 21.721 50.745C21.4643 50.9037 21.1727 51.0647 20.846 51.228C20.5193 51.3867 20.174 51.5407 19.81 51.69C19.446 51.8347 19.0773 51.9653 18.704 52.082L18.361 51.389ZM21.287 50.465L22.064 50.262V53.433C22.064 53.5263 22.064 53.629 22.064 53.741C22.0687 53.8483 22.0733 53.9487 22.078 54.042C22.0873 54.1353 22.099 54.2077 22.113 54.259H21.245C21.2497 54.2077 21.2567 54.1353 21.266 54.042C21.2753 53.9487 21.28 53.8483 21.28 53.741C21.2847 53.629 21.287 53.5263 21.287 53.433V50.465ZM25.242 53.755C25.2747 53.685 25.2957 53.622 25.305 53.566C25.3143 53.5053 25.319 53.4377 25.319 53.363C25.319 53.2837 25.319 53.1507 25.319 52.964C25.319 52.7727 25.319 52.551 25.319 52.299C25.319 52.0423 25.319 51.774 25.319 51.494C25.319 51.214 25.319 50.941 25.319 50.675C25.319 50.4043 25.319 50.1617 25.319 49.947C25.319 49.7323 25.319 49.5667 25.319 49.45C25.319 49.3753 25.3143 49.2937 25.305 49.205C25.3003 49.1117 25.2933 49.0253 25.284 48.946C25.2793 48.862 25.27 48.7943 25.256 48.743H26.124C26.11 48.8457 26.096 48.96 26.082 49.086C26.0727 49.212 26.068 49.331 26.068 49.443C26.068 49.5457 26.068 49.6833 26.068 49.856C26.068 50.0287 26.068 50.2223 26.068 50.437C26.068 50.6517 26.068 50.878 26.068 51.116C26.068 51.3493 26.068 51.5803 26.068 51.809C26.068 52.0377 26.068 52.2523 26.068 52.453C26.068 52.649 26.068 52.8193 26.068 52.964C26.068 53.1087 26.068 53.2113 26.068 53.272C26.3807 53.188 26.7073 53.0713 27.048 52.922C27.3933 52.7727 27.734 52.5953 28.07 52.39C28.406 52.18 28.721 51.9513 29.015 51.704C29.3137 51.4567 29.5727 51.1953 29.792 50.92L30.191 51.536C29.7243 52.1053 29.1387 52.6023 28.434 53.027C27.734 53.447 26.9593 53.7877 26.11 54.049C26.068 54.063 26.0143 54.0817 25.949 54.105C25.8883 54.1283 25.8253 54.1587 25.76 54.196L25.242 53.755ZM33.803 48.939H34.447V52.852H33.803V48.939ZM35.49 48.225H36.148V53.748C36.148 53.9627 36.1223 54.1213 36.071 54.224C36.0197 54.3313 35.931 54.413 35.805 54.469C35.6743 54.5203 35.4993 54.553 35.28 54.567C35.0653 54.5857 34.797 54.595 34.475 54.595C34.4657 54.5343 34.447 54.462 34.419 54.378C34.3957 54.2987 34.3677 54.217 34.335 54.133C34.307 54.049 34.2743 53.9767 34.237 53.916C34.4797 53.9253 34.7013 53.93 34.902 53.93C35.1027 53.93 35.238 53.93 35.308 53.93C35.3733 53.9253 35.42 53.9113 35.448 53.888C35.476 53.86 35.49 53.8133 35.49 53.748V48.225ZM31.262 51.452H32.893V52.033H31.262V51.452ZM32.613 51.452H33.222C33.222 51.452 33.222 51.4683 33.222 51.501C33.222 51.5337 33.222 51.571 33.222 51.613C33.222 51.6503 33.2197 51.683 33.215 51.711C33.1917 52.285 33.166 52.7517 33.138 53.111C33.11 53.4657 33.075 53.7363 33.033 53.923C32.9957 54.1097 32.9443 54.2427 32.879 54.322C32.8137 54.4013 32.7437 54.455 32.669 54.483C32.5943 54.5157 32.5033 54.539 32.396 54.553C32.3027 54.567 32.1767 54.574 32.018 54.574C31.864 54.574 31.703 54.5693 31.535 54.56C31.5303 54.4713 31.5117 54.371 31.479 54.259C31.451 54.1517 31.409 54.0583 31.353 53.979C31.5163 53.9977 31.668 54.007 31.808 54.007C31.948 54.0117 32.0483 54.014 32.109 54.014C32.165 54.014 32.2117 54.0093 32.249 54C32.2863 53.9907 32.319 53.9697 32.347 53.937C32.3937 53.8857 32.431 53.7783 32.459 53.615C32.4917 53.447 32.5197 53.1973 32.543 52.866C32.5663 52.5347 32.5897 52.0983 32.613 51.557V51.452ZM30.947 49.002V50.178H32.536V49.002H30.947ZM30.345 48.414H33.173V50.773H30.345V48.414ZM31.094 50.577H31.745C31.7263 50.9457 31.6937 51.319 31.647 51.697C31.605 52.075 31.535 52.4413 31.437 52.796C31.3437 53.1507 31.2107 53.482 31.038 53.79C30.87 54.098 30.6483 54.3687 30.373 54.602C30.3217 54.518 30.2517 54.4317 30.163 54.343C30.079 54.2543 29.9973 54.1843 29.918 54.133C30.1653 53.9277 30.3637 53.6897 30.513 53.419C30.667 53.1437 30.7813 52.8473 30.856 52.53C30.9353 52.2127 30.9913 51.8883 31.024 51.557C31.0567 51.221 31.08 50.8943 31.094 50.577Z" fill="#2FB3BC"/>
<path d="M29.8705 0H25.5225C23.4987 0 21.8544 1.64433 21.8544 3.66812V16.1627H7.67207C5.71153 16.1627 4.11463 17.7596 4.11463 19.7201V20.6846H4L4.11463 21.5265V22.2657H4.24112C4.71149 24.5661 6.7669 31.9261 14.1269 34.274V36.4282C14.1269 37.8947 15.3206 39.0845 16.7831 39.0845H30.8824C32.3489 39.0845 33.5386 37.8907 33.5386 36.4282V3.66812C33.5386 1.64433 31.8943 0 29.8705 0ZM5.69572 19.7201C5.69572 18.6292 6.58112 17.7437 7.67207 17.7437H21.8584V20.6846H5.69572V19.7201ZM31.9576 36.4322C31.9576 37.0251 31.4753 37.5073 30.8824 37.5073H16.7831C16.1902 37.5073 15.7079 37.0251 15.7079 36.4322V33.0842L15.1269 32.9261C8.55353 31.1316 6.43487 24.661 5.86963 22.2696H31.9615V36.4322H31.9576ZM23.4355 20.6846V3.66812C23.4355 2.51788 24.3723 1.58109 25.5225 1.58109H29.8705C31.0208 1.58109 31.9576 2.51788 31.9576 3.66812V20.6885H23.4355V20.6846Z" fill="#2FB3BC"/>
</svg>
