<svg width="38" height="54" viewBox="0 0 38 54" fill="none" xmlns="http://www.w3.org/2000/svg">
<path d="M4.416 48.38H7.664V48.996H4.416V48.38ZM4.584 50.424H7.531V51.026H4.584V50.424ZM5.711 48.611H6.355V53.119H5.711V48.611ZM4.934 47.519L5.333 47.057C5.51033 47.1363 5.697 47.232 5.893 47.344C6.089 47.4513 6.27567 47.5633 6.453 47.68C6.63033 47.7967 6.77267 47.9087 6.88 48.016L6.453 48.541C6.35033 48.4337 6.215 48.3193 6.047 48.198C5.879 48.072 5.697 47.9507 5.501 47.834C5.305 47.7127 5.116 47.6077 4.934 47.519ZM1.896 48.436H4.08V48.947H1.896V48.436ZM1.896 49.486H4.08V49.997H1.896V49.486ZM1.574 50.55H3.968V51.075H1.574V50.55ZM2.715 47.673H3.261V50.837H2.715V47.673ZM3.044 51.404L3.324 51.299C3.408 51.439 3.485 51.593 3.555 51.761C3.62967 51.929 3.68333 52.0737 3.716 52.195L3.408 52.314C3.38467 52.1927 3.338 52.0457 3.268 51.873C3.198 51.7003 3.12333 51.544 3.044 51.404ZM2.554 51.502L2.855 51.446C2.92033 51.6233 2.97867 51.817 3.03 52.027C3.08133 52.237 3.114 52.419 3.128 52.573L2.799 52.643C2.78967 52.489 2.76167 52.307 2.715 52.097C2.66833 51.8823 2.61467 51.684 2.554 51.502ZM2.043 51.565L2.358 51.53C2.39533 51.7353 2.421 51.957 2.435 52.195C2.45367 52.433 2.46067 52.6407 2.456 52.818L2.127 52.86C2.13633 52.6827 2.13167 52.475 2.113 52.237C2.099 51.999 2.07567 51.775 2.043 51.565ZM1.532 51.495L1.917 51.572C1.90767 51.782 1.889 51.992 1.861 52.202C1.83767 52.412 1.798 52.608 1.742 52.79C1.69067 52.9673 1.61833 53.1213 1.525 53.252L1.168 53.056C1.252 52.9347 1.31967 52.7923 1.371 52.629C1.42233 52.461 1.45967 52.2813 1.483 52.09C1.50633 51.894 1.52267 51.6957 1.532 51.495ZM1.574 47.365H4.213V47.911H2.141V50.9H1.574V47.365ZM3.737 50.55H4.297C4.297 50.55 4.29467 50.5803 4.29 50.641C4.29 50.7017 4.28767 50.753 4.283 50.795C4.25967 51.3643 4.23167 51.8263 4.199 52.181C4.171 52.531 4.136 52.797 4.094 52.979C4.05667 53.161 4.00767 53.2893 3.947 53.364C3.891 53.434 3.83033 53.483 3.765 53.511C3.70433 53.5437 3.632 53.5647 3.548 53.574C3.478 53.5833 3.38467 53.588 3.268 53.588C3.156 53.588 3.03467 53.5857 2.904 53.581C2.89933 53.5017 2.88533 53.4107 2.862 53.308C2.83867 53.21 2.806 53.126 2.764 53.056C2.876 53.0653 2.97633 53.07 3.065 53.07C3.15833 53.0747 3.22833 53.077 3.275 53.077C3.317 53.077 3.352 53.0723 3.38 53.063C3.41267 53.0537 3.443 53.0327 3.471 53C3.50833 52.9487 3.54333 52.8437 3.576 52.685C3.60867 52.5217 3.63667 52.2767 3.66 51.95C3.688 51.6233 3.71367 51.1893 3.737 50.648V50.55ZM4.213 52.734H7.797V53.35H4.213V52.734ZM8.539 47.701H14.454V48.303H8.539V47.701ZM8.343 51.999H14.685V52.608H8.343V51.999ZM11.136 47.092H11.822V53.602H11.136V47.092ZM9.701 50.382V50.977H13.278V50.382H9.701ZM9.701 49.283V49.871H13.278V49.283H9.701ZM9.064 48.744H13.943V51.516H9.064V48.744ZM17.338 49.941H21.755V50.508H17.338V49.941ZM18.115 50.928H21.09V51.46H18.115V50.928ZM18.423 50.151L18.997 50.298C18.8197 50.6947 18.5817 51.0587 18.283 51.39C17.989 51.7213 17.6763 51.9967 17.345 52.216C17.317 52.1787 17.275 52.1343 17.219 52.083C17.163 52.0317 17.107 51.9803 17.051 51.929C16.995 51.8777 16.9437 51.838 16.897 51.81C17.2237 51.6233 17.5223 51.3853 17.793 51.096C18.0637 50.8067 18.2737 50.4917 18.423 50.151ZM20.978 50.928H21.594C21.594 50.928 21.5917 50.9607 21.587 51.026C21.587 51.0867 21.5847 51.138 21.58 51.18C21.5473 51.6467 21.51 52.0293 21.468 52.328C21.4307 52.622 21.3887 52.8483 21.342 53.007C21.2953 53.1703 21.2393 53.287 21.174 53.357C21.1087 53.427 21.041 53.476 20.971 53.504C20.9057 53.532 20.8287 53.5507 20.74 53.56C20.6607 53.5647 20.558 53.567 20.432 53.567C20.3107 53.5717 20.18 53.5717 20.04 53.567C20.0353 53.483 20.019 53.3897 19.991 53.287C19.9677 53.1843 19.9327 53.1003 19.886 53.035C20.0073 53.0443 20.117 53.049 20.215 53.049C20.3177 53.0537 20.3947 53.056 20.446 53.056C20.4927 53.056 20.5323 53.0513 20.565 53.042C20.5977 53.0327 20.6257 53.0117 20.649 52.979C20.6957 52.9323 20.7377 52.8413 20.775 52.706C20.8123 52.566 20.8473 52.3607 20.88 52.09C20.9173 51.8193 20.95 51.4647 20.978 51.026V50.928ZM18.584 48.667V49.129H20.649V48.667H18.584ZM18.584 47.757V48.219H20.649V47.757H18.584ZM17.989 47.288H21.258V49.605H17.989V47.288ZM15.343 48.59H17.45V49.22H15.343V48.59ZM16.113 47.162H16.736V51.488H16.113V47.162ZM15.203 51.705C15.3803 51.635 15.588 51.551 15.826 51.453C16.064 51.3503 16.316 51.2407 16.582 51.124C16.848 51.0027 17.114 50.8837 17.38 50.767L17.527 51.341C17.1723 51.5183 16.813 51.698 16.449 51.88C16.085 52.062 15.7537 52.2253 15.455 52.37L15.203 51.705ZM20.124 51.04L20.579 51.285C20.4903 51.5743 20.369 51.8683 20.215 52.167C20.0657 52.461 19.8953 52.7363 19.704 52.993C19.5127 53.245 19.3097 53.4527 19.095 53.616C19.039 53.5553 18.9667 53.49 18.878 53.42C18.7893 53.35 18.703 53.2917 18.619 53.245C18.8383 53.1003 19.046 52.909 19.242 52.671C19.4427 52.433 19.6177 52.1717 19.767 51.887C19.921 51.6023 20.04 51.32 20.124 51.04ZM19.046 51.047L19.487 51.306C19.3657 51.558 19.2093 51.81 19.018 52.062C18.8313 52.314 18.6237 52.5497 18.395 52.769C18.171 52.9837 17.947 53.1633 17.723 53.308C17.6717 53.2427 17.604 53.1727 17.52 53.098C17.4407 53.0233 17.3613 52.9603 17.282 52.909C17.5153 52.7877 17.744 52.6267 17.968 52.426C18.1967 52.2253 18.4043 52.006 18.591 51.768C18.7777 51.5253 18.9293 51.285 19.046 51.047ZM25.374 47.421C25.36 47.4723 25.3437 47.5283 25.325 47.589C25.311 47.6497 25.2993 47.7057 25.29 47.757C25.248 47.9623 25.2083 48.2097 25.171 48.499C25.1337 48.7837 25.1033 49.087 25.08 49.409C25.0567 49.731 25.045 50.046 25.045 50.354C25.045 50.6853 25.0637 50.998 25.101 51.292C25.143 51.586 25.1967 51.8613 25.262 52.118C25.3273 52.3747 25.3973 52.6173 25.472 52.846L24.835 53.035C24.765 52.825 24.6973 52.58 24.632 52.3C24.5713 52.0153 24.5223 51.7143 24.485 51.397C24.4477 51.0797 24.429 50.7623 24.429 50.445C24.429 50.2117 24.436 49.9713 24.45 49.724C24.464 49.4767 24.4803 49.2363 24.499 49.003C24.5223 48.765 24.5457 48.541 24.569 48.331C24.597 48.121 24.618 47.9343 24.632 47.771C24.6413 47.7103 24.646 47.645 24.646 47.575C24.6507 47.505 24.653 47.4467 24.653 47.4L25.374 47.421ZM24.198 48.24C24.6227 48.24 25.0333 48.2307 25.43 48.212C25.8267 48.1887 26.207 48.1537 26.571 48.107C26.9397 48.0603 27.292 47.9973 27.628 47.918L27.635 48.569C27.3877 48.611 27.1193 48.6507 26.83 48.688C26.5407 48.7207 26.242 48.7487 25.934 48.772C25.626 48.7953 25.3203 48.814 25.017 48.828C24.7183 48.842 24.4383 48.849 24.177 48.849C24.0697 48.849 23.9437 48.8467 23.799 48.842C23.6543 48.8327 23.5097 48.8257 23.365 48.821C23.225 48.8117 23.1037 48.8047 23.001 48.8L22.98 48.149C23.064 48.163 23.1783 48.177 23.323 48.191C23.4723 48.205 23.6263 48.2167 23.785 48.226C23.9437 48.2353 24.0813 48.24 24.198 48.24ZM27.159 49.15C27.145 49.1873 27.1263 49.2363 27.103 49.297C27.0843 49.3577 27.0633 49.4183 27.04 49.479C27.0213 49.5397 27.0027 49.591 26.984 49.633C26.8487 50.0623 26.683 50.4543 26.487 50.809C26.2957 51.159 26.0857 51.4693 25.857 51.74C25.633 52.006 25.402 52.2277 25.164 52.405C24.94 52.5777 24.688 52.7247 24.408 52.846C24.1327 52.9673 23.8597 53.028 23.589 53.028C23.4303 53.028 23.2833 52.9953 23.148 52.93C23.0127 52.8647 22.9053 52.762 22.826 52.622C22.7467 52.482 22.707 52.3047 22.707 52.09C22.707 51.8473 22.7583 51.607 22.861 51.369C22.9637 51.131 23.1037 50.9047 23.281 50.69C23.463 50.4753 23.673 50.284 23.911 50.116C24.149 49.948 24.401 49.8127 24.667 49.71C24.9003 49.626 25.15 49.5583 25.416 49.507C25.6867 49.4557 25.9433 49.43 26.186 49.43C26.6293 49.43 27.0143 49.5093 27.341 49.668C27.6723 49.822 27.929 50.0343 28.111 50.305C28.2977 50.5757 28.391 50.8813 28.391 51.222C28.391 51.474 28.349 51.7167 28.265 51.95C28.1857 52.1787 28.055 52.391 27.873 52.587C27.691 52.7783 27.453 52.944 27.159 53.084C26.8697 53.224 26.5173 53.3267 26.102 53.392L25.724 52.811C26.158 52.7643 26.522 52.664 26.816 52.51C27.11 52.356 27.3317 52.1647 27.481 51.936C27.635 51.7073 27.712 51.46 27.712 51.194C27.712 50.9747 27.6513 50.7763 27.53 50.599C27.4133 50.417 27.2383 50.27 27.005 50.158C26.7763 50.046 26.494 49.99 26.158 49.99C25.8547 49.99 25.577 50.0273 25.325 50.102C25.0777 50.172 24.8677 50.2467 24.695 50.326C24.443 50.438 24.2167 50.5873 24.016 50.774C23.8153 50.956 23.6567 51.152 23.54 51.362C23.4233 51.572 23.365 51.7727 23.365 51.964C23.365 52.0947 23.3953 52.1927 23.456 52.258C23.5213 52.3233 23.6147 52.356 23.736 52.356C23.904 52.356 24.0977 52.3047 24.317 52.202C24.5363 52.0993 24.7557 51.9477 24.975 51.747C25.2643 51.4903 25.5327 51.18 25.78 50.816C26.032 50.452 26.2327 50.004 26.382 49.472C26.396 49.43 26.4077 49.381 26.417 49.325C26.431 49.2643 26.4427 49.2037 26.452 49.143C26.4613 49.0777 26.4683 49.024 26.473 48.982L27.159 49.15ZM31.436 47.435C31.408 47.5423 31.3777 47.673 31.345 47.827C31.3123 47.9763 31.282 48.1327 31.254 48.296C31.226 48.4593 31.2003 48.618 31.177 48.772C31.1583 48.9213 31.1443 49.052 31.135 49.164C31.2143 49.0053 31.3123 48.8443 31.429 48.681C31.5503 48.5177 31.6903 48.3683 31.849 48.233C32.0077 48.0977 32.1803 47.988 32.367 47.904C32.5537 47.82 32.752 47.778 32.962 47.778C33.2793 47.778 33.5617 47.8783 33.809 48.079C34.061 48.275 34.2593 48.555 34.404 48.919C34.5487 49.283 34.621 49.717 34.621 50.221C34.621 50.7063 34.5487 51.131 34.404 51.495C34.2593 51.859 34.054 52.167 33.788 52.419C33.522 52.671 33.2047 52.8763 32.836 53.035C32.4673 53.1983 32.0613 53.3197 31.618 53.399L31.198 52.762C31.5807 52.7013 31.9353 52.6173 32.262 52.51C32.5887 52.398 32.8733 52.2463 33.116 52.055C33.3587 51.8637 33.5453 51.6187 33.676 51.32C33.8113 51.0213 33.879 50.655 33.879 50.221C33.879 49.857 33.8393 49.5397 33.76 49.269C33.6807 48.9983 33.564 48.7883 33.41 48.639C33.256 48.4897 33.067 48.415 32.843 48.415C32.6283 48.415 32.423 48.485 32.227 48.625C32.031 48.765 31.8537 48.9447 31.695 49.164C31.541 49.3833 31.415 49.619 31.317 49.871C31.2237 50.123 31.1677 50.3657 31.149 50.599C31.1397 50.7157 31.135 50.837 31.135 50.963C31.1397 51.089 31.1537 51.236 31.177 51.404L30.491 51.453C30.477 51.3223 30.4607 51.159 30.442 50.963C30.4233 50.7623 30.414 50.5477 30.414 50.319C30.414 50.151 30.421 49.9713 30.435 49.78C30.449 49.584 30.4653 49.3857 30.484 49.185C30.5027 48.9797 30.5237 48.7813 30.547 48.59C30.575 48.3987 30.5983 48.2237 30.617 48.065C30.6357 47.9437 30.6473 47.827 30.652 47.715C30.6613 47.603 30.6683 47.498 30.673 47.4L31.436 47.435Z" fill="#2FB3BC"/>
<path d="M18.9414 0C8.49835 0 0 8.49834 0 18.9414C0 29.3845 8.49835 37.8828 18.9414 37.8828C29.3845 37.8828 37.8828 29.3845 37.8828 18.9414C37.8828 8.49834 29.3845 0 18.9414 0ZM18.9414 36.3017C9.36794 36.3017 1.58109 28.5149 1.58109 18.9414C1.58109 9.36794 9.36794 1.58109 18.9414 1.58109C28.5149 1.58109 36.3018 9.36794 36.3018 18.9414C36.3018 28.5149 28.5149 36.3017 18.9414 36.3017Z" fill="#2FB3BC"/>
<path d="M20.8817 9.68359H14.1621V28.5262H15.7432V20.8856H20.8817C23.9688 20.8856 26.4827 18.3717 26.4827 15.2846C26.4827 12.1975 23.9728 9.68359 20.8817 9.68359ZM20.8817 19.3045H15.7432V11.2686H20.8817C23.0992 11.2686 24.9016 13.0711 24.9016 15.2885C24.9016 17.506 23.0992 19.3085 20.8817 19.3085V19.3045Z" fill="#2FB3BC"/>
</svg>
