<svg width="233" height="147" viewBox="0 0 233 147" fill="none" xmlns="http://www.w3.org/2000/svg">
<path d="M58.0776 55.6553V1.77246H36.9263L0 53.2329V71.3711H39.9395V86.4961H58.0776V71.3711H67.7671V55.6553H58.0776ZM39.9395 55.6553H16.9565L39.9395 22.9829V55.6553ZM95.0039 44.1343C95.0039 35.272 96.796 28.4185 100.38 23.5737C103.965 18.729 108.219 16.3066 113.142 16.3066C118.066 16.3066 122.319 18.729 125.904 23.5737C129.488 28.4185 131.28 35.272 131.28 44.1343C131.28 52.9966 129.488 59.8501 125.904 64.6948C122.319 69.5396 118.066 71.9619 113.142 71.9619C108.219 71.9619 103.965 69.5396 100.38 64.6948C96.796 59.8501 95.0039 52.9966 95.0039 44.1343ZM149.418 44.1343C149.418 30.8999 145.893 20.2356 138.843 12.1414C131.792 4.04712 123.225 0 113.142 0C103.059 0 94.4918 4.04712 87.4414 12.1414C80.391 20.2356 76.8657 30.8999 76.8657 44.1343C76.8657 57.3687 80.391 68.0428 87.4414 76.1567C94.4918 84.2707 103.059 88.3276 113.142 88.3276C123.225 88.3276 131.792 84.2707 138.843 76.1567C145.893 68.0428 149.418 57.3687 149.418 44.1343ZM217.776 55.6553V1.77246H196.625L159.699 53.2329V71.3711H199.638V86.4961H217.776V71.3711H227.466V55.6553H217.776ZM199.638 55.6553H176.655L199.638 22.9829V55.6553Z" fill="#E4E4E4"/>
<path d="M112.864 102.792H116.012V117.496H113.284L106.045 108.155V117.496H102.887V102.792H105.625L112.864 112.144V102.792ZM122.205 110.154C122.205 111.508 122.656 112.656 123.579 113.579C124.492 114.512 125.609 114.974 126.922 114.974C128.234 114.974 129.352 114.512 130.265 113.579C131.188 112.656 131.639 111.508 131.639 110.154C131.639 108.801 131.188 107.652 130.265 106.719C129.352 105.786 128.234 105.314 126.922 105.314C125.609 105.314 124.492 105.786 123.579 106.719C122.656 107.652 122.205 108.801 122.205 110.154ZM118.944 110.144C118.944 108.032 119.713 106.227 121.251 104.73C122.79 103.233 124.687 102.484 126.922 102.484C129.157 102.484 131.054 103.233 132.592 104.73C134.13 106.227 134.899 108.032 134.899 110.144C134.899 112.256 134.13 114.071 132.592 115.568C131.054 117.065 129.157 117.814 126.922 117.814C124.687 117.814 122.79 117.065 121.251 115.568C119.713 114.071 118.944 112.256 118.944 110.144ZM135.545 102.792H147.091V105.632H142.897V117.496H139.75V105.632H135.545V102.792ZM153.705 102.792H164.523V105.632H156.863V108.883H162.841V111.723H156.863V117.496H153.705V102.792ZM169.229 110.154C169.229 111.508 169.681 112.656 170.604 113.579C171.516 114.512 172.634 114.974 173.946 114.974C175.259 114.974 176.376 114.512 177.289 113.579C178.212 112.656 178.663 111.508 178.663 110.154C178.663 108.801 178.212 107.652 177.289 106.719C176.376 105.786 175.259 105.314 173.946 105.314C172.634 105.314 171.516 105.786 170.604 106.719C169.681 107.652 169.229 108.801 169.229 110.154ZM165.969 110.144C165.969 108.032 166.738 106.227 168.276 104.73C169.814 103.233 171.711 102.484 173.946 102.484C176.182 102.484 178.079 103.233 179.617 104.73C181.155 106.227 181.924 108.032 181.924 110.144C181.924 112.256 181.155 114.071 179.617 115.568C178.079 117.065 176.182 117.814 173.946 117.814C171.711 117.814 169.814 117.065 168.276 115.568C166.738 114.071 165.969 112.256 165.969 110.144ZM191.183 114.974C192.075 114.974 192.844 114.646 193.48 113.979C194.116 113.323 194.434 112.492 194.434 111.508V102.792H197.582V111.508C197.582 113.302 196.966 114.799 195.756 116.009C194.536 117.219 193.008 117.824 191.173 117.824C189.337 117.824 187.81 117.219 186.6 116.009C185.379 114.799 184.774 113.302 184.774 111.508V102.792H187.922V111.508C187.922 112.492 188.24 113.312 188.876 113.979C189.512 114.646 190.281 114.974 191.183 114.974ZM211.24 102.792H214.388V117.496H211.66L204.421 108.155V117.496H201.263V102.792H204L211.24 112.144V102.792ZM218.161 102.792H223.626C225.759 102.792 227.554 103.51 229.01 104.925C230.456 106.35 231.184 108.093 231.184 110.144C231.184 112.205 230.456 113.948 229.01 115.363C227.554 116.789 225.759 117.496 223.626 117.496H218.161V102.792ZM223.626 105.632H221.319V114.666H223.626C224.836 114.666 225.882 114.235 226.744 113.354C227.605 112.482 228.036 111.416 228.036 110.154C228.036 108.893 227.615 107.827 226.774 106.945C225.934 106.073 224.877 105.632 223.626 105.632Z" fill="#E4E4E4"/>
</svg>
