<svg width="173" height="46" viewBox="0 0 173 46" fill="none" xmlns="http://www.w3.org/2000/svg">
<path d="M4 1H169C170.657 1 172 2.34315 172 4V42C172 43.6569 170.657 45 169 45H4C2.34315 45 1 43.6568 1 42V4C1 2.34315 2.34315 1 4 1Z" stroke="#2FB3BC" stroke-width="2"/>
<g style="mix-blend-mode:multiply">
<path d="M0 4C0 1.79086 1.79086 0 4 0H41V46H4C1.79086 46 0 44.2091 0 42V4Z" fill="#D4EFF1"/>
</g>
<path d="M13.35 18.5L14.53 18.85C14.35 19.2167 14.1367 19.5767 13.89 19.93C13.6433 20.2833 13.3767 20.61 13.09 20.91C12.81 21.21 12.53 21.4733 12.25 21.7C12.1833 21.62 12.09 21.53 11.97 21.43C11.85 21.33 11.7267 21.2333 11.6 21.14C11.4733 21.0467 11.3633 20.97 11.27 20.91C11.6967 20.63 12.0967 20.2767 12.47 19.85C12.8433 19.4233 13.1367 18.9733 13.35 18.5ZM13.27 19.56H20.16V20.61H12.98L13.27 19.56ZM11.49 21.89H20.53V22.96H11.49V21.89ZM11.65 24.23H20.38V25.3H11.65V24.23ZM14.62 19.93H15.62V24.79H14.62V19.93ZM12.84 19.93H13.91V24.8H12.84V19.93ZM16.36 19.93H17.36V24.8H16.36V19.93ZM18.12 19.93H19.22V24.8H18.12V19.93ZM14.32 25.86L15.43 25.74C15.4967 26.04 15.5533 26.3667 15.6 26.72C15.6533 27.0733 15.6833 27.3733 15.69 27.62L14.51 27.79C14.51 27.63 14.5 27.44 14.48 27.22C14.4667 27 14.4467 26.77 14.42 26.53C14.3933 26.29 14.36 26.0667 14.32 25.86ZM16.31 25.89L17.43 25.7C17.5167 25.8933 17.6 26.1033 17.68 26.33C17.76 26.5567 17.83 26.7767 17.89 26.99C17.95 27.2033 17.9933 27.3967 18.02 27.57L16.82 27.8C16.7867 27.5533 16.72 27.25 16.62 26.89C16.5267 26.53 16.4233 26.1967 16.31 25.89ZM18.29 25.83L19.44 25.47C19.6 25.6767 19.76 25.9 19.92 26.14C20.08 26.38 20.2333 26.62 20.38 26.86C20.5267 27.0933 20.64 27.3033 20.72 27.49L19.49 27.9C19.4167 27.72 19.3133 27.51 19.18 27.27C19.0533 27.03 18.91 26.7867 18.75 26.54C18.5967 26.2867 18.4433 26.05 18.29 25.83ZM12.52 25.51L13.68 25.8C13.5667 26.18 13.41 26.56 13.21 26.94C13.01 27.32 12.7867 27.6433 12.54 27.91L11.39 27.44C11.6167 27.2267 11.8333 26.9433 12.04 26.59C12.2467 26.2367 12.4067 25.8767 12.52 25.51ZM22.9 18.55H24V27.87H22.9V18.55ZM21.38 21.84H25.48V22.96H21.38V21.84ZM22.68 22.43L23.35 22.76C23.2633 23.0933 23.1633 23.4467 23.05 23.82C22.9367 24.1867 22.81 24.5533 22.67 24.92C22.53 25.2867 22.3833 25.6333 22.23 25.96C22.0767 26.28 21.9133 26.56 21.74 26.8C21.7067 26.6733 21.6567 26.5367 21.59 26.39C21.53 26.2367 21.4633 26.0867 21.39 25.94C21.3233 25.7933 21.26 25.6667 21.2 25.56C21.4 25.3133 21.5933 25.01 21.78 24.65C21.9733 24.2833 22.15 23.9067 22.31 23.52C22.47 23.1267 22.5933 22.7633 22.68 22.43ZM23.99 23.01C24.0433 23.0633 24.12 23.1467 24.22 23.26C24.3267 23.3733 24.4433 23.5033 24.57 23.65C24.6967 23.79 24.8167 23.9333 24.93 24.08C25.05 24.22 25.1567 24.3467 25.25 24.46C25.35 24.5733 25.42 24.66 25.46 24.72L24.73 25.66C24.6633 25.5133 24.5767 25.3433 24.47 25.15C24.3633 24.95 24.2467 24.7467 24.12 24.54C23.9933 24.3267 23.87 24.1267 23.75 23.94C23.63 23.7533 23.5267 23.6 23.44 23.48L23.99 23.01ZM21.37 19.32L22.21 19.1C22.2967 19.34 22.3733 19.6 22.44 19.88C22.5133 20.16 22.5733 20.4333 22.62 20.7C22.6667 20.9667 22.7 21.2067 22.72 21.42L21.82 21.66C21.8133 21.4467 21.7867 21.2067 21.74 20.94C21.7 20.6667 21.6467 20.39 21.58 20.11C21.52 19.8233 21.45 19.56 21.37 19.32ZM24.66 19.05L25.67 19.27C25.59 19.5433 25.5033 19.8233 25.41 20.11C25.3167 20.3967 25.2233 20.6733 25.13 20.94C25.0367 21.2 24.95 21.43 24.87 21.63L24.11 21.41C24.1833 21.1967 24.2533 20.9533 24.32 20.68C24.3933 20.4 24.46 20.1167 24.52 19.83C24.58 19.5433 24.6267 19.2833 24.66 19.05ZM28.45 18.5H29.57V27.89H28.45V18.5ZM25.46 24.76L30.6 23.84L30.78 24.95L25.64 25.88L25.46 24.76ZM26.02 19.86L26.61 19.05C26.7967 19.1567 26.99 19.28 27.19 19.42C27.3967 19.56 27.59 19.7033 27.77 19.85C27.9567 19.9967 28.1033 20.1333 28.21 20.26L27.59 21.16C27.49 21.0267 27.35 20.8833 27.17 20.73C26.9967 20.5767 26.81 20.4233 26.61 20.27C26.41 20.1167 26.2133 19.98 26.02 19.86ZM25.57 22.38L26.13 21.52C26.33 21.62 26.5367 21.74 26.75 21.88C26.9633 22.0133 27.1667 22.15 27.36 22.29C27.5533 22.4233 27.71 22.5533 27.83 22.68L27.22 23.64C27.1133 23.5133 26.9667 23.3767 26.78 23.23C26.5933 23.0767 26.3933 22.9267 26.18 22.78C25.9733 22.6267 25.77 22.4933 25.57 22.38Z" fill="#333333"/>
<path d="M87.792 10.652H98.22V11.972H87.792V10.652ZM93.612 14.528L94.608 13.688C94.936 13.928 95.288 14.184 95.664 14.456C96.04 14.728 96.412 15.012 96.78 15.308C97.156 15.604 97.504 15.892 97.824 16.172C98.152 16.452 98.424 16.708 98.64 16.94L97.56 17.936C97.36 17.696 97.104 17.432 96.792 17.144C96.48 16.856 96.144 16.56 95.784 16.256C95.424 15.944 95.056 15.64 94.68 15.344C94.312 15.048 93.956 14.776 93.612 14.528ZM93.204 11.132L94.632 11.636C94.176 12.476 93.632 13.296 93 14.096C92.368 14.888 91.66 15.62 90.876 16.292C90.092 16.964 89.24 17.54 88.32 18.02C88.256 17.9 88.168 17.772 88.056 17.636C87.952 17.492 87.844 17.352 87.732 17.216C87.628 17.072 87.528 16.952 87.432 16.856C88.08 16.552 88.696 16.184 89.28 15.752C89.864 15.32 90.404 14.852 90.9 14.348C91.396 13.836 91.84 13.308 92.232 12.764C92.624 12.22 92.948 11.676 93.204 11.132ZM92.292 13.892L93.708 12.488V12.5V21.02H92.292V13.892ZM99.732 17.624H105.3V18.548H99.732V17.624ZM99.456 11.888H105.444V12.836H99.456V11.888ZM101.892 10.976H103.068V19.64H101.892V10.976ZM99.408 19.544C99.904 19.504 100.472 19.46 101.112 19.412C101.76 19.364 102.444 19.308 103.164 19.244C103.892 19.18 104.612 19.116 105.324 19.052L105.336 20.036C104.656 20.108 103.968 20.18 103.272 20.252C102.584 20.332 101.92 20.4 101.28 20.456C100.648 20.52 100.076 20.58 99.564 20.636L99.408 19.544ZM100.812 15.62V16.256H104.184V15.62H100.812ZM100.812 14.204V14.84H104.184V14.204H100.812ZM99.78 13.388H105.252V17.084H99.78V13.388ZM104.712 9.92L105.288 10.88C104.792 10.984 104.232 11.076 103.608 11.156C102.984 11.228 102.34 11.288 101.676 11.336C101.02 11.384 100.392 11.416 99.792 11.432C99.776 11.296 99.74 11.14 99.684 10.964C99.628 10.788 99.568 10.636 99.504 10.508C99.952 10.484 100.412 10.452 100.884 10.412C101.364 10.372 101.832 10.328 102.288 10.28C102.752 10.232 103.188 10.18 103.596 10.124C104.012 10.06 104.384 9.992 104.712 9.92ZM105.42 12.584H109.632V13.76H105.42V12.584ZM109.116 12.584H110.34C110.34 12.584 110.34 12.624 110.34 12.704C110.34 12.776 110.34 12.856 110.34 12.944C110.34 13.032 110.34 13.104 110.34 13.16C110.308 14.408 110.276 15.464 110.244 16.328C110.212 17.192 110.176 17.9 110.136 18.452C110.096 19.004 110.04 19.436 109.968 19.748C109.904 20.052 109.824 20.272 109.728 20.408C109.6 20.592 109.464 20.724 109.32 20.804C109.176 20.884 109.008 20.94 108.816 20.972C108.64 21.004 108.42 21.02 108.156 21.02C107.892 21.02 107.616 21.016 107.328 21.008C107.312 20.832 107.272 20.624 107.208 20.384C107.144 20.152 107.06 19.952 106.956 19.784C107.228 19.808 107.472 19.824 107.688 19.832C107.912 19.832 108.084 19.832 108.204 19.832C108.3 19.832 108.38 19.82 108.444 19.796C108.508 19.764 108.568 19.708 108.624 19.628C108.688 19.54 108.744 19.356 108.792 19.076C108.848 18.796 108.892 18.396 108.924 17.876C108.964 17.348 109 16.676 109.032 15.86C109.064 15.036 109.092 14.036 109.116 12.86V12.584ZM106.656 10.028H107.892C107.892 11.028 107.88 11.984 107.856 12.896C107.84 13.808 107.788 14.668 107.7 15.476C107.612 16.284 107.468 17.036 107.268 17.732C107.076 18.42 106.8 19.048 106.44 19.616C106.088 20.184 105.632 20.688 105.072 21.128C105.008 21.024 104.924 20.908 104.82 20.78C104.716 20.66 104.604 20.544 104.484 20.432C104.372 20.328 104.264 20.24 104.16 20.168C104.68 19.776 105.1 19.328 105.42 18.824C105.74 18.32 105.984 17.756 106.152 17.132C106.328 16.5 106.448 15.816 106.512 15.08C106.584 14.344 106.624 13.556 106.632 12.716C106.648 11.868 106.656 10.972 106.656 10.028ZM115.068 15.536H121.692V16.532H115.068V15.536ZM114.828 17.552H121.356V18.536H114.828V17.552ZM113.868 19.724H122.364V20.804H113.868V19.724ZM117.42 14.6H118.68V20.396H117.42V14.6ZM115.176 14.552L116.328 14.816C116.136 15.344 115.892 15.852 115.596 16.34C115.3 16.828 114.992 17.24 114.672 17.576C114.592 17.512 114.488 17.44 114.36 17.36C114.24 17.28 114.116 17.204 113.988 17.132C113.86 17.052 113.748 16.992 113.652 16.952C113.98 16.656 114.276 16.296 114.54 15.872C114.812 15.44 115.024 15 115.176 14.552ZM113.076 13.268H122.436V14.384H113.076V13.268ZM112.26 10.772H121.836V11.864H112.26V10.772ZM116.376 9.836H117.672V11.42H116.376V9.836ZM112.38 13.268H113.616V15.2C113.616 15.616 113.596 16.076 113.556 16.58C113.524 17.076 113.46 17.588 113.364 18.116C113.276 18.644 113.144 19.16 112.968 19.664C112.792 20.16 112.564 20.612 112.284 21.02C112.22 20.94 112.124 20.844 111.996 20.732C111.876 20.628 111.748 20.524 111.612 20.42C111.484 20.324 111.376 20.252 111.288 20.204C111.536 19.836 111.732 19.436 111.876 19.004C112.02 18.564 112.128 18.124 112.2 17.684C112.272 17.236 112.32 16.8 112.344 16.376C112.368 15.944 112.38 15.548 112.38 15.188V13.268ZM114.108 11.972L115.272 11.66C115.408 11.892 115.536 12.148 115.656 12.428C115.776 12.708 115.856 12.952 115.896 13.16L114.648 13.508C114.616 13.3 114.548 13.052 114.444 12.764C114.348 12.476 114.236 12.212 114.108 11.972ZM118.848 11.552L120.312 11.864C120.144 12.168 119.972 12.468 119.796 12.764C119.628 13.052 119.476 13.3 119.34 13.508L118.272 13.184C118.344 13.024 118.416 12.852 118.488 12.668C118.56 12.476 118.628 12.284 118.692 12.092C118.764 11.892 118.816 11.712 118.848 11.552ZM124.128 19.4C124.84 19.376 125.664 19.352 126.6 19.328C127.536 19.296 128.524 19.26 129.564 19.22C130.604 19.18 131.632 19.14 132.648 19.1L132.612 20.276C131.62 20.332 130.62 20.38 129.612 20.42C128.612 20.468 127.656 20.512 126.744 20.552C125.832 20.6 125.016 20.636 124.296 20.66L124.128 19.4ZM124.056 15.8H134.028V17H124.056V15.8ZM126.168 13.484H131.82V14.672H126.168V13.484ZM127.092 16.58L128.556 16.976C128.372 17.352 128.176 17.74 127.968 18.14C127.768 18.532 127.564 18.912 127.356 19.28C127.156 19.64 126.964 19.96 126.78 20.24L125.652 19.868C125.828 19.564 126.004 19.224 126.18 18.848C126.364 18.464 126.536 18.072 126.696 17.672C126.856 17.272 126.988 16.908 127.092 16.58ZM130.032 17.816L131.16 17.228C131.528 17.54 131.888 17.88 132.24 18.248C132.592 18.608 132.916 18.972 133.212 19.34C133.516 19.7 133.76 20.032 133.944 20.336L132.756 21.056C132.58 20.752 132.344 20.408 132.048 20.024C131.76 19.648 131.44 19.268 131.088 18.884C130.736 18.492 130.384 18.136 130.032 17.816ZM128.976 11.096C128.656 11.56 128.24 12.036 127.728 12.524C127.224 13.004 126.66 13.46 126.036 13.892C125.412 14.324 124.768 14.704 124.104 15.032C124.056 14.92 123.988 14.8 123.9 14.672C123.812 14.544 123.72 14.416 123.624 14.288C123.528 14.16 123.432 14.048 123.336 13.952C124.032 13.648 124.696 13.268 125.328 12.812C125.96 12.356 126.528 11.872 127.032 11.36C127.544 10.84 127.948 10.34 128.244 9.86H129.6C129.92 10.3 130.276 10.72 130.668 11.12C131.068 11.512 131.488 11.876 131.928 12.212C132.376 12.548 132.836 12.848 133.308 13.112C133.78 13.368 134.256 13.584 134.736 13.76C134.584 13.92 134.436 14.108 134.292 14.324C134.156 14.54 134.028 14.744 133.908 14.936C133.3 14.648 132.684 14.296 132.06 13.88C131.436 13.464 130.856 13.016 130.32 12.536C129.784 12.048 129.336 11.568 128.976 11.096ZM139.896 19.436H146.724V20.696H139.896V19.436ZM140.388 13.616H146.448V14.852H140.388V13.616ZM142.752 9.944H144.084V20.048H142.752V9.944ZM135.624 12.068H139.572V13.244H135.624V12.068ZM137.388 16.028L138.672 14.504V21.044H137.388V16.028ZM137.388 9.848H138.672V12.62H137.388V9.848ZM138.54 14.864C138.644 14.936 138.796 15.056 138.996 15.224C139.196 15.384 139.408 15.564 139.632 15.764C139.856 15.956 140.06 16.136 140.244 16.304C140.436 16.464 140.572 16.584 140.652 16.664L139.872 17.708C139.76 17.564 139.616 17.392 139.44 17.192C139.264 16.984 139.076 16.776 138.876 16.568C138.676 16.352 138.484 16.152 138.3 15.968C138.116 15.776 137.96 15.62 137.832 15.5L138.54 14.864ZM139.104 12.068H139.356L139.584 12.02L140.304 12.5C140 13.268 139.608 14 139.128 14.696C138.656 15.392 138.132 16.024 137.556 16.592C136.98 17.152 136.396 17.616 135.804 17.984C135.764 17.864 135.708 17.728 135.636 17.576C135.564 17.416 135.488 17.264 135.408 17.12C135.328 16.976 135.252 16.86 135.18 16.772C135.732 16.476 136.264 16.092 136.776 15.62C137.288 15.148 137.748 14.628 138.156 14.06C138.564 13.484 138.88 12.9 139.104 12.308V12.068ZM152.4 11.684C152.76 11.74 153.164 11.78 153.612 11.804C154.068 11.82 154.532 11.828 155.004 11.828C155.484 11.82 155.94 11.804 156.372 11.78C156.804 11.748 157.18 11.716 157.5 11.684V13.064C157.148 13.096 156.752 13.124 156.312 13.148C155.872 13.164 155.42 13.172 154.956 13.172C154.5 13.172 154.052 13.164 153.612 13.148C153.172 13.124 152.772 13.096 152.412 13.064L152.4 11.684ZM153.216 16.748C153.168 16.956 153.132 17.14 153.108 17.3C153.084 17.46 153.072 17.62 153.072 17.78C153.072 17.916 153.1 18.044 153.156 18.164C153.22 18.276 153.32 18.372 153.456 18.452C153.6 18.532 153.784 18.596 154.008 18.644C154.232 18.684 154.512 18.704 154.848 18.704C155.384 18.704 155.888 18.68 156.36 18.632C156.84 18.576 157.336 18.492 157.848 18.38L157.872 19.832C157.488 19.912 157.044 19.972 156.54 20.012C156.044 20.052 155.464 20.072 154.8 20.072C153.776 20.072 153.016 19.904 152.52 19.568C152.032 19.224 151.788 18.752 151.788 18.152C151.788 17.928 151.804 17.696 151.836 17.456C151.876 17.208 151.928 16.936 151.992 16.64L153.216 16.748ZM150.432 10.856C150.408 10.928 150.376 11.032 150.336 11.168C150.296 11.296 150.26 11.424 150.228 11.552C150.196 11.68 150.172 11.78 150.156 11.852C150.124 12.028 150.08 12.256 150.024 12.536C149.976 12.808 149.924 13.112 149.868 13.448C149.82 13.776 149.772 14.112 149.724 14.456C149.684 14.8 149.648 15.132 149.616 15.452C149.584 15.772 149.568 16.056 149.568 16.304C149.568 16.472 149.572 16.644 149.58 16.82C149.596 16.996 149.612 17.168 149.628 17.336C149.692 17.192 149.756 17.04 149.82 16.88C149.892 16.72 149.96 16.564 150.024 16.412C150.096 16.252 150.16 16.104 150.216 15.968L150.9 16.496C150.788 16.816 150.672 17.16 150.552 17.528C150.44 17.896 150.336 18.244 150.24 18.572C150.152 18.9 150.084 19.164 150.036 19.364C150.02 19.452 150.004 19.552 149.988 19.664C149.98 19.776 149.976 19.864 149.976 19.928C149.976 19.984 149.976 20.056 149.976 20.144C149.984 20.232 149.992 20.316 150 20.396L148.764 20.48C148.644 20.064 148.536 19.516 148.44 18.836C148.344 18.148 148.296 17.396 148.296 16.58C148.296 16.132 148.316 15.68 148.356 15.224C148.396 14.76 148.444 14.312 148.5 13.88C148.556 13.448 148.612 13.056 148.668 12.704C148.724 12.344 148.772 12.044 148.812 11.804C148.828 11.644 148.848 11.468 148.872 11.276C148.896 11.084 148.912 10.9 148.92 10.724L150.432 10.856ZM99.216 29.352H103.584V30.516H99.216V29.352ZM99.228 32.208H103.596V33.372H99.228V32.208ZM99.228 35.064H103.596V36.24H99.228V35.064ZM98.604 26.496H104.196V36.888H102.9V27.72H99.84V36.948H98.604V26.496ZM93.564 28.344H98.148V29.568H93.564V28.344ZM95.352 25.836H96.588V37.032H95.352V25.836ZM95.292 29.148L96.072 29.424C95.968 29.912 95.84 30.416 95.688 30.936C95.544 31.448 95.376 31.952 95.184 32.448C94.992 32.944 94.788 33.404 94.572 33.828C94.356 34.252 94.128 34.62 93.888 34.932C93.824 34.748 93.728 34.544 93.6 34.32C93.48 34.088 93.368 33.888 93.264 33.72C93.48 33.456 93.688 33.148 93.888 32.796C94.096 32.436 94.288 32.052 94.464 31.644C94.648 31.236 94.808 30.82 94.944 30.396C95.088 29.964 95.204 29.548 95.292 29.148ZM96.492 30.288C96.58 30.368 96.708 30.508 96.876 30.708C97.052 30.9 97.236 31.112 97.428 31.344C97.62 31.576 97.796 31.792 97.956 31.992C98.124 32.184 98.24 32.32 98.304 32.4L97.56 33.444C97.472 33.276 97.356 33.076 97.212 32.844C97.076 32.612 96.924 32.372 96.756 32.124C96.596 31.868 96.436 31.632 96.276 31.416C96.124 31.2 95.996 31.02 95.892 30.876L96.492 30.288ZM112.512 29.112L113.304 28.272C113.656 28.472 114.036 28.7 114.444 28.956C114.86 29.204 115.256 29.456 115.632 29.712C116.016 29.96 116.328 30.188 116.568 30.396L115.716 31.368C115.492 31.152 115.196 30.912 114.828 30.648C114.46 30.384 114.072 30.116 113.664 29.844C113.256 29.572 112.872 29.328 112.512 29.112ZM113.28 30.9H113.928V32.7C113.928 32.852 113.952 33.036 114 33.252C114.048 33.46 114.128 33.688 114.24 33.936C114.36 34.176 114.524 34.42 114.732 34.668C114.94 34.916 115.204 35.152 115.524 35.376C115.844 35.592 116.232 35.788 116.688 35.964C116.576 36.108 116.444 36.288 116.292 36.504C116.14 36.72 116.024 36.904 115.944 37.056C115.544 36.904 115.188 36.708 114.876 36.468C114.564 36.236 114.296 35.988 114.072 35.724C113.856 35.46 113.68 35.204 113.544 34.956C113.416 34.7 113.324 34.484 113.268 34.308C113.212 34.492 113.112 34.708 112.968 34.956C112.824 35.196 112.628 35.448 112.38 35.712C112.14 35.976 111.848 36.224 111.504 36.456C111.168 36.688 110.776 36.888 110.328 37.056C110.28 36.96 110.212 36.844 110.124 36.708C110.044 36.58 109.956 36.452 109.86 36.324C109.772 36.196 109.688 36.092 109.608 36.012C110.096 35.844 110.512 35.648 110.856 35.424C111.208 35.192 111.496 34.952 111.72 34.704C111.952 34.448 112.132 34.2 112.26 33.96C112.388 33.712 112.476 33.48 112.524 33.264C112.58 33.04 112.608 32.852 112.608 32.7V30.9H113.28ZM112.704 25.836H113.976C113.944 26.556 113.88 27.208 113.784 27.792C113.696 28.376 113.536 28.9 113.304 29.364C113.08 29.828 112.752 30.232 112.32 30.576C111.888 30.92 111.312 31.216 110.592 31.464C110.536 31.312 110.436 31.136 110.292 30.936C110.156 30.728 110.02 30.564 109.884 30.444C110.508 30.252 111 30.02 111.36 29.748C111.728 29.468 112.004 29.14 112.188 28.764C112.38 28.388 112.508 27.96 112.572 27.48C112.636 27 112.68 26.452 112.704 25.836ZM110.94 26.58L111.996 26.784C111.94 27.192 111.832 27.6 111.672 28.008C111.512 28.408 111.3 28.74 111.036 29.004L110.028 28.56C110.26 28.344 110.452 28.056 110.604 27.696C110.764 27.328 110.876 26.956 110.94 26.58ZM110.808 31.776L111.936 32.004C111.856 32.46 111.72 32.912 111.528 33.36C111.344 33.8 111.096 34.16 110.784 34.44L109.74 33.888C110.012 33.672 110.236 33.368 110.412 32.976C110.596 32.584 110.728 32.184 110.808 31.776ZM115.188 26.508L116.436 26.904C116.236 27.256 116.032 27.604 115.824 27.948C115.616 28.292 115.424 28.588 115.248 28.836L114.288 28.476C114.4 28.3 114.512 28.096 114.624 27.864C114.744 27.632 114.852 27.396 114.948 27.156C115.052 26.916 115.132 26.7 115.188 26.508ZM115.284 31.692L116.544 32.088C116.328 32.464 116.108 32.84 115.884 33.216C115.668 33.592 115.46 33.908 115.26 34.164L114.276 33.792C114.396 33.6 114.516 33.384 114.636 33.144C114.764 32.896 114.884 32.644 114.996 32.388C115.108 32.132 115.204 31.9 115.284 31.692ZM105.96 29.508H109.548V30.492H105.96V29.508ZM105.996 26.232H109.512V27.204H105.996V26.232ZM105.96 31.128H109.548V32.112H105.96V31.128ZM105.384 27.828H109.944V28.86H105.384V27.828ZM106.512 32.784H109.56V36.396H106.512V35.364H108.456V33.816H106.512V32.784ZM105.936 32.784H107.028V36.888H105.936V32.784ZM121.356 26.532C121.316 26.764 121.284 27.012 121.26 27.276C121.236 27.54 121.22 27.788 121.212 28.02C121.196 28.348 121.18 28.752 121.164 29.232C121.148 29.704 121.132 30.204 121.116 30.732C121.1 31.26 121.088 31.78 121.08 32.292C121.072 32.796 121.068 33.244 121.068 33.636C121.068 34.044 121.144 34.372 121.296 34.62C121.448 34.86 121.652 35.032 121.908 35.136C122.172 35.24 122.472 35.292 122.808 35.292C123.312 35.292 123.772 35.224 124.188 35.088C124.612 34.952 124.992 34.772 125.328 34.548C125.664 34.316 125.968 34.052 126.24 33.756C126.512 33.46 126.756 33.152 126.972 32.832L127.944 34.02C127.744 34.3 127.488 34.6 127.176 34.92C126.872 35.232 126.508 35.528 126.084 35.808C125.66 36.08 125.172 36.3 124.62 36.468C124.068 36.644 123.456 36.732 122.784 36.732C122.152 36.732 121.6 36.636 121.128 36.444C120.656 36.252 120.288 35.948 120.024 35.532C119.768 35.108 119.64 34.56 119.64 33.888C119.64 33.56 119.644 33.184 119.652 32.76C119.66 32.328 119.668 31.884 119.676 31.428C119.692 30.972 119.704 30.524 119.712 30.084C119.728 29.644 119.74 29.244 119.748 28.884C119.756 28.524 119.76 28.236 119.76 28.02C119.76 27.748 119.748 27.484 119.724 27.228C119.7 26.972 119.664 26.736 119.616 26.52L121.356 26.532ZM134.58 26.46C134.54 26.612 134.496 26.8 134.448 27.024C134.4 27.24 134.364 27.412 134.34 27.54C134.284 27.82 134.216 28.156 134.136 28.548C134.056 28.932 133.964 29.34 133.86 29.772C133.764 30.204 133.664 30.62 133.56 31.02C133.456 31.444 133.328 31.904 133.176 32.4C133.024 32.896 132.86 33.396 132.684 33.9C132.516 34.404 132.344 34.888 132.168 35.352C131.992 35.808 131.824 36.212 131.664 36.564L130.164 36.06C130.348 35.756 130.536 35.384 130.728 34.944C130.92 34.504 131.108 34.036 131.292 33.54C131.484 33.036 131.66 32.536 131.82 32.04C131.98 31.544 132.116 31.088 132.228 30.672C132.308 30.384 132.38 30.092 132.444 29.796C132.516 29.492 132.58 29.2 132.636 28.92C132.7 28.632 132.752 28.364 132.792 28.116C132.84 27.868 132.876 27.656 132.9 27.48C132.924 27.272 132.94 27.064 132.948 26.856C132.956 26.64 132.952 26.464 132.936 26.328L134.58 26.46ZM131.628 28.308C132.108 28.308 132.608 28.288 133.128 28.248C133.656 28.2 134.188 28.132 134.724 28.044C135.268 27.948 135.796 27.84 136.308 27.72V29.064C135.812 29.176 135.284 29.272 134.724 29.352C134.172 29.432 133.628 29.496 133.092 29.544C132.556 29.584 132.064 29.604 131.616 29.604C131.336 29.604 131.08 29.6 130.848 29.592C130.616 29.576 130.392 29.564 130.176 29.556L130.14 28.224C130.444 28.256 130.708 28.28 130.932 28.296C131.164 28.304 131.396 28.308 131.628 28.308ZM135.408 30.096C135.744 30.064 136.108 30.04 136.5 30.024C136.9 30 137.296 29.988 137.688 29.988C138.032 29.988 138.38 29.996 138.732 30.012C139.092 30.02 139.444 30.044 139.788 30.084L139.752 31.38C139.448 31.34 139.12 31.308 138.768 31.284C138.424 31.252 138.068 31.236 137.7 31.236C137.3 31.236 136.912 31.248 136.536 31.272C136.16 31.288 135.784 31.316 135.408 31.356V30.096ZM135.948 33.084C135.9 33.26 135.86 33.44 135.828 33.624C135.796 33.808 135.78 33.968 135.78 34.104C135.78 34.24 135.804 34.368 135.852 34.488C135.908 34.608 136 34.712 136.128 34.8C136.256 34.888 136.432 34.96 136.656 35.016C136.888 35.064 137.18 35.088 137.532 35.088C137.932 35.088 138.336 35.068 138.744 35.028C139.152 34.98 139.564 34.916 139.98 34.836L139.932 36.216C139.596 36.256 139.228 36.292 138.828 36.324C138.428 36.364 137.992 36.384 137.52 36.384C136.528 36.384 135.768 36.224 135.24 35.904C134.72 35.576 134.46 35.112 134.46 34.512C134.46 34.248 134.48 33.984 134.52 33.72C134.568 33.456 134.616 33.204 134.664 32.964L135.948 33.084ZM143.988 27.48C143.964 27.608 143.944 27.76 143.928 27.936C143.912 28.104 143.896 28.272 143.88 28.44C143.872 28.608 143.864 28.748 143.856 28.86C143.856 29.116 143.856 29.392 143.856 29.688C143.864 29.976 143.872 30.272 143.88 30.576C143.896 30.88 143.916 31.184 143.94 31.488C143.996 32.088 144.084 32.616 144.204 33.072C144.324 33.528 144.472 33.884 144.648 34.14C144.832 34.396 145.056 34.524 145.32 34.524C145.464 34.524 145.6 34.452 145.728 34.308C145.864 34.156 145.988 33.96 146.1 33.72C146.22 33.472 146.324 33.212 146.412 32.94C146.508 32.66 146.588 32.392 146.652 32.136L147.732 33.42C147.476 34.108 147.216 34.656 146.952 35.064C146.696 35.472 146.432 35.768 146.16 35.952C145.888 36.128 145.6 36.216 145.296 36.216C144.872 36.216 144.472 36.076 144.096 35.796C143.728 35.508 143.408 35.048 143.136 34.416C142.864 33.776 142.672 32.924 142.56 31.86C142.52 31.5 142.488 31.116 142.464 30.708C142.448 30.3 142.436 29.912 142.428 29.544C142.428 29.176 142.428 28.872 142.428 28.632C142.428 28.472 142.42 28.28 142.404 28.056C142.396 27.832 142.372 27.632 142.332 27.456L143.988 27.48ZM150.06 27.768C150.284 28.04 150.5 28.368 150.708 28.752C150.916 29.136 151.104 29.548 151.272 29.988C151.448 30.428 151.6 30.88 151.728 31.344C151.864 31.8 151.972 32.248 152.052 32.688C152.14 33.128 152.2 33.536 152.232 33.912L150.828 34.464C150.78 33.96 150.7 33.424 150.588 32.856C150.484 32.28 150.344 31.708 150.168 31.14C149.992 30.572 149.784 30.036 149.544 29.532C149.304 29.02 149.024 28.58 148.704 28.212L150.06 27.768Z" fill="#333333"/>
<mask id="mask0_83_2976" style="mask-type:alpha" maskUnits="userSpaceOnUse" x="49" y="12" width="26" height="22">
<rect x="49" y="12" width="26" height="21.9461" fill="#2FB3BC"/>
</mask>
<g mask="url(#mask0_83_2976)">
<path d="M53.0566 25.59C53.0566 26.0689 53.4452 26.4575 53.9245 26.4575C54.4039 26.4575 54.7928 26.0689 54.7928 25.59C54.7928 25.1106 54.4039 24.7217 53.9245 24.7217C53.4452 24.7217 53.0566 25.1106 53.0566 25.59Z" fill="#2FB3BC"/>
<path d="M56.4492 25.59C56.4492 26.0689 56.8378 26.4575 57.3171 26.4575C57.7961 26.4575 58.1847 26.0689 58.1847 25.59C58.1847 25.1106 57.7961 24.7217 57.3171 24.7217C56.8378 24.7217 56.4492 25.1106 56.4492 25.59Z" fill="#2FB3BC"/>
<path d="M61.5772 25.59C61.5772 25.1106 61.189 24.7217 60.7097 24.7217C60.2304 24.7217 59.8418 25.1106 59.8418 25.59C59.8418 26.0689 60.2304 26.4575 60.7097 26.4575C61.189 26.4575 61.5772 26.0689 61.5772 25.59Z" fill="#2FB3BC"/>
<path d="M64.6967 25.937C64.6445 25.9281 64.5933 25.917 64.5411 25.9081C64.3377 28.4114 61.7696 30.5343 58.3995 30.9114C58.2669 30.9258 58.1439 30.9903 58.0561 31.0903C56.9408 32.3612 55.8984 32.8631 54.3493 32.872C54.6786 32.2245 54.7612 31.6233 54.7905 31.0595C54.8034 30.8173 54.6515 30.5973 54.4211 30.5221C51.78 29.6605 50.0731 27.7246 50.0731 25.5899C50.0731 22.622 53.3228 20.2076 57.3167 20.2076C57.3512 20.2076 57.3853 20.2091 57.4197 20.2095C57.3693 20.0324 57.3267 19.8527 57.2919 19.6712C57.2578 19.4945 57.2289 19.3167 57.2097 19.1367C52.6735 19.1812 49 22.0579 49 25.5899C49 28.0828 50.8251 30.3272 53.6859 31.4007C53.6262 31.8886 53.4669 32.4172 52.9709 33.0187C52.8446 33.1713 52.8135 33.3821 52.8887 33.5655C52.9646 33.7477 53.1354 33.8748 53.3325 33.894C53.6755 33.9281 54.0033 33.9455 54.3082 33.9455C56.1392 33.9455 57.4327 33.3651 58.724 31.9526C62.2208 31.4907 64.9334 29.3189 65.5146 26.6552C65.3546 26.5337 65.1979 26.4011 65.0423 26.2618C64.9263 26.1577 64.8111 26.0507 64.6967 25.937Z" fill="#2FB3BC"/>
<path d="M74.9995 18.4554C74.9995 14.896 71.2682 12 66.6823 12C62.0961 12 58.3652 14.896 58.3652 18.4554C58.3652 21.5895 61.3216 24.2966 65.2747 24.8185C66.5668 26.2313 67.8596 26.811 69.6906 26.811C69.9954 26.811 70.3243 26.7936 70.667 26.7595C70.8648 26.7403 71.0348 26.6136 71.1108 26.4302C71.1859 26.2472 71.1548 26.0372 71.0289 25.8846C70.5325 25.283 70.3736 24.7544 70.3129 24.267C73.174 23.1935 74.9995 20.9487 74.9995 18.4554ZM69.5779 23.3872C69.3472 23.4624 69.1957 23.6832 69.2086 23.9254C69.2379 24.4892 69.3212 25.0904 69.6502 25.7379C68.1014 25.729 67.0591 25.2271 65.9434 23.9565C65.8552 23.8558 65.7326 23.7921 65.5996 23.7773C62.0872 23.3842 59.4387 21.0961 59.4387 18.4554C59.4387 15.4875 62.6881 13.0727 66.6823 13.0727C70.6766 13.0727 73.9263 15.4875 73.9263 18.4554C73.9263 20.5905 72.2194 22.5263 69.5779 23.3872Z" fill="#2FB3BC"/>
<path d="M70.0749 17.5879C69.596 17.5879 69.207 17.9765 69.207 18.4554C69.207 18.9348 69.596 19.3233 70.0749 19.3233C70.5543 19.3233 70.9428 18.9348 70.9428 18.4554C70.9428 17.9765 70.5543 17.5879 70.0749 17.5879Z" fill="#2FB3BC"/>
<path d="M66.6824 17.5879C66.203 17.5879 65.8145 17.9765 65.8145 18.4554C65.8145 18.9348 66.203 19.3233 66.6824 19.3233C67.1621 19.3233 67.5503 18.9348 67.5503 18.4554C67.5503 17.9765 67.1621 17.5879 66.6824 17.5879Z" fill="#2FB3BC"/>
<path d="M63.2898 17.5879C62.8104 17.5879 62.4219 17.9765 62.4219 18.4554C62.4219 18.9348 62.8104 19.3233 63.2898 19.3233C63.7691 19.3233 64.1577 18.9348 64.1577 18.4554C64.1577 17.9765 63.7691 17.5879 63.2898 17.5879Z" fill="#2FB3BC"/>
</g>
</svg>
