<svg width="173" height="46" viewBox="0 0 173 46" fill="none" xmlns="http://www.w3.org/2000/svg">
<path d="M4 1H169C170.657 1 172 2.34315 172 4V42C172 43.6569 170.657 45 169 45H4C2.34315 45 1 43.6568 1 42V4C1 2.34315 2.34315 1 4 1Z" stroke="#2FB3BC" stroke-width="2"/>
<g style="mix-blend-mode:multiply">
<path d="M0 4C0 1.79086 1.79086 0 4 0H41V46H4C1.79086 46 0 44.2091 0 42V4Z" fill="#D4EFF1"/>
</g>
<path d="M13.35 18.5L14.53 18.85C14.35 19.2167 14.1367 19.5767 13.89 19.93C13.6433 20.2833 13.3767 20.61 13.09 20.91C12.81 21.21 12.53 21.4733 12.25 21.7C12.1833 21.62 12.09 21.53 11.97 21.43C11.85 21.33 11.7267 21.2333 11.6 21.14C11.4733 21.0467 11.3633 20.97 11.27 20.91C11.6967 20.63 12.0967 20.2767 12.47 19.85C12.8433 19.4233 13.1367 18.9733 13.35 18.5ZM13.27 19.56H20.16V20.61H12.98L13.27 19.56ZM11.49 21.89H20.53V22.96H11.49V21.89ZM11.65 24.23H20.38V25.3H11.65V24.23ZM14.62 19.93H15.62V24.79H14.62V19.93ZM12.84 19.93H13.91V24.8H12.84V19.93ZM16.36 19.93H17.36V24.8H16.36V19.93ZM18.12 19.93H19.22V24.8H18.12V19.93ZM14.32 25.86L15.43 25.74C15.4967 26.04 15.5533 26.3667 15.6 26.72C15.6533 27.0733 15.6833 27.3733 15.69 27.62L14.51 27.79C14.51 27.63 14.5 27.44 14.48 27.22C14.4667 27 14.4467 26.77 14.42 26.53C14.3933 26.29 14.36 26.0667 14.32 25.86ZM16.31 25.89L17.43 25.7C17.5167 25.8933 17.6 26.1033 17.68 26.33C17.76 26.5567 17.83 26.7767 17.89 26.99C17.95 27.2033 17.9933 27.3967 18.02 27.57L16.82 27.8C16.7867 27.5533 16.72 27.25 16.62 26.89C16.5267 26.53 16.4233 26.1967 16.31 25.89ZM18.29 25.83L19.44 25.47C19.6 25.6767 19.76 25.9 19.92 26.14C20.08 26.38 20.2333 26.62 20.38 26.86C20.5267 27.0933 20.64 27.3033 20.72 27.49L19.49 27.9C19.4167 27.72 19.3133 27.51 19.18 27.27C19.0533 27.03 18.91 26.7867 18.75 26.54C18.5967 26.2867 18.4433 26.05 18.29 25.83ZM12.52 25.51L13.68 25.8C13.5667 26.18 13.41 26.56 13.21 26.94C13.01 27.32 12.7867 27.6433 12.54 27.91L11.39 27.44C11.6167 27.2267 11.8333 26.9433 12.04 26.59C12.2467 26.2367 12.4067 25.8767 12.52 25.51ZM22.9 18.55H24V27.87H22.9V18.55ZM21.38 21.84H25.48V22.96H21.38V21.84ZM22.68 22.43L23.35 22.76C23.2633 23.0933 23.1633 23.4467 23.05 23.82C22.9367 24.1867 22.81 24.5533 22.67 24.92C22.53 25.2867 22.3833 25.6333 22.23 25.96C22.0767 26.28 21.9133 26.56 21.74 26.8C21.7067 26.6733 21.6567 26.5367 21.59 26.39C21.53 26.2367 21.4633 26.0867 21.39 25.94C21.3233 25.7933 21.26 25.6667 21.2 25.56C21.4 25.3133 21.5933 25.01 21.78 24.65C21.9733 24.2833 22.15 23.9067 22.31 23.52C22.47 23.1267 22.5933 22.7633 22.68 22.43ZM23.99 23.01C24.0433 23.0633 24.12 23.1467 24.22 23.26C24.3267 23.3733 24.4433 23.5033 24.57 23.65C24.6967 23.79 24.8167 23.9333 24.93 24.08C25.05 24.22 25.1567 24.3467 25.25 24.46C25.35 24.5733 25.42 24.66 25.46 24.72L24.73 25.66C24.6633 25.5133 24.5767 25.3433 24.47 25.15C24.3633 24.95 24.2467 24.7467 24.12 24.54C23.9933 24.3267 23.87 24.1267 23.75 23.94C23.63 23.7533 23.5267 23.6 23.44 23.48L23.99 23.01ZM21.37 19.32L22.21 19.1C22.2967 19.34 22.3733 19.6 22.44 19.88C22.5133 20.16 22.5733 20.4333 22.62 20.7C22.6667 20.9667 22.7 21.2067 22.72 21.42L21.82 21.66C21.8133 21.4467 21.7867 21.2067 21.74 20.94C21.7 20.6667 21.6467 20.39 21.58 20.11C21.52 19.8233 21.45 19.56 21.37 19.32ZM24.66 19.05L25.67 19.27C25.59 19.5433 25.5033 19.8233 25.41 20.11C25.3167 20.3967 25.2233 20.6733 25.13 20.94C25.0367 21.2 24.95 21.43 24.87 21.63L24.11 21.41C24.1833 21.1967 24.2533 20.9533 24.32 20.68C24.3933 20.4 24.46 20.1167 24.52 19.83C24.58 19.5433 24.6267 19.2833 24.66 19.05ZM28.45 18.5H29.57V27.89H28.45V18.5ZM25.46 24.76L30.6 23.84L30.78 24.95L25.64 25.88L25.46 24.76ZM26.02 19.86L26.61 19.05C26.7967 19.1567 26.99 19.28 27.19 19.42C27.3967 19.56 27.59 19.7033 27.77 19.85C27.9567 19.9967 28.1033 20.1333 28.21 20.26L27.59 21.16C27.49 21.0267 27.35 20.8833 27.17 20.73C26.9967 20.5767 26.81 20.4233 26.61 20.27C26.41 20.1167 26.2133 19.98 26.02 19.86ZM25.57 22.38L26.13 21.52C26.33 21.62 26.5367 21.74 26.75 21.88C26.9633 22.0133 27.1667 22.15 27.36 22.29C27.5533 22.4233 27.71 22.5533 27.83 22.68L27.22 23.64C27.1133 23.5133 26.9667 23.3767 26.78 23.23C26.5933 23.0767 26.3933 22.9267 26.18 22.78C25.9733 22.6267 25.77 22.4933 25.57 22.38Z" fill="#333333"/>
<path d="M77.748 10.52H81.144V11.828H77.748V10.52ZM80.508 10.52H81.84C81.84 10.896 81.856 11.328 81.888 11.816C81.92 12.296 81.988 12.812 82.092 13.364C82.196 13.908 82.352 14.472 82.56 15.056C82.768 15.632 83.048 16.208 83.4 16.784C83.76 17.352 84.204 17.9 84.732 18.428C85.268 18.956 85.916 19.444 86.676 19.892C86.58 19.964 86.464 20.068 86.328 20.204C86.192 20.34 86.06 20.48 85.932 20.624C85.812 20.768 85.712 20.896 85.632 21.008C84.864 20.536 84.2 20.012 83.64 19.436C83.088 18.852 82.624 18.236 82.248 17.588C81.872 16.932 81.568 16.276 81.336 15.62C81.104 14.956 80.928 14.312 80.808 13.688C80.688 13.064 80.608 12.48 80.568 11.936C80.528 11.392 80.508 10.92 80.508 10.52ZM80.04 13.076L81.516 13.34C81.236 14.54 80.868 15.624 80.412 16.592C79.956 17.56 79.408 18.416 78.768 19.16C78.128 19.896 77.384 20.516 76.536 21.02C76.456 20.932 76.344 20.82 76.2 20.684C76.056 20.556 75.908 20.424 75.756 20.288C75.604 20.16 75.472 20.056 75.36 19.976C76.64 19.32 77.656 18.412 78.408 17.252C79.16 16.084 79.704 14.692 80.04 13.076ZM88.656 10.448H89.952V13.964C89.952 14.484 89.932 15.052 89.892 15.668C89.86 16.284 89.792 16.916 89.688 17.564C89.592 18.204 89.444 18.828 89.244 19.436C89.044 20.036 88.78 20.58 88.452 21.068C88.372 20.996 88.26 20.916 88.116 20.828C87.98 20.748 87.84 20.668 87.696 20.588C87.552 20.508 87.424 20.444 87.312 20.396C87.616 19.94 87.86 19.44 88.044 18.896C88.228 18.344 88.364 17.784 88.452 17.216C88.54 16.64 88.596 16.076 88.62 15.524C88.644 14.964 88.656 14.444 88.656 13.964V10.448ZM89.532 10.448H97.692V13.676H89.532V12.548H96.396V11.576H89.532V10.448ZM90.12 14.768H98.388V15.92H90.12V14.768ZM91.272 19.544H96.876V20.672H91.272V19.544ZM93.408 13.58H94.692V17.468H93.408V13.58ZM90.696 17.036H97.572V21.032H96.288V18.164H91.932V21.044H90.696V17.036ZM107.664 11.012H109.008V19.376C109.008 19.768 108.952 20.072 108.84 20.288C108.736 20.512 108.548 20.676 108.276 20.78C107.996 20.892 107.636 20.96 107.196 20.984C106.764 21.008 106.24 21.02 105.624 21.02C105.6 20.892 105.556 20.744 105.492 20.576C105.436 20.408 105.372 20.24 105.3 20.072C105.228 19.904 105.156 19.764 105.084 19.652C105.388 19.668 105.688 19.68 105.984 19.688C106.288 19.688 106.556 19.688 106.788 19.688C107.028 19.688 107.196 19.688 107.292 19.688C107.428 19.68 107.524 19.656 107.58 19.616C107.636 19.568 107.664 19.48 107.664 19.352V11.012ZM100.752 13.412H102V18.968H100.752V13.412ZM101.28 13.412H105.816V18.032H101.28V16.808H104.532V14.636H101.28V13.412ZM99.6 10.652H110.424V11.96H99.6V10.652ZM113.268 9.8L114.612 10.088C114.468 10.44 114.312 10.8 114.144 11.168C113.984 11.536 113.82 11.884 113.652 12.212C113.484 12.54 113.324 12.836 113.172 13.1L112.056 12.8C112.208 12.528 112.36 12.22 112.512 11.876C112.664 11.524 112.804 11.168 112.932 10.808C113.068 10.44 113.18 10.104 113.268 9.8ZM111.396 12.284C111.828 12.268 112.32 12.252 112.872 12.236C113.424 12.212 114.008 12.184 114.624 12.152C115.24 12.12 115.86 12.092 116.484 12.068L116.472 13.196C115.88 13.236 115.288 13.276 114.696 13.316C114.104 13.348 113.536 13.384 112.992 13.424C112.448 13.456 111.952 13.484 111.504 13.508L111.396 12.284ZM112.116 14.156H115.92V15.224H113.304V21.032H112.116V14.156ZM115.32 14.156H116.592V19.7C116.592 19.988 116.556 20.216 116.484 20.384C116.42 20.56 116.288 20.7 116.088 20.804C115.896 20.9 115.66 20.956 115.38 20.972C115.108 20.996 114.792 21.008 114.432 21.008C114.4 20.84 114.344 20.644 114.264 20.42C114.184 20.196 114.1 20.008 114.012 19.856C114.244 19.864 114.464 19.872 114.672 19.88C114.888 19.88 115.036 19.876 115.116 19.868C115.196 19.868 115.248 19.856 115.272 19.832C115.304 19.808 115.32 19.756 115.32 19.676V14.156ZM112.656 15.968H116.028V16.928H112.656V15.968ZM112.656 17.732H116.028V18.704H112.656V17.732ZM117.588 9.872H118.872V13.58C118.872 13.788 118.904 13.92 118.968 13.976C119.032 14.032 119.184 14.06 119.424 14.06C119.48 14.06 119.572 14.06 119.7 14.06C119.836 14.06 119.984 14.06 120.144 14.06C120.304 14.06 120.456 14.06 120.6 14.06C120.744 14.06 120.848 14.06 120.912 14.06C121.048 14.06 121.152 14.028 121.224 13.964C121.296 13.9 121.348 13.78 121.38 13.604C121.412 13.42 121.436 13.144 121.452 12.776C121.54 12.84 121.648 12.908 121.776 12.98C121.912 13.044 122.052 13.1 122.196 13.148C122.348 13.196 122.48 13.232 122.592 13.256C122.552 13.768 122.476 14.168 122.364 14.456C122.252 14.736 122.088 14.932 121.872 15.044C121.664 15.156 121.384 15.212 121.032 15.212C120.976 15.212 120.888 15.212 120.768 15.212C120.648 15.212 120.512 15.212 120.36 15.212C120.208 15.212 120.056 15.212 119.904 15.212C119.76 15.212 119.632 15.212 119.52 15.212C119.408 15.212 119.324 15.212 119.268 15.212C118.82 15.212 118.472 15.164 118.224 15.068C117.984 14.972 117.816 14.808 117.72 14.576C117.632 14.336 117.588 14.012 117.588 13.604V9.872ZM121.212 10.628L122.028 11.576C121.676 11.736 121.292 11.896 120.876 12.056C120.46 12.216 120.036 12.364 119.604 12.5C119.18 12.628 118.768 12.748 118.368 12.86C118.344 12.74 118.292 12.596 118.212 12.428C118.14 12.252 118.068 12.1 117.996 11.972C118.38 11.852 118.768 11.72 119.16 11.576C119.552 11.424 119.924 11.268 120.276 11.108C120.636 10.94 120.948 10.78 121.212 10.628ZM117.588 15.476H118.86V19.34C118.86 19.548 118.896 19.68 118.968 19.736C119.04 19.792 119.2 19.82 119.448 19.82C119.504 19.82 119.6 19.82 119.736 19.82C119.872 19.82 120.024 19.82 120.192 19.82C120.36 19.82 120.516 19.82 120.66 19.82C120.812 19.82 120.92 19.82 120.984 19.82C121.136 19.82 121.248 19.784 121.32 19.712C121.4 19.64 121.456 19.5 121.488 19.292C121.52 19.076 121.544 18.76 121.56 18.344C121.704 18.44 121.888 18.532 122.112 18.62C122.336 18.708 122.532 18.772 122.7 18.812C122.66 19.372 122.584 19.804 122.472 20.108C122.36 20.42 122.196 20.636 121.98 20.756C121.772 20.884 121.48 20.948 121.104 20.948C121.048 20.948 120.956 20.948 120.828 20.948C120.708 20.948 120.572 20.948 120.42 20.948C120.268 20.948 120.112 20.948 119.952 20.948C119.8 20.948 119.664 20.948 119.544 20.948C119.424 20.948 119.336 20.948 119.28 20.948C118.832 20.948 118.484 20.9 118.236 20.804C117.996 20.708 117.828 20.544 117.732 20.312C117.636 20.08 117.588 19.756 117.588 19.34V15.476ZM121.308 16.016L122.16 16.964C121.808 17.164 121.416 17.352 120.984 17.528C120.552 17.696 120.112 17.856 119.664 18.008C119.216 18.152 118.78 18.284 118.356 18.404C118.324 18.284 118.268 18.136 118.188 17.96C118.116 17.776 118.044 17.624 117.972 17.504C118.372 17.376 118.776 17.232 119.184 17.072C119.6 16.904 119.992 16.732 120.36 16.556C120.728 16.372 121.044 16.192 121.308 16.016ZM114.864 11.06L115.944 10.652C116.152 10.932 116.352 11.24 116.544 11.576C116.736 11.904 116.912 12.228 117.072 12.548C117.232 12.868 117.352 13.16 117.432 13.424L116.268 13.892C116.196 13.636 116.084 13.348 115.932 13.028C115.788 12.7 115.624 12.364 115.44 12.02C115.256 11.676 115.064 11.356 114.864 11.06ZM128.112 11.156H134.22V12.272H128.112V11.156ZM127.68 13.472H134.616V14.6H127.68V13.472ZM127.716 15.728H134.52V16.856H127.716V15.728ZM130.488 9.824H131.76V14.192H130.488V9.824ZM132.036 14.516H133.296V19.652C133.296 19.972 133.252 20.22 133.164 20.396C133.084 20.58 132.936 20.72 132.72 20.816C132.496 20.912 132.22 20.972 131.892 20.996C131.564 21.02 131.172 21.032 130.716 21.032C130.692 20.856 130.636 20.652 130.548 20.42C130.468 20.188 130.384 19.988 130.296 19.82C130.616 19.828 130.92 19.836 131.208 19.844C131.496 19.844 131.688 19.844 131.784 19.844C131.88 19.836 131.944 19.82 131.976 19.796C132.016 19.764 132.036 19.708 132.036 19.628V14.516ZM128.268 17.672L129.3 17.072C129.492 17.272 129.684 17.492 129.876 17.732C130.076 17.964 130.256 18.196 130.416 18.428C130.584 18.66 130.708 18.872 130.788 19.064L129.684 19.724C129.612 19.532 129.5 19.316 129.348 19.076C129.196 18.836 129.024 18.596 128.832 18.356C128.648 18.108 128.46 17.88 128.268 17.672ZM124.404 10.592H127.476V18.704H124.404V17.552H126.276V11.744H124.404V10.592ZM124.476 14.012H126.852V15.152H124.476V14.012ZM123.804 10.592H124.992V19.748H123.804V10.592ZM142.368 10.388H145.536V11.564H142.368V10.388ZM142.368 13.112H145.536V14.252H142.368V13.112ZM142.356 15.872H145.548V17.024H142.356V15.872ZM144.972 10.388H146.208V19.58C146.208 19.9 146.168 20.152 146.088 20.336C146.016 20.528 145.88 20.676 145.68 20.78C145.488 20.884 145.236 20.948 144.924 20.972C144.62 21.004 144.244 21.02 143.796 21.02C143.772 20.844 143.724 20.636 143.652 20.396C143.58 20.156 143.5 19.952 143.412 19.784C143.692 19.8 143.96 19.808 144.216 19.808C144.472 19.808 144.644 19.808 144.732 19.808C144.82 19.8 144.88 19.78 144.912 19.748C144.952 19.716 144.972 19.652 144.972 19.556V10.388ZM141.828 10.388H143.04V14.792C143.04 15.256 143.024 15.764 142.992 16.316C142.968 16.868 142.916 17.428 142.836 17.996C142.756 18.564 142.636 19.116 142.476 19.652C142.316 20.18 142.108 20.656 141.852 21.08C141.78 21 141.68 20.912 141.552 20.816C141.424 20.72 141.292 20.628 141.156 20.54C141.028 20.452 140.916 20.388 140.82 20.348C141.132 19.828 141.36 19.248 141.504 18.608C141.648 17.96 141.736 17.304 141.768 16.64C141.808 15.976 141.828 15.36 141.828 14.792V10.388ZM135.54 11.3H141.372V12.428H135.54V11.3ZM137.052 13.244H139.968V14.228H137.052V13.244ZM137.064 15.116H139.98V16.112H137.064V15.116ZM135.384 17.024H141.312V18.152H135.384V17.024ZM136.5 9.98H137.664V17.444H136.5V9.98ZM139.356 9.98H140.532V17.444H139.356V9.98ZM136.932 18.296L138.144 18.644C137.928 19.092 137.656 19.536 137.328 19.976C137 20.408 136.676 20.768 136.356 21.056C136.284 20.984 136.184 20.9 136.056 20.804C135.928 20.708 135.8 20.612 135.672 20.516C135.544 20.428 135.428 20.36 135.324 20.312C135.644 20.056 135.948 19.752 136.236 19.4C136.524 19.04 136.756 18.672 136.932 18.296ZM138.696 18.788L139.68 18.248C139.84 18.424 140.004 18.62 140.172 18.836C140.34 19.044 140.5 19.252 140.652 19.46C140.812 19.66 140.936 19.844 141.024 20.012L139.98 20.612C139.9 20.452 139.788 20.264 139.644 20.048C139.5 19.84 139.344 19.624 139.176 19.4C139.016 19.176 138.856 18.972 138.696 18.788ZM152.748 10.412C152.7 10.636 152.632 10.92 152.544 11.264C152.464 11.6 152.34 11.98 152.172 12.404C152.044 12.716 151.888 13.04 151.704 13.376C151.528 13.712 151.344 14.012 151.152 14.276C151.272 14.212 151.416 14.16 151.584 14.12C151.76 14.072 151.936 14.036 152.112 14.012C152.296 13.988 152.46 13.976 152.604 13.976C153.1 13.976 153.512 14.12 153.84 14.408C154.168 14.688 154.332 15.096 154.332 15.632C154.332 15.792 154.332 15.988 154.332 16.22C154.34 16.452 154.344 16.696 154.344 16.952C154.352 17.208 154.36 17.46 154.368 17.708C154.376 17.948 154.38 18.164 154.38 18.356H153.084C153.1 18.212 153.112 18.044 153.12 17.852C153.128 17.652 153.132 17.444 153.132 17.228C153.14 17.004 153.144 16.792 153.144 16.592C153.144 16.392 153.144 16.212 153.144 16.052C153.144 15.676 153.04 15.412 152.832 15.26C152.624 15.108 152.388 15.032 152.124 15.032C151.772 15.032 151.42 15.116 151.068 15.284C150.724 15.444 150.432 15.64 150.192 15.872C150.016 16.048 149.84 16.244 149.664 16.46C149.488 16.676 149.296 16.916 149.088 17.18L147.936 16.316C148.464 15.812 148.92 15.332 149.304 14.876C149.688 14.42 150.008 13.976 150.264 13.544C150.52 13.104 150.728 12.68 150.888 12.272C151.008 11.944 151.108 11.608 151.188 11.264C151.268 10.92 151.316 10.596 151.332 10.292L152.748 10.412ZM148.344 11.576C148.656 11.616 149.008 11.648 149.4 11.672C149.792 11.696 150.136 11.708 150.432 11.708C150.96 11.708 151.536 11.696 152.16 11.672C152.792 11.648 153.428 11.608 154.068 11.552C154.708 11.488 155.316 11.408 155.892 11.312V12.56C155.468 12.624 155.012 12.68 154.524 12.728C154.036 12.768 153.54 12.804 153.036 12.836C152.54 12.86 152.06 12.88 151.596 12.896C151.14 12.904 150.728 12.908 150.36 12.908C150.192 12.908 149.992 12.908 149.76 12.908C149.536 12.9 149.3 12.888 149.052 12.872C148.804 12.856 148.568 12.844 148.344 12.836V11.576ZM157.752 14.84C157.632 14.872 157.492 14.916 157.332 14.972C157.18 15.028 157.024 15.088 156.864 15.152C156.704 15.208 156.56 15.26 156.432 15.308C156.032 15.468 155.564 15.66 155.028 15.884C154.5 16.1 153.956 16.352 153.396 16.64C153.02 16.832 152.7 17.024 152.436 17.216C152.172 17.408 151.968 17.608 151.824 17.816C151.688 18.016 151.62 18.236 151.62 18.476C151.62 18.66 151.66 18.812 151.74 18.932C151.82 19.052 151.94 19.144 152.1 19.208C152.26 19.272 152.456 19.32 152.688 19.352C152.92 19.376 153.184 19.388 153.48 19.388C153.976 19.388 154.528 19.36 155.136 19.304C155.752 19.24 156.324 19.16 156.852 19.064L156.804 20.444C156.532 20.476 156.2 20.508 155.808 20.54C155.424 20.58 155.024 20.608 154.608 20.624C154.2 20.64 153.812 20.648 153.444 20.648C152.836 20.648 152.288 20.588 151.8 20.468C151.312 20.356 150.924 20.16 150.636 19.88C150.356 19.592 150.216 19.196 150.216 18.692C150.216 18.292 150.308 17.932 150.492 17.612C150.676 17.284 150.92 16.988 151.224 16.724C151.528 16.452 151.86 16.208 152.22 15.992C152.588 15.776 152.948 15.576 153.3 15.392C153.676 15.2 154.02 15.036 154.332 14.9C154.644 14.756 154.932 14.628 155.196 14.516C155.468 14.396 155.728 14.28 155.976 14.168C156.192 14.072 156.4 13.976 156.6 13.88C156.808 13.784 157.012 13.684 157.212 13.58L157.752 14.84ZM100.032 34.584H103.404V35.796H100.032V34.584ZM99.468 26.88H103.992V36.54H102.684V28.08H100.716V36.696H99.468V26.88ZM95.772 27.96H97.068V30.3C97.068 30.812 97.032 31.368 96.96 31.968C96.896 32.56 96.76 33.16 96.552 33.768C96.352 34.368 96.064 34.948 95.688 35.508C95.32 36.068 94.832 36.568 94.224 37.008C94.168 36.92 94.084 36.812 93.972 36.684C93.86 36.556 93.744 36.428 93.624 36.3C93.504 36.18 93.4 36.092 93.312 36.036C93.872 35.636 94.316 35.2 94.644 34.728C94.972 34.248 95.216 33.752 95.376 33.24C95.536 32.72 95.64 32.208 95.688 31.704C95.744 31.2 95.772 30.728 95.772 30.288V27.96ZM94.716 27.384H98.82V28.584H94.716V27.384ZM93.468 30.624H99.132V31.836H93.468V30.624ZM96.732 32.28C96.836 32.36 96.972 32.492 97.14 32.676C97.308 32.86 97.492 33.064 97.692 33.288C97.9 33.512 98.104 33.736 98.304 33.96C98.512 34.184 98.692 34.388 98.844 34.572C99.004 34.748 99.12 34.88 99.192 34.968L98.328 36.06C98.216 35.892 98.08 35.704 97.92 35.496C97.768 35.28 97.6 35.056 97.416 34.824C97.24 34.584 97.06 34.352 96.876 34.128C96.7 33.904 96.528 33.696 96.36 33.504C96.2 33.304 96.064 33.136 95.952 33L96.732 32.28ZM94.656 25.836L95.892 26.088C95.788 26.616 95.656 27.136 95.496 27.648C95.336 28.152 95.156 28.628 94.956 29.076C94.756 29.524 94.54 29.92 94.308 30.264C94.228 30.192 94.124 30.112 93.996 30.024C93.876 29.928 93.748 29.832 93.612 29.736C93.476 29.64 93.36 29.568 93.264 29.52C93.6 29.072 93.884 28.52 94.116 27.864C94.348 27.208 94.528 26.532 94.656 25.836ZM109.26 26.412C109.212 26.58 109.16 26.784 109.104 27.024C109.056 27.256 109.008 27.5 108.96 27.756C108.912 28.012 108.868 28.264 108.828 28.512C108.796 28.752 108.772 28.964 108.756 29.148C108.9 28.892 109.072 28.636 109.272 28.38C109.472 28.124 109.704 27.892 109.968 27.684C110.232 27.468 110.516 27.296 110.82 27.168C111.132 27.04 111.46 26.976 111.804 26.976C112.356 26.976 112.852 27.148 113.292 27.492C113.732 27.836 114.076 28.324 114.324 28.956C114.58 29.588 114.708 30.34 114.708 31.212C114.708 32.052 114.584 32.788 114.336 33.42C114.088 34.044 113.736 34.58 113.28 35.028C112.824 35.468 112.276 35.824 111.636 36.096C110.996 36.376 110.288 36.588 109.512 36.732L108.696 35.484C109.352 35.388 109.96 35.248 110.52 35.064C111.08 34.872 111.564 34.62 111.972 34.308C112.38 33.988 112.696 33.576 112.92 33.072C113.152 32.568 113.268 31.952 113.268 31.224C113.268 30.6 113.2 30.064 113.064 29.616C112.928 29.168 112.732 28.828 112.476 28.596C112.228 28.356 111.924 28.236 111.564 28.236C111.204 28.236 110.86 28.356 110.532 28.596C110.204 28.828 109.908 29.132 109.644 29.508C109.388 29.876 109.18 30.276 109.02 30.708C108.868 31.14 108.78 31.556 108.756 31.956C108.74 32.14 108.736 32.336 108.744 32.544C108.752 32.752 108.772 32.996 108.804 33.276L107.484 33.372C107.452 33.14 107.42 32.852 107.388 32.508C107.356 32.164 107.34 31.796 107.34 31.404C107.34 31.116 107.348 30.812 107.364 30.492C107.388 30.164 107.416 29.832 107.448 29.496C107.48 29.152 107.516 28.812 107.556 28.476C107.604 28.14 107.648 27.828 107.688 27.54C107.712 27.324 107.732 27.112 107.748 26.904C107.764 26.696 107.776 26.512 107.784 26.352L109.26 26.412ZM122.58 26.46C122.54 26.612 122.496 26.8 122.448 27.024C122.4 27.24 122.364 27.412 122.34 27.54C122.284 27.82 122.216 28.156 122.136 28.548C122.056 28.932 121.964 29.34 121.86 29.772C121.764 30.204 121.664 30.62 121.56 31.02C121.456 31.444 121.328 31.904 121.176 32.4C121.024 32.896 120.86 33.396 120.684 33.9C120.516 34.404 120.344 34.888 120.168 35.352C119.992 35.808 119.824 36.212 119.664 36.564L118.164 36.06C118.348 35.756 118.536 35.384 118.728 34.944C118.92 34.504 119.108 34.036 119.292 33.54C119.484 33.036 119.66 32.536 119.82 32.04C119.98 31.544 120.116 31.088 120.228 30.672C120.308 30.384 120.38 30.092 120.444 29.796C120.516 29.492 120.58 29.2 120.636 28.92C120.7 28.632 120.752 28.364 120.792 28.116C120.84 27.868 120.876 27.656 120.9 27.48C120.924 27.272 120.94 27.064 120.948 26.856C120.956 26.64 120.952 26.464 120.936 26.328L122.58 26.46ZM119.628 28.308C120.108 28.308 120.608 28.288 121.128 28.248C121.656 28.2 122.188 28.132 122.724 28.044C123.268 27.948 123.796 27.84 124.308 27.72V29.064C123.812 29.176 123.284 29.272 122.724 29.352C122.172 29.432 121.628 29.496 121.092 29.544C120.556 29.584 120.064 29.604 119.616 29.604C119.336 29.604 119.08 29.6 118.848 29.592C118.616 29.576 118.392 29.564 118.176 29.556L118.14 28.224C118.444 28.256 118.708 28.28 118.932 28.296C119.164 28.304 119.396 28.308 119.628 28.308ZM123.408 30.096C123.744 30.064 124.108 30.04 124.5 30.024C124.9 30 125.296 29.988 125.688 29.988C126.032 29.988 126.38 29.996 126.732 30.012C127.092 30.02 127.444 30.044 127.788 30.084L127.752 31.38C127.448 31.34 127.12 31.308 126.768 31.284C126.424 31.252 126.068 31.236 125.7 31.236C125.3 31.236 124.912 31.248 124.536 31.272C124.16 31.288 123.784 31.316 123.408 31.356V30.096ZM123.948 33.084C123.9 33.26 123.86 33.44 123.828 33.624C123.796 33.808 123.78 33.968 123.78 34.104C123.78 34.24 123.804 34.368 123.852 34.488C123.908 34.608 124 34.712 124.128 34.8C124.256 34.888 124.432 34.96 124.656 35.016C124.888 35.064 125.18 35.088 125.532 35.088C125.932 35.088 126.336 35.068 126.744 35.028C127.152 34.98 127.564 34.916 127.98 34.836L127.932 36.216C127.596 36.256 127.228 36.292 126.828 36.324C126.428 36.364 125.992 36.384 125.52 36.384C124.528 36.384 123.768 36.224 123.24 35.904C122.72 35.576 122.46 35.112 122.46 34.512C122.46 34.248 122.48 33.984 122.52 33.72C122.568 33.456 122.616 33.204 122.664 32.964L123.948 33.084ZM131.988 27.48C131.964 27.608 131.944 27.76 131.928 27.936C131.912 28.104 131.896 28.272 131.88 28.44C131.872 28.608 131.864 28.748 131.856 28.86C131.856 29.116 131.856 29.392 131.856 29.688C131.864 29.976 131.872 30.272 131.88 30.576C131.896 30.88 131.916 31.184 131.94 31.488C131.996 32.088 132.084 32.616 132.204 33.072C132.324 33.528 132.472 33.884 132.648 34.14C132.832 34.396 133.056 34.524 133.32 34.524C133.464 34.524 133.6 34.452 133.728 34.308C133.864 34.156 133.988 33.96 134.1 33.72C134.22 33.472 134.324 33.212 134.412 32.94C134.508 32.66 134.588 32.392 134.652 32.136L135.732 33.42C135.476 34.108 135.216 34.656 134.952 35.064C134.696 35.472 134.432 35.768 134.16 35.952C133.888 36.128 133.6 36.216 133.296 36.216C132.872 36.216 132.472 36.076 132.096 35.796C131.728 35.508 131.408 35.048 131.136 34.416C130.864 33.776 130.672 32.924 130.56 31.86C130.52 31.5 130.488 31.116 130.464 30.708C130.448 30.3 130.436 29.912 130.428 29.544C130.428 29.176 130.428 28.872 130.428 28.632C130.428 28.472 130.42 28.28 130.404 28.056C130.396 27.832 130.372 27.632 130.332 27.456L131.988 27.48ZM138.06 27.768C138.284 28.04 138.5 28.368 138.708 28.752C138.916 29.136 139.104 29.548 139.272 29.988C139.448 30.428 139.6 30.88 139.728 31.344C139.864 31.8 139.972 32.248 140.052 32.688C140.14 33.128 140.2 33.536 140.232 33.912L138.828 34.464C138.78 33.96 138.7 33.424 138.588 32.856C138.484 32.28 138.344 31.708 138.168 31.14C137.992 30.572 137.784 30.036 137.544 29.532C137.304 29.02 137.024 28.58 136.704 28.212L138.06 27.768Z" fill="#333333"/>
<mask id="mask0_83_2975" style="mask-type:alpha" maskUnits="userSpaceOnUse" x="49" y="13" width="22" height="20">
<rect x="49" y="13" width="21.2533" height="19.5389" fill="#2FB3BC"/>
</mask>
<g mask="url(#mask0_83_2975)">
<path d="M68.0613 14.5253H66.7272V13.5719C66.7272 13.2561 66.4711 13 66.1553 13H63.3918C63.076 13 62.8199 13.2561 62.8199 13.5719V14.5253H56.815V13.5719C56.815 13.2561 56.5589 13 56.2431 13H53.4804C53.1646 13 52.9085 13.2561 52.9085 13.5719V14.5253H51.1932C49.9837 14.5253 49 15.509 49 16.7181V30.3457C49 31.5552 49.9837 32.5389 51.1932 32.5389H56.0193H65.1807H68.0601C69.2696 32.5389 70.2533 31.5552 70.2533 30.3457V23.1058V16.7181C70.2533 15.509 69.27 14.5253 68.0613 14.5253ZM63.9633 14.1438H65.5834V16.9073H63.9633V14.1438ZM54.0519 14.1438H55.6712V16.9073H54.0519V14.1438ZM50.1434 16.7181C50.1434 16.1399 50.6145 15.6691 51.1932 15.6691H52.9085V17.4792C52.9085 17.795 53.1646 18.0511 53.4804 18.0511H56.2431C56.5589 18.0511 56.815 17.795 56.815 17.4792V15.6691H62.8199V17.4792C62.8199 17.795 63.076 18.0511 63.3918 18.0511H66.1553C66.4711 18.0511 66.7272 17.795 66.7272 17.4792V15.6691H68.0613C68.6392 15.6691 69.1099 16.1399 69.1099 16.7181V19.1957H50.1434V16.7181ZM69.1099 30.3457C69.1099 30.9243 68.6388 31.3951 68.0601 31.3951H65.3153H51.1932C50.6145 31.3951 50.1434 30.9243 50.1434 30.3457V20.3395H69.1099V30.3457Z" fill="#2FB3BC"/>
</g>
</svg>
