<svg width="144" height="29" viewBox="0 0 144 29" fill="none" xmlns="http://www.w3.org/2000/svg">
<rect x="0.5" y="0.5" width="143" height="28" rx="14" fill="#838383" stroke="white"/>
<path d="M39.936 9.568H50.088V12.196H49.152V10.408H40.836V12.196H39.936V9.568ZM42.732 11.932H48.324V12.724H42.732V11.932ZM42.312 14.164H47.52V14.968H42.312V14.164ZM39.66 16.396H50.376V17.224H39.66V16.396ZM47.28 14.164H48.18C48.18 14.164 48.176 14.192 48.168 14.248C48.168 14.296 48.168 14.352 48.168 14.416C48.168 14.48 48.16 14.536 48.144 14.584C48.048 15.656 47.948 16.532 47.844 17.212C47.748 17.884 47.64 18.404 47.52 18.772C47.4 19.14 47.256 19.404 47.088 19.564C46.952 19.7 46.804 19.796 46.644 19.852C46.492 19.908 46.304 19.944 46.08 19.96C45.88 19.968 45.6 19.968 45.24 19.96C44.888 19.96 44.516 19.948 44.124 19.924C44.116 19.796 44.084 19.652 44.028 19.492C43.972 19.332 43.9 19.192 43.812 19.072C44.236 19.104 44.628 19.124 44.988 19.132C45.356 19.148 45.616 19.156 45.768 19.156C45.912 19.156 46.024 19.144 46.104 19.12C46.192 19.104 46.272 19.068 46.344 19.012C46.472 18.9 46.588 18.672 46.692 18.328C46.804 17.976 46.908 17.476 47.004 16.828C47.1 16.172 47.192 15.336 47.28 14.32V14.164ZM42.6 10.504L43.5 10.588C43.404 11.108 43.292 11.66 43.164 12.244C43.044 12.828 42.92 13.396 42.792 13.948C42.664 14.5 42.544 14.976 42.432 15.376L41.52 15.292C41.608 14.98 41.7 14.628 41.796 14.236C41.892 13.844 41.988 13.432 42.084 13C42.18 12.568 42.272 12.14 42.36 11.716C42.456 11.284 42.536 10.88 42.6 10.504ZM57.192 18.496L57.78 17.92C58.22 18.072 58.668 18.236 59.124 18.412C59.588 18.58 60.024 18.748 60.432 18.916C60.84 19.084 61.192 19.236 61.488 19.372L60.732 19.984C60.46 19.84 60.132 19.684 59.748 19.516C59.372 19.348 58.964 19.176 58.524 19C58.084 18.824 57.64 18.656 57.192 18.496ZM50.76 16.948H61.416V17.716H50.76V16.948ZM51.096 9.928H61.116V10.696H51.096V9.928ZM55.584 8.908H56.52V11.86H55.584V8.908ZM53.436 13.456V14.26H58.908V13.456H53.436ZM53.436 14.836V15.652H58.908V14.836H53.436ZM53.436 12.1V12.88H58.908V12.1H53.436ZM52.56 11.488H59.82V16.24H52.56V11.488ZM54.228 17.944L55.02 18.46C54.7 18.652 54.332 18.844 53.916 19.036C53.5 19.228 53.072 19.404 52.632 19.564C52.192 19.732 51.772 19.872 51.372 19.984C51.3 19.896 51.204 19.788 51.084 19.66C50.964 19.532 50.856 19.428 50.76 19.348C51.16 19.236 51.58 19.104 52.02 18.952C52.46 18.8 52.876 18.636 53.268 18.46C53.66 18.284 53.98 18.112 54.228 17.944ZM61.68 13.828H72.672V14.812H61.68V13.828ZM75.396 15.58V16.18H81.024V15.58H75.396ZM75.396 16.708V17.32H81.024V16.708H75.396ZM75.396 14.464V15.052H81.024V14.464H75.396ZM74.544 13.912H81.912V17.872H74.544V13.912ZM78.96 17.56H79.848V18.796C79.848 18.924 79.888 19.004 79.968 19.036C80.048 19.076 80.224 19.096 80.496 19.096C80.56 19.096 80.672 19.096 80.832 19.096C81 19.096 81.184 19.096 81.384 19.096C81.592 19.096 81.784 19.096 81.96 19.096C82.144 19.096 82.276 19.096 82.356 19.096C82.508 19.096 82.62 19.072 82.692 19.024C82.764 18.976 82.816 18.872 82.848 18.712C82.888 18.552 82.912 18.308 82.92 17.98C83.008 18.036 83.128 18.096 83.28 18.16C83.432 18.216 83.568 18.256 83.688 18.28C83.664 18.696 83.608 19.016 83.52 19.24C83.44 19.472 83.316 19.628 83.148 19.708C82.98 19.796 82.744 19.84 82.44 19.84C82.392 19.84 82.3 19.84 82.164 19.84C82.028 19.84 81.868 19.84 81.684 19.84C81.508 19.84 81.332 19.84 81.156 19.84C80.98 19.84 80.824 19.84 80.688 19.84C80.552 19.84 80.46 19.84 80.412 19.84C80.028 19.84 79.732 19.808 79.524 19.744C79.316 19.688 79.168 19.584 79.08 19.432C79 19.288 78.96 19.076 78.96 18.796V17.56ZM76.38 17.584H77.268C77.18 17.936 77.044 18.248 76.86 18.52C76.684 18.784 76.436 19.008 76.116 19.192C75.804 19.384 75.408 19.544 74.928 19.672C74.448 19.8 73.86 19.9 73.164 19.972C73.14 19.876 73.084 19.756 72.996 19.612C72.916 19.476 72.836 19.368 72.756 19.288C73.388 19.232 73.916 19.156 74.34 19.06C74.772 18.972 75.124 18.864 75.396 18.736C75.668 18.6 75.88 18.44 76.032 18.256C76.184 18.064 76.3 17.84 76.38 17.584ZM79.332 12.352H83.328V13.072H79.332V12.352ZM79.476 10.132H83.652V10.864H79.476V10.132ZM79.656 8.908L80.484 9.1C80.292 9.7 80.048 10.28 79.752 10.84C79.464 11.4 79.156 11.872 78.828 12.256C78.78 12.216 78.712 12.164 78.624 12.1C78.536 12.036 78.448 11.976 78.36 11.92C78.272 11.864 78.192 11.82 78.12 11.788C78.456 11.428 78.756 10.996 79.02 10.492C79.284 9.98 79.496 9.452 79.656 8.908ZM75.384 9.64H76.14V10.768H75.384V9.64ZM75.384 11.896H76.14V13.06H75.384V11.896ZM73.764 10.504H77.916V12.244H73.764V11.692H77.112V11.068H73.764V10.504ZM78.168 9.352V9.928H74.148V12.904H78.336V13.48H73.32V9.352H78.168ZM88.824 9.508C88.776 9.748 88.712 10.032 88.632 10.36C88.56 10.68 88.44 11.044 88.272 11.452C88.128 11.812 87.948 12.184 87.732 12.568C87.524 12.952 87.3 13.3 87.06 13.612C87.212 13.516 87.384 13.436 87.576 13.372C87.768 13.3 87.964 13.248 88.164 13.216C88.372 13.184 88.56 13.168 88.728 13.168C89.192 13.168 89.584 13.3 89.904 13.564C90.224 13.82 90.384 14.196 90.384 14.692C90.384 14.844 90.384 15.04 90.384 15.28C90.384 15.512 90.384 15.76 90.384 16.024C90.392 16.28 90.4 16.532 90.408 16.78C90.416 17.028 90.42 17.244 90.42 17.428H89.496C89.504 17.268 89.512 17.08 89.52 16.864C89.528 16.648 89.532 16.42 89.532 16.18C89.54 15.94 89.54 15.712 89.532 15.496C89.532 15.28 89.532 15.096 89.532 14.944C89.532 14.592 89.424 14.336 89.208 14.176C89 14.008 88.736 13.924 88.416 13.924C88.04 13.924 87.668 14.008 87.3 14.176C86.94 14.336 86.624 14.544 86.352 14.8C86.176 14.968 86 15.16 85.824 15.376C85.656 15.584 85.468 15.808 85.26 16.048L84.444 15.448C85.02 14.888 85.5 14.364 85.884 13.876C86.268 13.388 86.58 12.936 86.82 12.52C87.06 12.096 87.248 11.716 87.384 11.38C87.512 11.044 87.616 10.708 87.696 10.372C87.776 10.028 87.824 9.712 87.84 9.424L88.824 9.508ZM84.72 10.804C85.04 10.844 85.388 10.876 85.764 10.9C86.14 10.924 86.468 10.936 86.748 10.936C87.284 10.936 87.86 10.924 88.476 10.9C89.092 10.868 89.712 10.824 90.336 10.768C90.968 10.712 91.568 10.632 92.136 10.528L92.124 11.416C91.708 11.488 91.264 11.548 90.792 11.596C90.32 11.636 89.84 11.672 89.352 11.704C88.864 11.728 88.392 11.748 87.936 11.764C87.488 11.772 87.072 11.776 86.688 11.776C86.52 11.776 86.324 11.776 86.1 11.776C85.884 11.768 85.656 11.76 85.416 11.752C85.176 11.736 84.944 11.72 84.72 11.704V10.804ZM93.888 13.708C93.784 13.732 93.668 13.768 93.54 13.816C93.42 13.856 93.296 13.9 93.168 13.948C93.048 13.996 92.932 14.044 92.82 14.092C92.404 14.252 91.92 14.448 91.368 14.68C90.816 14.912 90.252 15.18 89.676 15.484C89.276 15.684 88.924 15.896 88.62 16.12C88.316 16.336 88.076 16.564 87.9 16.804C87.724 17.036 87.636 17.292 87.636 17.572C87.636 17.804 87.688 17.992 87.792 18.136C87.904 18.28 88.06 18.392 88.26 18.472C88.46 18.544 88.688 18.592 88.944 18.616C89.208 18.64 89.496 18.652 89.808 18.652C90.272 18.652 90.8 18.628 91.392 18.58C91.992 18.524 92.556 18.452 93.084 18.364L93.06 19.324C92.756 19.364 92.412 19.4 92.028 19.432C91.652 19.464 91.268 19.488 90.876 19.504C90.492 19.528 90.124 19.54 89.772 19.54C89.204 19.54 88.684 19.488 88.212 19.384C87.748 19.28 87.376 19.096 87.096 18.832C86.816 18.568 86.676 18.192 86.676 17.704C86.676 17.344 86.76 17.016 86.928 16.72C87.096 16.416 87.32 16.14 87.6 15.892C87.888 15.644 88.204 15.416 88.548 15.208C88.892 14.992 89.244 14.796 89.604 14.62C89.988 14.412 90.348 14.232 90.684 14.08C91.028 13.928 91.352 13.788 91.656 13.66C91.96 13.532 92.244 13.404 92.508 13.276C92.684 13.196 92.852 13.12 93.012 13.048C93.172 12.976 93.332 12.896 93.492 12.808L93.888 13.708ZM97.356 14.932H103.452V15.688H97.356V14.932ZM100.764 13.852H101.58V18.724C101.58 18.932 101.552 19.096 101.496 19.216C101.448 19.336 101.348 19.428 101.196 19.492C101.044 19.556 100.848 19.596 100.608 19.612C100.376 19.628 100.08 19.636 99.72 19.636C99.704 19.524 99.668 19.396 99.612 19.252C99.556 19.108 99.5 18.984 99.444 18.88C99.7 18.888 99.932 18.892 100.14 18.892C100.356 18.892 100.5 18.892 100.572 18.892C100.7 18.884 100.764 18.824 100.764 18.712V13.852ZM100.596 15.412L101.256 15.688C100.984 16.12 100.644 16.54 100.236 16.948C99.836 17.356 99.408 17.728 98.952 18.064C98.496 18.4 98.044 18.68 97.596 18.904C97.524 18.8 97.432 18.684 97.32 18.556C97.216 18.428 97.12 18.324 97.032 18.244C97.472 18.068 97.916 17.832 98.364 17.536C98.812 17.24 99.232 16.908 99.624 16.54C100.024 16.172 100.348 15.796 100.596 15.412ZM95.904 11.14H99.24V11.8H95.904V11.14ZM101.436 11.14H104.844V11.8H101.436V11.14ZM104.46 9.436H105.372V18.748C105.372 19.052 105.332 19.28 105.252 19.432C105.172 19.592 105.032 19.712 104.832 19.792C104.624 19.872 104.344 19.92 103.992 19.936C103.64 19.952 103.2 19.96 102.672 19.96C102.664 19.872 102.64 19.772 102.6 19.66C102.568 19.548 102.528 19.436 102.48 19.324C102.44 19.212 102.396 19.116 102.348 19.036C102.62 19.044 102.876 19.048 103.116 19.048C103.364 19.048 103.58 19.048 103.764 19.048C103.956 19.048 104.088 19.048 104.16 19.048C104.272 19.04 104.348 19.016 104.388 18.976C104.436 18.928 104.46 18.852 104.46 18.748V9.436ZM95.976 9.436H99.816V13.552H95.976V12.868H98.976V10.132H95.976V9.436ZM104.916 9.436V10.132H101.76V12.88H104.916V13.576H100.908V9.436H104.916ZM95.46 9.436H96.36V19.972H95.46V9.436ZM112.704 10.72C112.808 10.856 112.932 11.04 113.076 11.272C113.22 11.504 113.36 11.74 113.496 11.98C113.64 12.22 113.76 12.436 113.856 12.628L113.148 12.952C113.044 12.736 112.928 12.516 112.8 12.292C112.68 12.06 112.552 11.836 112.416 11.62C112.288 11.396 112.156 11.192 112.02 11.008L112.704 10.72ZM114.252 10.108C114.364 10.244 114.492 10.424 114.636 10.648C114.788 10.872 114.936 11.104 115.08 11.344C115.224 11.584 115.344 11.796 115.44 11.98L114.744 12.316C114.64 12.108 114.524 11.892 114.396 11.668C114.268 11.444 114.132 11.224 113.988 11.008C113.852 10.792 113.716 10.596 113.58 10.42L114.252 10.108ZM109.38 9.736C109.356 9.936 109.332 10.136 109.308 10.336C109.292 10.536 109.28 10.74 109.272 10.948C109.264 11.284 109.248 11.7 109.224 12.196C109.208 12.692 109.192 13.22 109.176 13.78C109.168 14.332 109.156 14.884 109.14 15.436C109.132 15.988 109.128 16.484 109.128 16.924C109.128 17.364 109.212 17.716 109.38 17.98C109.548 18.236 109.78 18.424 110.076 18.544C110.372 18.656 110.712 18.712 111.096 18.712C111.64 18.712 112.132 18.644 112.572 18.508C113.012 18.364 113.404 18.176 113.748 17.944C114.092 17.704 114.396 17.436 114.66 17.14C114.932 16.844 115.176 16.54 115.392 16.228L116.076 17.044C115.868 17.324 115.612 17.62 115.308 17.932C115.012 18.244 114.66 18.532 114.252 18.796C113.844 19.06 113.376 19.276 112.848 19.444C112.32 19.612 111.728 19.696 111.072 19.696C110.496 19.696 109.988 19.608 109.548 19.432C109.108 19.256 108.764 18.972 108.516 18.58C108.268 18.188 108.144 17.668 108.144 17.02C108.144 16.66 108.148 16.264 108.156 15.832C108.164 15.392 108.176 14.94 108.192 14.476C108.208 14.012 108.22 13.56 108.228 13.12C108.244 12.672 108.256 12.26 108.264 11.884C108.272 11.508 108.276 11.196 108.276 10.948C108.276 10.716 108.268 10.5 108.252 10.3C108.236 10.092 108.208 9.9 108.168 9.724L109.38 9.736ZM119.388 10.156C119.524 10.172 119.668 10.184 119.82 10.192C119.98 10.2 120.12 10.204 120.24 10.204C120.36 10.204 120.556 10.2 120.828 10.192C121.108 10.184 121.42 10.176 121.764 10.168C122.116 10.152 122.464 10.14 122.808 10.132C123.16 10.116 123.472 10.1 123.744 10.084C124.024 10.068 124.228 10.056 124.356 10.048C124.532 10.032 124.668 10.016 124.764 10C124.86 9.984 124.94 9.968 125.004 9.952L125.556 10.648C125.452 10.72 125.34 10.796 125.22 10.876C125.108 10.956 124.996 11.044 124.884 11.14C124.732 11.252 124.528 11.416 124.272 11.632C124.016 11.84 123.732 12.076 123.42 12.34C123.116 12.596 122.816 12.848 122.52 13.096C122.224 13.344 121.956 13.568 121.716 13.768C121.996 13.672 122.276 13.608 122.556 13.576C122.844 13.536 123.12 13.516 123.384 13.516C124.048 13.516 124.636 13.64 125.148 13.888C125.668 14.128 126.072 14.46 126.36 14.884C126.656 15.308 126.804 15.792 126.804 16.336C126.804 16.976 126.636 17.536 126.3 18.016C125.964 18.496 125.488 18.864 124.872 19.12C124.256 19.384 123.524 19.516 122.676 19.516C122.132 19.516 121.664 19.444 121.272 19.3C120.88 19.156 120.576 18.956 120.36 18.7C120.152 18.444 120.048 18.148 120.048 17.812C120.048 17.54 120.124 17.284 120.276 17.044C120.428 16.804 120.644 16.612 120.924 16.468C121.204 16.324 121.528 16.252 121.896 16.252C122.432 16.252 122.876 16.364 123.228 16.588C123.58 16.804 123.852 17.092 124.044 17.452C124.236 17.804 124.344 18.184 124.368 18.592L123.504 18.736C123.472 18.224 123.312 17.804 123.024 17.476C122.744 17.14 122.364 16.972 121.884 16.972C121.612 16.972 121.384 17.048 121.2 17.2C121.016 17.352 120.924 17.532 120.924 17.74C120.924 18.028 121.072 18.256 121.368 18.424C121.664 18.592 122.048 18.676 122.52 18.676C123.2 18.676 123.788 18.584 124.284 18.4C124.788 18.216 125.172 17.948 125.436 17.596C125.708 17.244 125.844 16.82 125.844 16.324C125.844 15.932 125.728 15.58 125.496 15.268C125.264 14.956 124.944 14.712 124.536 14.536C124.136 14.352 123.676 14.26 123.156 14.26C122.652 14.26 122.2 14.316 121.8 14.428C121.4 14.532 121.024 14.684 120.672 14.884C120.328 15.084 119.984 15.336 119.64 15.64C119.304 15.936 118.944 16.276 118.56 16.66L117.876 15.952C118.124 15.752 118.396 15.528 118.692 15.28C118.996 15.024 119.3 14.772 119.604 14.524C119.908 14.268 120.188 14.032 120.444 13.816C120.708 13.592 120.928 13.408 121.104 13.264C121.272 13.128 121.48 12.956 121.728 12.748C121.984 12.532 122.248 12.308 122.52 12.076C122.792 11.844 123.048 11.624 123.288 11.416C123.536 11.208 123.736 11.04 123.888 10.912C123.76 10.912 123.572 10.92 123.324 10.936C123.076 10.944 122.8 10.956 122.496 10.972C122.192 10.98 121.888 10.992 121.584 11.008C121.288 11.024 121.016 11.04 120.768 11.056C120.528 11.064 120.344 11.072 120.216 11.08C120.088 11.088 119.956 11.096 119.82 11.104C119.684 11.112 119.552 11.128 119.424 11.152L119.388 10.156Z" fill="white"/>
<path d="M25 18L20.0003 10L15 18H25Z" fill="white"/>
</svg>
