<svg width="38" height="51" viewBox="0 0 38 51" fill="none" xmlns="http://www.w3.org/2000/svg">
<path d="M4.69 44.463C4.676 44.5657 4.66433 44.673 4.655 44.785C4.65033 44.8923 4.65033 44.9973 4.655 45.1C4.655 45.2587 4.65733 45.4477 4.662 45.667C4.66667 45.8863 4.67133 46.129 4.676 46.395C4.68067 46.6563 4.68533 46.9293 4.69 47.214C4.69933 47.494 4.70633 47.7763 4.711 48.061C4.71567 48.341 4.718 48.614 4.718 48.88C4.72267 49.146 4.72733 49.391 4.732 49.615C4.732 49.8157 4.67367 49.9697 4.557 50.077C4.44033 50.189 4.263 50.245 4.025 50.245C3.83367 50.245 3.63767 50.2403 3.437 50.231C3.241 50.2217 3.04967 50.2123 2.863 50.203L2.807 49.482C2.97033 49.5053 3.13833 49.524 3.311 49.538C3.48833 49.552 3.64 49.559 3.766 49.559C3.864 49.559 3.93167 49.5357 3.969 49.489C4.00633 49.4423 4.025 49.3723 4.025 49.279C4.025 49.111 4.02267 48.915 4.018 48.691C4.018 48.467 4.01567 48.2267 4.011 47.97C4.011 47.7087 4.00867 47.445 4.004 47.179C4.004 46.9083 4.00167 46.6447 3.997 46.388C3.99233 46.1313 3.98533 45.8933 3.976 45.674C3.97133 45.45 3.96433 45.2587 3.955 45.1C3.95033 44.96 3.941 44.8387 3.927 44.736C3.91767 44.6333 3.906 44.5423 3.892 44.463H4.69ZM0.833 45.66C0.931 45.674 1.043 45.6857 1.169 45.695C1.29967 45.7043 1.421 45.709 1.533 45.709C1.59367 45.709 1.70567 45.709 1.869 45.709C2.037 45.709 2.23767 45.709 2.471 45.709C2.70433 45.709 2.954 45.709 3.22 45.709C3.49067 45.709 3.759 45.709 4.025 45.709C4.291 45.709 4.53833 45.709 4.767 45.709C4.99567 45.709 5.18933 45.709 5.348 45.709C5.51133 45.709 5.61633 45.709 5.663 45.709C5.76567 45.709 5.88233 45.7043 6.013 45.695C6.14367 45.681 6.244 45.6693 6.314 45.66V46.395C6.22067 46.3903 6.11567 46.388 5.999 46.388C5.887 46.3833 5.78667 46.381 5.698 46.381C5.65133 46.381 5.54867 46.381 5.39 46.381C5.23133 46.381 5.03533 46.381 4.802 46.381C4.56867 46.381 4.31667 46.381 4.046 46.381C3.77533 46.381 3.50233 46.381 3.227 46.381C2.95633 46.381 2.702 46.381 2.464 46.381C2.23067 46.381 2.03233 46.381 1.869 46.381C1.70567 46.381 1.59833 46.381 1.547 46.381C1.42567 46.381 1.30433 46.3833 1.183 46.388C1.06167 46.388 0.945 46.3927 0.833 46.402V45.66ZM0.525 48.957C0.893667 48.7797 1.246 48.579 1.582 48.355C1.918 48.131 2.226 47.8977 2.506 47.655C2.79067 47.4077 3.04033 47.1627 3.255 46.92C3.46967 46.6773 3.64233 46.451 3.773 46.241H4.13L4.137 46.836C4.00167 47.046 3.822 47.2723 3.598 47.515C3.37867 47.7577 3.13133 48.0027 2.856 48.25C2.58067 48.4927 2.28667 48.726 1.974 48.95C1.666 49.1693 1.351 49.363 1.029 49.531L0.525 48.957ZM6.748 46.878C6.82733 46.8827 6.923 46.8897 7.035 46.899C7.15167 46.9037 7.27533 46.9083 7.406 46.913C7.54133 46.9177 7.66967 46.92 7.791 46.92C7.88433 46.92 8.01267 46.92 8.176 46.92C8.33933 46.92 8.52367 46.92 8.729 46.92C8.939 46.92 9.15833 46.92 9.387 46.92C9.61567 46.92 9.842 46.92 10.066 46.92C10.2947 46.92 10.5093 46.92 10.71 46.92C10.9107 46.92 11.088 46.92 11.242 46.92C11.396 46.92 11.515 46.92 11.599 46.92C11.767 46.92 11.9187 46.9153 12.054 46.906C12.1893 46.892 12.299 46.8827 12.383 46.878V47.746C12.3037 47.7413 12.1917 47.7343 12.047 47.725C11.9023 47.7157 11.753 47.711 11.599 47.711C11.5197 47.711 11.4007 47.711 11.242 47.711C11.088 47.711 10.9107 47.711 10.71 47.711C10.5093 47.711 10.2947 47.711 10.066 47.711C9.842 47.711 9.61567 47.711 9.387 47.711C9.15833 47.711 8.939 47.711 8.729 47.711C8.52367 47.711 8.33933 47.711 8.176 47.711C8.01267 47.711 7.88433 47.711 7.791 47.711C7.59967 47.711 7.40833 47.7157 7.217 47.725C7.02567 47.7297 6.86933 47.7367 6.748 47.746V46.878ZM14.427 49.356C14.427 49.2813 14.427 49.146 14.427 48.95C14.427 48.7493 14.427 48.5137 14.427 48.243C14.427 47.9677 14.427 47.683 14.427 47.389C14.427 47.0903 14.427 46.801 14.427 46.521C14.427 46.241 14.427 45.9937 14.427 45.779C14.427 45.5643 14.427 45.408 14.427 45.31C14.427 45.198 14.4223 45.0697 14.413 44.925C14.4037 44.7757 14.3873 44.6427 14.364 44.526H15.225C15.2157 44.638 15.204 44.7663 15.19 44.911C15.1807 45.0557 15.176 45.1887 15.176 45.31C15.176 45.4687 15.176 45.6693 15.176 45.912C15.176 46.15 15.176 46.409 15.176 46.689C15.176 46.969 15.176 47.2513 15.176 47.536C15.176 47.8207 15.176 48.089 15.176 48.341C15.176 48.5883 15.176 48.803 15.176 48.985C15.176 49.167 15.176 49.2907 15.176 49.356C15.176 49.4307 15.1783 49.5217 15.183 49.629C15.1877 49.7363 15.1947 49.846 15.204 49.958C15.2133 50.0653 15.2227 50.1633 15.232 50.252H14.371C14.3897 50.1307 14.4037 49.986 14.413 49.818C14.4223 49.6453 14.427 49.4913 14.427 49.356ZM15.015 46.353C15.2437 46.4183 15.5003 46.5 15.785 46.598C16.0697 46.6913 16.3567 46.794 16.646 46.906C16.9353 47.0133 17.2107 47.1207 17.472 47.228C17.7333 47.3353 17.955 47.4333 18.137 47.522L17.822 48.285C17.626 48.1777 17.4043 48.0703 17.157 47.963C16.9143 47.851 16.6647 47.7437 16.408 47.641C16.1513 47.5383 15.9017 47.445 15.659 47.361C15.421 47.277 15.2063 47.2047 15.015 47.144V46.353ZM19.166 45.128C19.3107 45.1327 19.4367 45.1373 19.544 45.142C19.656 45.142 19.7563 45.142 19.845 45.142C19.9057 45.142 20.013 45.142 20.167 45.142C20.321 45.142 20.503 45.142 20.713 45.142C20.923 45.142 21.147 45.142 21.385 45.142C21.6277 45.142 21.8703 45.142 22.113 45.142C22.3557 45.142 22.5797 45.142 22.785 45.142C22.995 45.142 23.1747 45.142 23.324 45.142C23.478 45.142 23.5853 45.142 23.646 45.142C23.7253 45.142 23.8233 45.142 23.94 45.142C24.0613 45.142 24.178 45.1397 24.29 45.135C24.2853 45.2283 24.2807 45.3287 24.276 45.436C24.276 45.5387 24.276 45.639 24.276 45.737C24.276 45.7883 24.276 45.884 24.276 46.024C24.276 46.1593 24.276 46.325 24.276 46.521C24.276 46.7123 24.276 46.92 24.276 47.144C24.276 47.3633 24.276 47.5827 24.276 47.802C24.276 48.0213 24.276 48.2267 24.276 48.418C24.276 48.6093 24.276 48.7727 24.276 48.908C24.276 49.0387 24.276 49.1273 24.276 49.174C24.276 49.2347 24.276 49.314 24.276 49.412C24.2807 49.5053 24.283 49.601 24.283 49.699C24.283 49.797 24.283 49.881 24.283 49.951C24.2877 50.021 24.29 50.063 24.29 50.077H23.527C23.5317 50.0583 23.534 50.0023 23.534 49.909C23.534 49.8157 23.534 49.706 23.534 49.58C23.5387 49.454 23.541 49.3373 23.541 49.23C23.541 49.1833 23.541 49.0877 23.541 48.943C23.541 48.7983 23.541 48.6233 23.541 48.418C23.541 48.2127 23.541 47.9933 23.541 47.76C23.541 47.5267 23.541 47.298 23.541 47.074C23.541 46.8453 23.541 46.64 23.541 46.458C23.541 46.2713 23.541 46.122 23.541 46.01C23.541 45.898 23.541 45.842 23.541 45.842H19.908C19.908 45.842 19.908 45.898 19.908 46.01C19.908 46.1173 19.908 46.2643 19.908 46.451C19.908 46.6377 19.908 46.843 19.908 47.067C19.908 47.291 19.908 47.5197 19.908 47.753C19.908 47.9863 19.908 48.2057 19.908 48.411C19.908 48.6163 19.908 48.7913 19.908 48.936C19.908 49.0807 19.908 49.1787 19.908 49.23C19.908 49.2953 19.908 49.3747 19.908 49.468C19.908 49.5567 19.908 49.6453 19.908 49.734C19.9127 49.818 19.915 49.8927 19.915 49.958C19.9197 50.0233 19.922 50.063 19.922 50.077H19.159C19.159 50.063 19.159 50.021 19.159 49.951C19.1637 49.881 19.166 49.7993 19.166 49.706C19.1707 49.6127 19.173 49.5193 19.173 49.426C19.1777 49.328 19.18 49.244 19.18 49.174C19.18 49.1227 19.18 49.0293 19.18 48.894C19.18 48.7587 19.18 48.5953 19.18 48.404C19.18 48.208 19.18 48.0003 19.18 47.781C19.18 47.557 19.18 47.3353 19.18 47.116C19.18 46.8967 19.18 46.6913 19.18 46.5C19.18 46.3087 19.18 46.1453 19.18 46.01C19.18 45.8747 19.18 45.7837 19.18 45.737C19.18 45.6483 19.18 45.548 19.18 45.436C19.18 45.324 19.1753 45.2213 19.166 45.128ZM23.821 48.985V49.685H19.551V48.985H23.821ZM27.727 45.912C27.7597 45.982 27.8017 46.087 27.853 46.227C27.9043 46.3623 27.958 46.5093 28.014 46.668C28.0747 46.822 28.1283 46.969 28.175 47.109C28.2263 47.249 28.2637 47.3563 28.287 47.431L27.629 47.669C27.6103 47.585 27.5777 47.4753 27.531 47.34C27.4843 47.2 27.433 47.0553 27.377 46.906C27.321 46.752 27.265 46.605 27.209 46.465C27.1577 46.325 27.111 46.213 27.069 46.129L27.727 45.912ZM30.282 46.36C30.2493 46.4487 30.2213 46.5257 30.198 46.591C30.1793 46.6563 30.163 46.717 30.149 46.773C30.0557 47.1463 29.9297 47.5127 29.771 47.872C29.617 48.2313 29.4163 48.5697 29.169 48.887C28.847 49.2977 28.4807 49.6453 28.07 49.93C27.664 50.21 27.2627 50.427 26.866 50.581L26.285 49.986C26.5463 49.9113 26.817 49.804 27.097 49.664C27.377 49.524 27.6453 49.356 27.902 49.16C28.1633 48.964 28.3897 48.747 28.581 48.509C28.7397 48.3083 28.8843 48.0797 29.015 47.823C29.1457 47.5617 29.253 47.2863 29.337 46.997C29.421 46.703 29.4793 46.409 29.512 46.115L30.282 46.36ZM26.096 46.276C26.138 46.3553 26.187 46.465 26.243 46.605C26.3037 46.7403 26.3643 46.8873 26.425 47.046C26.4903 47.2047 26.551 47.3563 26.607 47.501C26.663 47.6457 26.7073 47.767 26.74 47.865L26.075 48.11C26.047 48.0213 26.005 47.9023 25.949 47.753C25.893 47.599 25.8323 47.4403 25.767 47.277C25.7063 47.1137 25.6457 46.9643 25.585 46.829C25.529 46.689 25.48 46.584 25.438 46.514L26.096 46.276ZM36.533 45.632C36.4957 45.688 36.4607 45.7557 36.428 45.835C36.3953 45.9143 36.365 45.989 36.337 46.059C36.2763 46.283 36.19 46.5303 36.078 46.801C35.966 47.0717 35.8283 47.3493 35.665 47.634C35.5017 47.914 35.315 48.1823 35.105 48.439C34.783 48.8357 34.398 49.195 33.95 49.517C33.5067 49.839 32.9583 50.126 32.305 50.378L31.654 49.797C32.1067 49.6617 32.5033 49.5053 32.844 49.328C33.1893 49.146 33.4927 48.9477 33.754 48.733C34.02 48.5183 34.2557 48.2897 34.461 48.047C34.6383 47.8463 34.797 47.6247 34.937 47.382C35.0817 47.1347 35.2053 46.8897 35.308 46.647C35.4153 46.3997 35.4877 46.178 35.525 45.982H33.033L33.299 45.352C33.3597 45.352 33.4623 45.352 33.607 45.352C33.7563 45.352 33.9243 45.352 34.111 45.352C34.3023 45.352 34.489 45.352 34.671 45.352C34.8577 45.352 35.0187 45.352 35.154 45.352C35.294 45.352 35.3873 45.352 35.434 45.352C35.532 45.352 35.6277 45.3473 35.721 45.338C35.8143 45.324 35.8937 45.3053 35.959 45.282L36.533 45.632ZM34.216 44.554C34.146 44.6567 34.076 44.7687 34.006 44.89C33.9407 45.0113 33.8893 45.107 33.852 45.177C33.7073 45.443 33.523 45.7253 33.299 46.024C33.0797 46.3227 32.8253 46.6167 32.536 46.906C32.2467 47.1907 31.9223 47.4543 31.563 47.697L30.947 47.235C31.2503 47.053 31.521 46.8593 31.759 46.654C31.997 46.4487 32.2023 46.2433 32.375 46.038C32.5523 45.828 32.704 45.6273 32.83 45.436C32.956 45.2447 33.061 45.072 33.145 44.918C33.187 44.848 33.2337 44.7523 33.285 44.631C33.3363 44.505 33.376 44.3907 33.404 44.288L34.216 44.554Z" fill="#2FB3BC"/>
<path d="M27.147 11.4629V7.90543C27.147 3.54559 23.6014 0 19.2416 0C14.8818 0 11.3362 3.54559 11.3362 7.90543V11.4629H6V23.5503C6 30.2146 11.4231 35.6377 18.0874 35.6377H20.6567C27.3209 35.6377 32.7441 30.2146 32.7441 23.5503V11.4629H27.1431H27.147ZM12.9173 7.90543C12.9173 4.41914 15.7553 1.58109 19.2416 1.58109C22.7279 1.58109 25.5659 4.41914 25.5659 7.90543V11.4629H12.9173V7.90543ZM31.163 23.5542C31.163 29.3489 26.4474 34.0606 20.6567 34.0606H18.0874C12.2927 34.0606 7.58109 29.345 7.58109 23.5542V13.0479H31.1669V23.5542H31.163Z" fill="#2FB3BC"/>
<path d="M18.8063 24.2414V27.119H20.3874V24.2414C21.8025 23.8856 22.8539 22.6089 22.8539 21.0871C22.8539 19.2926 21.3954 17.8301 19.5969 17.8301C17.7984 17.8301 16.3398 19.2886 16.3398 21.0871C16.3398 22.6089 17.3913 23.8856 18.8063 24.2414ZM19.5969 19.4112C20.5218 19.4112 21.2728 20.1622 21.2728 21.0871C21.2728 22.012 20.5218 22.7631 19.5969 22.7631C18.672 22.7631 17.9209 22.012 17.9209 21.0871C17.9209 20.1622 18.672 19.4112 19.5969 19.4112Z" fill="#2FB3BC"/>
</svg>
