<svg width="355" height="44" viewBox="0 0 355 44" fill="none" xmlns="http://www.w3.org/2000/svg">
<path d="M109.368 2.432C109.336 2.256 109.296 2.096 109.248 1.952C109.208 1.808 109.168 1.664 109.128 1.52L110.82 1.244C110.836 1.364 110.852 1.516 110.868 1.7C110.892 1.876 110.92 2.036 110.952 2.18C110.968 2.292 111.004 2.5 111.06 2.804C111.116 3.108 111.184 3.476 111.264 3.908C111.344 4.34 111.432 4.808 111.528 5.312C111.632 5.808 111.732 6.312 111.828 6.824C111.924 7.328 112.016 7.808 112.104 8.264C112.2 8.72 112.28 9.124 112.344 9.476C112.416 9.828 112.468 10.088 112.5 10.256C112.54 10.432 112.588 10.624 112.644 10.832C112.7 11.04 112.756 11.24 112.812 11.432L111.072 11.744C111.04 11.52 111.016 11.304 111 11.096C110.984 10.896 110.956 10.708 110.916 10.532C110.884 10.372 110.836 10.128 110.772 9.8C110.716 9.464 110.644 9.072 110.556 8.624C110.476 8.176 110.388 7.7 110.292 7.196C110.196 6.692 110.1 6.188 110.004 5.684C109.908 5.18 109.816 4.708 109.728 4.268C109.648 3.828 109.576 3.448 109.512 3.128C109.448 2.8 109.4 2.568 109.368 2.432ZM106.092 3.956C106.284 3.948 106.472 3.94 106.656 3.932C106.84 3.916 107.024 3.896 107.208 3.872C107.384 3.848 107.632 3.816 107.952 3.776C108.272 3.728 108.64 3.676 109.056 3.62C109.472 3.556 109.9 3.488 110.34 3.416C110.788 3.344 111.22 3.276 111.636 3.212C112.052 3.14 112.42 3.076 112.74 3.02C113.068 2.964 113.324 2.92 113.508 2.888C113.7 2.848 113.9 2.808 114.108 2.768C114.316 2.72 114.492 2.676 114.636 2.636L114.924 4.208C114.796 4.216 114.624 4.236 114.408 4.268C114.192 4.3 113.996 4.328 113.82 4.352C113.604 4.384 113.32 4.428 112.968 4.484C112.624 4.54 112.24 4.604 111.816 4.676C111.392 4.74 110.96 4.808 110.52 4.88C110.08 4.944 109.66 5.012 109.26 5.084C108.86 5.148 108.508 5.204 108.204 5.252C107.9 5.3 107.672 5.336 107.52 5.36C107.328 5.4 107.148 5.44 106.98 5.48C106.812 5.512 106.624 5.556 106.416 5.612L106.092 3.956ZM106.104 7.484C106.264 7.476 106.464 7.46 106.704 7.436C106.952 7.404 107.168 7.376 107.352 7.352C107.568 7.32 107.856 7.276 108.216 7.22C108.576 7.164 108.98 7.1 109.428 7.028C109.884 6.956 110.352 6.884 110.832 6.812C111.312 6.732 111.78 6.652 112.236 6.572C112.692 6.492 113.108 6.42 113.484 6.356C113.86 6.292 114.164 6.24 114.396 6.2C114.628 6.152 114.848 6.104 115.056 6.056C115.272 6.008 115.46 5.96 115.62 5.912L115.944 7.496C115.784 7.504 115.588 7.528 115.356 7.568C115.132 7.6 114.904 7.636 114.672 7.676C114.416 7.716 114.096 7.768 113.712 7.832C113.328 7.896 112.904 7.968 112.44 8.048C111.984 8.12 111.516 8.196 111.036 8.276C110.556 8.348 110.096 8.424 109.656 8.504C109.216 8.576 108.82 8.64 108.468 8.696C108.116 8.752 107.84 8.8 107.64 8.84C107.384 8.888 107.152 8.932 106.944 8.972C106.744 9.012 106.576 9.052 106.44 9.092L106.104 7.484ZM121.8 3.38C121.824 3.516 121.852 3.664 121.884 3.824C121.924 3.976 121.96 4.132 121.992 4.292C122.064 4.524 122.148 4.824 122.244 5.192C122.348 5.56 122.46 5.964 122.58 6.404C122.7 6.844 122.82 7.292 122.94 7.748C123.068 8.196 123.192 8.628 123.312 9.044C123.432 9.452 123.536 9.816 123.624 10.136C123.712 10.448 123.78 10.688 123.828 10.856C123.86 10.92 123.892 11.016 123.924 11.144C123.956 11.272 123.992 11.4 124.032 11.528C124.08 11.656 124.12 11.76 124.152 11.84L122.52 12.248C122.496 12.08 122.468 11.904 122.436 11.72C122.404 11.536 122.36 11.36 122.304 11.192C122.256 11.016 122.188 10.764 122.1 10.436C122.012 10.1 121.912 9.72 121.8 9.296C121.688 8.872 121.568 8.432 121.44 7.976C121.32 7.52 121.204 7.076 121.092 6.644C120.98 6.204 120.872 5.808 120.768 5.456C120.672 5.096 120.592 4.816 120.528 4.616C120.488 4.456 120.436 4.304 120.372 4.16C120.316 4.016 120.256 3.884 120.192 3.764L121.8 3.38ZM127.56 5.228C127.44 5.492 127.276 5.792 127.068 6.128C126.868 6.464 126.648 6.808 126.408 7.16C126.168 7.512 125.928 7.848 125.688 8.168C125.448 8.48 125.22 8.752 125.004 8.984L123.684 8.324C123.892 8.14 124.112 7.916 124.344 7.652C124.576 7.388 124.792 7.124 124.992 6.86C125.2 6.588 125.352 6.356 125.448 6.164C125.36 6.18 125.192 6.212 124.944 6.26C124.704 6.308 124.412 6.368 124.068 6.44C123.724 6.512 123.348 6.592 122.94 6.68C122.54 6.76 122.136 6.844 121.728 6.932C121.32 7.02 120.932 7.104 120.564 7.184C120.196 7.256 119.872 7.324 119.592 7.388C119.312 7.444 119.1 7.488 118.956 7.52L118.584 6.08C118.776 6.064 118.96 6.044 119.136 6.02C119.312 5.996 119.496 5.968 119.688 5.936C119.784 5.92 119.952 5.892 120.192 5.852C120.44 5.812 120.732 5.76 121.068 5.696C121.412 5.632 121.78 5.564 122.172 5.492C122.564 5.412 122.96 5.336 123.36 5.264C123.76 5.184 124.136 5.112 124.488 5.048C124.84 4.976 125.148 4.916 125.412 4.868C125.676 4.812 125.868 4.768 125.988 4.736C126.092 4.72 126.2 4.696 126.312 4.664C126.424 4.624 126.52 4.584 126.6 4.544L127.56 5.228ZM135.06 3.872C135.116 4 135.188 4.184 135.276 4.424C135.372 4.656 135.472 4.908 135.576 5.18C135.68 5.444 135.772 5.696 135.852 5.936C135.932 6.176 135.996 6.364 136.044 6.5L134.604 7.004C134.572 6.852 134.516 6.66 134.436 6.428C134.356 6.196 134.268 5.952 134.172 5.696C134.076 5.432 133.98 5.18 133.884 4.94C133.788 4.7 133.704 4.5 133.632 4.34L135.06 3.872ZM139.488 4.748C139.424 4.94 139.368 5.104 139.32 5.24C139.28 5.376 139.24 5.504 139.2 5.624C139.048 6.232 138.84 6.84 138.576 7.448C138.312 8.048 137.976 8.612 137.568 9.14C137.008 9.86 136.372 10.472 135.66 10.976C134.956 11.472 134.252 11.852 133.548 12.116L132.288 10.832C132.728 10.712 133.192 10.536 133.68 10.304C134.168 10.064 134.64 9.776 135.096 9.44C135.552 9.104 135.944 8.732 136.272 8.324C136.544 7.98 136.784 7.588 136.992 7.148C137.208 6.7 137.384 6.224 137.52 5.72C137.664 5.208 137.76 4.704 137.808 4.208L139.488 4.748ZM132.276 4.508C132.356 4.66 132.444 4.856 132.54 5.096C132.644 5.336 132.748 5.588 132.852 5.852C132.956 6.116 133.056 6.372 133.152 6.62C133.256 6.868 133.336 7.076 133.392 7.244L131.928 7.796C131.88 7.636 131.808 7.428 131.712 7.172C131.624 6.916 131.524 6.648 131.412 6.368C131.3 6.08 131.192 5.816 131.088 5.576C130.992 5.336 130.908 5.152 130.836 5.024L132.276 4.508ZM144.708 1.496C144.9 1.608 145.12 1.74 145.368 1.892C145.616 2.044 145.868 2.2 146.124 2.36C146.388 2.52 146.632 2.676 146.856 2.828C147.088 2.972 147.284 3.1 147.444 3.212L146.544 4.544C146.384 4.424 146.188 4.288 145.956 4.136C145.724 3.984 145.484 3.828 145.236 3.668C144.988 3.508 144.74 3.356 144.492 3.212C144.252 3.06 144.032 2.928 143.832 2.816L144.708 1.496ZM142.476 10.016C142.932 9.936 143.388 9.84 143.844 9.728C144.308 9.608 144.768 9.46 145.224 9.284C145.688 9.108 146.136 8.904 146.568 8.672C147.248 8.288 147.88 7.856 148.464 7.376C149.056 6.896 149.584 6.384 150.048 5.84C150.52 5.296 150.916 4.74 151.236 4.172L152.16 5.804C151.6 6.636 150.908 7.42 150.084 8.156C149.268 8.892 148.368 9.544 147.384 10.112C146.976 10.344 146.528 10.56 146.04 10.76C145.56 10.96 145.084 11.132 144.612 11.276C144.148 11.428 143.736 11.536 143.376 11.6L142.476 10.016ZM142.86 4.232C143.06 4.344 143.284 4.476 143.532 4.628C143.788 4.772 144.044 4.924 144.3 5.084C144.556 5.244 144.796 5.396 145.02 5.54C145.252 5.684 145.444 5.812 145.596 5.924L144.72 7.268C144.544 7.148 144.344 7.016 144.12 6.872C143.896 6.72 143.656 6.564 143.4 6.404C143.152 6.236 142.904 6.08 142.656 5.936C142.416 5.792 142.192 5.668 141.984 5.564L142.86 4.232ZM162.108 5.276C162.076 5.356 162.052 5.444 162.036 5.54C162.02 5.636 162.004 5.716 161.988 5.78C161.964 5.948 161.928 6.18 161.88 6.476C161.84 6.772 161.792 7.1 161.736 7.46C161.688 7.812 161.636 8.168 161.58 8.528C161.524 8.888 161.472 9.216 161.424 9.512C161.384 9.808 161.348 10.044 161.316 10.22H159.672C159.704 10.052 159.74 9.84 159.78 9.584C159.82 9.32 159.864 9.036 159.912 8.732C159.968 8.42 160.016 8.108 160.056 7.796C160.104 7.484 160.144 7.196 160.176 6.932C160.208 6.668 160.228 6.456 160.236 6.296C160.124 6.296 159.952 6.296 159.72 6.296C159.496 6.296 159.24 6.296 158.952 6.296C158.672 6.296 158.392 6.296 158.112 6.296C157.84 6.296 157.604 6.296 157.404 6.296C157.204 6.296 157.068 6.296 156.996 6.296C156.804 6.296 156.596 6.304 156.372 6.32C156.156 6.328 155.964 6.34 155.796 6.356V4.772C155.9 4.788 156.024 4.8 156.168 4.808C156.312 4.816 156.456 4.824 156.6 4.832C156.752 4.84 156.88 4.844 156.984 4.844C157.104 4.844 157.268 4.844 157.476 4.844C157.684 4.844 157.912 4.844 158.16 4.844C158.408 4.844 158.656 4.844 158.904 4.844C159.152 4.844 159.376 4.844 159.576 4.844C159.784 4.844 159.944 4.844 160.056 4.844C160.144 4.844 160.248 4.84 160.368 4.832C160.488 4.824 160.604 4.812 160.716 4.796C160.828 4.772 160.904 4.744 160.944 4.712L162.108 5.276ZM154.692 9.632C154.852 9.648 155.036 9.664 155.244 9.68C155.46 9.688 155.672 9.692 155.88 9.692C156 9.692 156.22 9.692 156.54 9.692C156.868 9.692 157.252 9.692 157.692 9.692C158.14 9.692 158.6 9.692 159.072 9.692C159.552 9.692 160.008 9.692 160.44 9.692C160.88 9.692 161.256 9.692 161.568 9.692C161.88 9.692 162.08 9.692 162.168 9.692C162.32 9.692 162.516 9.688 162.756 9.68C162.996 9.672 163.192 9.66 163.344 9.644V11.192C163.264 11.184 163.152 11.176 163.008 11.168C162.872 11.168 162.728 11.164 162.576 11.156C162.432 11.156 162.304 11.156 162.192 11.156C162.096 11.156 161.888 11.156 161.568 11.156C161.248 11.156 160.868 11.156 160.428 11.156C159.988 11.156 159.524 11.156 159.036 11.156C158.556 11.156 158.092 11.156 157.644 11.156C157.204 11.156 156.824 11.156 156.504 11.156C156.184 11.156 155.976 11.156 155.88 11.156C155.672 11.156 155.48 11.156 155.304 11.156C155.128 11.164 154.924 11.176 154.692 11.192V9.632ZM174.36 1.424C174.464 1.568 174.572 1.74 174.684 1.94C174.804 2.14 174.92 2.34 175.032 2.54C175.144 2.74 175.236 2.916 175.308 3.068L174.348 3.488C174.22 3.24 174.072 2.96 173.904 2.648C173.736 2.328 173.572 2.052 173.412 1.82L174.36 1.424ZM175.776 0.883999C175.88 1.036 175.992 1.216 176.112 1.424C176.24 1.624 176.36 1.824 176.472 2.024C176.584 2.216 176.676 2.38 176.748 2.516L175.788 2.924C175.668 2.676 175.516 2.396 175.332 2.084C175.156 1.772 174.988 1.504 174.828 1.28L175.776 0.883999ZM167.304 7.268C167.44 6.932 167.568 6.58 167.688 6.212C167.816 5.836 167.928 5.452 168.024 5.06C168.12 4.66 168.204 4.264 168.276 3.872C168.356 3.48 168.412 3.092 168.444 2.708L170.196 3.068C170.164 3.18 170.128 3.312 170.088 3.464C170.048 3.616 170.012 3.764 169.98 3.908C169.948 4.052 169.924 4.172 169.908 4.268C169.868 4.476 169.812 4.728 169.74 5.024C169.668 5.32 169.584 5.636 169.488 5.972C169.392 6.3 169.292 6.632 169.188 6.968C169.092 7.296 168.992 7.6 168.888 7.88C168.744 8.264 168.572 8.664 168.372 9.08C168.18 9.496 167.972 9.896 167.748 10.28C167.532 10.664 167.32 11.008 167.112 11.312L165.432 10.604C165.816 10.108 166.172 9.56 166.5 8.96C166.836 8.36 167.104 7.796 167.304 7.268ZM173.232 7.016C173.112 6.696 172.98 6.356 172.836 5.996C172.692 5.636 172.54 5.276 172.38 4.916C172.22 4.556 172.064 4.216 171.912 3.896C171.76 3.576 171.62 3.3 171.492 3.068L173.088 2.552C173.208 2.784 173.348 3.064 173.508 3.392C173.668 3.72 173.828 4.068 173.988 4.436C174.148 4.796 174.304 5.156 174.456 5.516C174.608 5.876 174.744 6.2 174.864 6.488C174.968 6.752 175.08 7.064 175.2 7.424C175.328 7.784 175.456 8.16 175.584 8.552C175.72 8.936 175.844 9.312 175.956 9.68C176.076 10.048 176.176 10.38 176.256 10.676L174.48 11.252C174.376 10.78 174.256 10.3 174.12 9.812C173.984 9.324 173.84 8.844 173.688 8.372C173.544 7.9 173.392 7.448 173.232 7.016ZM183.06 3.872C183.116 4 183.188 4.184 183.276 4.424C183.372 4.656 183.472 4.908 183.576 5.18C183.68 5.444 183.772 5.696 183.852 5.936C183.932 6.176 183.996 6.364 184.044 6.5L182.604 7.004C182.572 6.852 182.516 6.66 182.436 6.428C182.356 6.196 182.268 5.952 182.172 5.696C182.076 5.432 181.98 5.18 181.884 4.94C181.788 4.7 181.704 4.5 181.632 4.34L183.06 3.872ZM187.488 4.748C187.424 4.94 187.368 5.104 187.32 5.24C187.28 5.376 187.24 5.504 187.2 5.624C187.048 6.232 186.84 6.84 186.576 7.448C186.312 8.048 185.976 8.612 185.568 9.14C185.008 9.86 184.372 10.472 183.66 10.976C182.956 11.472 182.252 11.852 181.548 12.116L180.288 10.832C180.728 10.712 181.192 10.536 181.68 10.304C182.168 10.064 182.64 9.776 183.096 9.44C183.552 9.104 183.944 8.732 184.272 8.324C184.544 7.98 184.784 7.588 184.992 7.148C185.208 6.7 185.384 6.224 185.52 5.72C185.664 5.208 185.76 4.704 185.808 4.208L187.488 4.748ZM180.276 4.508C180.356 4.66 180.444 4.856 180.54 5.096C180.644 5.336 180.748 5.588 180.852 5.852C180.956 6.116 181.056 6.372 181.152 6.62C181.256 6.868 181.336 7.076 181.392 7.244L179.928 7.796C179.88 7.636 179.808 7.428 179.712 7.172C179.624 6.916 179.524 6.648 179.412 6.368C179.3 6.08 179.192 5.816 179.088 5.576C178.992 5.336 178.908 5.152 178.836 5.024L180.276 4.508ZM199.788 3.536C199.724 3.648 199.656 3.784 199.584 3.944C199.512 4.096 199.448 4.248 199.392 4.4C199.288 4.752 199.14 5.156 198.948 5.612C198.764 6.06 198.532 6.528 198.252 7.016C197.98 7.496 197.664 7.96 197.304 8.408C196.728 9.096 196.056 9.72 195.288 10.28C194.528 10.84 193.584 11.344 192.456 11.792L191.04 10.52C191.856 10.28 192.56 10.004 193.152 9.692C193.744 9.38 194.26 9.048 194.7 8.696C195.14 8.336 195.532 7.956 195.876 7.556C196.156 7.244 196.412 6.892 196.644 6.5C196.876 6.1 197.076 5.704 197.244 5.312C197.412 4.92 197.524 4.576 197.58 4.28H193.536L194.088 2.924C194.2 2.924 194.372 2.924 194.604 2.924C194.844 2.924 195.112 2.924 195.408 2.924C195.712 2.924 196.008 2.924 196.296 2.924C196.592 2.924 196.848 2.924 197.064 2.924C197.288 2.924 197.44 2.924 197.52 2.924C197.704 2.924 197.888 2.912 198.072 2.888C198.264 2.864 198.428 2.828 198.564 2.78L199.788 3.536ZM195.876 1.64C195.732 1.848 195.592 2.072 195.456 2.312C195.32 2.552 195.216 2.736 195.144 2.864C194.872 3.344 194.536 3.844 194.136 4.364C193.744 4.876 193.296 5.376 192.792 5.864C192.288 6.344 191.752 6.784 191.184 7.184L189.828 6.188C190.356 5.86 190.82 5.524 191.22 5.18C191.628 4.836 191.98 4.496 192.276 4.16C192.572 3.816 192.824 3.488 193.032 3.176C193.248 2.856 193.432 2.572 193.584 2.324C193.68 2.172 193.78 1.976 193.884 1.736C193.988 1.488 194.068 1.264 194.124 1.064L195.876 1.64ZM207.288 5.264V5.948H210.984V5.264H207.288ZM207.288 3.692V4.352H210.984V3.692H207.288ZM206.052 2.684H212.28V6.956H206.052V2.684ZM206.544 7.472H211.848V12.08H210.48V8.54H207.852V12.08H206.544V7.472ZM210.6 0.788L212.04 1.208C211.856 1.536 211.672 1.852 211.488 2.156C211.304 2.452 211.136 2.704 210.984 2.912L209.796 2.528C209.932 2.28 210.076 1.996 210.228 1.676C210.388 1.348 210.512 1.052 210.6 0.788ZM206.412 1.28L207.6 0.835999C207.768 1.084 207.932 1.364 208.092 1.676C208.26 1.98 208.38 2.248 208.452 2.48L207.18 2.984C207.124 2.752 207.02 2.48 206.868 2.168C206.724 1.848 206.572 1.552 206.412 1.28ZM207.336 9.104H211.068V10.112H207.336V9.104ZM207.336 10.7H211.068V11.744H207.336V10.7ZM208.452 3.188H209.724V6.344H208.452V3.188ZM202.488 9.116L203.736 9.404C203.584 9.908 203.38 10.404 203.124 10.892C202.868 11.372 202.596 11.776 202.308 12.104C202.236 12.032 202.132 11.952 201.996 11.864C201.86 11.776 201.724 11.688 201.588 11.6C201.452 11.512 201.336 11.444 201.24 11.396C201.512 11.108 201.756 10.76 201.972 10.352C202.196 9.944 202.368 9.532 202.488 9.116ZM203.892 9.548L204.96 9.092C205.16 9.396 205.356 9.732 205.548 10.1C205.748 10.46 205.9 10.776 206.004 11.048L204.888 11.576C204.832 11.392 204.748 11.184 204.636 10.952C204.532 10.712 204.416 10.472 204.288 10.232C204.16 9.984 204.028 9.756 203.892 9.548ZM203.136 4.568V5.696H204.324V4.568H203.136ZM203.136 6.752V7.88H204.324V6.752H203.136ZM203.136 2.396V3.5H204.324V2.396H203.136ZM201.912 1.256H205.584V9.032H201.912V1.256ZM214.332 6.188H223.728V7.448H214.332V6.188ZM213.732 10.46H224.304V11.732H213.732V10.46ZM214.74 8.324H223.32V9.548H214.74V8.324ZM216.516 2.504V4.172H221.424V2.504H216.516ZM215.1 1.232H222.924V5.456H215.1V1.232ZM218.184 6.74H219.696V11.132H218.184V6.74ZM232.164 1.292C232.148 1.412 232.132 1.548 232.116 1.7C232.108 1.844 232.1 1.992 232.092 2.144C232.084 2.304 232.076 2.52 232.068 2.792C232.06 3.056 232.056 3.348 232.056 3.668C232.056 3.988 232.056 4.304 232.056 4.616C232.056 4.928 232.056 5.212 232.056 5.468C232.056 5.804 232.064 6.18 232.08 6.596C232.096 7.004 232.116 7.42 232.14 7.844C232.172 8.26 232.196 8.652 232.212 9.02C232.236 9.38 232.248 9.68 232.248 9.92C232.248 10.256 232.16 10.564 231.984 10.844C231.808 11.116 231.544 11.332 231.192 11.492C230.848 11.652 230.412 11.732 229.884 11.732C228.924 11.732 228.196 11.556 227.7 11.204C227.204 10.852 226.956 10.36 226.956 9.728C226.956 9.32 227.072 8.964 227.304 8.66C227.544 8.348 227.884 8.104 228.324 7.928C228.772 7.752 229.304 7.664 229.92 7.664C230.576 7.664 231.188 7.736 231.756 7.88C232.332 8.016 232.856 8.196 233.328 8.42C233.8 8.644 234.22 8.88 234.588 9.128C234.956 9.376 235.268 9.6 235.524 9.8L234.66 11.144C234.372 10.872 234.048 10.604 233.688 10.34C233.336 10.076 232.948 9.836 232.524 9.62C232.108 9.404 231.664 9.232 231.192 9.104C230.728 8.968 230.236 8.9 229.716 8.9C229.3 8.9 228.976 8.972 228.744 9.116C228.52 9.26 228.408 9.436 228.408 9.644C228.408 9.796 228.456 9.928 228.552 10.04C228.648 10.152 228.788 10.236 228.972 10.292C229.156 10.348 229.388 10.376 229.668 10.376C229.884 10.376 230.068 10.352 230.22 10.304C230.38 10.256 230.504 10.168 230.592 10.04C230.68 9.912 230.724 9.732 230.724 9.5C230.724 9.324 230.716 9.072 230.7 8.744C230.692 8.416 230.68 8.056 230.664 7.664C230.648 7.264 230.632 6.872 230.616 6.488C230.6 6.104 230.592 5.764 230.592 5.468C230.592 5.18 230.592 4.88 230.592 4.568C230.6 4.248 230.604 3.932 230.604 3.62C230.604 3.308 230.604 3.024 230.604 2.768C230.612 2.504 230.616 2.288 230.616 2.12C230.616 2.008 230.608 1.872 230.592 1.712C230.584 1.544 230.568 1.404 230.544 1.292H232.164ZM227.184 2.42C227.4 2.452 227.64 2.484 227.904 2.516C228.168 2.548 228.436 2.58 228.708 2.612C228.988 2.636 229.252 2.656 229.5 2.672C229.748 2.68 229.964 2.684 230.148 2.684C230.964 2.684 231.776 2.66 232.584 2.612C233.4 2.556 234.244 2.456 235.116 2.312L235.104 3.692C234.696 3.748 234.224 3.8 233.688 3.848C233.152 3.896 232.58 3.936 231.972 3.968C231.372 3.992 230.768 4.004 230.16 4.004C229.912 4.004 229.604 3.996 229.236 3.98C228.876 3.956 228.516 3.928 228.156 3.896C227.796 3.856 227.484 3.82 227.22 3.788L227.184 2.42ZM227.124 5.012C227.316 5.044 227.544 5.076 227.808 5.108C228.072 5.14 228.34 5.164 228.612 5.18C228.892 5.196 229.156 5.212 229.404 5.228C229.652 5.236 229.856 5.24 230.016 5.24C230.76 5.24 231.432 5.224 232.032 5.192C232.64 5.16 233.208 5.12 233.736 5.072C234.264 5.024 234.772 4.968 235.26 4.904L235.248 6.32C234.832 6.368 234.428 6.408 234.036 6.44C233.652 6.472 233.256 6.5 232.848 6.524C232.448 6.548 232.016 6.564 231.552 6.572C231.088 6.58 230.568 6.584 229.992 6.584C229.76 6.584 229.472 6.58 229.128 6.572C228.784 6.556 228.432 6.536 228.072 6.512C227.72 6.488 227.408 6.46 227.136 6.428L227.124 5.012ZM237.828 2.768C238.068 2.76 238.296 2.752 238.512 2.744C238.728 2.728 238.892 2.716 239.004 2.708C239.252 2.692 239.556 2.668 239.916 2.636C240.284 2.596 240.692 2.556 241.14 2.516C241.596 2.476 242.08 2.436 242.592 2.396C243.104 2.356 243.636 2.312 244.188 2.264C244.604 2.224 245.016 2.192 245.424 2.168C245.84 2.136 246.232 2.112 246.6 2.096C246.976 2.072 247.304 2.056 247.584 2.048L247.596 3.584C247.38 3.584 247.132 3.588 246.852 3.596C246.572 3.604 246.292 3.62 246.012 3.644C245.74 3.66 245.496 3.696 245.28 3.752C244.92 3.848 244.584 4.012 244.272 4.244C243.96 4.468 243.688 4.736 243.456 5.048C243.232 5.352 243.056 5.684 242.928 6.044C242.8 6.396 242.736 6.752 242.736 7.112C242.736 7.504 242.804 7.852 242.94 8.156C243.084 8.452 243.276 8.708 243.516 8.924C243.764 9.132 244.052 9.308 244.38 9.452C244.708 9.588 245.06 9.692 245.436 9.764C245.82 9.836 246.216 9.884 246.624 9.908L246.06 11.552C245.556 11.52 245.064 11.44 244.584 11.312C244.112 11.184 243.668 11.008 243.252 10.784C242.836 10.56 242.472 10.288 242.16 9.968C241.856 9.64 241.612 9.268 241.428 8.852C241.252 8.428 241.164 7.956 241.164 7.436C241.164 6.86 241.256 6.332 241.44 5.852C241.624 5.364 241.852 4.94 242.124 4.58C242.404 4.212 242.68 3.928 242.952 3.728C242.728 3.76 242.456 3.792 242.136 3.824C241.824 3.856 241.484 3.896 241.116 3.944C240.756 3.984 240.388 4.028 240.012 4.076C239.636 4.124 239.272 4.18 238.92 4.244C238.576 4.3 238.264 4.356 237.984 4.412L237.828 2.768ZM245.88 4.76C245.984 4.904 246.092 5.076 246.204 5.276C246.324 5.468 246.44 5.664 246.552 5.864C246.664 6.056 246.76 6.232 246.84 6.392L245.928 6.8C245.776 6.464 245.628 6.168 245.484 5.912C245.348 5.656 245.184 5.396 244.992 5.132L245.88 4.76ZM247.224 4.208C247.328 4.352 247.44 4.52 247.56 4.712C247.688 4.896 247.812 5.088 247.932 5.288C248.052 5.48 248.152 5.652 248.232 5.804L247.332 6.236C247.172 5.916 247.016 5.632 246.864 5.384C246.72 5.136 246.548 4.88 246.348 4.616L247.224 4.208Z" fill="#2FB3BC"/>
<rect x="0.5" y="24.5" width="18.9438" height="19" fill="white" stroke="#2FB3BC"/>
<path d="M6.99042 39V37.716H8.92242V31.836H7.31442V30.852C7.74642 30.772 8.11842 30.676 8.43042 30.564C8.75042 30.444 9.04242 30.3 9.30642 30.132H10.4824V37.716H12.1864V39H6.99042Z" fill="#2FB3BC"/>
<path d="M88.75 34L83.3809 44H18.9473V24H83.3809L88.75 34Z" fill="#2FB3BC"/>
<path d="M34.6532 31.7675C34.6445 31.8065 34.638 31.8563 34.6337 31.917C34.6293 31.9733 34.6228 32.034 34.6142 32.099C34.6098 32.1597 34.6055 32.216 34.6012 32.268C34.5968 32.3807 34.5903 32.515 34.5817 32.671C34.5773 32.8227 34.5708 32.9895 34.5622 33.1715C34.5578 33.3492 34.5535 33.529 34.5492 33.711C34.5492 33.8887 34.5492 34.0598 34.5492 34.2245C34.5492 34.3935 34.5513 34.582 34.5557 34.79C34.56 34.998 34.5643 35.2038 34.5687 35.4075C34.573 35.6068 34.5773 35.7932 34.5817 35.9665C34.586 36.1355 34.5882 36.2698 34.5882 36.3695C34.5882 36.5992 34.56 36.779 34.5037 36.909C34.4517 37.039 34.378 37.13 34.2827 37.182C34.1917 37.234 34.0812 37.26 33.9512 37.26C33.8125 37.26 33.6608 37.2297 33.4962 37.169C33.3315 37.1083 33.1755 37.026 33.0282 36.922C32.8808 36.818 32.7595 36.6967 32.6642 36.558C32.5688 36.4193 32.5212 36.272 32.5212 36.116C32.5212 35.9167 32.597 35.7195 32.7487 35.5245C32.9047 35.3252 33.1083 35.1432 33.3597 34.9785C33.611 34.8138 33.8775 34.6795 34.1592 34.5755C34.4538 34.4672 34.755 34.3848 35.0627 34.3285C35.3703 34.2722 35.6498 34.244 35.9012 34.244C36.2262 34.244 36.5165 34.2982 36.7722 34.4065C37.0278 34.5148 37.2293 34.6708 37.3767 34.8745C37.524 35.0782 37.5977 35.3187 37.5977 35.596C37.5977 35.8517 37.5457 36.0813 37.4417 36.285C37.342 36.4887 37.1882 36.662 36.9802 36.805C36.7722 36.948 36.51 37.0585 36.1937 37.1365C36.0463 37.1668 35.9012 37.1885 35.7582 37.2015C35.6195 37.2145 35.4895 37.2253 35.3682 37.234L35.1342 36.571C35.2642 36.5753 35.3963 36.5753 35.5307 36.571C35.665 36.5667 35.7928 36.5515 35.9142 36.5255C36.0962 36.4908 36.2652 36.4367 36.4212 36.363C36.5772 36.285 36.7007 36.1832 36.7917 36.0575C36.887 35.9275 36.9347 35.7715 36.9347 35.5895C36.9347 35.4205 36.8892 35.2797 36.7982 35.167C36.7072 35.05 36.5837 34.9612 36.4277 34.9005C36.2717 34.8398 36.094 34.8095 35.8947 34.8095C35.613 34.8095 35.3335 34.8398 35.0562 34.9005C34.7788 34.9568 34.5058 35.037 34.2372 35.141C34.0378 35.219 33.8558 35.3122 33.6912 35.4205C33.5265 35.5288 33.3965 35.6415 33.3012 35.7585C33.2058 35.8712 33.1582 35.9795 33.1582 36.0835C33.1582 36.1485 33.1798 36.2113 33.2232 36.272C33.2665 36.3283 33.3185 36.3782 33.3792 36.4215C33.4442 36.4648 33.5113 36.4995 33.5807 36.5255C33.65 36.5515 33.7128 36.5645 33.7692 36.5645C33.8342 36.5645 33.8862 36.5428 33.9252 36.4995C33.9685 36.4518 33.9902 36.3738 33.9902 36.2655C33.9902 36.1442 33.9858 35.973 33.9772 35.752C33.9728 35.531 33.9685 35.2883 33.9642 35.024C33.9598 34.7553 33.9577 34.4975 33.9577 34.2505C33.9577 34.0642 33.9577 33.8713 33.9577 33.672C33.962 33.4683 33.9642 33.2733 33.9642 33.087C33.9685 32.9007 33.9707 32.736 33.9707 32.593C33.975 32.45 33.9772 32.346 33.9772 32.281C33.9772 32.2333 33.975 32.177 33.9707 32.112C33.9663 32.047 33.962 31.9842 33.9577 31.9235C33.9533 31.8585 33.9468 31.8065 33.9382 31.7675H34.6532ZM36.5967 32.4825C36.757 32.5605 36.9347 32.658 37.1297 32.775C37.329 32.8877 37.5175 33.0025 37.6952 33.1195C37.8772 33.2322 38.0223 33.3318 38.1307 33.4185L37.8122 33.9385C37.7342 33.8648 37.6302 33.7847 37.5002 33.698C37.3745 33.6113 37.238 33.5225 37.0907 33.4315C36.9477 33.3405 36.8068 33.256 36.6682 33.178C36.5338 33.0957 36.4147 33.0285 36.3107 32.9765L36.5967 32.4825ZM32.6577 32.892C32.844 32.9137 33.0043 32.9288 33.1387 32.9375C33.273 32.9418 33.4008 32.944 33.5222 32.944C33.6825 32.944 33.8645 32.9353 34.0682 32.918C34.2718 32.9007 34.4777 32.879 34.6857 32.853C34.898 32.827 35.1038 32.7945 35.3032 32.7555C35.5068 32.7122 35.691 32.6667 35.8557 32.619L35.8687 33.256C35.6953 33.295 35.5025 33.3318 35.2902 33.3665C35.0822 33.4012 34.8698 33.4337 34.6532 33.464C34.4408 33.49 34.2372 33.5117 34.0422 33.529C33.8515 33.542 33.6825 33.5485 33.5352 33.5485C33.3402 33.5485 33.1755 33.5463 33.0412 33.542C32.9068 33.5333 32.7855 33.5247 32.6772 33.516L32.6577 32.892ZM41.4912 34.66H43.7012V36.6295H41.4912V36.116H43.1227V35.167H41.4912V34.66ZM41.2247 34.66H41.7902V37.0065H41.2247V34.66ZM40.0937 32.723H41.8227V33.152H40.0937V32.723ZM43.1032 32.723H44.8517V33.152H43.1032V32.723ZM44.5917 31.7805H45.2092V36.7725C45.2092 36.9588 45.1853 37.1018 45.1377 37.2015C45.0943 37.3012 45.012 37.3792 44.8907 37.4355C44.7693 37.4875 44.609 37.5178 44.4097 37.5265C44.2103 37.5395 43.9655 37.546 43.6752 37.546C43.6665 37.4853 43.6492 37.416 43.6232 37.338C43.6015 37.2643 43.5755 37.1885 43.5452 37.1105C43.5192 37.0368 43.491 36.9718 43.4607 36.9155C43.595 36.9242 43.7272 36.9285 43.8572 36.9285C43.9915 36.9285 44.1085 36.9285 44.2082 36.9285C44.3122 36.9285 44.3858 36.9285 44.4292 36.9285C44.4898 36.9242 44.531 36.9112 44.5527 36.8895C44.5787 36.8635 44.5917 36.8223 44.5917 36.766V31.7805ZM40.1457 31.7805H42.2127V34.1335H40.1457V33.6525H41.6342V32.2615H40.1457V31.7805ZM44.9167 31.7805V32.255H43.3242V33.659H44.9167V34.1335H42.7392V31.7805H44.9167ZM39.8012 31.7805H40.4057V37.5525H39.8012V31.7805ZM48.1797 33.6265H51.4557V34.1725H48.1797V33.6265ZM48.0822 36.753H51.5077V37.299H48.0822V36.753ZM47.8027 34.9135H51.8587V37.5525H51.2282V35.466H48.4072V37.5525H47.8027V34.9135ZM49.7917 32.1315C49.614 32.3872 49.3865 32.6537 49.1092 32.931C48.8318 33.204 48.5242 33.4662 48.1862 33.7175C47.8482 33.9688 47.495 34.1942 47.1267 34.3935C47.1007 34.3458 47.066 34.2917 47.0227 34.231C46.9793 34.1703 46.9338 34.1118 46.8862 34.0555C46.8385 33.9948 46.7908 33.9428 46.7432 33.8995C47.1202 33.7132 47.4842 33.4878 47.8352 33.2235C48.1862 32.9548 48.5003 32.6732 48.7777 32.3785C49.0593 32.0838 49.2825 31.8 49.4472 31.527H50.0777C50.2553 31.7697 50.4525 32.0058 50.6692 32.2355C50.8902 32.4608 51.1242 32.6753 51.3712 32.879C51.6225 33.0783 51.8782 33.2582 52.1382 33.4185C52.4025 33.5745 52.6647 33.7088 52.9247 33.8215C52.8467 33.8995 52.773 33.9883 52.7037 34.088C52.6343 34.1833 52.5715 34.2765 52.5152 34.3675C52.2638 34.2332 52.0082 34.0815 51.7482 33.9125C51.4882 33.7392 51.2368 33.5528 50.9942 33.3535C50.7558 33.1542 50.5327 32.9505 50.3247 32.7425C50.1167 32.5345 49.939 32.3308 49.7917 32.1315ZM58.7682 31.9495C58.7638 31.9842 58.7595 32.0318 58.7552 32.0925C58.7508 32.1532 58.7465 32.216 58.7422 32.281C58.7378 32.346 58.7357 32.4067 58.7357 32.463C58.7313 32.5973 58.7292 32.7338 58.7292 32.8725C58.7292 33.0112 58.727 33.1455 58.7227 33.2755C58.7227 33.4012 58.7205 33.5203 58.7162 33.633C58.7118 33.8063 58.7053 33.9948 58.6967 34.1985C58.688 34.4022 58.6772 34.5928 58.6642 34.7705C58.6512 34.9482 58.6338 35.0933 58.6122 35.206C58.5818 35.362 58.5255 35.4682 58.4432 35.5245C58.3608 35.5765 58.2417 35.6025 58.0857 35.6025C58.0077 35.6025 57.908 35.5982 57.7867 35.5895C57.6697 35.5765 57.5548 35.5635 57.4422 35.5505C57.3295 35.5332 57.2407 35.518 57.1757 35.505L57.1887 34.9395C57.297 34.9612 57.4097 34.9807 57.5267 34.998C57.648 35.0153 57.7433 35.024 57.8127 35.024C57.8863 35.024 57.9405 35.0132 57.9752 34.9915C58.0142 34.9698 58.0358 34.9243 58.0402 34.855C58.0575 34.7727 58.0683 34.6643 58.0727 34.53C58.0813 34.3957 58.09 34.2505 58.0987 34.0945C58.1073 33.9342 58.1117 33.7803 58.1117 33.633C58.116 33.5117 58.1182 33.3882 58.1182 33.2625C58.1182 33.1325 58.1182 33.0003 58.1182 32.866C58.1182 32.7317 58.1182 32.6038 58.1182 32.4825C58.1182 32.4305 58.1138 32.372 58.1052 32.307C58.1008 32.2377 58.0965 32.1705 58.0922 32.1055C58.0878 32.0405 58.0813 31.9885 58.0727 31.9495H58.7682ZM56.2007 32.151C56.192 32.2377 56.1833 32.3287 56.1747 32.424C56.1703 32.5193 56.1682 32.6255 56.1682 32.7425C56.1682 32.8682 56.166 33.035 56.1617 33.243C56.1617 33.4467 56.1595 33.6677 56.1552 33.906C56.1552 34.14 56.1552 34.3718 56.1552 34.6015C56.1552 34.8312 56.1552 35.037 56.1552 35.219C56.1552 35.401 56.1573 35.5418 56.1617 35.6415C56.166 35.8105 56.1768 35.9513 56.1942 36.064C56.2115 36.1767 56.2548 36.2655 56.3242 36.3305C56.3935 36.3955 56.5018 36.4432 56.6492 36.4735C56.8008 36.5038 57.0067 36.519 57.2667 36.519C57.492 36.519 57.726 36.5125 57.9687 36.4995C58.2113 36.4822 58.441 36.4605 58.6577 36.4345C58.8743 36.4085 59.0563 36.3825 59.2037 36.3565L59.1842 37.052C59.0412 37.0693 58.8635 37.0845 58.6512 37.0975C58.4388 37.1148 58.2157 37.13 57.9817 37.143C57.7477 37.156 57.5223 37.1625 57.3057 37.1625C56.9113 37.1625 56.5972 37.1387 56.3632 37.091C56.1292 37.0433 55.9537 36.9653 55.8367 36.857C55.7197 36.7443 55.6417 36.597 55.6027 36.415C55.5637 36.233 55.5398 36.0077 55.5312 35.739C55.5312 35.6437 55.529 35.5158 55.5247 35.3555C55.5247 35.1908 55.5247 35.0067 55.5247 34.803C55.5247 34.595 55.5247 34.3848 55.5247 34.1725C55.5247 33.9602 55.5247 33.7587 55.5247 33.568C55.5247 33.3773 55.5247 33.2127 55.5247 33.074C55.5247 32.931 55.5247 32.8313 55.5247 32.775C55.5247 32.658 55.5203 32.5518 55.5117 32.4565C55.5073 32.3568 55.4965 32.255 55.4792 32.151H56.2007ZM54.1597 33.6655C54.255 33.6655 54.3655 33.6633 54.4912 33.659C54.6212 33.6503 54.7555 33.6395 54.8942 33.6265C55.0328 33.6135 55.2322 33.594 55.4922 33.568C55.7522 33.542 56.0468 33.5138 56.3762 33.4835C56.7098 33.4532 57.0543 33.4228 57.4097 33.3925C57.7693 33.3578 58.116 33.3275 58.4497 33.3015C58.7833 33.2755 59.0802 33.2538 59.3402 33.2365C59.4268 33.2322 59.52 33.2278 59.6197 33.2235C59.7193 33.2148 59.8125 33.2062 59.8992 33.1975V33.8345C59.8645 33.8302 59.8125 33.8302 59.7432 33.8345C59.6782 33.8345 59.6067 33.8345 59.5287 33.8345C59.455 33.8345 59.39 33.8367 59.3337 33.841C59.1647 33.841 58.9567 33.8497 58.7097 33.867C58.4627 33.8843 58.1983 33.906 57.9167 33.932C57.635 33.9537 57.3468 33.9797 57.0522 34.01C56.7575 34.036 56.4737 34.0642 56.2007 34.0945C55.932 34.1205 55.6872 34.1465 55.4662 34.1725C55.2452 34.1942 55.0697 34.2137 54.9397 34.231C54.8703 34.2397 54.7902 34.2505 54.6992 34.2635C54.6125 34.2722 54.5258 34.283 54.4392 34.296C54.3568 34.309 54.2875 34.3198 54.2312 34.3285L54.1597 33.6655Z" fill="white"/>
<rect x="89.25" y="24.5" width="18.9438" height="19" fill="white" stroke="#2FB3BC"/>
<path d="M95.2484 39V38.088C96.0884 37.336 96.7964 36.648 97.3724 36.024C97.9564 35.392 98.3964 34.808 98.6924 34.272C98.9964 33.728 99.1484 33.22 99.1484 32.748C99.1484 32.444 99.0924 32.18 98.9804 31.956C98.8764 31.724 98.7204 31.544 98.5124 31.416C98.3044 31.288 98.0444 31.224 97.7324 31.224C97.3964 31.224 97.0884 31.316 96.8084 31.5C96.5364 31.684 96.2844 31.908 96.0524 32.172L95.1764 31.308C95.5684 30.884 95.9764 30.556 96.4004 30.324C96.8324 30.092 97.3444 29.976 97.9364 29.976C98.4884 29.976 98.9684 30.088 99.3764 30.312C99.7844 30.536 100.1 30.848 100.324 31.248C100.556 31.648 100.672 32.12 100.672 32.664C100.672 33.216 100.532 33.776 100.252 34.344C99.9804 34.912 99.6084 35.484 99.1364 36.06C98.6724 36.628 98.1484 37.196 97.5644 37.764C97.7964 37.74 98.0444 37.72 98.3084 37.704C98.5724 37.68 98.8084 37.668 99.0164 37.668H101.08V39H95.2484Z" fill="#2FB3BC"/>
<path d="M177.5 34L172.131 44H107.697V24H172.131L177.5 34Z" fill="#2FB3BC"/>
<path d="M126 32.437C126.234 32.463 126.499 32.4825 126.793 32.4955C127.092 32.5085 127.409 32.515 127.742 32.515C127.95 32.515 128.163 32.5107 128.379 32.502C128.596 32.4933 128.804 32.4825 129.003 32.4695C129.207 32.4565 129.389 32.4413 129.549 32.424V33.1C129.402 33.113 129.227 33.126 129.023 33.139C128.819 33.152 128.605 33.1628 128.379 33.1715C128.158 33.1758 127.946 33.178 127.742 33.178C127.413 33.178 127.105 33.1715 126.819 33.1585C126.533 33.1455 126.26 33.1282 126 33.1065V32.437ZM126.384 35.115C126.345 35.2363 126.315 35.3555 126.293 35.4725C126.271 35.5852 126.26 35.7 126.26 35.817C126.26 36.0467 126.377 36.2352 126.611 36.3825C126.845 36.5255 127.214 36.597 127.716 36.597C128.011 36.597 128.295 36.5883 128.568 36.571C128.845 36.5493 129.103 36.519 129.341 36.48C129.58 36.441 129.786 36.3955 129.959 36.3435L129.965 37.0585C129.796 37.0975 129.597 37.1343 129.367 37.169C129.138 37.208 128.884 37.2362 128.607 37.2535C128.334 37.2752 128.044 37.286 127.736 37.286C127.268 37.286 126.874 37.234 126.553 37.13C126.237 37.0303 125.996 36.883 125.831 36.688C125.667 36.493 125.584 36.2525 125.584 35.9665C125.584 35.7888 125.597 35.6242 125.623 35.4725C125.654 35.3165 125.684 35.1757 125.714 35.05L126.384 35.115ZM129.725 31.735C129.781 31.8087 129.842 31.8997 129.907 32.008C129.972 32.1163 130.035 32.2247 130.095 32.333C130.156 32.4413 130.208 32.5388 130.251 32.6255L129.822 32.814C129.757 32.6797 129.677 32.5258 129.582 32.3525C129.487 32.1792 129.393 32.0318 129.302 31.9105L129.725 31.735ZM130.466 31.462C130.522 31.54 130.585 31.6332 130.654 31.7415C130.724 31.8498 130.789 31.9582 130.849 32.0665C130.914 32.1748 130.966 32.268 131.005 32.346L130.583 32.5345C130.514 32.3915 130.429 32.2377 130.329 32.073C130.234 31.904 130.141 31.7588 130.05 31.6375L130.466 31.462ZM133.118 33.9515H134.678V34.517H133.118V33.9515ZM134.444 33.9515H135.042C135.042 33.9515 135.042 33.9667 135.042 33.997C135.042 34.0273 135.04 34.062 135.035 34.101C135.035 34.14 135.035 34.1725 135.035 34.1985C135.027 34.6708 135.016 35.0565 135.003 35.3555C134.99 35.6545 134.97 35.8842 134.944 36.0445C134.918 36.2005 134.882 36.3088 134.834 36.3695C134.778 36.4388 134.717 36.4887 134.652 36.519C134.587 36.5493 134.507 36.571 134.411 36.584C134.329 36.597 134.219 36.6035 134.08 36.6035C133.941 36.6035 133.794 36.6013 133.638 36.597C133.634 36.506 133.616 36.4063 133.586 36.298C133.556 36.1897 133.517 36.0965 133.469 36.0185C133.603 36.0315 133.729 36.0402 133.846 36.0445C133.963 36.0488 134.05 36.051 134.106 36.051C134.149 36.051 134.186 36.0467 134.216 36.038C134.251 36.025 134.281 36.0055 134.307 35.9795C134.338 35.9405 134.362 35.856 134.379 35.726C134.396 35.5917 134.409 35.3902 134.418 35.1215C134.431 34.8528 134.44 34.4953 134.444 34.049V33.9515ZM136.322 31.8715L136.699 31.501C136.829 31.566 136.966 31.6418 137.109 31.7285C137.252 31.8108 137.386 31.8953 137.512 31.982C137.638 32.0687 137.742 32.1488 137.824 32.2225L137.434 32.6385C137.356 32.5648 137.254 32.4825 137.128 32.3915C137.007 32.3005 136.875 32.2095 136.732 32.1185C136.593 32.0275 136.457 31.9452 136.322 31.8715ZM137.187 33.6005L137.804 33.75C137.531 34.595 137.154 35.336 136.673 35.973C136.197 36.61 135.631 37.1257 134.977 37.52C134.951 37.4723 134.91 37.416 134.853 37.351C134.797 37.2903 134.741 37.2275 134.684 37.1625C134.628 37.1018 134.576 37.052 134.528 37.013C135.174 36.6663 135.72 36.2027 136.166 35.622C136.613 35.0413 136.953 34.3675 137.187 33.6005ZM133.157 32.5605H138.181V33.165H133.157V32.5605ZM132.747 32.5605H133.391V34.426C133.391 34.6643 133.382 34.9222 133.365 35.1995C133.348 35.4768 133.315 35.7607 133.267 36.051C133.22 36.337 133.15 36.6143 133.059 36.883C132.968 37.1517 132.847 37.3922 132.695 37.6045C132.665 37.5655 132.615 37.5178 132.546 37.4615C132.481 37.4052 132.414 37.351 132.344 37.299C132.279 37.2513 132.223 37.2145 132.175 37.1885C132.353 36.9285 132.481 36.6382 132.559 36.3175C132.641 35.9925 132.693 35.6653 132.715 35.336C132.737 35.0067 132.747 34.7012 132.747 34.4195V32.5605ZM135.425 31.5205H136.069C136.065 32.0925 136.084 32.6428 136.127 33.1715C136.171 33.6958 136.234 34.1833 136.316 34.634C136.398 35.0847 136.496 35.4768 136.608 35.8105C136.721 36.1442 136.847 36.4042 136.985 36.5905C137.128 36.7768 137.274 36.87 137.421 36.87C137.508 36.87 137.573 36.779 137.616 36.597C137.659 36.415 137.69 36.1138 137.707 35.6935C137.781 35.7628 137.867 35.83 137.967 35.895C138.067 35.96 138.158 36.0077 138.24 36.038C138.205 36.4237 138.155 36.7227 138.09 36.935C138.025 37.1473 137.934 37.2947 137.817 37.377C137.705 37.4593 137.557 37.5005 137.375 37.5005C137.15 37.5005 136.944 37.4247 136.758 37.273C136.576 37.1213 136.411 36.9068 136.264 36.6295C136.121 36.3522 135.997 36.0272 135.893 35.6545C135.794 35.2818 135.709 34.8723 135.64 34.426C135.571 33.9797 135.519 33.5117 135.484 33.022C135.449 32.528 135.43 32.0275 135.425 31.5205ZM142.575 34.3675L143.069 34.1205C143.191 34.2722 143.31 34.4368 143.427 34.6145C143.544 34.7878 143.648 34.9612 143.739 35.1345C143.834 35.3078 143.908 35.4638 143.96 35.6025L143.42 35.8885C143.377 35.7498 143.31 35.5938 143.219 35.4205C143.128 35.2428 143.026 35.063 142.913 34.881C142.805 34.6947 142.692 34.5235 142.575 34.3675ZM142.686 32.658H145.104V33.2365H142.686V32.658ZM144.844 32.658H145.435C145.435 32.658 145.435 32.6775 145.435 32.7165C145.435 32.7555 145.435 32.7988 145.435 32.8465C145.435 32.8942 145.435 32.931 145.435 32.957C145.409 33.6807 145.381 34.296 145.351 34.803C145.325 35.3057 145.295 35.7217 145.26 36.051C145.225 36.376 145.184 36.6317 145.136 36.818C145.089 37 145.032 37.1322 144.967 37.2145C144.885 37.3228 144.798 37.3965 144.707 37.4355C144.621 37.4745 144.512 37.5027 144.382 37.52C144.274 37.533 144.127 37.5395 143.94 37.5395C143.754 37.5395 143.563 37.5352 143.368 37.5265C143.364 37.4355 143.342 37.3315 143.303 37.2145C143.269 37.0975 143.223 36.9957 143.167 36.909C143.379 36.9263 143.574 36.9372 143.752 36.9415C143.934 36.9458 144.066 36.948 144.148 36.948C144.213 36.948 144.268 36.9415 144.311 36.9285C144.354 36.9112 144.393 36.8808 144.428 36.8375C144.484 36.7812 144.532 36.6663 144.571 36.493C144.614 36.3197 144.651 36.0748 144.681 35.7585C144.716 35.4378 144.746 35.0348 144.772 34.5495C144.798 34.0598 144.822 33.4727 144.844 32.788V32.658ZM142.842 31.5075L143.472 31.6505C143.386 31.9625 143.277 32.2723 143.147 32.58C143.017 32.8833 142.877 33.1672 142.725 33.4315C142.573 33.6958 142.415 33.9277 142.25 34.127C142.211 34.0923 142.157 34.0512 142.088 34.0035C142.023 33.9558 141.954 33.9103 141.88 33.867C141.811 33.8193 141.752 33.7825 141.704 33.7565C141.873 33.5745 142.029 33.3643 142.172 33.126C142.315 32.8877 142.443 32.6298 142.556 32.3525C142.669 32.0752 142.764 31.7935 142.842 31.5075ZM140.528 31.514L141.074 31.7155C140.987 31.8758 140.896 32.0448 140.801 32.2225C140.71 32.3958 140.617 32.5627 140.521 32.723C140.43 32.8833 140.342 33.022 140.255 33.139L139.839 32.9635C139.921 32.8335 140.004 32.684 140.086 32.515C140.173 32.346 140.255 32.1748 140.333 32.0015C140.411 31.8238 140.476 31.6613 140.528 31.514ZM141.308 32.268L141.841 32.489C141.685 32.736 141.514 32.996 141.327 33.269C141.145 33.5377 140.959 33.7998 140.768 34.0555C140.582 34.3068 140.404 34.5235 140.235 34.7055L139.852 34.5105C139.978 34.3632 140.108 34.1985 140.242 34.0165C140.376 33.8302 140.508 33.6352 140.638 33.4315C140.768 33.2278 140.89 33.0263 141.002 32.827C141.119 32.6277 141.221 32.4413 141.308 32.268ZM139.514 32.957L139.813 32.541C139.93 32.6407 140.049 32.7512 140.17 32.8725C140.296 32.9938 140.409 33.113 140.508 33.23C140.612 33.347 140.693 33.4553 140.749 33.555L140.43 34.0295C140.374 33.9255 140.296 33.8107 140.196 33.685C140.097 33.5593 139.986 33.4337 139.865 33.308C139.748 33.178 139.631 33.061 139.514 32.957ZM141.126 33.802L141.568 33.6135C141.659 33.7522 141.746 33.9038 141.828 34.0685C141.915 34.2288 141.99 34.387 142.055 34.543C142.12 34.699 142.168 34.8377 142.198 34.959L141.724 35.18C141.694 35.0587 141.646 34.92 141.581 34.764C141.52 34.6037 141.449 34.439 141.366 34.27C141.288 34.101 141.208 33.945 141.126 33.802ZM139.501 34.4C139.8 34.3913 140.155 34.3783 140.567 34.361C140.983 34.3437 141.408 34.3263 141.841 34.309L141.834 34.803C141.427 34.829 141.024 34.855 140.625 34.881C140.227 34.907 139.869 34.9287 139.553 34.946L139.501 34.4ZM141.262 35.388L141.724 35.2385C141.815 35.4378 141.902 35.6545 141.984 35.8885C142.066 36.1182 142.125 36.3175 142.159 36.4865L141.665 36.6555C141.635 36.4865 141.581 36.2828 141.503 36.0445C141.429 35.8062 141.349 35.5873 141.262 35.388ZM139.826 35.2775L140.346 35.3685C140.307 35.6762 140.248 35.9795 140.17 36.2785C140.097 36.5775 140.01 36.831 139.91 37.039C139.876 37.0173 139.83 36.9913 139.774 36.961C139.718 36.9307 139.657 36.9025 139.592 36.8765C139.531 36.8462 139.479 36.8245 139.436 36.8115C139.54 36.6122 139.622 36.376 139.683 36.103C139.748 35.83 139.796 35.5548 139.826 35.2775ZM140.58 34.66H141.126V37.559H140.58V34.66Z" fill="white"/>
<rect x="178" y="24.5" width="18.9438" height="19" fill="white" stroke="#2FB3BC"/>
<path d="M186.722 39.168C186.258 39.168 185.846 39.112 185.486 39C185.126 38.888 184.806 38.74 184.526 38.556C184.246 38.372 184.006 38.164 183.806 37.932L184.562 36.936C184.826 37.192 185.122 37.412 185.45 37.596C185.778 37.78 186.158 37.872 186.59 37.872C186.91 37.872 187.19 37.82 187.43 37.716C187.67 37.612 187.854 37.46 187.982 37.26C188.118 37.052 188.186 36.808 188.186 36.528C188.186 36.216 188.11 35.948 187.958 35.724C187.814 35.492 187.558 35.316 187.19 35.196C186.822 35.068 186.31 35.004 185.654 35.004V33.864C186.222 33.864 186.666 33.804 186.986 33.684C187.314 33.556 187.546 33.384 187.682 33.168C187.826 32.944 187.898 32.692 187.898 32.412C187.898 32.044 187.786 31.756 187.562 31.548C187.338 31.332 187.026 31.224 186.626 31.224C186.298 31.224 185.994 31.3 185.714 31.452C185.434 31.596 185.162 31.788 184.898 32.028L184.094 31.056C184.462 30.728 184.858 30.468 185.282 30.276C185.706 30.076 186.174 29.976 186.686 29.976C187.238 29.976 187.722 30.068 188.138 30.252C188.562 30.428 188.89 30.688 189.122 31.032C189.362 31.376 189.482 31.8 189.482 32.304C189.482 32.792 189.346 33.212 189.074 33.564C188.81 33.908 188.446 34.168 187.982 34.344V34.404C188.318 34.492 188.622 34.636 188.894 34.836C189.166 35.028 189.378 35.276 189.53 35.58C189.69 35.876 189.77 36.22 189.77 36.612C189.77 37.148 189.63 37.608 189.35 37.992C189.078 38.368 188.71 38.66 188.246 38.868C187.79 39.068 187.282 39.168 186.722 39.168Z" fill="#2FB3BC"/>
<path d="M266.25 34L260.881 44H196.447V24H260.881L266.25 34Z" fill="#2FB3BC"/>
<path d="M203.179 31.7675C203.17 31.8065 203.163 31.8563 203.159 31.917C203.155 31.9733 203.148 32.034 203.14 32.099C203.135 32.1597 203.131 32.216 203.127 32.268C203.122 32.3807 203.116 32.515 203.107 32.671C203.103 32.8227 203.096 32.9895 203.088 33.1715C203.083 33.3492 203.079 33.529 203.075 33.711C203.075 33.8887 203.075 34.0598 203.075 34.2245C203.075 34.3935 203.077 34.582 203.081 34.79C203.085 34.998 203.09 35.2038 203.094 35.4075C203.098 35.6068 203.103 35.7932 203.107 35.9665C203.111 36.1355 203.114 36.2698 203.114 36.3695C203.114 36.5992 203.085 36.779 203.029 36.909C202.977 37.039 202.903 37.13 202.808 37.182C202.717 37.234 202.607 37.26 202.477 37.26C202.338 37.26 202.186 37.2297 202.022 37.169C201.857 37.1083 201.701 37.026 201.554 36.922C201.406 36.818 201.285 36.6967 201.19 36.558C201.094 36.4193 201.047 36.272 201.047 36.116C201.047 35.9167 201.122 35.7195 201.274 35.5245C201.43 35.3252 201.634 35.1432 201.885 34.9785C202.136 34.8138 202.403 34.6795 202.685 34.5755C202.979 34.4672 203.28 34.3848 203.588 34.3285C203.896 34.2722 204.175 34.244 204.427 34.244C204.752 34.244 205.042 34.2982 205.298 34.4065C205.553 34.5148 205.755 34.6708 205.902 34.8745C206.049 35.0782 206.123 35.3187 206.123 35.596C206.123 35.8517 206.071 36.0813 205.967 36.285C205.867 36.4887 205.714 36.662 205.506 36.805C205.298 36.948 205.035 37.0585 204.719 37.1365C204.572 37.1668 204.427 37.1885 204.284 37.2015C204.145 37.2145 204.015 37.2253 203.894 37.234L203.66 36.571C203.79 36.5753 203.922 36.5753 204.056 36.571C204.19 36.5667 204.318 36.5515 204.44 36.5255C204.622 36.4908 204.791 36.4367 204.947 36.363C205.103 36.285 205.226 36.1832 205.317 36.0575C205.412 35.9275 205.46 35.7715 205.46 35.5895C205.46 35.4205 205.415 35.2797 205.324 35.167C205.233 35.05 205.109 34.9612 204.953 34.9005C204.797 34.8398 204.619 34.8095 204.42 34.8095C204.138 34.8095 203.859 34.8398 203.582 34.9005C203.304 34.9568 203.031 35.037 202.763 35.141C202.563 35.219 202.381 35.3122 202.217 35.4205C202.052 35.5288 201.922 35.6415 201.827 35.7585C201.731 35.8712 201.684 35.9795 201.684 36.0835C201.684 36.1485 201.705 36.2113 201.749 36.272C201.792 36.3283 201.844 36.3782 201.905 36.4215C201.97 36.4648 202.037 36.4995 202.106 36.5255C202.175 36.5515 202.238 36.5645 202.295 36.5645C202.36 36.5645 202.412 36.5428 202.451 36.4995C202.494 36.4518 202.516 36.3738 202.516 36.2655C202.516 36.1442 202.511 35.973 202.503 35.752C202.498 35.531 202.494 35.2883 202.49 35.024C202.485 34.7553 202.483 34.4975 202.483 34.2505C202.483 34.0642 202.483 33.8713 202.483 33.672C202.487 33.4683 202.49 33.2733 202.49 33.087C202.494 32.9007 202.496 32.736 202.496 32.593C202.5 32.45 202.503 32.346 202.503 32.281C202.503 32.2333 202.5 32.177 202.496 32.112C202.492 32.047 202.487 31.9842 202.483 31.9235C202.479 31.8585 202.472 31.8065 202.464 31.7675H203.179ZM205.122 32.4825C205.282 32.5605 205.46 32.658 205.655 32.775C205.854 32.8877 206.043 33.0025 206.221 33.1195C206.403 33.2322 206.548 33.3318 206.656 33.4185L206.338 33.9385C206.26 33.8648 206.156 33.7847 206.026 33.698C205.9 33.6113 205.763 33.5225 205.616 33.4315C205.473 33.3405 205.332 33.256 205.194 33.178C205.059 33.0957 204.94 33.0285 204.836 32.9765L205.122 32.4825ZM201.183 32.892C201.369 32.9137 201.53 32.9288 201.664 32.9375C201.798 32.9418 201.926 32.944 202.048 32.944C202.208 32.944 202.39 32.9353 202.594 32.918C202.797 32.9007 203.003 32.879 203.211 32.853C203.423 32.827 203.629 32.7945 203.829 32.7555C204.032 32.7122 204.216 32.6667 204.381 32.619L204.394 33.256C204.221 33.295 204.028 33.3318 203.816 33.3665C203.608 33.4012 203.395 33.4337 203.179 33.464C202.966 33.49 202.763 33.5117 202.568 33.529C202.377 33.542 202.208 33.5485 202.061 33.5485C201.866 33.5485 201.701 33.5463 201.567 33.542C201.432 33.5333 201.311 33.5247 201.203 33.516L201.183 32.892ZM207.378 33.386H213V34.751H212.402V33.9255H207.956V34.751H207.378V33.386ZM208.236 34.556H211.778V35.128H208.236V34.556ZM212.272 31.4815L212.695 31.982C212.348 32.047 211.967 32.1077 211.551 32.164C211.139 32.2203 210.708 32.2702 210.257 32.3135C209.811 32.3525 209.36 32.385 208.905 32.411C208.45 32.437 208.008 32.4587 207.579 32.476C207.575 32.398 207.557 32.307 207.527 32.203C207.497 32.099 207.466 32.0145 207.436 31.9495C207.865 31.9322 208.301 31.9105 208.743 31.8845C209.189 31.8542 209.627 31.8195 210.056 31.7805C210.489 31.7415 210.894 31.6982 211.271 31.6505C211.648 31.5985 211.982 31.5422 212.272 31.4815ZM207.995 32.606L208.528 32.45C208.619 32.5757 208.704 32.7165 208.782 32.8725C208.86 33.0285 208.916 33.1607 208.951 33.269L208.392 33.4445C208.361 33.3318 208.307 33.1975 208.229 33.0415C208.155 32.8812 208.077 32.736 207.995 32.606ZM209.718 32.463L210.27 32.346C210.339 32.4847 210.404 32.6385 210.465 32.8075C210.53 32.9765 210.573 33.1238 210.595 33.2495L210.017 33.3925C209.999 33.2712 209.962 33.1238 209.906 32.9505C209.85 32.7728 209.787 32.6103 209.718 32.463ZM211.869 32.333L212.513 32.4955C212.435 32.6342 212.352 32.775 212.266 32.918C212.183 33.0567 212.099 33.191 212.012 33.321C211.93 33.4467 211.852 33.5593 211.778 33.659L211.278 33.503C211.347 33.3947 211.418 33.2733 211.492 33.139C211.566 33.0003 211.635 32.8617 211.7 32.723C211.769 32.58 211.826 32.45 211.869 32.333ZM211.551 34.556H211.681L211.791 34.53L212.207 34.7835C212.008 35.2038 211.75 35.5678 211.434 35.8755C211.122 36.1832 210.762 36.4453 210.355 36.662C209.952 36.8743 209.516 37.0498 209.048 37.1885C208.58 37.3272 208.095 37.4333 207.592 37.507C207.57 37.4593 207.538 37.3987 207.495 37.325C207.456 37.2557 207.412 37.1885 207.365 37.1235C207.321 37.0585 207.278 37.0043 207.235 36.961C207.729 36.9003 208.201 36.8137 208.652 36.701C209.102 36.584 209.516 36.4345 209.893 36.2525C210.274 36.0662 210.606 35.843 210.888 35.583C211.169 35.3187 211.39 35.011 211.551 34.66V34.556ZM208.925 34.959C209.172 35.323 209.501 35.6393 209.913 35.908C210.324 36.1767 210.801 36.3955 211.343 36.5645C211.889 36.7335 212.482 36.8548 213.124 36.9285C213.08 36.9718 213.035 37.0282 212.987 37.0975C212.939 37.1668 212.894 37.2362 212.851 37.3055C212.812 37.3792 212.777 37.4442 212.747 37.5005C212.092 37.4095 211.49 37.2643 210.94 37.065C210.389 36.87 209.9 36.6165 209.471 36.3045C209.042 35.9882 208.682 35.6133 208.392 35.18L208.925 34.959ZM218.434 31.891C218.425 31.9517 218.419 32.0167 218.415 32.086C218.41 32.1553 218.406 32.2268 218.402 32.3005C218.402 32.3525 218.402 32.437 218.402 32.554C218.402 32.6667 218.402 32.7945 218.402 32.9375C218.406 33.0805 218.408 33.2278 218.408 33.3795C218.412 33.5268 218.415 33.6633 218.415 33.789C218.415 33.9147 218.415 34.0165 218.415 34.0945C218.415 34.4715 218.404 34.8182 218.382 35.1345C218.36 35.4508 218.306 35.7455 218.22 36.0185C218.133 36.2915 217.994 36.545 217.804 36.779C217.617 37.0087 217.357 37.2253 217.024 37.429L216.426 36.961C216.538 36.9133 216.66 36.8483 216.79 36.766C216.92 36.6793 217.028 36.5927 217.115 36.506C217.266 36.363 217.385 36.2135 217.472 36.0575C217.563 35.8972 217.63 35.7217 217.674 35.531C217.721 35.336 217.752 35.1215 217.765 34.8875C217.782 34.6492 217.791 34.3827 217.791 34.088C217.791 33.9753 217.788 33.8345 217.784 33.6655C217.784 33.4965 217.78 33.3232 217.771 33.1455C217.767 32.9635 217.762 32.7967 217.758 32.645C217.754 32.4933 217.749 32.3785 217.745 32.3005C217.741 32.2225 217.73 32.1467 217.713 32.073C217.7 31.9993 217.689 31.9387 217.68 31.891H218.434ZM215.977 33.1975C216.077 33.2105 216.183 33.2235 216.296 33.2365C216.408 33.2495 216.523 33.2582 216.64 33.2625C216.761 33.2668 216.881 33.269 216.998 33.269C217.271 33.269 217.552 33.2625 217.843 33.2495C218.137 33.2365 218.421 33.217 218.694 33.191C218.971 33.1607 219.218 33.1238 219.435 33.0805L219.429 33.7435C219.225 33.7738 218.989 33.7998 218.72 33.8215C218.451 33.8432 218.17 33.8605 217.875 33.8735C217.58 33.8822 217.29 33.8865 217.004 33.8865C216.909 33.8865 216.798 33.8843 216.673 33.88C216.551 33.8757 216.43 33.8713 216.309 33.867C216.187 33.8627 216.077 33.8583 215.977 33.854V33.1975ZM215.165 31.9885C215.147 32.0578 215.126 32.138 215.1 32.229C215.074 32.3157 215.052 32.3915 215.035 32.4565C214.987 32.6688 214.939 32.9093 214.892 33.178C214.848 33.4467 214.811 33.7262 214.781 34.0165C214.755 34.3068 214.744 34.5928 214.749 34.8745C214.757 35.1562 214.788 35.4162 214.84 35.6545C214.883 35.5332 214.935 35.3902 214.996 35.2255C215.056 35.0608 215.115 34.907 215.171 34.764L215.509 34.9785C215.453 35.1388 215.396 35.3143 215.34 35.505C215.284 35.6957 215.232 35.8777 215.184 36.051C215.136 36.22 215.1 36.3608 215.074 36.4735C215.065 36.5255 215.056 36.5818 215.048 36.6425C215.043 36.6988 215.041 36.7443 215.041 36.779C215.041 36.8137 215.043 36.8527 215.048 36.896C215.052 36.9393 215.056 36.9805 215.061 37.0195L214.495 37.0845C214.452 36.9502 214.4 36.7725 214.339 36.5515C214.283 36.3262 214.235 36.0792 214.196 35.8105C214.157 35.5418 214.138 35.2732 214.138 35.0045C214.138 34.6492 214.151 34.3068 214.177 33.9775C214.207 33.6482 214.239 33.3492 214.274 33.0805C214.313 32.8075 214.346 32.5822 214.372 32.4045C214.385 32.3222 214.393 32.2377 214.398 32.151C214.402 32.0643 214.404 31.9863 214.404 31.917L215.165 31.9885ZM223.283 32.385H225.604V32.983H223.283V32.385ZM220.235 31.904H223.452V32.476H220.235V31.904ZM221.034 33.23H222.666V33.789H221.034V33.23ZM221.034 34.582H222.666V35.1345H221.034V34.582ZM225.428 32.385H225.532L225.643 32.359L226.039 32.463C225.944 33.334 225.779 34.0923 225.545 34.738C225.311 35.3837 225.014 35.9318 224.655 36.3825C224.295 36.8288 223.877 37.1928 223.4 37.4745C223.352 37.3965 223.29 37.3077 223.212 37.208C223.134 37.1083 223.062 37.0303 222.997 36.974C223.426 36.7487 223.807 36.4302 224.141 36.0185C224.475 35.6025 224.752 35.102 224.973 34.517C225.194 33.9277 225.346 33.2625 225.428 32.5215V32.385ZM223.946 33.0025C224.059 33.6005 224.217 34.1595 224.421 34.6795C224.624 35.1952 224.882 35.6502 225.194 36.0445C225.506 36.4388 225.879 36.7508 226.312 36.9805C226.264 37.0195 226.212 37.0693 226.156 37.13C226.104 37.1907 226.052 37.2513 226 37.312C225.952 37.377 225.913 37.4355 225.883 37.4875C225.419 37.2188 225.025 36.8722 224.7 36.4475C224.375 36.0185 224.104 35.5245 223.888 34.9655C223.671 34.4022 223.495 33.7868 223.361 33.1195L223.946 33.0025ZM220.709 32.125H221.301V36.363H220.709V32.125ZM222.425 32.125H223.017V37.5395H222.425V32.125ZM220.092 36.155C220.304 36.129 220.549 36.0987 220.826 36.064C221.103 36.0293 221.398 35.9903 221.71 35.947C222.022 35.8993 222.334 35.8538 222.646 35.8105L222.679 36.376C222.241 36.4453 221.803 36.5168 221.366 36.5905C220.932 36.6598 220.547 36.7205 220.209 36.7725L220.092 36.155ZM228.698 31.8325C228.672 31.9322 228.643 32.0535 228.613 32.1965C228.583 32.3352 228.555 32.4803 228.529 32.632C228.503 32.7837 228.479 32.931 228.457 33.074C228.44 33.2127 228.427 33.334 228.418 33.438C228.492 33.2907 228.583 33.1412 228.691 32.9895C228.804 32.8378 228.934 32.6992 229.081 32.5735C229.228 32.4478 229.389 32.346 229.562 32.268C229.735 32.19 229.92 32.151 230.115 32.151C230.409 32.151 230.671 32.2442 230.901 32.4305C231.135 32.6125 231.319 32.8725 231.454 33.2105C231.588 33.5485 231.655 33.9515 231.655 34.4195C231.655 34.8702 231.588 35.2645 231.454 35.6025C231.319 35.9405 231.129 36.2265 230.882 36.4605C230.635 36.6945 230.34 36.8852 229.998 37.0325C229.655 37.1842 229.278 37.2968 228.867 37.3705L228.477 36.779C228.832 36.7227 229.161 36.6447 229.465 36.545C229.768 36.441 230.032 36.3002 230.258 36.1225C230.483 35.9448 230.656 35.7173 230.778 35.44C230.903 35.1627 230.966 34.8225 230.966 34.4195C230.966 34.0815 230.929 33.7868 230.856 33.5355C230.782 33.2842 230.674 33.0892 230.531 32.9505C230.388 32.8118 230.212 32.7425 230.004 32.7425C229.805 32.7425 229.614 32.8075 229.432 32.9375C229.25 33.0675 229.085 33.2343 228.938 33.438C228.795 33.6417 228.678 33.8605 228.587 34.0945C228.5 34.3285 228.448 34.5538 228.431 34.7705C228.422 34.8788 228.418 34.9915 228.418 35.1085C228.422 35.2255 228.435 35.362 228.457 35.518L227.82 35.5635C227.807 35.4422 227.792 35.2905 227.775 35.1085C227.757 34.9222 227.749 34.7228 227.749 34.5105C227.749 34.3545 227.755 34.1877 227.768 34.01C227.781 33.828 227.796 33.6438 227.814 33.4575C227.831 33.2668 227.85 33.0827 227.872 32.905C227.898 32.7273 227.92 32.5648 227.937 32.4175C227.954 32.3048 227.965 32.1965 227.97 32.0925C227.978 31.9885 227.985 31.891 227.989 31.8L228.698 31.8325ZM233.618 32.3785H238.786V36.129H238.149V32.9635H234.229V36.168H233.618V32.3785ZM234.021 33.789H238.467V34.3545H234.021V33.789ZM234.021 35.2125H238.467V35.804H234.021V35.2125ZM235.848 31.514H236.485V37.5395H235.848V31.514ZM239.969 33.49H241.899V33.9645H239.969V33.49ZM239.988 31.7285H241.873V32.2095H239.988V31.7285ZM239.969 34.3675H241.899V34.842H239.969V34.3675ZM239.663 32.593H242.114V33.087H239.663V32.593ZM240.235 35.258H241.906V37.1885H240.235V36.6945H241.373V35.752H240.235V35.258ZM239.956 35.258H240.482V37.468H239.956V35.258ZM242.263 31.917H245.552V32.3655H242.263V31.917ZM242.432 32.6905H245.455V33.1195H242.432V32.6905ZM242.101 33.477H245.689V33.932H242.101V33.477ZM243.596 31.514H244.174V33.8605H243.596V31.514ZM242.575 34.257H245.065V34.7055H243.141V37.5395H242.575V34.257ZM244.733 34.257H245.305V36.9415C245.305 37.0758 245.288 37.182 245.253 37.26C245.223 37.338 245.158 37.3987 245.058 37.442C244.967 37.4853 244.848 37.5092 244.701 37.5135C244.553 37.5222 244.376 37.5265 244.168 37.5265C244.159 37.4528 244.137 37.3683 244.103 37.273C244.072 37.1777 244.038 37.0953 243.999 37.026C244.137 37.0303 244.265 37.0325 244.382 37.0325C244.503 37.0325 244.584 37.0325 244.623 37.0325C244.666 37.0282 244.694 37.0195 244.707 37.0065C244.724 36.9935 244.733 36.9675 244.733 36.9285V34.257ZM242.822 35.089H245.026V35.5115H242.822V35.089ZM242.822 35.908H245.026V36.324H242.822V35.908Z" fill="white"/>
<rect x="285.197" y="24" width="69.8034" height="20" fill="#2FB3BC"/>
<rect x="266.75" y="24.5" width="18.9438" height="19" fill="white" stroke="#2FB3BC"/>
<path d="M276.288 39V33.384C276.288 33.136 276.296 32.844 276.312 32.508C276.328 32.164 276.34 31.864 276.348 31.608H276.3C276.188 31.84 276.072 32.076 275.952 32.316C275.84 32.548 275.72 32.78 275.592 33.012L274.032 35.448H278.844V36.66H272.484V35.592L275.892 30.132H277.752V39H276.288Z" fill="#2FB3BC"/>
<path d="M291.47 28.385C291.453 28.2983 291.433 28.2182 291.412 28.1445C291.39 28.0665 291.366 27.9907 291.34 27.917L292.068 27.8C292.077 27.8607 292.085 27.9365 292.094 28.0275C292.107 28.1142 292.122 28.1943 292.14 28.268C292.148 28.32 292.166 28.4262 292.192 28.5865C292.222 28.7468 292.259 28.9462 292.302 29.1845C292.35 29.4228 292.4 29.6785 292.452 29.9515C292.508 30.2245 292.564 30.5018 292.621 30.7835C292.677 31.0608 292.729 31.323 292.777 31.57C292.824 31.817 292.865 32.0315 292.9 32.2135C292.939 32.3912 292.965 32.519 292.978 32.597C293 32.688 293.026 32.7877 293.056 32.896C293.086 33.0043 293.117 33.1083 293.147 33.208L292.4 33.3445C292.382 33.2275 292.367 33.1148 292.354 33.0065C292.345 32.9025 292.33 32.8028 292.309 32.7075C292.296 32.6382 292.272 32.5168 292.237 32.3435C292.207 32.1658 292.168 31.9557 292.12 31.713C292.077 31.4703 292.027 31.2125 291.971 30.9395C291.914 30.6622 291.86 30.387 291.808 30.114C291.756 29.8367 291.706 29.5788 291.659 29.3405C291.611 29.1022 291.57 28.8985 291.535 28.7295C291.505 28.5605 291.483 28.4457 291.47 28.385ZM289.663 29.2755C289.75 29.2668 289.841 29.2603 289.936 29.256C290.031 29.2473 290.129 29.2387 290.229 29.23C290.324 29.217 290.46 29.1997 290.638 29.178C290.816 29.152 291.015 29.1217 291.236 29.087C291.461 29.0523 291.693 29.0177 291.932 28.983C292.174 28.944 292.408 28.905 292.634 28.866C292.859 28.827 293.06 28.7923 293.238 28.762C293.42 28.7317 293.561 28.7078 293.661 28.6905C293.76 28.6688 293.858 28.6472 293.953 28.6255C294.048 28.6038 294.129 28.5843 294.194 28.567L294.317 29.2495C294.261 29.2538 294.183 29.2647 294.083 29.282C293.983 29.295 293.888 29.308 293.797 29.321C293.684 29.3383 293.533 29.3622 293.342 29.3925C293.156 29.4185 292.948 29.451 292.718 29.49C292.493 29.5247 292.259 29.5615 292.016 29.6005C291.778 29.6395 291.548 29.6763 291.327 29.711C291.11 29.7457 290.915 29.7782 290.742 29.8085C290.573 29.8345 290.445 29.8562 290.359 29.8735C290.263 29.8908 290.172 29.9082 290.086 29.9255C289.999 29.9428 289.904 29.9645 289.8 29.9905L289.663 29.2755ZM289.65 31.167C289.732 31.1627 289.832 31.154 289.949 31.141C290.07 31.128 290.177 31.115 290.268 31.102C290.385 31.0847 290.541 31.0608 290.736 31.0305C290.935 31.0002 291.158 30.9655 291.405 30.9265C291.652 30.8875 291.908 30.8463 292.172 30.803C292.436 30.7597 292.692 30.7163 292.939 30.673C293.19 30.6297 293.42 30.5907 293.628 30.556C293.836 30.5213 294.003 30.4932 294.129 30.4715C294.254 30.4455 294.367 30.4217 294.467 30.4C294.571 30.3783 294.662 30.3545 294.74 30.3285L294.876 31.011C294.802 31.0153 294.709 31.0283 294.597 31.05C294.488 31.0673 294.371 31.0868 294.246 31.1085C294.103 31.1302 293.925 31.1583 293.713 31.193C293.505 31.2233 293.275 31.2602 293.024 31.3035C292.772 31.3425 292.517 31.3837 292.257 31.427C291.997 31.466 291.745 31.5072 291.503 31.5505C291.264 31.5895 291.05 31.6263 290.859 31.661C290.668 31.6913 290.517 31.7173 290.404 31.739C290.274 31.7607 290.157 31.7823 290.053 31.804C289.953 31.8213 289.869 31.8408 289.8 31.8625L289.65 31.167ZM298.048 28.957C298.057 29.022 298.07 29.0935 298.087 29.1715C298.109 29.2452 298.128 29.3232 298.146 29.4055C298.176 29.5138 298.217 29.6655 298.269 29.8605C298.321 30.0512 298.38 30.2678 298.445 30.5105C298.514 30.7488 298.583 30.9937 298.653 31.245C298.722 31.4963 298.789 31.739 298.854 31.973C298.919 32.2027 298.975 32.4063 299.023 32.584C299.075 32.7573 299.114 32.8852 299.14 32.9675C299.153 33.0065 299.168 33.0542 299.186 33.1105C299.203 33.1712 299.22 33.2318 299.238 33.2925C299.259 33.3532 299.279 33.4052 299.296 33.4485L298.594 33.624C298.585 33.546 298.572 33.4615 298.555 33.3705C298.538 33.2795 298.516 33.1928 298.49 33.1105C298.464 33.0238 298.427 32.8917 298.38 32.714C298.332 32.532 298.276 32.324 298.211 32.09C298.146 31.8517 298.078 31.6047 298.009 31.349C297.944 31.0933 297.879 30.8463 297.814 30.608C297.749 30.3697 297.691 30.1573 297.639 29.971C297.587 29.7803 297.548 29.6373 297.522 29.542C297.5 29.4597 297.474 29.3838 297.444 29.3145C297.413 29.2452 297.383 29.1823 297.353 29.126L298.048 28.957ZM301.168 29.8995C301.099 30.0382 301.008 30.1963 300.895 30.374C300.787 30.5473 300.668 30.7272 300.538 30.9135C300.408 31.0955 300.278 31.2688 300.148 31.4335C300.018 31.5982 299.894 31.739 299.777 31.856L299.212 31.57C299.337 31.4573 299.467 31.3273 299.602 31.18C299.736 31.0283 299.862 30.8745 299.979 30.7185C300.1 30.5582 300.193 30.4195 300.258 30.3025C300.215 30.3112 300.124 30.3307 299.985 30.361C299.846 30.387 299.677 30.4195 299.478 30.4585C299.283 30.4975 299.069 30.5408 298.835 30.5885C298.605 30.6362 298.373 30.6838 298.139 30.7315C297.905 30.7792 297.682 30.8247 297.47 30.868C297.262 30.9113 297.08 30.9503 296.924 30.985C296.772 31.0153 296.659 31.0392 296.586 31.0565L296.43 30.4325C296.525 30.4238 296.616 30.4152 296.703 30.4065C296.794 30.3935 296.891 30.3783 296.995 30.361C297.043 30.3523 297.134 30.3372 297.268 30.3155C297.402 30.2895 297.565 30.2592 297.756 30.2245C297.946 30.1855 298.152 30.1465 298.373 30.1075C298.594 30.0642 298.815 30.023 299.036 29.984C299.257 29.9407 299.465 29.8995 299.66 29.8605C299.859 29.8215 300.028 29.789 300.167 29.763C300.31 29.7327 300.412 29.711 300.473 29.698C300.52 29.685 300.57 29.672 300.622 29.659C300.674 29.6417 300.717 29.6243 300.752 29.607L301.168 29.8995ZM305.205 29.204C305.235 29.269 305.274 29.3665 305.322 29.4965C305.369 29.6222 305.419 29.7587 305.471 29.906C305.527 30.049 305.577 30.1855 305.621 30.3155C305.668 30.4455 305.703 30.5452 305.725 30.6145L305.114 30.8355C305.096 30.7575 305.066 30.6557 305.023 30.53C304.979 30.4 304.932 30.2657 304.88 30.127C304.828 29.984 304.776 29.8475 304.724 29.7175C304.676 29.5875 304.633 29.4835 304.594 29.4055L305.205 29.204ZM307.577 29.62C307.547 29.7023 307.521 29.7738 307.499 29.8345C307.482 29.8952 307.467 29.9515 307.454 30.0035C307.367 30.3502 307.25 30.6903 307.103 31.024C306.96 31.3577 306.773 31.6718 306.544 31.9665C306.245 32.3478 305.904 32.6707 305.523 32.935C305.146 33.195 304.773 33.3965 304.405 33.5395L303.866 32.987C304.108 32.9177 304.36 32.818 304.62 32.688C304.88 32.558 305.129 32.402 305.367 32.22C305.61 32.038 305.82 31.8365 305.998 31.6155C306.145 31.4292 306.279 31.2168 306.401 30.9785C306.522 30.7358 306.622 30.4802 306.7 30.2115C306.778 29.9385 306.832 29.6655 306.862 29.3925L307.577 29.62ZM303.69 29.542C303.729 29.6157 303.775 29.7175 303.827 29.8475C303.883 29.9732 303.939 30.1097 303.996 30.257C304.056 30.4043 304.113 30.5452 304.165 30.6795C304.217 30.8138 304.258 30.9265 304.288 31.0175L303.67 31.245C303.645 31.1627 303.606 31.0522 303.554 30.9135C303.502 30.7705 303.445 30.6232 303.385 30.4715C303.328 30.3198 303.272 30.1812 303.216 30.0555C303.164 29.9255 303.118 29.828 303.079 29.763L303.69 29.542ZM310.476 27.9365C310.58 27.9928 310.697 28.0643 310.827 28.151C310.957 28.2333 311.091 28.32 311.23 28.411C311.369 28.4977 311.499 28.5822 311.62 28.6645C311.746 28.7425 311.845 28.8097 311.919 28.866L311.536 29.425C311.453 29.3643 311.351 29.2928 311.23 29.2105C311.109 29.1282 310.981 29.0437 310.847 28.957C310.712 28.8703 310.58 28.788 310.45 28.71C310.32 28.6277 310.205 28.5562 310.106 28.4955L310.476 27.9365ZM309.404 32.571C309.642 32.5277 309.887 32.4735 310.138 32.4085C310.389 32.3392 310.639 32.2568 310.886 32.1615C311.133 32.0618 311.371 31.9513 311.601 31.83C311.96 31.622 312.296 31.3902 312.608 31.1345C312.92 30.8788 313.202 30.6058 313.453 30.3155C313.704 30.0252 313.917 29.7262 314.09 29.4185L314.487 30.1075C314.192 30.5495 313.826 30.972 313.388 31.375C312.955 31.778 312.474 32.1312 311.945 32.4345C311.724 32.5602 311.484 32.6772 311.224 32.7855C310.968 32.8938 310.712 32.987 310.457 33.065C310.205 33.1473 309.982 33.2058 309.787 33.2405L309.404 32.571ZM309.488 29.412C309.592 29.464 309.711 29.5312 309.846 29.6135C309.98 29.6915 310.116 29.7738 310.255 29.8605C310.394 29.9472 310.524 30.0295 310.645 30.1075C310.766 30.1812 310.866 30.2462 310.944 30.3025L310.567 30.881C310.48 30.8203 310.376 30.7488 310.255 30.6665C310.134 30.5842 310.006 30.4997 309.872 30.413C309.737 30.3263 309.603 30.2462 309.469 30.1725C309.339 30.0945 309.222 30.0273 309.118 29.971L309.488 29.412ZM319.849 29.906C319.84 29.9407 319.832 29.9797 319.823 30.023C319.814 30.0663 319.806 30.1053 319.797 30.14C319.788 30.231 319.771 30.361 319.745 30.53C319.723 30.6947 319.697 30.8767 319.667 31.076C319.637 31.2753 319.606 31.4747 319.576 31.674C319.546 31.869 319.518 32.0488 319.492 32.2135C319.47 32.3782 319.45 32.506 319.433 32.597H318.738C318.751 32.519 318.768 32.4063 318.79 32.259C318.816 32.1073 318.844 31.9405 318.874 31.7585C318.904 31.5765 318.933 31.3923 318.959 31.206C318.985 31.0197 319.006 30.8507 319.024 30.699C319.045 30.543 319.056 30.4238 319.056 30.3415C318.982 30.3415 318.876 30.3415 318.738 30.3415C318.599 30.3415 318.445 30.3415 318.276 30.3415C318.107 30.3415 317.94 30.3415 317.776 30.3415C317.615 30.3415 317.477 30.3415 317.36 30.3415C317.243 30.3415 317.165 30.3415 317.126 30.3415C317.03 30.3415 316.931 30.3437 316.827 30.348C316.727 30.3523 316.634 30.3567 316.547 30.361V29.685C316.603 29.6893 316.664 29.6958 316.729 29.7045C316.798 29.7088 316.868 29.7132 316.937 29.7175C317.006 29.7175 317.067 29.7175 317.119 29.7175C317.175 29.7175 317.264 29.7175 317.386 29.7175C317.507 29.7175 317.641 29.7175 317.789 29.7175C317.94 29.7175 318.094 29.7175 318.25 29.7175C318.406 29.7175 318.547 29.7175 318.672 29.7175C318.798 29.7175 318.896 29.7175 318.965 29.7175C319.004 29.7175 319.05 29.7153 319.102 29.711C319.154 29.7067 319.203 29.7002 319.251 29.6915C319.299 29.6828 319.333 29.6742 319.355 29.6655L319.849 29.906ZM315.943 32.3435C316.029 32.3522 316.122 32.3608 316.222 32.3695C316.322 32.3738 316.424 32.376 316.528 32.376C316.588 32.376 316.707 32.376 316.885 32.376C317.063 32.376 317.273 32.376 317.516 32.376C317.763 32.376 318.018 32.376 318.282 32.376C318.551 32.376 318.807 32.376 319.05 32.376C319.292 32.376 319.5 32.376 319.674 32.376C319.847 32.376 319.962 32.376 320.018 32.376C320.092 32.376 320.185 32.3738 320.298 32.3695C320.41 32.3652 320.506 32.3587 320.584 32.35V33.013C320.54 33.0087 320.484 33.0043 320.415 33C320.35 33 320.282 33 320.213 33C320.144 33 320.083 33 320.031 33C319.975 33 319.856 33 319.674 33C319.496 33 319.284 33 319.037 33C318.794 33 318.538 33 318.27 33C318.001 33 317.743 33 317.496 33C317.253 33 317.045 33 316.872 33C316.699 33 316.584 33 316.528 33C316.424 33 316.328 33 316.242 33C316.155 33.0043 316.055 33.0087 315.943 33.013V32.3435ZM326.518 27.8845C326.574 27.9582 326.633 28.0492 326.694 28.1575C326.759 28.2658 326.821 28.3742 326.882 28.4825C326.943 28.5908 326.995 28.6883 327.038 28.775L326.616 28.957C326.551 28.827 326.468 28.6753 326.369 28.502C326.273 28.3287 326.182 28.1813 326.096 28.06L326.518 27.8845ZM327.253 27.605C327.309 27.6873 327.37 27.7827 327.435 27.891C327.504 27.9993 327.571 28.1077 327.636 28.216C327.701 28.32 327.753 28.411 327.792 28.489L327.37 28.6775C327.3 28.5388 327.216 28.385 327.116 28.216C327.021 28.047 326.928 27.9018 326.837 27.7805L327.253 27.605ZM322.846 31.0175C322.915 30.8398 322.982 30.6513 323.047 30.452C323.116 30.2527 323.179 30.0468 323.236 29.8345C323.292 29.6178 323.34 29.4033 323.379 29.191C323.422 28.9787 323.454 28.775 323.476 28.58L324.211 28.7295C324.198 28.7858 324.182 28.8487 324.165 28.918C324.148 28.983 324.13 29.048 324.113 29.113C324.1 29.178 324.087 29.2343 324.074 29.282C324.052 29.386 324.022 29.5203 323.983 29.685C323.948 29.8453 323.905 30.0187 323.853 30.205C323.801 30.387 323.745 30.5733 323.684 30.764C323.628 30.9503 323.567 31.1237 323.502 31.284C323.424 31.4877 323.333 31.6978 323.229 31.9145C323.125 32.1268 323.015 32.3348 322.898 32.5385C322.781 32.7422 322.664 32.9285 322.547 33.0975L321.838 32.7985C322.042 32.5298 322.232 32.2352 322.41 31.9145C322.588 31.5895 322.733 31.2905 322.846 31.0175ZM326.05 30.816C325.985 30.647 325.911 30.4672 325.829 30.2765C325.751 30.0858 325.669 29.8952 325.582 29.7045C325.5 29.5095 325.417 29.3275 325.335 29.1585C325.253 28.9895 325.177 28.8443 325.108 28.723L325.777 28.502C325.842 28.6233 325.916 28.7685 325.998 28.9375C326.085 29.1065 326.171 29.2885 326.258 29.4835C326.345 29.6742 326.429 29.8648 326.512 30.0555C326.594 30.2462 326.668 30.4238 326.733 30.5885C326.793 30.7445 326.858 30.92 326.928 31.115C327.001 31.31 327.073 31.5115 327.142 31.7195C327.216 31.9232 327.283 32.1225 327.344 32.3175C327.404 32.5082 327.456 32.6815 327.5 32.8375L326.759 33.078C326.702 32.8397 326.635 32.5905 326.557 32.3305C326.479 32.0705 326.397 31.8105 326.31 31.5505C326.228 31.2905 326.141 31.0457 326.05 30.816ZM331.205 29.204C331.235 29.269 331.274 29.3665 331.322 29.4965C331.369 29.6222 331.419 29.7587 331.471 29.906C331.527 30.049 331.577 30.1855 331.621 30.3155C331.668 30.4455 331.703 30.5452 331.725 30.6145L331.114 30.8355C331.096 30.7575 331.066 30.6557 331.023 30.53C330.979 30.4 330.932 30.2657 330.88 30.127C330.828 29.984 330.776 29.8475 330.724 29.7175C330.676 29.5875 330.633 29.4835 330.594 29.4055L331.205 29.204ZM333.577 29.62C333.547 29.7023 333.521 29.7738 333.499 29.8345C333.482 29.8952 333.467 29.9515 333.454 30.0035C333.367 30.3502 333.25 30.6903 333.103 31.024C332.96 31.3577 332.773 31.6718 332.544 31.9665C332.245 32.3478 331.904 32.6707 331.523 32.935C331.146 33.195 330.773 33.3965 330.405 33.5395L329.866 32.987C330.108 32.9177 330.36 32.818 330.62 32.688C330.88 32.558 331.129 32.402 331.367 32.22C331.61 32.038 331.82 31.8365 331.998 31.6155C332.145 31.4292 332.279 31.2168 332.401 30.9785C332.522 30.7358 332.622 30.4802 332.7 30.2115C332.778 29.9385 332.832 29.6655 332.862 29.3925L333.577 29.62ZM329.69 29.542C329.729 29.6157 329.775 29.7175 329.827 29.8475C329.883 29.9732 329.939 30.1097 329.996 30.257C330.056 30.4043 330.113 30.5452 330.165 30.6795C330.217 30.8138 330.258 30.9265 330.288 31.0175L329.67 31.245C329.645 31.1627 329.606 31.0522 329.554 30.9135C329.502 30.7705 329.445 30.6232 329.385 30.4715C329.328 30.3198 329.272 30.1812 329.216 30.0555C329.164 29.9255 329.118 29.828 329.079 29.763L329.69 29.542ZM340.246 28.944C340.211 28.996 340.179 29.0588 340.149 29.1325C340.118 29.2062 340.09 29.2755 340.064 29.3405C340.008 29.5485 339.928 29.7782 339.824 30.0295C339.72 30.2808 339.592 30.5387 339.44 30.803C339.288 31.063 339.115 31.3122 338.92 31.5505C338.621 31.9188 338.264 32.2525 337.848 32.5515C337.436 32.8505 336.927 33.117 336.32 33.351L335.716 32.8115C336.136 32.6858 336.504 32.5407 336.821 32.376C337.141 32.207 337.423 32.0228 337.666 31.8235C337.913 31.6242 338.131 31.4118 338.322 31.1865C338.487 31.0002 338.634 30.7943 338.764 30.569C338.898 30.3393 339.013 30.1118 339.109 29.8865C339.208 29.6568 339.275 29.451 339.31 29.269H336.996L337.243 28.684C337.299 28.684 337.395 28.684 337.529 28.684C337.668 28.684 337.824 28.684 337.997 28.684C338.175 28.684 338.348 28.684 338.517 28.684C338.69 28.684 338.84 28.684 338.966 28.684C339.096 28.684 339.182 28.684 339.226 28.684C339.317 28.684 339.405 28.6797 339.492 28.671C339.579 28.658 339.652 28.6407 339.713 28.619L340.246 28.944ZM338.095 27.943C338.03 28.0383 337.965 28.1423 337.9 28.255C337.839 28.3677 337.791 28.4565 337.757 28.5215C337.622 28.7685 337.451 29.0307 337.243 29.308C337.039 29.5853 336.803 29.8583 336.535 30.127C336.266 30.3913 335.965 30.6362 335.631 30.8615L335.059 30.4325C335.341 30.2635 335.592 30.0837 335.813 29.893C336.034 29.7023 336.225 29.5117 336.385 29.321C336.55 29.126 336.691 28.9397 336.808 28.762C336.925 28.5843 337.022 28.424 337.1 28.281C337.139 28.216 337.182 28.1272 337.23 28.0145C337.278 27.8975 337.315 27.7913 337.341 27.696L338.095 27.943ZM290.352 36.437C290.586 36.463 290.85 36.4825 291.145 36.4955C291.444 36.5085 291.76 36.515 292.094 36.515C292.302 36.515 292.514 36.5107 292.731 36.502C292.948 36.4933 293.156 36.4825 293.355 36.4695C293.559 36.4565 293.741 36.4413 293.901 36.424V37.1C293.754 37.113 293.578 37.126 293.375 37.139C293.171 37.152 292.956 37.1628 292.731 37.1715C292.51 37.1758 292.298 37.178 292.094 37.178C291.765 37.178 291.457 37.1715 291.171 37.1585C290.885 37.1455 290.612 37.1282 290.352 37.1065V36.437ZM290.736 39.115C290.697 39.2363 290.666 39.3555 290.645 39.4725C290.623 39.5852 290.612 39.7 290.612 39.817C290.612 40.0467 290.729 40.2352 290.963 40.3825C291.197 40.5255 291.565 40.597 292.068 40.597C292.363 40.597 292.647 40.5883 292.92 40.571C293.197 40.5493 293.455 40.519 293.693 40.48C293.931 40.441 294.137 40.3955 294.311 40.3435L294.317 41.0585C294.148 41.0975 293.949 41.1343 293.719 41.169C293.489 41.208 293.236 41.2362 292.959 41.2535C292.686 41.2752 292.395 41.286 292.088 41.286C291.62 41.286 291.225 41.234 290.905 41.13C290.588 41.0303 290.348 40.883 290.183 40.688C290.018 40.493 289.936 40.2525 289.936 39.9665C289.936 39.7888 289.949 39.6242 289.975 39.4725C290.005 39.3165 290.036 39.1757 290.066 39.05L290.736 39.115ZM294.077 35.735C294.133 35.8087 294.194 35.8997 294.259 36.008C294.324 36.1163 294.386 36.2247 294.447 36.333C294.508 36.4413 294.56 36.5388 294.603 36.6255L294.174 36.814C294.109 36.6797 294.029 36.5258 293.934 36.3525C293.838 36.1792 293.745 36.0318 293.654 35.9105L294.077 35.735ZM294.818 35.462C294.874 35.54 294.937 35.6332 295.006 35.7415C295.075 35.8498 295.14 35.9582 295.201 36.0665C295.266 36.1748 295.318 36.268 295.357 36.346L294.935 36.5345C294.865 36.3915 294.781 36.2377 294.681 36.073C294.586 35.904 294.493 35.7588 294.402 35.6375L294.818 35.462ZM298.782 37.8475V38.3285H301.012V37.8475H298.782ZM298.782 36.9635V37.438H301.012V36.9635H298.782ZM298.25 36.5215H301.571V38.7705H298.25V36.5215ZM298.516 39.1215H301.324V41.546H300.739V39.5895H299.081V41.546H298.516V39.1215ZM300.765 35.5075L301.376 35.6895C301.281 35.8585 301.185 36.0253 301.09 36.19C300.995 36.3503 300.904 36.489 300.817 36.606L300.31 36.4305C300.388 36.3048 300.47 36.1553 300.557 35.982C300.648 35.8043 300.717 35.6462 300.765 35.5075ZM298.49 35.722L299.004 35.5335C299.095 35.6678 299.183 35.8195 299.27 35.9885C299.361 36.1532 299.424 36.294 299.459 36.411L298.919 36.6385C298.884 36.5128 298.826 36.3655 298.744 36.1965C298.661 36.0232 298.577 35.865 298.49 35.722ZM298.848 40.0055H300.993V40.454H298.848V40.0055ZM298.848 40.883H300.993V41.3445H298.848V40.883ZM299.602 36.7295H300.148V38.517H299.602V36.7295ZM296.339 39.999L296.878 40.1225C296.8 40.3955 296.694 40.6598 296.56 40.9155C296.425 41.1712 296.284 41.3857 296.137 41.559C296.102 41.5287 296.055 41.4918 295.994 41.4485C295.938 41.4095 295.879 41.3705 295.819 41.3315C295.762 41.2968 295.712 41.2665 295.669 41.2405C295.816 41.0845 295.949 40.896 296.066 40.675C296.183 40.454 296.274 40.2287 296.339 39.999ZM297.132 40.194L297.587 39.9925C297.695 40.1528 297.801 40.3305 297.905 40.5255C298.013 40.7162 298.091 40.8808 298.139 41.0195L297.658 41.2535C297.628 41.1582 297.584 41.0498 297.528 40.9285C297.472 40.8028 297.409 40.6772 297.34 40.5515C297.27 40.4215 297.201 40.3023 297.132 40.194ZM296.547 37.4575V38.192H297.379V37.4575H296.547ZM296.547 38.66V39.4075H297.379V38.66H296.547ZM296.547 36.255V36.9895H297.379V36.255H296.547ZM296.02 35.7545H297.925V39.9015H296.02V35.7545ZM302.735 38.452H307.785V39.0045H302.735V38.452ZM302.41 40.8115H308.097V41.364H302.41V40.8115ZM302.955 39.6285H307.564V40.155H302.955V39.6285ZM303.775 36.3135V37.4185H306.706V36.3135H303.775ZM303.164 35.7675H307.343V37.971H303.164V35.7675ZM304.899 38.6925H305.543V41.0975H304.899V38.6925Z" fill="white"/>
</svg>
