<svg width="355" height="45" viewBox="0 0 355 45" fill="none" xmlns="http://www.w3.org/2000/svg">
<path d="M109.368 2.432C109.336 2.256 109.296 2.096 109.248 1.952C109.208 1.808 109.168 1.664 109.128 1.52L110.82 1.244C110.836 1.364 110.852 1.516 110.868 1.7C110.892 1.876 110.92 2.036 110.952 2.18C110.968 2.292 111.004 2.5 111.06 2.804C111.116 3.108 111.184 3.476 111.264 3.908C111.344 4.34 111.432 4.808 111.528 5.312C111.632 5.808 111.732 6.312 111.828 6.824C111.924 7.328 112.016 7.808 112.104 8.264C112.2 8.72 112.28 9.124 112.344 9.476C112.416 9.828 112.468 10.088 112.5 10.256C112.54 10.432 112.588 10.624 112.644 10.832C112.7 11.04 112.756 11.24 112.812 11.432L111.072 11.744C111.04 11.52 111.016 11.304 111 11.096C110.984 10.896 110.956 10.708 110.916 10.532C110.884 10.372 110.836 10.128 110.772 9.8C110.716 9.464 110.644 9.072 110.556 8.624C110.476 8.176 110.388 7.7 110.292 7.196C110.196 6.692 110.1 6.188 110.004 5.684C109.908 5.18 109.816 4.708 109.728 4.268C109.648 3.828 109.576 3.448 109.512 3.128C109.448 2.8 109.4 2.568 109.368 2.432ZM106.092 3.956C106.284 3.948 106.472 3.94 106.656 3.932C106.84 3.916 107.024 3.896 107.208 3.872C107.384 3.848 107.632 3.816 107.952 3.776C108.272 3.728 108.64 3.676 109.056 3.62C109.472 3.556 109.9 3.488 110.34 3.416C110.788 3.344 111.22 3.276 111.636 3.212C112.052 3.14 112.42 3.076 112.74 3.02C113.068 2.964 113.324 2.92 113.508 2.888C113.7 2.848 113.9 2.808 114.108 2.768C114.316 2.72 114.492 2.676 114.636 2.636L114.924 4.208C114.796 4.216 114.624 4.236 114.408 4.268C114.192 4.3 113.996 4.328 113.82 4.352C113.604 4.384 113.32 4.428 112.968 4.484C112.624 4.54 112.24 4.604 111.816 4.676C111.392 4.74 110.96 4.808 110.52 4.88C110.08 4.944 109.66 5.012 109.26 5.084C108.86 5.148 108.508 5.204 108.204 5.252C107.9 5.3 107.672 5.336 107.52 5.36C107.328 5.4 107.148 5.44 106.98 5.48C106.812 5.512 106.624 5.556 106.416 5.612L106.092 3.956ZM106.104 7.484C106.264 7.476 106.464 7.46 106.704 7.436C106.952 7.404 107.168 7.376 107.352 7.352C107.568 7.32 107.856 7.276 108.216 7.22C108.576 7.164 108.98 7.1 109.428 7.028C109.884 6.956 110.352 6.884 110.832 6.812C111.312 6.732 111.78 6.652 112.236 6.572C112.692 6.492 113.108 6.42 113.484 6.356C113.86 6.292 114.164 6.24 114.396 6.2C114.628 6.152 114.848 6.104 115.056 6.056C115.272 6.008 115.46 5.96 115.62 5.912L115.944 7.496C115.784 7.504 115.588 7.528 115.356 7.568C115.132 7.6 114.904 7.636 114.672 7.676C114.416 7.716 114.096 7.768 113.712 7.832C113.328 7.896 112.904 7.968 112.44 8.048C111.984 8.12 111.516 8.196 111.036 8.276C110.556 8.348 110.096 8.424 109.656 8.504C109.216 8.576 108.82 8.64 108.468 8.696C108.116 8.752 107.84 8.8 107.64 8.84C107.384 8.888 107.152 8.932 106.944 8.972C106.744 9.012 106.576 9.052 106.44 9.092L106.104 7.484ZM121.8 3.38C121.824 3.516 121.852 3.664 121.884 3.824C121.924 3.976 121.96 4.132 121.992 4.292C122.064 4.524 122.148 4.824 122.244 5.192C122.348 5.56 122.46 5.964 122.58 6.404C122.7 6.844 122.82 7.292 122.94 7.748C123.068 8.196 123.192 8.628 123.312 9.044C123.432 9.452 123.536 9.816 123.624 10.136C123.712 10.448 123.78 10.688 123.828 10.856C123.86 10.92 123.892 11.016 123.924 11.144C123.956 11.272 123.992 11.4 124.032 11.528C124.08 11.656 124.12 11.76 124.152 11.84L122.52 12.248C122.496 12.08 122.468 11.904 122.436 11.72C122.404 11.536 122.36 11.36 122.304 11.192C122.256 11.016 122.188 10.764 122.1 10.436C122.012 10.1 121.912 9.72 121.8 9.296C121.688 8.872 121.568 8.432 121.44 7.976C121.32 7.52 121.204 7.076 121.092 6.644C120.98 6.204 120.872 5.808 120.768 5.456C120.672 5.096 120.592 4.816 120.528 4.616C120.488 4.456 120.436 4.304 120.372 4.16C120.316 4.016 120.256 3.884 120.192 3.764L121.8 3.38ZM127.56 5.228C127.44 5.492 127.276 5.792 127.068 6.128C126.868 6.464 126.648 6.808 126.408 7.16C126.168 7.512 125.928 7.848 125.688 8.168C125.448 8.48 125.22 8.752 125.004 8.984L123.684 8.324C123.892 8.14 124.112 7.916 124.344 7.652C124.576 7.388 124.792 7.124 124.992 6.86C125.2 6.588 125.352 6.356 125.448 6.164C125.36 6.18 125.192 6.212 124.944 6.26C124.704 6.308 124.412 6.368 124.068 6.44C123.724 6.512 123.348 6.592 122.94 6.68C122.54 6.76 122.136 6.844 121.728 6.932C121.32 7.02 120.932 7.104 120.564 7.184C120.196 7.256 119.872 7.324 119.592 7.388C119.312 7.444 119.1 7.488 118.956 7.52L118.584 6.08C118.776 6.064 118.96 6.044 119.136 6.02C119.312 5.996 119.496 5.968 119.688 5.936C119.784 5.92 119.952 5.892 120.192 5.852C120.44 5.812 120.732 5.76 121.068 5.696C121.412 5.632 121.78 5.564 122.172 5.492C122.564 5.412 122.96 5.336 123.36 5.264C123.76 5.184 124.136 5.112 124.488 5.048C124.84 4.976 125.148 4.916 125.412 4.868C125.676 4.812 125.868 4.768 125.988 4.736C126.092 4.72 126.2 4.696 126.312 4.664C126.424 4.624 126.52 4.584 126.6 4.544L127.56 5.228ZM135.06 3.872C135.116 4 135.188 4.184 135.276 4.424C135.372 4.656 135.472 4.908 135.576 5.18C135.68 5.444 135.772 5.696 135.852 5.936C135.932 6.176 135.996 6.364 136.044 6.5L134.604 7.004C134.572 6.852 134.516 6.66 134.436 6.428C134.356 6.196 134.268 5.952 134.172 5.696C134.076 5.432 133.98 5.18 133.884 4.94C133.788 4.7 133.704 4.5 133.632 4.34L135.06 3.872ZM139.488 4.748C139.424 4.94 139.368 5.104 139.32 5.24C139.28 5.376 139.24 5.504 139.2 5.624C139.048 6.232 138.84 6.84 138.576 7.448C138.312 8.048 137.976 8.612 137.568 9.14C137.008 9.86 136.372 10.472 135.66 10.976C134.956 11.472 134.252 11.852 133.548 12.116L132.288 10.832C132.728 10.712 133.192 10.536 133.68 10.304C134.168 10.064 134.64 9.776 135.096 9.44C135.552 9.104 135.944 8.732 136.272 8.324C136.544 7.98 136.784 7.588 136.992 7.148C137.208 6.7 137.384 6.224 137.52 5.72C137.664 5.208 137.76 4.704 137.808 4.208L139.488 4.748ZM132.276 4.508C132.356 4.66 132.444 4.856 132.54 5.096C132.644 5.336 132.748 5.588 132.852 5.852C132.956 6.116 133.056 6.372 133.152 6.62C133.256 6.868 133.336 7.076 133.392 7.244L131.928 7.796C131.88 7.636 131.808 7.428 131.712 7.172C131.624 6.916 131.524 6.648 131.412 6.368C131.3 6.08 131.192 5.816 131.088 5.576C130.992 5.336 130.908 5.152 130.836 5.024L132.276 4.508ZM144.708 1.496C144.9 1.608 145.12 1.74 145.368 1.892C145.616 2.044 145.868 2.2 146.124 2.36C146.388 2.52 146.632 2.676 146.856 2.828C147.088 2.972 147.284 3.1 147.444 3.212L146.544 4.544C146.384 4.424 146.188 4.288 145.956 4.136C145.724 3.984 145.484 3.828 145.236 3.668C144.988 3.508 144.74 3.356 144.492 3.212C144.252 3.06 144.032 2.928 143.832 2.816L144.708 1.496ZM142.476 10.016C142.932 9.936 143.388 9.84 143.844 9.728C144.308 9.608 144.768 9.46 145.224 9.284C145.688 9.108 146.136 8.904 146.568 8.672C147.248 8.288 147.88 7.856 148.464 7.376C149.056 6.896 149.584 6.384 150.048 5.84C150.52 5.296 150.916 4.74 151.236 4.172L152.16 5.804C151.6 6.636 150.908 7.42 150.084 8.156C149.268 8.892 148.368 9.544 147.384 10.112C146.976 10.344 146.528 10.56 146.04 10.76C145.56 10.96 145.084 11.132 144.612 11.276C144.148 11.428 143.736 11.536 143.376 11.6L142.476 10.016ZM142.86 4.232C143.06 4.344 143.284 4.476 143.532 4.628C143.788 4.772 144.044 4.924 144.3 5.084C144.556 5.244 144.796 5.396 145.02 5.54C145.252 5.684 145.444 5.812 145.596 5.924L144.72 7.268C144.544 7.148 144.344 7.016 144.12 6.872C143.896 6.72 143.656 6.564 143.4 6.404C143.152 6.236 142.904 6.08 142.656 5.936C142.416 5.792 142.192 5.668 141.984 5.564L142.86 4.232ZM162.108 5.276C162.076 5.356 162.052 5.444 162.036 5.54C162.02 5.636 162.004 5.716 161.988 5.78C161.964 5.948 161.928 6.18 161.88 6.476C161.84 6.772 161.792 7.1 161.736 7.46C161.688 7.812 161.636 8.168 161.58 8.528C161.524 8.888 161.472 9.216 161.424 9.512C161.384 9.808 161.348 10.044 161.316 10.22H159.672C159.704 10.052 159.74 9.84 159.78 9.584C159.82 9.32 159.864 9.036 159.912 8.732C159.968 8.42 160.016 8.108 160.056 7.796C160.104 7.484 160.144 7.196 160.176 6.932C160.208 6.668 160.228 6.456 160.236 6.296C160.124 6.296 159.952 6.296 159.72 6.296C159.496 6.296 159.24 6.296 158.952 6.296C158.672 6.296 158.392 6.296 158.112 6.296C157.84 6.296 157.604 6.296 157.404 6.296C157.204 6.296 157.068 6.296 156.996 6.296C156.804 6.296 156.596 6.304 156.372 6.32C156.156 6.328 155.964 6.34 155.796 6.356V4.772C155.9 4.788 156.024 4.8 156.168 4.808C156.312 4.816 156.456 4.824 156.6 4.832C156.752 4.84 156.88 4.844 156.984 4.844C157.104 4.844 157.268 4.844 157.476 4.844C157.684 4.844 157.912 4.844 158.16 4.844C158.408 4.844 158.656 4.844 158.904 4.844C159.152 4.844 159.376 4.844 159.576 4.844C159.784 4.844 159.944 4.844 160.056 4.844C160.144 4.844 160.248 4.84 160.368 4.832C160.488 4.824 160.604 4.812 160.716 4.796C160.828 4.772 160.904 4.744 160.944 4.712L162.108 5.276ZM154.692 9.632C154.852 9.648 155.036 9.664 155.244 9.68C155.46 9.688 155.672 9.692 155.88 9.692C156 9.692 156.22 9.692 156.54 9.692C156.868 9.692 157.252 9.692 157.692 9.692C158.14 9.692 158.6 9.692 159.072 9.692C159.552 9.692 160.008 9.692 160.44 9.692C160.88 9.692 161.256 9.692 161.568 9.692C161.88 9.692 162.08 9.692 162.168 9.692C162.32 9.692 162.516 9.688 162.756 9.68C162.996 9.672 163.192 9.66 163.344 9.644V11.192C163.264 11.184 163.152 11.176 163.008 11.168C162.872 11.168 162.728 11.164 162.576 11.156C162.432 11.156 162.304 11.156 162.192 11.156C162.096 11.156 161.888 11.156 161.568 11.156C161.248 11.156 160.868 11.156 160.428 11.156C159.988 11.156 159.524 11.156 159.036 11.156C158.556 11.156 158.092 11.156 157.644 11.156C157.204 11.156 156.824 11.156 156.504 11.156C156.184 11.156 155.976 11.156 155.88 11.156C155.672 11.156 155.48 11.156 155.304 11.156C155.128 11.164 154.924 11.176 154.692 11.192V9.632ZM174.36 1.424C174.464 1.568 174.572 1.74 174.684 1.94C174.804 2.14 174.92 2.34 175.032 2.54C175.144 2.74 175.236 2.916 175.308 3.068L174.348 3.488C174.22 3.24 174.072 2.96 173.904 2.648C173.736 2.328 173.572 2.052 173.412 1.82L174.36 1.424ZM175.776 0.883999C175.88 1.036 175.992 1.216 176.112 1.424C176.24 1.624 176.36 1.824 176.472 2.024C176.584 2.216 176.676 2.38 176.748 2.516L175.788 2.924C175.668 2.676 175.516 2.396 175.332 2.084C175.156 1.772 174.988 1.504 174.828 1.28L175.776 0.883999ZM167.304 7.268C167.44 6.932 167.568 6.58 167.688 6.212C167.816 5.836 167.928 5.452 168.024 5.06C168.12 4.66 168.204 4.264 168.276 3.872C168.356 3.48 168.412 3.092 168.444 2.708L170.196 3.068C170.164 3.18 170.128 3.312 170.088 3.464C170.048 3.616 170.012 3.764 169.98 3.908C169.948 4.052 169.924 4.172 169.908 4.268C169.868 4.476 169.812 4.728 169.74 5.024C169.668 5.32 169.584 5.636 169.488 5.972C169.392 6.3 169.292 6.632 169.188 6.968C169.092 7.296 168.992 7.6 168.888 7.88C168.744 8.264 168.572 8.664 168.372 9.08C168.18 9.496 167.972 9.896 167.748 10.28C167.532 10.664 167.32 11.008 167.112 11.312L165.432 10.604C165.816 10.108 166.172 9.56 166.5 8.96C166.836 8.36 167.104 7.796 167.304 7.268ZM173.232 7.016C173.112 6.696 172.98 6.356 172.836 5.996C172.692 5.636 172.54 5.276 172.38 4.916C172.22 4.556 172.064 4.216 171.912 3.896C171.76 3.576 171.62 3.3 171.492 3.068L173.088 2.552C173.208 2.784 173.348 3.064 173.508 3.392C173.668 3.72 173.828 4.068 173.988 4.436C174.148 4.796 174.304 5.156 174.456 5.516C174.608 5.876 174.744 6.2 174.864 6.488C174.968 6.752 175.08 7.064 175.2 7.424C175.328 7.784 175.456 8.16 175.584 8.552C175.72 8.936 175.844 9.312 175.956 9.68C176.076 10.048 176.176 10.38 176.256 10.676L174.48 11.252C174.376 10.78 174.256 10.3 174.12 9.812C173.984 9.324 173.84 8.844 173.688 8.372C173.544 7.9 173.392 7.448 173.232 7.016ZM183.06 3.872C183.116 4 183.188 4.184 183.276 4.424C183.372 4.656 183.472 4.908 183.576 5.18C183.68 5.444 183.772 5.696 183.852 5.936C183.932 6.176 183.996 6.364 184.044 6.5L182.604 7.004C182.572 6.852 182.516 6.66 182.436 6.428C182.356 6.196 182.268 5.952 182.172 5.696C182.076 5.432 181.98 5.18 181.884 4.94C181.788 4.7 181.704 4.5 181.632 4.34L183.06 3.872ZM187.488 4.748C187.424 4.94 187.368 5.104 187.32 5.24C187.28 5.376 187.24 5.504 187.2 5.624C187.048 6.232 186.84 6.84 186.576 7.448C186.312 8.048 185.976 8.612 185.568 9.14C185.008 9.86 184.372 10.472 183.66 10.976C182.956 11.472 182.252 11.852 181.548 12.116L180.288 10.832C180.728 10.712 181.192 10.536 181.68 10.304C182.168 10.064 182.64 9.776 183.096 9.44C183.552 9.104 183.944 8.732 184.272 8.324C184.544 7.98 184.784 7.588 184.992 7.148C185.208 6.7 185.384 6.224 185.52 5.72C185.664 5.208 185.76 4.704 185.808 4.208L187.488 4.748ZM180.276 4.508C180.356 4.66 180.444 4.856 180.54 5.096C180.644 5.336 180.748 5.588 180.852 5.852C180.956 6.116 181.056 6.372 181.152 6.62C181.256 6.868 181.336 7.076 181.392 7.244L179.928 7.796C179.88 7.636 179.808 7.428 179.712 7.172C179.624 6.916 179.524 6.648 179.412 6.368C179.3 6.08 179.192 5.816 179.088 5.576C178.992 5.336 178.908 5.152 178.836 5.024L180.276 4.508ZM199.788 3.536C199.724 3.648 199.656 3.784 199.584 3.944C199.512 4.096 199.448 4.248 199.392 4.4C199.288 4.752 199.14 5.156 198.948 5.612C198.764 6.06 198.532 6.528 198.252 7.016C197.98 7.496 197.664 7.96 197.304 8.408C196.728 9.096 196.056 9.72 195.288 10.28C194.528 10.84 193.584 11.344 192.456 11.792L191.04 10.52C191.856 10.28 192.56 10.004 193.152 9.692C193.744 9.38 194.26 9.048 194.7 8.696C195.14 8.336 195.532 7.956 195.876 7.556C196.156 7.244 196.412 6.892 196.644 6.5C196.876 6.1 197.076 5.704 197.244 5.312C197.412 4.92 197.524 4.576 197.58 4.28H193.536L194.088 2.924C194.2 2.924 194.372 2.924 194.604 2.924C194.844 2.924 195.112 2.924 195.408 2.924C195.712 2.924 196.008 2.924 196.296 2.924C196.592 2.924 196.848 2.924 197.064 2.924C197.288 2.924 197.44 2.924 197.52 2.924C197.704 2.924 197.888 2.912 198.072 2.888C198.264 2.864 198.428 2.828 198.564 2.78L199.788 3.536ZM195.876 1.64C195.732 1.848 195.592 2.072 195.456 2.312C195.32 2.552 195.216 2.736 195.144 2.864C194.872 3.344 194.536 3.844 194.136 4.364C193.744 4.876 193.296 5.376 192.792 5.864C192.288 6.344 191.752 6.784 191.184 7.184L189.828 6.188C190.356 5.86 190.82 5.524 191.22 5.18C191.628 4.836 191.98 4.496 192.276 4.16C192.572 3.816 192.824 3.488 193.032 3.176C193.248 2.856 193.432 2.572 193.584 2.324C193.68 2.172 193.78 1.976 193.884 1.736C193.988 1.488 194.068 1.264 194.124 1.064L195.876 1.64ZM207.288 5.264V5.948H210.984V5.264H207.288ZM207.288 3.692V4.352H210.984V3.692H207.288ZM206.052 2.684H212.28V6.956H206.052V2.684ZM206.544 7.472H211.848V12.08H210.48V8.54H207.852V12.08H206.544V7.472ZM210.6 0.788L212.04 1.208C211.856 1.536 211.672 1.852 211.488 2.156C211.304 2.452 211.136 2.704 210.984 2.912L209.796 2.528C209.932 2.28 210.076 1.996 210.228 1.676C210.388 1.348 210.512 1.052 210.6 0.788ZM206.412 1.28L207.6 0.835999C207.768 1.084 207.932 1.364 208.092 1.676C208.26 1.98 208.38 2.248 208.452 2.48L207.18 2.984C207.124 2.752 207.02 2.48 206.868 2.168C206.724 1.848 206.572 1.552 206.412 1.28ZM207.336 9.104H211.068V10.112H207.336V9.104ZM207.336 10.7H211.068V11.744H207.336V10.7ZM208.452 3.188H209.724V6.344H208.452V3.188ZM202.488 9.116L203.736 9.404C203.584 9.908 203.38 10.404 203.124 10.892C202.868 11.372 202.596 11.776 202.308 12.104C202.236 12.032 202.132 11.952 201.996 11.864C201.86 11.776 201.724 11.688 201.588 11.6C201.452 11.512 201.336 11.444 201.24 11.396C201.512 11.108 201.756 10.76 201.972 10.352C202.196 9.944 202.368 9.532 202.488 9.116ZM203.892 9.548L204.96 9.092C205.16 9.396 205.356 9.732 205.548 10.1C205.748 10.46 205.9 10.776 206.004 11.048L204.888 11.576C204.832 11.392 204.748 11.184 204.636 10.952C204.532 10.712 204.416 10.472 204.288 10.232C204.16 9.984 204.028 9.756 203.892 9.548ZM203.136 4.568V5.696H204.324V4.568H203.136ZM203.136 6.752V7.88H204.324V6.752H203.136ZM203.136 2.396V3.5H204.324V2.396H203.136ZM201.912 1.256H205.584V9.032H201.912V1.256ZM214.332 6.188H223.728V7.448H214.332V6.188ZM213.732 10.46H224.304V11.732H213.732V10.46ZM214.74 8.324H223.32V9.548H214.74V8.324ZM216.516 2.504V4.172H221.424V2.504H216.516ZM215.1 1.232H222.924V5.456H215.1V1.232ZM218.184 6.74H219.696V11.132H218.184V6.74ZM232.164 1.292C232.148 1.412 232.132 1.548 232.116 1.7C232.108 1.844 232.1 1.992 232.092 2.144C232.084 2.304 232.076 2.52 232.068 2.792C232.06 3.056 232.056 3.348 232.056 3.668C232.056 3.988 232.056 4.304 232.056 4.616C232.056 4.928 232.056 5.212 232.056 5.468C232.056 5.804 232.064 6.18 232.08 6.596C232.096 7.004 232.116 7.42 232.14 7.844C232.172 8.26 232.196 8.652 232.212 9.02C232.236 9.38 232.248 9.68 232.248 9.92C232.248 10.256 232.16 10.564 231.984 10.844C231.808 11.116 231.544 11.332 231.192 11.492C230.848 11.652 230.412 11.732 229.884 11.732C228.924 11.732 228.196 11.556 227.7 11.204C227.204 10.852 226.956 10.36 226.956 9.728C226.956 9.32 227.072 8.964 227.304 8.66C227.544 8.348 227.884 8.104 228.324 7.928C228.772 7.752 229.304 7.664 229.92 7.664C230.576 7.664 231.188 7.736 231.756 7.88C232.332 8.016 232.856 8.196 233.328 8.42C233.8 8.644 234.22 8.88 234.588 9.128C234.956 9.376 235.268 9.6 235.524 9.8L234.66 11.144C234.372 10.872 234.048 10.604 233.688 10.34C233.336 10.076 232.948 9.836 232.524 9.62C232.108 9.404 231.664 9.232 231.192 9.104C230.728 8.968 230.236 8.9 229.716 8.9C229.3 8.9 228.976 8.972 228.744 9.116C228.52 9.26 228.408 9.436 228.408 9.644C228.408 9.796 228.456 9.928 228.552 10.04C228.648 10.152 228.788 10.236 228.972 10.292C229.156 10.348 229.388 10.376 229.668 10.376C229.884 10.376 230.068 10.352 230.22 10.304C230.38 10.256 230.504 10.168 230.592 10.04C230.68 9.912 230.724 9.732 230.724 9.5C230.724 9.324 230.716 9.072 230.7 8.744C230.692 8.416 230.68 8.056 230.664 7.664C230.648 7.264 230.632 6.872 230.616 6.488C230.6 6.104 230.592 5.764 230.592 5.468C230.592 5.18 230.592 4.88 230.592 4.568C230.6 4.248 230.604 3.932 230.604 3.62C230.604 3.308 230.604 3.024 230.604 2.768C230.612 2.504 230.616 2.288 230.616 2.12C230.616 2.008 230.608 1.872 230.592 1.712C230.584 1.544 230.568 1.404 230.544 1.292H232.164ZM227.184 2.42C227.4 2.452 227.64 2.484 227.904 2.516C228.168 2.548 228.436 2.58 228.708 2.612C228.988 2.636 229.252 2.656 229.5 2.672C229.748 2.68 229.964 2.684 230.148 2.684C230.964 2.684 231.776 2.66 232.584 2.612C233.4 2.556 234.244 2.456 235.116 2.312L235.104 3.692C234.696 3.748 234.224 3.8 233.688 3.848C233.152 3.896 232.58 3.936 231.972 3.968C231.372 3.992 230.768 4.004 230.16 4.004C229.912 4.004 229.604 3.996 229.236 3.98C228.876 3.956 228.516 3.928 228.156 3.896C227.796 3.856 227.484 3.82 227.22 3.788L227.184 2.42ZM227.124 5.012C227.316 5.044 227.544 5.076 227.808 5.108C228.072 5.14 228.34 5.164 228.612 5.18C228.892 5.196 229.156 5.212 229.404 5.228C229.652 5.236 229.856 5.24 230.016 5.24C230.76 5.24 231.432 5.224 232.032 5.192C232.64 5.16 233.208 5.12 233.736 5.072C234.264 5.024 234.772 4.968 235.26 4.904L235.248 6.32C234.832 6.368 234.428 6.408 234.036 6.44C233.652 6.472 233.256 6.5 232.848 6.524C232.448 6.548 232.016 6.564 231.552 6.572C231.088 6.58 230.568 6.584 229.992 6.584C229.76 6.584 229.472 6.58 229.128 6.572C228.784 6.556 228.432 6.536 228.072 6.512C227.72 6.488 227.408 6.46 227.136 6.428L227.124 5.012ZM237.828 2.768C238.068 2.76 238.296 2.752 238.512 2.744C238.728 2.728 238.892 2.716 239.004 2.708C239.252 2.692 239.556 2.668 239.916 2.636C240.284 2.596 240.692 2.556 241.14 2.516C241.596 2.476 242.08 2.436 242.592 2.396C243.104 2.356 243.636 2.312 244.188 2.264C244.604 2.224 245.016 2.192 245.424 2.168C245.84 2.136 246.232 2.112 246.6 2.096C246.976 2.072 247.304 2.056 247.584 2.048L247.596 3.584C247.38 3.584 247.132 3.588 246.852 3.596C246.572 3.604 246.292 3.62 246.012 3.644C245.74 3.66 245.496 3.696 245.28 3.752C244.92 3.848 244.584 4.012 244.272 4.244C243.96 4.468 243.688 4.736 243.456 5.048C243.232 5.352 243.056 5.684 242.928 6.044C242.8 6.396 242.736 6.752 242.736 7.112C242.736 7.504 242.804 7.852 242.94 8.156C243.084 8.452 243.276 8.708 243.516 8.924C243.764 9.132 244.052 9.308 244.38 9.452C244.708 9.588 245.06 9.692 245.436 9.764C245.82 9.836 246.216 9.884 246.624 9.908L246.06 11.552C245.556 11.52 245.064 11.44 244.584 11.312C244.112 11.184 243.668 11.008 243.252 10.784C242.836 10.56 242.472 10.288 242.16 9.968C241.856 9.64 241.612 9.268 241.428 8.852C241.252 8.428 241.164 7.956 241.164 7.436C241.164 6.86 241.256 6.332 241.44 5.852C241.624 5.364 241.852 4.94 242.124 4.58C242.404 4.212 242.68 3.928 242.952 3.728C242.728 3.76 242.456 3.792 242.136 3.824C241.824 3.856 241.484 3.896 241.116 3.944C240.756 3.984 240.388 4.028 240.012 4.076C239.636 4.124 239.272 4.18 238.92 4.244C238.576 4.3 238.264 4.356 237.984 4.412L237.828 2.768ZM245.88 4.76C245.984 4.904 246.092 5.076 246.204 5.276C246.324 5.468 246.44 5.664 246.552 5.864C246.664 6.056 246.76 6.232 246.84 6.392L245.928 6.8C245.776 6.464 245.628 6.168 245.484 5.912C245.348 5.656 245.184 5.396 244.992 5.132L245.88 4.76ZM247.224 4.208C247.328 4.352 247.44 4.52 247.56 4.712C247.688 4.896 247.812 5.088 247.932 5.288C248.052 5.48 248.152 5.652 248.232 5.804L247.332 6.236C247.172 5.916 247.016 5.632 246.864 5.384C246.72 5.136 246.548 4.88 246.348 4.616L247.224 4.208Z" fill="#2FB3BC"/>
<rect x="0.5" y="24.5" width="18.9438" height="20" fill="white" stroke="#2FB3BC"/>
<path d="M6.99042 39.2002V37.9162H8.92242V32.0362H7.31442V31.0522C7.74642 30.9722 8.11842 30.8762 8.43042 30.7642C8.75042 30.6442 9.04242 30.5002 9.30642 30.3322H10.4824V37.9162H12.1864V39.2002H6.99042Z" fill="#2FB3BC"/>
<path d="M88.75 34.5L83.3809 45H18.9473V24H83.3809L88.75 34.5Z" fill="#2FB3BC"/>
<path d="M38.743 31.7675C38.7343 31.8065 38.7278 31.8563 38.7235 31.917C38.7192 31.9733 38.7127 32.034 38.704 32.099C38.6997 32.1597 38.6953 32.216 38.691 32.268C38.6867 32.3807 38.6802 32.515 38.6715 32.671C38.6672 32.8227 38.6607 32.9895 38.652 33.1715C38.6477 33.3492 38.6433 33.529 38.639 33.711C38.639 33.8887 38.639 34.0598 38.639 34.2245C38.639 34.3935 38.6412 34.582 38.6455 34.79C38.6498 34.998 38.6542 35.2038 38.6585 35.4075C38.6628 35.6068 38.6672 35.7932 38.6715 35.9665C38.6758 36.1355 38.678 36.2698 38.678 36.3695C38.678 36.5992 38.6498 36.779 38.5935 36.909C38.5415 37.039 38.4678 37.13 38.3725 37.182C38.2815 37.234 38.171 37.26 38.041 37.26C37.9023 37.26 37.7507 37.2297 37.586 37.169C37.4213 37.1083 37.2653 37.026 37.118 36.922C36.9707 36.818 36.8493 36.6967 36.754 36.558C36.6587 36.4193 36.611 36.272 36.611 36.116C36.611 35.9167 36.6868 35.7195 36.8385 35.5245C36.9945 35.3252 37.1982 35.1432 37.4495 34.9785C37.7008 34.8138 37.9673 34.6795 38.249 34.5755C38.5437 34.4672 38.8448 34.3848 39.1525 34.3285C39.4602 34.2722 39.7397 34.244 39.991 34.244C40.316 34.244 40.6063 34.2982 40.862 34.4065C41.1177 34.5148 41.3192 34.6708 41.4665 34.8745C41.6138 35.0782 41.6875 35.3187 41.6875 35.596C41.6875 35.8517 41.6355 36.0813 41.5315 36.285C41.4318 36.4887 41.278 36.662 41.07 36.805C40.862 36.948 40.5998 37.0585 40.2835 37.1365C40.1362 37.1668 39.991 37.1885 39.848 37.2015C39.7093 37.2145 39.5793 37.2253 39.458 37.234L39.224 36.571C39.354 36.5753 39.4862 36.5753 39.6205 36.571C39.7548 36.5667 39.8827 36.5515 40.004 36.5255C40.186 36.4908 40.355 36.4367 40.511 36.363C40.667 36.285 40.7905 36.1832 40.8815 36.0575C40.9768 35.9275 41.0245 35.7715 41.0245 35.5895C41.0245 35.4205 40.979 35.2797 40.888 35.167C40.797 35.05 40.6735 34.9612 40.5175 34.9005C40.3615 34.8398 40.1838 34.8095 39.9845 34.8095C39.7028 34.8095 39.4233 34.8398 39.146 34.9005C38.8687 34.9568 38.5957 35.037 38.327 35.141C38.1277 35.219 37.9457 35.3122 37.781 35.4205C37.6163 35.5288 37.4863 35.6415 37.391 35.7585C37.2957 35.8712 37.248 35.9795 37.248 36.0835C37.248 36.1485 37.2697 36.2113 37.313 36.272C37.3563 36.3283 37.4083 36.3782 37.469 36.4215C37.534 36.4648 37.6012 36.4995 37.6705 36.5255C37.7398 36.5515 37.8027 36.5645 37.859 36.5645C37.924 36.5645 37.976 36.5428 38.015 36.4995C38.0583 36.4518 38.08 36.3738 38.08 36.2655C38.08 36.1442 38.0757 35.973 38.067 35.752C38.0627 35.531 38.0583 35.2883 38.054 35.024C38.0497 34.7553 38.0475 34.4975 38.0475 34.2505C38.0475 34.0642 38.0475 33.8713 38.0475 33.672C38.0518 33.4683 38.054 33.2733 38.054 33.087C38.0583 32.9007 38.0605 32.736 38.0605 32.593C38.0648 32.45 38.067 32.346 38.067 32.281C38.067 32.2333 38.0648 32.177 38.0605 32.112C38.0562 32.047 38.0518 31.9842 38.0475 31.9235C38.0432 31.8585 38.0367 31.8065 38.028 31.7675H38.743ZM40.6865 32.4825C40.8468 32.5605 41.0245 32.658 41.2195 32.775C41.4188 32.8877 41.6073 33.0025 41.785 33.1195C41.967 33.2322 42.1122 33.3318 42.2205 33.4185L41.902 33.9385C41.824 33.8648 41.72 33.7847 41.59 33.698C41.4643 33.6113 41.3278 33.5225 41.1805 33.4315C41.0375 33.3405 40.8967 33.256 40.758 33.178C40.6237 33.0957 40.5045 33.0285 40.4005 32.9765L40.6865 32.4825ZM36.7475 32.892C36.9338 32.9137 37.0942 32.9288 37.2285 32.9375C37.3628 32.9418 37.4907 32.944 37.612 32.944C37.7723 32.944 37.9543 32.9353 38.158 32.918C38.3617 32.9007 38.5675 32.879 38.7755 32.853C38.9878 32.827 39.1937 32.7945 39.393 32.7555C39.5967 32.7122 39.7808 32.6667 39.9455 32.619L39.9585 33.256C39.7852 33.295 39.5923 33.3318 39.38 33.3665C39.172 33.4012 38.9597 33.4337 38.743 33.464C38.5307 33.49 38.327 33.5117 38.132 33.529C37.9413 33.542 37.7723 33.5485 37.625 33.5485C37.43 33.5485 37.2653 33.5463 37.131 33.542C36.9967 33.5333 36.8753 33.5247 36.767 33.516L36.7475 32.892ZM45.581 34.66H47.791V36.6295H45.581V36.116H47.2125V35.167H45.581V34.66ZM45.3145 34.66H45.88V37.0065H45.3145V34.66ZM44.1835 32.723H45.9125V33.152H44.1835V32.723ZM47.193 32.723H48.9415V33.152H47.193V32.723ZM48.6815 31.7805H49.299V36.7725C49.299 36.9588 49.2752 37.1018 49.2275 37.2015C49.1842 37.3012 49.1018 37.3792 48.9805 37.4355C48.8592 37.4875 48.6988 37.5178 48.4995 37.5265C48.3002 37.5395 48.0553 37.546 47.765 37.546C47.7563 37.4853 47.739 37.416 47.713 37.338C47.6913 37.2643 47.6653 37.1885 47.635 37.1105C47.609 37.0368 47.5808 36.9718 47.5505 36.9155C47.6848 36.9242 47.817 36.9285 47.947 36.9285C48.0813 36.9285 48.1983 36.9285 48.298 36.9285C48.402 36.9285 48.4757 36.9285 48.519 36.9285C48.5797 36.9242 48.6208 36.9112 48.6425 36.8895C48.6685 36.8635 48.6815 36.8223 48.6815 36.766V31.7805ZM44.2355 31.7805H46.3025V34.1335H44.2355V33.6525H45.724V32.2615H44.2355V31.7805ZM49.0065 31.7805V32.255H47.414V33.659H49.0065V34.1335H46.829V31.7805H49.0065ZM43.891 31.7805H44.4955V37.5525H43.891V31.7805ZM52.2695 33.6265H55.5455V34.1725H52.2695V33.6265ZM52.172 36.753H55.5975V37.299H52.172V36.753ZM51.8925 34.9135H55.9485V37.5525H55.318V35.466H52.497V37.5525H51.8925V34.9135ZM53.8815 32.1315C53.7038 32.3872 53.4763 32.6537 53.199 32.931C52.9217 33.204 52.614 33.4662 52.276 33.7175C51.938 33.9688 51.5848 34.1942 51.2165 34.3935C51.1905 34.3458 51.1558 34.2917 51.1125 34.231C51.0692 34.1703 51.0237 34.1118 50.976 34.0555C50.9283 33.9948 50.8807 33.9428 50.833 33.8995C51.21 33.7132 51.574 33.4878 51.925 33.2235C52.276 32.9548 52.5902 32.6732 52.8675 32.3785C53.1492 32.0838 53.3723 31.8 53.537 31.527H54.1675C54.3452 31.7697 54.5423 32.0058 54.759 32.2355C54.98 32.4608 55.214 32.6753 55.461 32.879C55.7123 33.0783 55.968 33.2582 56.228 33.4185C56.4923 33.5745 56.7545 33.7088 57.0145 33.8215C56.9365 33.8995 56.8628 33.9883 56.7935 34.088C56.7242 34.1833 56.6613 34.2765 56.605 34.3675C56.3537 34.2332 56.098 34.0815 55.838 33.9125C55.578 33.7392 55.3267 33.5528 55.084 33.3535C54.8457 33.1542 54.6225 32.9505 54.4145 32.7425C54.2065 32.5345 54.0288 32.3308 53.8815 32.1315ZM62.858 31.9495C62.8537 31.9842 62.8493 32.0318 62.845 32.0925C62.8407 32.1532 62.8363 32.216 62.832 32.281C62.8277 32.346 62.8255 32.4067 62.8255 32.463C62.8212 32.5973 62.819 32.7338 62.819 32.8725C62.819 33.0112 62.8168 33.1455 62.8125 33.2755C62.8125 33.4012 62.8103 33.5203 62.806 33.633C62.8017 33.8063 62.7952 33.9948 62.7865 34.1985C62.7778 34.4022 62.767 34.5928 62.754 34.7705C62.741 34.9482 62.7237 35.0933 62.702 35.206C62.6717 35.362 62.6153 35.4682 62.533 35.5245C62.4507 35.5765 62.3315 35.6025 62.1755 35.6025C62.0975 35.6025 61.9978 35.5982 61.8765 35.5895C61.7595 35.5765 61.6447 35.5635 61.532 35.5505C61.4193 35.5332 61.3305 35.518 61.2655 35.505L61.2785 34.9395C61.3868 34.9612 61.4995 34.9807 61.6165 34.998C61.7378 35.0153 61.8332 35.024 61.9025 35.024C61.9762 35.024 62.0303 35.0132 62.065 34.9915C62.104 34.9698 62.1257 34.9243 62.13 34.855C62.1473 34.7727 62.1582 34.6643 62.1625 34.53C62.1712 34.3957 62.1798 34.2505 62.1885 34.0945C62.1972 33.9342 62.2015 33.7803 62.2015 33.633C62.2058 33.5117 62.208 33.3882 62.208 33.2625C62.208 33.1325 62.208 33.0003 62.208 32.866C62.208 32.7317 62.208 32.6038 62.208 32.4825C62.208 32.4305 62.2037 32.372 62.195 32.307C62.1907 32.2377 62.1863 32.1705 62.182 32.1055C62.1777 32.0405 62.1712 31.9885 62.1625 31.9495H62.858ZM60.2905 32.151C60.2818 32.2377 60.2732 32.3287 60.2645 32.424C60.2602 32.5193 60.258 32.6255 60.258 32.7425C60.258 32.8682 60.2558 33.035 60.2515 33.243C60.2515 33.4467 60.2493 33.6677 60.245 33.906C60.245 34.14 60.245 34.3718 60.245 34.6015C60.245 34.8312 60.245 35.037 60.245 35.219C60.245 35.401 60.2472 35.5418 60.2515 35.6415C60.2558 35.8105 60.2667 35.9513 60.284 36.064C60.3013 36.1767 60.3447 36.2655 60.414 36.3305C60.4833 36.3955 60.5917 36.4432 60.739 36.4735C60.8907 36.5038 61.0965 36.519 61.3565 36.519C61.5818 36.519 61.8158 36.5125 62.0585 36.4995C62.3012 36.4822 62.5308 36.4605 62.7475 36.4345C62.9642 36.4085 63.1462 36.3825 63.2935 36.3565L63.274 37.052C63.131 37.0693 62.9533 37.0845 62.741 37.0975C62.5287 37.1148 62.3055 37.13 62.0715 37.143C61.8375 37.156 61.6122 37.1625 61.3955 37.1625C61.0012 37.1625 60.687 37.1387 60.453 37.091C60.219 37.0433 60.0435 36.9653 59.9265 36.857C59.8095 36.7443 59.7315 36.597 59.6925 36.415C59.6535 36.233 59.6297 36.0077 59.621 35.739C59.621 35.6437 59.6188 35.5158 59.6145 35.3555C59.6145 35.1908 59.6145 35.0067 59.6145 34.803C59.6145 34.595 59.6145 34.3848 59.6145 34.1725C59.6145 33.9602 59.6145 33.7587 59.6145 33.568C59.6145 33.3773 59.6145 33.2127 59.6145 33.074C59.6145 32.931 59.6145 32.8313 59.6145 32.775C59.6145 32.658 59.6102 32.5518 59.6015 32.4565C59.5972 32.3568 59.5863 32.255 59.569 32.151H60.2905ZM58.2495 33.6655C58.3448 33.6655 58.4553 33.6633 58.581 33.659C58.711 33.6503 58.8453 33.6395 58.984 33.6265C59.1227 33.6135 59.322 33.594 59.582 33.568C59.842 33.542 60.1367 33.5138 60.466 33.4835C60.7997 33.4532 61.1442 33.4228 61.4995 33.3925C61.8592 33.3578 62.2058 33.3275 62.5395 33.3015C62.8732 33.2755 63.17 33.2538 63.43 33.2365C63.5167 33.2322 63.6098 33.2278 63.7095 33.2235C63.8092 33.2148 63.9023 33.2062 63.989 33.1975V33.8345C63.9543 33.8302 63.9023 33.8302 63.833 33.8345C63.768 33.8345 63.6965 33.8345 63.6185 33.8345C63.5448 33.8345 63.4798 33.8367 63.4235 33.841C63.2545 33.841 63.0465 33.8497 62.7995 33.867C62.5525 33.8843 62.2882 33.906 62.0065 33.932C61.7248 33.9537 61.4367 33.9797 61.142 34.01C60.8473 34.036 60.5635 34.0642 60.2905 34.0945C60.0218 34.1205 59.777 34.1465 59.556 34.1725C59.335 34.1942 59.1595 34.2137 59.0295 34.231C58.9602 34.2397 58.88 34.2505 58.789 34.2635C58.7023 34.2722 58.6157 34.283 58.529 34.296C58.4467 34.309 58.3773 34.3198 58.321 34.3285L58.2495 33.6655Z" fill="white"/>
<rect x="89.25" y="24.5" width="18.9438" height="20" fill="white" stroke="#2FB3BC"/>
<path d="M95.2484 39.2002V38.2882C96.0884 37.5362 96.7964 36.8482 97.3724 36.2242C97.9564 35.5922 98.3964 35.0082 98.6924 34.4722C98.9964 33.9282 99.1484 33.4202 99.1484 32.9482C99.1484 32.6442 99.0924 32.3802 98.9804 32.1562C98.8764 31.9242 98.7204 31.7442 98.5124 31.6162C98.3044 31.4882 98.0444 31.4242 97.7324 31.4242C97.3964 31.4242 97.0884 31.5162 96.8084 31.7002C96.5364 31.8842 96.2844 32.1082 96.0524 32.3722L95.1764 31.5082C95.5684 31.0842 95.9764 30.7562 96.4004 30.5242C96.8324 30.2922 97.3444 30.1762 97.9364 30.1762C98.4884 30.1762 98.9684 30.2882 99.3764 30.5122C99.7844 30.7362 100.1 31.0482 100.324 31.4482C100.556 31.8482 100.672 32.3202 100.672 32.8642C100.672 33.4162 100.532 33.9762 100.252 34.5442C99.9804 35.1122 99.6084 35.6842 99.1364 36.2602C98.6724 36.8282 98.1484 37.3962 97.5644 37.9642C97.7964 37.9402 98.0444 37.9202 98.3084 37.9042C98.5724 37.8802 98.8084 37.8682 99.0164 37.8682H101.08V39.2002H95.2484Z" fill="#2FB3BC"/>
<path d="M177.5 34.5L172.131 45H107.697V24H172.131L177.5 34.5Z" fill="#2FB3BC"/>
<path d="M128.352 32.437C128.586 32.463 128.85 32.4825 129.145 32.4955C129.444 32.5085 129.76 32.515 130.094 32.515C130.302 32.515 130.514 32.5107 130.731 32.502C130.948 32.4933 131.156 32.4825 131.355 32.4695C131.559 32.4565 131.741 32.4413 131.901 32.424V33.1C131.754 33.113 131.578 33.126 131.375 33.139C131.171 33.152 130.956 33.1628 130.731 33.1715C130.51 33.1758 130.298 33.178 130.094 33.178C129.765 33.178 129.457 33.1715 129.171 33.1585C128.885 33.1455 128.612 33.1282 128.352 33.1065V32.437ZM128.736 35.115C128.697 35.2363 128.666 35.3555 128.645 35.4725C128.623 35.5852 128.612 35.7 128.612 35.817C128.612 36.0467 128.729 36.2352 128.963 36.3825C129.197 36.5255 129.565 36.597 130.068 36.597C130.363 36.597 130.647 36.5883 130.92 36.571C131.197 36.5493 131.455 36.519 131.693 36.48C131.931 36.441 132.137 36.3955 132.311 36.3435L132.317 37.0585C132.148 37.0975 131.949 37.1343 131.719 37.169C131.489 37.208 131.236 37.2362 130.959 37.2535C130.686 37.2752 130.395 37.286 130.088 37.286C129.62 37.286 129.225 37.234 128.905 37.13C128.588 37.0303 128.348 36.883 128.183 36.688C128.018 36.493 127.936 36.2525 127.936 35.9665C127.936 35.7888 127.949 35.6242 127.975 35.4725C128.005 35.3165 128.036 35.1757 128.066 35.05L128.736 35.115ZM132.077 31.735C132.133 31.8087 132.194 31.8997 132.259 32.008C132.324 32.1163 132.386 32.2247 132.447 32.333C132.508 32.4413 132.56 32.5388 132.603 32.6255L132.174 32.814C132.109 32.6797 132.029 32.5258 131.934 32.3525C131.838 32.1792 131.745 32.0318 131.654 31.9105L132.077 31.735ZM132.818 31.462C132.874 31.54 132.937 31.6332 133.006 31.7415C133.075 31.8498 133.14 31.9582 133.201 32.0665C133.266 32.1748 133.318 32.268 133.357 32.346L132.935 32.5345C132.865 32.3915 132.781 32.2377 132.681 32.073C132.586 31.904 132.493 31.7588 132.402 31.6375L132.818 31.462ZM135.47 33.9515H137.03V34.517H135.47V33.9515ZM136.796 33.9515H137.394C137.394 33.9515 137.394 33.9667 137.394 33.997C137.394 34.0273 137.391 34.062 137.387 34.101C137.387 34.14 137.387 34.1725 137.387 34.1985C137.378 34.6708 137.368 35.0565 137.355 35.3555C137.342 35.6545 137.322 35.8842 137.296 36.0445C137.27 36.2005 137.233 36.3088 137.186 36.3695C137.129 36.4388 137.069 36.4887 137.004 36.519C136.939 36.5493 136.858 36.571 136.763 36.584C136.681 36.597 136.57 36.6035 136.432 36.6035C136.293 36.6035 136.146 36.6013 135.99 36.597C135.985 36.506 135.968 36.4063 135.938 36.298C135.907 36.1897 135.868 36.0965 135.821 36.0185C135.955 36.0315 136.081 36.0402 136.198 36.0445C136.315 36.0488 136.401 36.051 136.458 36.051C136.501 36.051 136.538 36.0467 136.568 36.038C136.603 36.025 136.633 36.0055 136.659 35.9795C136.689 35.9405 136.713 35.856 136.731 35.726C136.748 35.5917 136.761 35.3902 136.77 35.1215C136.783 34.8528 136.791 34.4953 136.796 34.049V33.9515ZM138.674 31.8715L139.051 31.501C139.181 31.566 139.318 31.6418 139.461 31.7285C139.604 31.8108 139.738 31.8953 139.864 31.982C139.989 32.0687 140.093 32.1488 140.176 32.2225L139.786 32.6385C139.708 32.5648 139.606 32.4825 139.48 32.3915C139.359 32.3005 139.227 32.2095 139.084 32.1185C138.945 32.0275 138.808 31.9452 138.674 31.8715ZM139.539 33.6005L140.156 33.75C139.883 34.595 139.506 35.336 139.025 35.973C138.548 36.61 137.983 37.1257 137.329 37.52C137.303 37.4723 137.261 37.416 137.205 37.351C137.149 37.2903 137.092 37.2275 137.036 37.1625C136.98 37.1018 136.928 37.052 136.88 37.013C137.526 36.6663 138.072 36.2027 138.518 35.622C138.964 35.0413 139.305 34.3675 139.539 33.6005ZM135.509 32.5605H140.533V33.165H135.509V32.5605ZM135.099 32.5605H135.743V34.426C135.743 34.6643 135.734 34.9222 135.717 35.1995C135.699 35.4768 135.667 35.7607 135.619 36.051C135.571 36.337 135.502 36.6143 135.411 36.883C135.32 37.1517 135.199 37.3922 135.047 37.6045C135.017 37.5655 134.967 37.5178 134.898 37.4615C134.833 37.4052 134.765 37.351 134.696 37.299C134.631 37.2513 134.575 37.2145 134.527 37.1885C134.705 36.9285 134.833 36.6382 134.911 36.3175C134.993 35.9925 135.045 35.6653 135.067 35.336C135.088 35.0067 135.099 34.7012 135.099 34.4195V32.5605ZM137.777 31.5205H138.421C138.416 32.0925 138.436 32.6428 138.479 33.1715C138.522 33.6958 138.585 34.1833 138.668 34.634C138.75 35.0847 138.847 35.4768 138.96 35.8105C139.073 36.1442 139.198 36.4042 139.337 36.5905C139.48 36.7768 139.625 36.87 139.773 36.87C139.859 36.87 139.924 36.779 139.968 36.597C140.011 36.415 140.041 36.1138 140.059 35.6935C140.132 35.7628 140.219 35.83 140.319 35.895C140.418 35.96 140.509 36.0077 140.592 36.038C140.557 36.4237 140.507 36.7227 140.442 36.935C140.377 37.1473 140.286 37.2947 140.169 37.377C140.056 37.4593 139.909 37.5005 139.727 37.5005C139.502 37.5005 139.296 37.4247 139.11 37.273C138.928 37.1213 138.763 36.9068 138.616 36.6295C138.473 36.3522 138.349 36.0272 138.245 35.6545C138.145 35.2818 138.061 34.8723 137.992 34.426C137.922 33.9797 137.87 33.5117 137.836 33.022C137.801 32.528 137.781 32.0275 137.777 31.5205ZM144.927 34.3675L145.421 34.1205C145.542 34.2722 145.662 34.4368 145.779 34.6145C145.896 34.7878 146 34.9612 146.091 35.1345C146.186 35.3078 146.26 35.4638 146.312 35.6025L145.772 35.8885C145.729 35.7498 145.662 35.5938 145.571 35.4205C145.48 35.2428 145.378 35.063 145.265 34.881C145.157 34.6947 145.044 34.5235 144.927 34.3675ZM145.038 32.658H147.456V33.2365H145.038V32.658ZM147.196 32.658H147.787C147.787 32.658 147.787 32.6775 147.787 32.7165C147.787 32.7555 147.787 32.7988 147.787 32.8465C147.787 32.8942 147.787 32.931 147.787 32.957C147.761 33.6807 147.733 34.296 147.703 34.803C147.677 35.3057 147.646 35.7217 147.612 36.051C147.577 36.376 147.536 36.6317 147.488 36.818C147.44 37 147.384 37.1322 147.319 37.2145C147.237 37.3228 147.15 37.3965 147.059 37.4355C146.972 37.4745 146.864 37.5027 146.734 37.52C146.626 37.533 146.478 37.5395 146.292 37.5395C146.106 37.5395 145.915 37.5352 145.72 37.5265C145.716 37.4355 145.694 37.3315 145.655 37.2145C145.62 37.0975 145.575 36.9957 145.519 36.909C145.731 36.9263 145.926 36.9372 146.104 36.9415C146.286 36.9458 146.418 36.948 146.5 36.948C146.565 36.948 146.619 36.9415 146.663 36.9285C146.706 36.9112 146.745 36.8808 146.78 36.8375C146.836 36.7812 146.884 36.6663 146.923 36.493C146.966 36.3197 147.003 36.0748 147.033 35.7585C147.068 35.4378 147.098 35.0348 147.124 34.5495C147.15 34.0598 147.174 33.4727 147.196 32.788V32.658ZM145.194 31.5075L145.824 31.6505C145.737 31.9625 145.629 32.2723 145.499 32.58C145.369 32.8833 145.228 33.1672 145.077 33.4315C144.925 33.6958 144.767 33.9277 144.602 34.127C144.563 34.0923 144.509 34.0512 144.44 34.0035C144.375 33.9558 144.305 33.9103 144.232 33.867C144.162 33.8193 144.104 33.7825 144.056 33.7565C144.225 33.5745 144.381 33.3643 144.524 33.126C144.667 32.8877 144.795 32.6298 144.908 32.3525C145.02 32.0752 145.116 31.7935 145.194 31.5075ZM142.88 31.514L143.426 31.7155C143.339 31.8758 143.248 32.0448 143.153 32.2225C143.062 32.3958 142.968 32.5627 142.873 32.723C142.782 32.8833 142.693 33.022 142.607 33.139L142.191 32.9635C142.273 32.8335 142.355 32.684 142.438 32.515C142.524 32.346 142.607 32.1748 142.685 32.0015C142.763 31.8238 142.828 31.6613 142.88 31.514ZM143.66 32.268L144.193 32.489C144.037 32.736 143.865 32.996 143.679 33.269C143.497 33.5377 143.311 33.7998 143.12 34.0555C142.934 34.3068 142.756 34.5235 142.587 34.7055L142.204 34.5105C142.329 34.3632 142.459 34.1985 142.594 34.0165C142.728 33.8302 142.86 33.6352 142.99 33.4315C143.12 33.2278 143.241 33.0263 143.354 32.827C143.471 32.6277 143.573 32.4413 143.66 32.268ZM141.866 32.957L142.165 32.541C142.282 32.6407 142.401 32.7512 142.522 32.8725C142.648 32.9938 142.76 33.113 142.86 33.23C142.964 33.347 143.044 33.4553 143.101 33.555L142.782 34.0295C142.726 33.9255 142.648 33.8107 142.548 33.685C142.448 33.5593 142.338 33.4337 142.217 33.308C142.1 33.178 141.983 33.061 141.866 32.957ZM143.478 33.802L143.92 33.6135C144.011 33.7522 144.097 33.9038 144.18 34.0685C144.266 34.2288 144.342 34.387 144.407 34.543C144.472 34.699 144.52 34.8377 144.55 34.959L144.076 35.18C144.045 35.0587 143.998 34.92 143.933 34.764C143.872 34.6037 143.8 34.439 143.718 34.27C143.64 34.101 143.56 33.945 143.478 33.802ZM141.853 34.4C142.152 34.3913 142.507 34.3783 142.919 34.361C143.335 34.3437 143.759 34.3263 144.193 34.309L144.186 34.803C143.779 34.829 143.376 34.855 142.977 34.881C142.578 34.907 142.221 34.9287 141.905 34.946L141.853 34.4ZM143.614 35.388L144.076 35.2385C144.167 35.4378 144.253 35.6545 144.336 35.8885C144.418 36.1182 144.476 36.3175 144.511 36.4865L144.017 36.6555C143.987 36.4865 143.933 36.2828 143.855 36.0445C143.781 35.8062 143.701 35.5873 143.614 35.388ZM142.178 35.2775L142.698 35.3685C142.659 35.6762 142.6 35.9795 142.522 36.2785C142.448 36.5775 142.362 36.831 142.262 37.039C142.227 37.0173 142.182 36.9913 142.126 36.961C142.069 36.9307 142.009 36.9025 141.944 36.8765C141.883 36.8462 141.831 36.8245 141.788 36.8115C141.892 36.6122 141.974 36.376 142.035 36.103C142.1 35.83 142.147 35.5548 142.178 35.2775ZM142.932 34.66H143.478V37.559H142.932V34.66Z" fill="white"/>
<rect x="178" y="24.5" width="18.9438" height="20" fill="white" stroke="#2FB3BC"/>
<path d="M186.722 39.3682C186.258 39.3682 185.846 39.3122 185.486 39.2002C185.126 39.0882 184.806 38.9402 184.526 38.7562C184.246 38.5722 184.006 38.3642 183.806 38.1322L184.562 37.1362C184.826 37.3922 185.122 37.6122 185.45 37.7962C185.778 37.9802 186.158 38.0722 186.59 38.0722C186.91 38.0722 187.19 38.0202 187.43 37.9162C187.67 37.8122 187.854 37.6602 187.982 37.4602C188.118 37.2522 188.186 37.0082 188.186 36.7282C188.186 36.4162 188.11 36.1482 187.958 35.9242C187.814 35.6922 187.558 35.5162 187.19 35.3962C186.822 35.2682 186.31 35.2042 185.654 35.2042V34.0642C186.222 34.0642 186.666 34.0042 186.986 33.8842C187.314 33.7562 187.546 33.5842 187.682 33.3682C187.826 33.1442 187.898 32.8922 187.898 32.6122C187.898 32.2442 187.786 31.9562 187.562 31.7482C187.338 31.5322 187.026 31.4242 186.626 31.4242C186.298 31.4242 185.994 31.5002 185.714 31.6522C185.434 31.7962 185.162 31.9882 184.898 32.2282L184.094 31.2562C184.462 30.9282 184.858 30.6682 185.282 30.4762C185.706 30.2762 186.174 30.1762 186.686 30.1762C187.238 30.1762 187.722 30.2682 188.138 30.4522C188.562 30.6282 188.89 30.8882 189.122 31.2322C189.362 31.5762 189.482 32.0002 189.482 32.5042C189.482 32.9922 189.346 33.4122 189.074 33.7642C188.81 34.1082 188.446 34.3682 187.982 34.5442V34.6042C188.318 34.6922 188.622 34.8362 188.894 35.0362C189.166 35.2282 189.378 35.4762 189.53 35.7802C189.69 36.0762 189.77 36.4202 189.77 36.8122C189.77 37.3482 189.63 37.8082 189.35 38.1922C189.078 38.5682 188.71 38.8602 188.246 39.0682C187.79 39.2682 187.282 39.3682 186.722 39.3682Z" fill="#2FB3BC"/>
<path d="M266.25 34.5L260.881 45H196.447V24H260.881L266.25 34.5Z" fill="#2FB3BC"/>
<path d="M207.743 31.7675C207.734 31.8065 207.728 31.8563 207.724 31.917C207.719 31.9733 207.713 32.034 207.704 32.099C207.7 32.1597 207.695 32.216 207.691 32.268C207.687 32.3807 207.68 32.515 207.672 32.671C207.667 32.8227 207.661 32.9895 207.652 33.1715C207.648 33.3492 207.643 33.529 207.639 33.711C207.639 33.8887 207.639 34.0598 207.639 34.2245C207.639 34.3935 207.641 34.582 207.646 34.79C207.65 34.998 207.654 35.2038 207.659 35.4075C207.663 35.6068 207.667 35.7932 207.672 35.9665C207.676 36.1355 207.678 36.2698 207.678 36.3695C207.678 36.5992 207.65 36.779 207.594 36.909C207.542 37.039 207.468 37.13 207.373 37.182C207.282 37.234 207.171 37.26 207.041 37.26C206.902 37.26 206.751 37.2297 206.586 37.169C206.421 37.1083 206.265 37.026 206.118 36.922C205.971 36.818 205.849 36.6967 205.754 36.558C205.659 36.4193 205.611 36.272 205.611 36.116C205.611 35.9167 205.687 35.7195 205.839 35.5245C205.995 35.3252 206.198 35.1432 206.45 34.9785C206.701 34.8138 206.967 34.6795 207.249 34.5755C207.544 34.4672 207.845 34.3848 208.153 34.3285C208.46 34.2722 208.74 34.244 208.991 34.244C209.316 34.244 209.606 34.2982 209.862 34.4065C210.118 34.5148 210.319 34.6708 210.467 34.8745C210.614 35.0782 210.688 35.3187 210.688 35.596C210.688 35.8517 210.636 36.0813 210.532 36.285C210.432 36.4887 210.278 36.662 210.07 36.805C209.862 36.948 209.6 37.0585 209.284 37.1365C209.136 37.1668 208.991 37.1885 208.848 37.2015C208.709 37.2145 208.579 37.2253 208.458 37.234L208.224 36.571C208.354 36.5753 208.486 36.5753 208.621 36.571C208.755 36.5667 208.883 36.5515 209.004 36.5255C209.186 36.4908 209.355 36.4367 209.511 36.363C209.667 36.285 209.791 36.1832 209.882 36.0575C209.977 35.9275 210.025 35.7715 210.025 35.5895C210.025 35.4205 209.979 35.2797 209.888 35.167C209.797 35.05 209.674 34.9612 209.518 34.9005C209.362 34.8398 209.184 34.8095 208.985 34.8095C208.703 34.8095 208.423 34.8398 208.146 34.9005C207.869 34.9568 207.596 35.037 207.327 35.141C207.128 35.219 206.946 35.3122 206.781 35.4205C206.616 35.5288 206.486 35.6415 206.391 35.7585C206.296 35.8712 206.248 35.9795 206.248 36.0835C206.248 36.1485 206.27 36.2113 206.313 36.272C206.356 36.3283 206.408 36.3782 206.469 36.4215C206.534 36.4648 206.601 36.4995 206.67 36.5255C206.74 36.5515 206.803 36.5645 206.859 36.5645C206.924 36.5645 206.976 36.5428 207.015 36.4995C207.058 36.4518 207.08 36.3738 207.08 36.2655C207.08 36.1442 207.076 35.973 207.067 35.752C207.063 35.531 207.058 35.2883 207.054 35.024C207.05 34.7553 207.048 34.4975 207.048 34.2505C207.048 34.0642 207.048 33.8713 207.048 33.672C207.052 33.4683 207.054 33.2733 207.054 33.087C207.058 32.9007 207.061 32.736 207.061 32.593C207.065 32.45 207.067 32.346 207.067 32.281C207.067 32.2333 207.065 32.177 207.061 32.112C207.056 32.047 207.052 31.9842 207.048 31.9235C207.043 31.8585 207.037 31.8065 207.028 31.7675H207.743ZM209.687 32.4825C209.847 32.5605 210.025 32.658 210.22 32.775C210.419 32.8877 210.607 33.0025 210.785 33.1195C210.967 33.2322 211.112 33.3318 211.221 33.4185L210.902 33.9385C210.824 33.8648 210.72 33.7847 210.59 33.698C210.464 33.6113 210.328 33.5225 210.181 33.4315C210.038 33.3405 209.897 33.256 209.758 33.178C209.624 33.0957 209.505 33.0285 209.401 32.9765L209.687 32.4825ZM205.748 32.892C205.934 32.9137 206.094 32.9288 206.229 32.9375C206.363 32.9418 206.491 32.944 206.612 32.944C206.772 32.944 206.954 32.9353 207.158 32.918C207.362 32.9007 207.568 32.879 207.776 32.853C207.988 32.827 208.194 32.7945 208.393 32.7555C208.597 32.7122 208.781 32.6667 208.946 32.619L208.959 33.256C208.785 33.295 208.592 33.3318 208.38 33.3665C208.172 33.4012 207.96 33.4337 207.743 33.464C207.531 33.49 207.327 33.5117 207.132 33.529C206.941 33.542 206.772 33.5485 206.625 33.5485C206.43 33.5485 206.265 33.5463 206.131 33.542C205.997 33.5333 205.875 33.5247 205.767 33.516L205.748 32.892ZM211.942 33.386H217.565V34.751H216.967V33.9255H212.521V34.751H211.942V33.386ZM212.8 34.556H216.343V35.128H212.8V34.556ZM216.837 31.4815L217.259 31.982C216.912 32.047 216.531 32.1077 216.115 32.164C215.703 32.2203 215.272 32.2702 214.822 32.3135C214.375 32.3525 213.925 32.385 213.47 32.411C213.015 32.437 212.573 32.4587 212.144 32.476C212.139 32.398 212.122 32.307 212.092 32.203C212.061 32.099 212.031 32.0145 212.001 31.9495C212.43 31.9322 212.865 31.9105 213.307 31.8845C213.753 31.8542 214.191 31.8195 214.62 31.7805C215.053 31.7415 215.459 31.6982 215.836 31.6505C216.213 31.5985 216.546 31.5422 216.837 31.4815ZM212.56 32.606L213.093 32.45C213.184 32.5757 213.268 32.7165 213.346 32.8725C213.424 33.0285 213.48 33.1607 213.515 33.269L212.956 33.4445C212.926 33.3318 212.872 33.1975 212.794 33.0415C212.72 32.8812 212.642 32.736 212.56 32.606ZM214.282 32.463L214.835 32.346C214.904 32.4847 214.969 32.6385 215.03 32.8075C215.095 32.9765 215.138 33.1238 215.16 33.2495L214.581 33.3925C214.564 33.2712 214.527 33.1238 214.471 32.9505C214.414 32.7728 214.351 32.6103 214.282 32.463ZM216.434 32.333L217.077 32.4955C216.999 32.6342 216.917 32.775 216.83 32.918C216.748 33.0567 216.663 33.191 216.577 33.321C216.494 33.4467 216.416 33.5593 216.343 33.659L215.842 33.503C215.911 33.3947 215.983 33.2733 216.057 33.139C216.13 33.0003 216.2 32.8617 216.265 32.723C216.334 32.58 216.39 32.45 216.434 32.333ZM216.115 34.556H216.245L216.356 34.53L216.772 34.7835C216.572 35.2038 216.314 35.5678 215.998 35.8755C215.686 36.1832 215.326 36.4453 214.919 36.662C214.516 36.8743 214.081 37.0498 213.613 37.1885C213.145 37.3272 212.659 37.4333 212.157 37.507C212.135 37.4593 212.102 37.3987 212.059 37.325C212.02 37.2557 211.977 37.1885 211.929 37.1235C211.886 37.0585 211.842 37.0043 211.799 36.961C212.293 36.9003 212.765 36.8137 213.216 36.701C213.667 36.584 214.081 36.4345 214.458 36.2525C214.839 36.0662 215.17 35.843 215.452 35.583C215.734 35.3187 215.955 35.011 216.115 34.66V34.556ZM213.489 34.959C213.736 35.323 214.065 35.6393 214.477 35.908C214.889 36.1767 215.365 36.3955 215.907 36.5645C216.453 36.7335 217.047 36.8548 217.688 36.9285C217.645 36.9718 217.599 37.0282 217.552 37.0975C217.504 37.1668 217.458 37.2362 217.415 37.3055C217.376 37.3792 217.341 37.4442 217.311 37.5005C216.657 37.4095 216.054 37.2643 215.504 37.065C214.954 36.87 214.464 36.6165 214.035 36.3045C213.606 35.9882 213.246 35.6133 212.956 35.18L213.489 34.959ZM222.999 31.891C222.99 31.9517 222.983 32.0167 222.979 32.086C222.975 32.1553 222.97 32.2268 222.966 32.3005C222.966 32.3525 222.966 32.437 222.966 32.554C222.966 32.6667 222.966 32.7945 222.966 32.9375C222.97 33.0805 222.973 33.2278 222.973 33.3795C222.977 33.5268 222.979 33.6633 222.979 33.789C222.979 33.9147 222.979 34.0165 222.979 34.0945C222.979 34.4715 222.968 34.8182 222.947 35.1345C222.925 35.4508 222.871 35.7455 222.784 36.0185C222.697 36.2915 222.559 36.545 222.368 36.779C222.182 37.0087 221.922 37.2253 221.588 37.429L220.99 36.961C221.103 36.9133 221.224 36.8483 221.354 36.766C221.484 36.6793 221.592 36.5927 221.679 36.506C221.831 36.363 221.95 36.2135 222.037 36.0575C222.128 35.8972 222.195 35.7217 222.238 35.531C222.286 35.336 222.316 35.1215 222.329 34.8875C222.346 34.6492 222.355 34.3827 222.355 34.088C222.355 33.9753 222.353 33.8345 222.349 33.6655C222.349 33.4965 222.344 33.3232 222.336 33.1455C222.331 32.9635 222.327 32.7967 222.323 32.645C222.318 32.4933 222.314 32.3785 222.31 32.3005C222.305 32.2225 222.294 32.1467 222.277 32.073C222.264 31.9993 222.253 31.9387 222.245 31.891H222.999ZM220.542 33.1975C220.641 33.2105 220.747 33.2235 220.86 33.2365C220.973 33.2495 221.088 33.2582 221.205 33.2625C221.326 33.2668 221.445 33.269 221.562 33.269C221.835 33.269 222.117 33.2625 222.407 33.2495C222.702 33.2365 222.986 33.217 223.259 33.191C223.536 33.1607 223.783 33.1238 224 33.0805L223.993 33.7435C223.789 33.7738 223.553 33.7998 223.285 33.8215C223.016 33.8432 222.734 33.8605 222.44 33.8735C222.145 33.8822 221.855 33.8865 221.569 33.8865C221.473 33.8865 221.363 33.8843 221.237 33.88C221.116 33.8757 220.994 33.8713 220.873 33.867C220.752 33.8627 220.641 33.8583 220.542 33.854V33.1975ZM219.729 31.9885C219.712 32.0578 219.69 32.138 219.664 32.229C219.638 32.3157 219.616 32.3915 219.599 32.4565C219.551 32.6688 219.504 32.9093 219.456 33.178C219.413 33.4467 219.376 33.7262 219.346 34.0165C219.32 34.3068 219.309 34.5928 219.313 34.8745C219.322 35.1562 219.352 35.4162 219.404 35.6545C219.447 35.5332 219.499 35.3902 219.56 35.2255C219.621 35.0608 219.679 34.907 219.736 34.764L220.074 34.9785C220.017 35.1388 219.961 35.3143 219.905 35.505C219.848 35.6957 219.796 35.8777 219.749 36.051C219.701 36.22 219.664 36.3608 219.638 36.4735C219.629 36.5255 219.621 36.5818 219.612 36.6425C219.608 36.6988 219.606 36.7443 219.606 36.779C219.606 36.8137 219.608 36.8527 219.612 36.896C219.616 36.9393 219.621 36.9805 219.625 37.0195L219.06 37.0845C219.016 36.9502 218.964 36.7725 218.904 36.5515C218.847 36.3262 218.8 36.0792 218.761 35.8105C218.722 35.5418 218.702 35.2732 218.702 35.0045C218.702 34.6492 218.715 34.3068 218.741 33.9775C218.771 33.6482 218.804 33.3492 218.839 33.0805C218.878 32.8075 218.91 32.5822 218.936 32.4045C218.949 32.3222 218.958 32.2377 218.962 32.151C218.966 32.0643 218.969 31.9863 218.969 31.917L219.729 31.9885ZM227.848 32.385H230.168V32.983H227.848V32.385ZM224.799 31.904H228.017V32.476H224.799V31.904ZM225.599 33.23H227.23V33.789H225.599V33.23ZM225.599 34.582H227.23V35.1345H225.599V34.582ZM229.993 32.385H230.097L230.207 32.359L230.604 32.463C230.508 33.334 230.344 34.0923 230.11 34.738C229.876 35.3837 229.579 35.9318 229.219 36.3825C228.859 36.8288 228.441 37.1928 227.965 37.4745C227.917 37.3965 227.854 37.3077 227.776 37.208C227.698 37.1083 227.627 37.0303 227.562 36.974C227.991 36.7487 228.372 36.4302 228.706 36.0185C229.039 35.6025 229.317 35.102 229.538 34.517C229.759 33.9277 229.91 33.2625 229.993 32.5215V32.385ZM228.511 33.0025C228.623 33.6005 228.781 34.1595 228.985 34.6795C229.189 35.1952 229.447 35.6502 229.759 36.0445C230.071 36.4388 230.443 36.7508 230.877 36.9805C230.829 37.0195 230.777 37.0693 230.721 37.13C230.669 37.1907 230.617 37.2513 230.565 37.312C230.517 37.377 230.478 37.4355 230.448 37.4875C229.984 37.2188 229.59 36.8722 229.265 36.4475C228.94 36.0185 228.669 35.5245 228.452 34.9655C228.235 34.4022 228.06 33.7868 227.926 33.1195L228.511 33.0025ZM225.274 32.125H225.865V36.363H225.274V32.125ZM226.99 32.125H227.581V37.5395H226.99V32.125ZM224.656 36.155C224.868 36.129 225.113 36.0987 225.391 36.064C225.668 36.0293 225.963 35.9903 226.275 35.947C226.587 35.8993 226.899 35.8538 227.211 35.8105L227.243 36.376C226.805 36.4453 226.368 36.5168 225.93 36.5905C225.497 36.6598 225.111 36.7205 224.773 36.7725L224.656 36.155ZM233.262 31.8325C233.236 31.9322 233.208 32.0535 233.178 32.1965C233.147 32.3352 233.119 32.4803 233.093 32.632C233.067 32.7837 233.043 32.931 233.022 33.074C233.004 33.2127 232.991 33.334 232.983 33.438C233.056 33.2907 233.147 33.1412 233.256 32.9895C233.368 32.8378 233.498 32.6992 233.646 32.5735C233.793 32.4478 233.953 32.346 234.127 32.268C234.3 32.19 234.484 32.151 234.679 32.151C234.974 32.151 235.236 32.2442 235.466 32.4305C235.7 32.6125 235.884 32.8725 236.018 33.2105C236.152 33.5485 236.22 33.9515 236.22 34.4195C236.22 34.8702 236.152 35.2645 236.018 35.6025C235.884 35.9405 235.693 36.2265 235.446 36.4605C235.199 36.6945 234.904 36.8852 234.562 37.0325C234.22 37.1842 233.843 37.2968 233.431 37.3705L233.041 36.779C233.396 36.7227 233.726 36.6447 234.029 36.545C234.332 36.441 234.597 36.3002 234.822 36.1225C235.047 35.9448 235.221 35.7173 235.342 35.44C235.468 35.1627 235.531 34.8225 235.531 34.4195C235.531 34.0815 235.494 33.7868 235.42 33.5355C235.346 33.2842 235.238 33.0892 235.095 32.9505C234.952 32.8118 234.777 32.7425 234.569 32.7425C234.369 32.7425 234.179 32.8075 233.997 32.9375C233.815 33.0675 233.65 33.2343 233.503 33.438C233.36 33.6417 233.243 33.8605 233.152 34.0945C233.065 34.3285 233.013 34.5538 232.996 34.7705C232.987 34.8788 232.983 34.9915 232.983 35.1085C232.987 35.2255 233 35.362 233.022 35.518L232.385 35.5635C232.372 35.4422 232.356 35.2905 232.339 35.1085C232.322 34.9222 232.313 34.7228 232.313 34.5105C232.313 34.3545 232.32 34.1877 232.333 34.01C232.346 33.828 232.361 33.6438 232.378 33.4575C232.395 33.2668 232.415 33.0827 232.437 32.905C232.463 32.7273 232.484 32.5648 232.502 32.4175C232.519 32.3048 232.53 32.1965 232.534 32.0925C232.543 31.9885 232.549 31.891 232.554 31.8L233.262 31.8325ZM238.183 32.3785H243.35V36.129H242.713V32.9635H238.794V36.168H238.183V32.3785ZM238.586 33.789H243.032V34.3545H238.586V33.789ZM238.586 35.2125H243.032V35.804H238.586V35.2125ZM240.412 31.514H241.049V37.5395H240.412V31.514ZM244.533 33.49H246.464V33.9645H244.533V33.49ZM244.553 31.7285H246.438V32.2095H244.553V31.7285ZM244.533 34.3675H246.464V34.842H244.533V34.3675ZM244.228 32.593H246.678V33.087H244.228V32.593ZM244.8 35.258H246.47V37.1885H244.8V36.6945H245.937V35.752H244.8V35.258ZM244.52 35.258H245.047V37.468H244.52V35.258ZM246.828 31.917H250.117V32.3655H246.828V31.917ZM246.997 32.6905H250.019V33.1195H246.997V32.6905ZM246.665 33.477H250.253V33.932H246.665V33.477ZM248.16 31.514H248.739V33.8605H248.16V31.514ZM247.14 34.257H249.629V34.7055H247.705V37.5395H247.14V34.257ZM249.298 34.257H249.87V36.9415C249.87 37.0758 249.852 37.182 249.818 37.26C249.787 37.338 249.722 37.3987 249.623 37.442C249.532 37.4853 249.412 37.5092 249.265 37.5135C249.118 37.5222 248.94 37.5265 248.732 37.5265C248.723 37.4528 248.702 37.3683 248.667 37.273C248.637 37.1777 248.602 37.0953 248.563 37.026C248.702 37.0303 248.83 37.0325 248.947 37.0325C249.068 37.0325 249.148 37.0325 249.187 37.0325C249.23 37.0282 249.259 37.0195 249.272 37.0065C249.289 36.9935 249.298 36.9675 249.298 36.9285V34.257ZM247.387 35.089H249.59V35.5115H247.387V35.089ZM247.387 35.908H249.59V36.324H247.387V35.908Z" fill="white"/>
<rect x="285.197" y="24" width="69.8034" height="21" fill="#2FB3BC"/>
<rect x="266.75" y="24.5" width="18.9438" height="20" fill="white" stroke="#2FB3BC"/>
<path d="M276.288 39.2002V33.5842C276.288 33.3362 276.296 33.0442 276.312 32.7082C276.328 32.3642 276.34 32.0642 276.348 31.8082H276.3C276.188 32.0402 276.072 32.2762 275.952 32.5162C275.84 32.7482 275.72 32.9802 275.592 33.2122L274.032 35.6482H278.844V36.8602H272.484V35.7922L275.892 30.3322H277.752V39.2002H276.288Z" fill="#2FB3BC"/>
<path d="M297.47 29.385C297.453 29.2983 297.433 29.2182 297.412 29.1445C297.39 29.0665 297.366 28.9907 297.34 28.917L298.068 28.8C298.077 28.8607 298.085 28.9365 298.094 29.0275C298.107 29.1142 298.122 29.1943 298.14 29.268C298.148 29.32 298.166 29.4262 298.192 29.5865C298.222 29.7468 298.259 29.9462 298.302 30.1845C298.35 30.4228 298.4 30.6785 298.452 30.9515C298.508 31.2245 298.564 31.5018 298.621 31.7835C298.677 32.0608 298.729 32.323 298.777 32.57C298.824 32.817 298.865 33.0315 298.9 33.2135C298.939 33.3912 298.965 33.519 298.978 33.597C299 33.688 299.026 33.7877 299.056 33.896C299.086 34.0043 299.117 34.1083 299.147 34.208L298.4 34.3445C298.382 34.2275 298.367 34.1148 298.354 34.0065C298.345 33.9025 298.33 33.8028 298.309 33.7075C298.296 33.6382 298.272 33.5168 298.237 33.3435C298.207 33.1658 298.168 32.9557 298.12 32.713C298.077 32.4703 298.027 32.2125 297.971 31.9395C297.914 31.6622 297.86 31.387 297.808 31.114C297.756 30.8367 297.706 30.5788 297.659 30.3405C297.611 30.1022 297.57 29.8985 297.535 29.7295C297.505 29.5605 297.483 29.4457 297.47 29.385ZM295.663 30.2755C295.75 30.2668 295.841 30.2603 295.936 30.256C296.031 30.2473 296.129 30.2387 296.229 30.23C296.324 30.217 296.46 30.1997 296.638 30.178C296.816 30.152 297.015 30.1217 297.236 30.087C297.461 30.0523 297.693 30.0177 297.932 29.983C298.174 29.944 298.408 29.905 298.634 29.866C298.859 29.827 299.06 29.7923 299.238 29.762C299.42 29.7317 299.561 29.7078 299.661 29.6905C299.76 29.6688 299.858 29.6472 299.953 29.6255C300.048 29.6038 300.129 29.5843 300.194 29.567L300.317 30.2495C300.261 30.2538 300.183 30.2647 300.083 30.282C299.983 30.295 299.888 30.308 299.797 30.321C299.684 30.3383 299.533 30.3622 299.342 30.3925C299.156 30.4185 298.948 30.451 298.718 30.49C298.493 30.5247 298.259 30.5615 298.016 30.6005C297.778 30.6395 297.548 30.6763 297.327 30.711C297.11 30.7457 296.915 30.7782 296.742 30.8085C296.573 30.8345 296.445 30.8562 296.359 30.8735C296.263 30.8908 296.172 30.9082 296.086 30.9255C295.999 30.9428 295.904 30.9645 295.8 30.9905L295.663 30.2755ZM295.65 32.167C295.732 32.1627 295.832 32.154 295.949 32.141C296.07 32.128 296.177 32.115 296.268 32.102C296.385 32.0847 296.541 32.0608 296.736 32.0305C296.935 32.0002 297.158 31.9655 297.405 31.9265C297.652 31.8875 297.908 31.8463 298.172 31.803C298.436 31.7597 298.692 31.7163 298.939 31.673C299.19 31.6297 299.42 31.5907 299.628 31.556C299.836 31.5213 300.003 31.4932 300.129 31.4715C300.254 31.4455 300.367 31.4217 300.467 31.4C300.571 31.3783 300.662 31.3545 300.74 31.3285L300.876 32.011C300.802 32.0153 300.709 32.0283 300.597 32.05C300.488 32.0673 300.371 32.0868 300.246 32.1085C300.103 32.1302 299.925 32.1583 299.713 32.193C299.505 32.2233 299.275 32.2602 299.024 32.3035C298.772 32.3425 298.517 32.3837 298.257 32.427C297.997 32.466 297.745 32.5072 297.503 32.5505C297.264 32.5895 297.05 32.6263 296.859 32.661C296.668 32.6913 296.517 32.7173 296.404 32.739C296.274 32.7607 296.157 32.7823 296.053 32.804C295.953 32.8213 295.869 32.8408 295.8 32.8625L295.65 32.167ZM304.048 29.957C304.057 30.022 304.07 30.0935 304.087 30.1715C304.109 30.2452 304.128 30.3232 304.146 30.4055C304.176 30.5138 304.217 30.6655 304.269 30.8605C304.321 31.0512 304.38 31.2678 304.445 31.5105C304.514 31.7488 304.583 31.9937 304.653 32.245C304.722 32.4963 304.789 32.739 304.854 32.973C304.919 33.2027 304.975 33.4063 305.023 33.584C305.075 33.7573 305.114 33.8852 305.14 33.9675C305.153 34.0065 305.168 34.0542 305.186 34.1105C305.203 34.1712 305.22 34.2318 305.238 34.2925C305.259 34.3532 305.279 34.4052 305.296 34.4485L304.594 34.624C304.585 34.546 304.572 34.4615 304.555 34.3705C304.538 34.2795 304.516 34.1928 304.49 34.1105C304.464 34.0238 304.427 33.8917 304.38 33.714C304.332 33.532 304.276 33.324 304.211 33.09C304.146 32.8517 304.078 32.6047 304.009 32.349C303.944 32.0933 303.879 31.8463 303.814 31.608C303.749 31.3697 303.691 31.1573 303.639 30.971C303.587 30.7803 303.548 30.6373 303.522 30.542C303.5 30.4597 303.474 30.3838 303.444 30.3145C303.413 30.2452 303.383 30.1823 303.353 30.126L304.048 29.957ZM307.168 30.8995C307.099 31.0382 307.008 31.1963 306.895 31.374C306.787 31.5473 306.668 31.7272 306.538 31.9135C306.408 32.0955 306.278 32.2688 306.148 32.4335C306.018 32.5982 305.894 32.739 305.777 32.856L305.212 32.57C305.337 32.4573 305.467 32.3273 305.602 32.18C305.736 32.0283 305.862 31.8745 305.979 31.7185C306.1 31.5582 306.193 31.4195 306.258 31.3025C306.215 31.3112 306.124 31.3307 305.985 31.361C305.846 31.387 305.677 31.4195 305.478 31.4585C305.283 31.4975 305.069 31.5408 304.835 31.5885C304.605 31.6362 304.373 31.6838 304.139 31.7315C303.905 31.7792 303.682 31.8247 303.47 31.868C303.262 31.9113 303.08 31.9503 302.924 31.985C302.772 32.0153 302.659 32.0392 302.586 32.0565L302.43 31.4325C302.525 31.4238 302.616 31.4152 302.703 31.4065C302.794 31.3935 302.891 31.3783 302.995 31.361C303.043 31.3523 303.134 31.3372 303.268 31.3155C303.402 31.2895 303.565 31.2592 303.756 31.2245C303.946 31.1855 304.152 31.1465 304.373 31.1075C304.594 31.0642 304.815 31.023 305.036 30.984C305.257 30.9407 305.465 30.8995 305.66 30.8605C305.859 30.8215 306.028 30.789 306.167 30.763C306.31 30.7327 306.412 30.711 306.473 30.698C306.52 30.685 306.57 30.672 306.622 30.659C306.674 30.6417 306.717 30.6243 306.752 30.607L307.168 30.8995ZM311.205 30.204C311.235 30.269 311.274 30.3665 311.322 30.4965C311.369 30.6222 311.419 30.7587 311.471 30.906C311.527 31.049 311.577 31.1855 311.621 31.3155C311.668 31.4455 311.703 31.5452 311.725 31.6145L311.114 31.8355C311.096 31.7575 311.066 31.6557 311.023 31.53C310.979 31.4 310.932 31.2657 310.88 31.127C310.828 30.984 310.776 30.8475 310.724 30.7175C310.676 30.5875 310.633 30.4835 310.594 30.4055L311.205 30.204ZM313.577 30.62C313.547 30.7023 313.521 30.7738 313.499 30.8345C313.482 30.8952 313.467 30.9515 313.454 31.0035C313.367 31.3502 313.25 31.6903 313.103 32.024C312.96 32.3577 312.773 32.6718 312.544 32.9665C312.245 33.3478 311.904 33.6707 311.523 33.935C311.146 34.195 310.773 34.3965 310.405 34.5395L309.866 33.987C310.108 33.9177 310.36 33.818 310.62 33.688C310.88 33.558 311.129 33.402 311.367 33.22C311.61 33.038 311.82 32.8365 311.998 32.6155C312.145 32.4292 312.279 32.2168 312.401 31.9785C312.522 31.7358 312.622 31.4802 312.7 31.2115C312.778 30.9385 312.832 30.6655 312.862 30.3925L313.577 30.62ZM309.69 30.542C309.729 30.6157 309.775 30.7175 309.827 30.8475C309.883 30.9732 309.939 31.1097 309.996 31.257C310.056 31.4043 310.113 31.5452 310.165 31.6795C310.217 31.8138 310.258 31.9265 310.288 32.0175L309.67 32.245C309.645 32.1627 309.606 32.0522 309.554 31.9135C309.502 31.7705 309.445 31.6232 309.385 31.4715C309.328 31.3198 309.272 31.1812 309.216 31.0555C309.164 30.9255 309.118 30.828 309.079 30.763L309.69 30.542ZM316.476 28.9365C316.58 28.9928 316.697 29.0643 316.827 29.151C316.957 29.2333 317.091 29.32 317.23 29.411C317.369 29.4977 317.499 29.5822 317.62 29.6645C317.746 29.7425 317.845 29.8097 317.919 29.866L317.536 30.425C317.453 30.3643 317.351 30.2928 317.23 30.2105C317.109 30.1282 316.981 30.0437 316.847 29.957C316.712 29.8703 316.58 29.788 316.45 29.71C316.32 29.6277 316.205 29.5562 316.106 29.4955L316.476 28.9365ZM315.404 33.571C315.642 33.5277 315.887 33.4735 316.138 33.4085C316.389 33.3392 316.639 33.2568 316.886 33.1615C317.133 33.0618 317.371 32.9513 317.601 32.83C317.96 32.622 318.296 32.3902 318.608 32.1345C318.92 31.8788 319.202 31.6058 319.453 31.3155C319.704 31.0252 319.917 30.7262 320.09 30.4185L320.487 31.1075C320.192 31.5495 319.826 31.972 319.388 32.375C318.955 32.778 318.474 33.1312 317.945 33.4345C317.724 33.5602 317.484 33.6772 317.224 33.7855C316.968 33.8938 316.712 33.987 316.457 34.065C316.205 34.1473 315.982 34.2058 315.787 34.2405L315.404 33.571ZM315.488 30.412C315.592 30.464 315.711 30.5312 315.846 30.6135C315.98 30.6915 316.116 30.7738 316.255 30.8605C316.394 30.9472 316.524 31.0295 316.645 31.1075C316.766 31.1812 316.866 31.2462 316.944 31.3025L316.567 31.881C316.48 31.8203 316.376 31.7488 316.255 31.6665C316.134 31.5842 316.006 31.4997 315.872 31.413C315.737 31.3263 315.603 31.2462 315.469 31.1725C315.339 31.0945 315.222 31.0273 315.118 30.971L315.488 30.412ZM325.849 30.906C325.84 30.9407 325.832 30.9797 325.823 31.023C325.814 31.0663 325.806 31.1053 325.797 31.14C325.788 31.231 325.771 31.361 325.745 31.53C325.723 31.6947 325.697 31.8767 325.667 32.076C325.637 32.2753 325.606 32.4747 325.576 32.674C325.546 32.869 325.518 33.0488 325.492 33.2135C325.47 33.3782 325.45 33.506 325.433 33.597H324.738C324.751 33.519 324.768 33.4063 324.79 33.259C324.816 33.1073 324.844 32.9405 324.874 32.7585C324.904 32.5765 324.933 32.3923 324.959 32.206C324.985 32.0197 325.006 31.8507 325.024 31.699C325.045 31.543 325.056 31.4238 325.056 31.3415C324.982 31.3415 324.876 31.3415 324.738 31.3415C324.599 31.3415 324.445 31.3415 324.276 31.3415C324.107 31.3415 323.94 31.3415 323.776 31.3415C323.615 31.3415 323.477 31.3415 323.36 31.3415C323.243 31.3415 323.165 31.3415 323.126 31.3415C323.03 31.3415 322.931 31.3437 322.827 31.348C322.727 31.3523 322.634 31.3567 322.547 31.361V30.685C322.603 30.6893 322.664 30.6958 322.729 30.7045C322.798 30.7088 322.868 30.7132 322.937 30.7175C323.006 30.7175 323.067 30.7175 323.119 30.7175C323.175 30.7175 323.264 30.7175 323.386 30.7175C323.507 30.7175 323.641 30.7175 323.789 30.7175C323.94 30.7175 324.094 30.7175 324.25 30.7175C324.406 30.7175 324.547 30.7175 324.672 30.7175C324.798 30.7175 324.896 30.7175 324.965 30.7175C325.004 30.7175 325.05 30.7153 325.102 30.711C325.154 30.7067 325.203 30.7002 325.251 30.6915C325.299 30.6828 325.333 30.6742 325.355 30.6655L325.849 30.906ZM321.943 33.3435C322.029 33.3522 322.122 33.3608 322.222 33.3695C322.322 33.3738 322.424 33.376 322.528 33.376C322.588 33.376 322.707 33.376 322.885 33.376C323.063 33.376 323.273 33.376 323.516 33.376C323.763 33.376 324.018 33.376 324.282 33.376C324.551 33.376 324.807 33.376 325.05 33.376C325.292 33.376 325.5 33.376 325.674 33.376C325.847 33.376 325.962 33.376 326.018 33.376C326.092 33.376 326.185 33.3738 326.298 33.3695C326.41 33.3652 326.506 33.3587 326.584 33.35V34.013C326.54 34.0087 326.484 34.0043 326.415 34C326.35 34 326.282 34 326.213 34C326.144 34 326.083 34 326.031 34C325.975 34 325.856 34 325.674 34C325.496 34 325.284 34 325.037 34C324.794 34 324.538 34 324.27 34C324.001 34 323.743 34 323.496 34C323.253 34 323.045 34 322.872 34C322.699 34 322.584 34 322.528 34C322.424 34 322.328 34 322.242 34C322.155 34.0043 322.055 34.0087 321.943 34.013V33.3435ZM332.518 28.8845C332.574 28.9582 332.633 29.0492 332.694 29.1575C332.759 29.2658 332.821 29.3742 332.882 29.4825C332.943 29.5908 332.995 29.6883 333.038 29.775L332.616 29.957C332.551 29.827 332.468 29.6753 332.369 29.502C332.273 29.3287 332.182 29.1813 332.096 29.06L332.518 28.8845ZM333.253 28.605C333.309 28.6873 333.37 28.7827 333.435 28.891C333.504 28.9993 333.571 29.1077 333.636 29.216C333.701 29.32 333.753 29.411 333.792 29.489L333.37 29.6775C333.3 29.5388 333.216 29.385 333.116 29.216C333.021 29.047 332.928 28.9018 332.837 28.7805L333.253 28.605ZM328.846 32.0175C328.915 31.8398 328.982 31.6513 329.047 31.452C329.116 31.2527 329.179 31.0468 329.236 30.8345C329.292 30.6178 329.34 30.4033 329.379 30.191C329.422 29.9787 329.454 29.775 329.476 29.58L330.211 29.7295C330.198 29.7858 330.182 29.8487 330.165 29.918C330.148 29.983 330.13 30.048 330.113 30.113C330.1 30.178 330.087 30.2343 330.074 30.282C330.052 30.386 330.022 30.5203 329.983 30.685C329.948 30.8453 329.905 31.0187 329.853 31.205C329.801 31.387 329.745 31.5733 329.684 31.764C329.628 31.9503 329.567 32.1237 329.502 32.284C329.424 32.4877 329.333 32.6978 329.229 32.9145C329.125 33.1268 329.015 33.3348 328.898 33.5385C328.781 33.7422 328.664 33.9285 328.547 34.0975L327.838 33.7985C328.042 33.5298 328.232 33.2352 328.41 32.9145C328.588 32.5895 328.733 32.2905 328.846 32.0175ZM332.05 31.816C331.985 31.647 331.911 31.4672 331.829 31.2765C331.751 31.0858 331.669 30.8952 331.582 30.7045C331.5 30.5095 331.417 30.3275 331.335 30.1585C331.253 29.9895 331.177 29.8443 331.108 29.723L331.777 29.502C331.842 29.6233 331.916 29.7685 331.998 29.9375C332.085 30.1065 332.171 30.2885 332.258 30.4835C332.345 30.6742 332.429 30.8648 332.512 31.0555C332.594 31.2462 332.668 31.4238 332.733 31.5885C332.793 31.7445 332.858 31.92 332.928 32.115C333.001 32.31 333.073 32.5115 333.142 32.7195C333.216 32.9232 333.283 33.1225 333.344 33.3175C333.404 33.5082 333.456 33.6815 333.5 33.8375L332.759 34.078C332.702 33.8397 332.635 33.5905 332.557 33.3305C332.479 33.0705 332.397 32.8105 332.31 32.5505C332.228 32.2905 332.141 32.0457 332.05 31.816ZM337.205 30.204C337.235 30.269 337.274 30.3665 337.322 30.4965C337.369 30.6222 337.419 30.7587 337.471 30.906C337.527 31.049 337.577 31.1855 337.621 31.3155C337.668 31.4455 337.703 31.5452 337.725 31.6145L337.114 31.8355C337.096 31.7575 337.066 31.6557 337.023 31.53C336.979 31.4 336.932 31.2657 336.88 31.127C336.828 30.984 336.776 30.8475 336.724 30.7175C336.676 30.5875 336.633 30.4835 336.594 30.4055L337.205 30.204ZM339.577 30.62C339.547 30.7023 339.521 30.7738 339.499 30.8345C339.482 30.8952 339.467 30.9515 339.454 31.0035C339.367 31.3502 339.25 31.6903 339.103 32.024C338.96 32.3577 338.773 32.6718 338.544 32.9665C338.245 33.3478 337.904 33.6707 337.523 33.935C337.146 34.195 336.773 34.3965 336.405 34.5395L335.866 33.987C336.108 33.9177 336.36 33.818 336.62 33.688C336.88 33.558 337.129 33.402 337.367 33.22C337.61 33.038 337.82 32.8365 337.998 32.6155C338.145 32.4292 338.279 32.2168 338.401 31.9785C338.522 31.7358 338.622 31.4802 338.7 31.2115C338.778 30.9385 338.832 30.6655 338.862 30.3925L339.577 30.62ZM335.69 30.542C335.729 30.6157 335.775 30.7175 335.827 30.8475C335.883 30.9732 335.939 31.1097 335.996 31.257C336.056 31.4043 336.113 31.5452 336.165 31.6795C336.217 31.8138 336.258 31.9265 336.288 32.0175L335.67 32.245C335.645 32.1627 335.606 32.0522 335.554 31.9135C335.502 31.7705 335.445 31.6232 335.385 31.4715C335.328 31.3198 335.272 31.1812 335.216 31.0555C335.164 30.9255 335.118 30.828 335.079 30.763L335.69 30.542ZM346.246 29.944C346.211 29.996 346.179 30.0588 346.149 30.1325C346.118 30.2062 346.09 30.2755 346.064 30.3405C346.008 30.5485 345.928 30.7782 345.824 31.0295C345.72 31.2808 345.592 31.5387 345.44 31.803C345.288 32.063 345.115 32.3122 344.92 32.5505C344.621 32.9188 344.264 33.2525 343.848 33.5515C343.436 33.8505 342.927 34.117 342.32 34.351L341.716 33.8115C342.136 33.6858 342.504 33.5407 342.821 33.376C343.141 33.207 343.423 33.0228 343.666 32.8235C343.913 32.6242 344.131 32.4118 344.322 32.1865C344.487 32.0002 344.634 31.7943 344.764 31.569C344.898 31.3393 345.013 31.1118 345.109 30.8865C345.208 30.6568 345.275 30.451 345.31 30.269H342.996L343.243 29.684C343.299 29.684 343.395 29.684 343.529 29.684C343.668 29.684 343.824 29.684 343.997 29.684C344.175 29.684 344.348 29.684 344.517 29.684C344.69 29.684 344.84 29.684 344.966 29.684C345.096 29.684 345.182 29.684 345.226 29.684C345.317 29.684 345.405 29.6797 345.492 29.671C345.579 29.658 345.652 29.6407 345.713 29.619L346.246 29.944ZM344.095 28.943C344.03 29.0383 343.965 29.1423 343.9 29.255C343.839 29.3677 343.791 29.4565 343.757 29.5215C343.622 29.7685 343.451 30.0307 343.243 30.308C343.039 30.5853 342.803 30.8583 342.535 31.127C342.266 31.3913 341.965 31.6362 341.631 31.8615L341.059 31.4325C341.341 31.2635 341.592 31.0837 341.813 30.893C342.034 30.7023 342.225 30.5117 342.385 30.321C342.55 30.126 342.691 29.9397 342.808 29.762C342.925 29.5843 343.022 29.424 343.1 29.281C343.139 29.216 343.182 29.1272 343.23 29.0145C343.278 28.8975 343.315 28.7913 343.341 28.696L344.095 28.943ZM312.602 37.437C312.836 37.463 313.1 37.4825 313.395 37.4955C313.694 37.5085 314.01 37.515 314.344 37.515C314.552 37.515 314.764 37.5107 314.981 37.502C315.198 37.4933 315.406 37.4825 315.605 37.4695C315.809 37.4565 315.991 37.4413 316.151 37.424V38.1C316.004 38.113 315.828 38.126 315.625 38.139C315.421 38.152 315.206 38.1628 314.981 38.1715C314.76 38.1758 314.548 38.178 314.344 38.178C314.015 38.178 313.707 38.1715 313.421 38.1585C313.135 38.1455 312.862 38.1282 312.602 38.1065V37.437ZM312.986 40.115C312.947 40.2363 312.916 40.3555 312.895 40.4725C312.873 40.5852 312.862 40.7 312.862 40.817C312.862 41.0467 312.979 41.2352 313.213 41.3825C313.447 41.5255 313.815 41.597 314.318 41.597C314.613 41.597 314.897 41.5883 315.17 41.571C315.447 41.5493 315.705 41.519 315.943 41.48C316.181 41.441 316.387 41.3955 316.561 41.3435L316.567 42.0585C316.398 42.0975 316.199 42.1343 315.969 42.169C315.739 42.208 315.486 42.2362 315.209 42.2535C314.936 42.2752 314.645 42.286 314.338 42.286C313.87 42.286 313.475 42.234 313.155 42.13C312.838 42.0303 312.598 41.883 312.433 41.688C312.268 41.493 312.186 41.2525 312.186 40.9665C312.186 40.7888 312.199 40.6242 312.225 40.4725C312.255 40.3165 312.286 40.1757 312.316 40.05L312.986 40.115ZM316.327 36.735C316.383 36.8087 316.444 36.8997 316.509 37.008C316.574 37.1163 316.636 37.2247 316.697 37.333C316.758 37.4413 316.81 37.5388 316.853 37.6255L316.424 37.814C316.359 37.6797 316.279 37.5258 316.184 37.3525C316.088 37.1792 315.995 37.0318 315.904 36.9105L316.327 36.735ZM317.068 36.462C317.124 36.54 317.187 36.6332 317.256 36.7415C317.325 36.8498 317.39 36.9582 317.451 37.0665C317.516 37.1748 317.568 37.268 317.607 37.346L317.185 37.5345C317.115 37.3915 317.031 37.2377 316.931 37.073C316.836 36.904 316.743 36.7588 316.652 36.6375L317.068 36.462ZM321.032 38.8475V39.3285H323.262V38.8475H321.032ZM321.032 37.9635V38.438H323.262V37.9635H321.032ZM320.5 37.5215H323.821V39.7705H320.5V37.5215ZM320.766 40.1215H323.574V42.546H322.989V40.5895H321.331V42.546H320.766V40.1215ZM323.015 36.5075L323.626 36.6895C323.531 36.8585 323.435 37.0253 323.34 37.19C323.245 37.3503 323.154 37.489 323.067 37.606L322.56 37.4305C322.638 37.3048 322.72 37.1553 322.807 36.982C322.898 36.8043 322.967 36.6462 323.015 36.5075ZM320.74 36.722L321.254 36.5335C321.345 36.6678 321.433 36.8195 321.52 36.9885C321.611 37.1532 321.674 37.294 321.709 37.411L321.169 37.6385C321.134 37.5128 321.076 37.3655 320.994 37.1965C320.911 37.0232 320.827 36.865 320.74 36.722ZM321.098 41.0055H323.243V41.454H321.098V41.0055ZM321.098 41.883H323.243V42.3445H321.098V41.883ZM321.852 37.7295H322.398V39.517H321.852V37.7295ZM318.589 40.999L319.128 41.1225C319.05 41.3955 318.944 41.6598 318.81 41.9155C318.675 42.1712 318.534 42.3857 318.387 42.559C318.352 42.5287 318.305 42.4918 318.244 42.4485C318.188 42.4095 318.129 42.3705 318.069 42.3315C318.012 42.2968 317.962 42.2665 317.919 42.2405C318.066 42.0845 318.199 41.896 318.316 41.675C318.433 41.454 318.524 41.2287 318.589 40.999ZM319.382 41.194L319.837 40.9925C319.945 41.1528 320.051 41.3305 320.155 41.5255C320.263 41.7162 320.341 41.8808 320.389 42.0195L319.908 42.2535C319.878 42.1582 319.834 42.0498 319.778 41.9285C319.722 41.8028 319.659 41.6772 319.59 41.5515C319.52 41.4215 319.451 41.3023 319.382 41.194ZM318.797 38.4575V39.192H319.629V38.4575H318.797ZM318.797 39.66V40.4075H319.629V39.66H318.797ZM318.797 37.255V37.9895H319.629V37.255H318.797ZM318.27 36.7545H320.175V40.9015H318.27V36.7545ZM324.985 39.452H330.035V40.0045H324.985V39.452ZM324.66 41.8115H330.347V42.364H324.66V41.8115ZM325.205 40.6285H329.814V41.155H325.205V40.6285ZM326.025 37.3135V38.4185H328.956V37.3135H326.025ZM325.414 36.7675H329.593V38.971H325.414V36.7675ZM327.149 39.6925H327.793V42.0975H327.149V39.6925Z" fill="white"/>
</svg>
