<svg width="35" height="54" viewBox="0 0 35 54" fill="none" xmlns="http://www.w3.org/2000/svg">
<path d="M24.3576 2.92871H22.5117V4.5098H24.3576V2.92871Z" fill="#2FB3BC"/>
<path d="M28.9026 2.92871H27.0566V4.5098H28.9026V2.92871Z" fill="#2FB3BC"/>
<path d="M3.143 50.739H3.822V53.028H3.143V50.739ZM1.204 48.807H5.838V49.381H1.204V48.807ZM0.406 52.804H6.622V53.392H0.406V52.804ZM1.036 51.495H6.034V52.069H1.036V51.495ZM2.485 49.129L3.178 49.304C3.08467 49.4627 2.98667 49.626 2.884 49.794C2.78133 49.962 2.67867 50.1207 2.576 50.27C2.47333 50.4193 2.37533 50.5523 2.282 50.669L1.75 50.494C1.834 50.3727 1.92033 50.2327 2.009 50.074C2.10233 49.9107 2.191 49.7473 2.275 49.584C2.359 49.416 2.429 49.2643 2.485 49.129ZM0.917 50.256C1.30433 50.2513 1.75467 50.2443 2.268 50.235C2.78133 50.2257 3.325 50.214 3.899 50.2C4.473 50.186 5.04233 50.172 5.607 50.158L5.579 50.711C5.02367 50.7297 4.46367 50.7507 3.899 50.774C3.339 50.7927 2.80467 50.809 2.296 50.823C1.792 50.837 1.34167 50.8487 0.945 50.858L0.917 50.256ZM4.256 49.745L4.739 49.416C4.92567 49.542 5.11933 49.6843 5.32 49.843C5.52533 50.0017 5.71667 50.1627 5.894 50.326C6.076 50.4847 6.22067 50.6317 6.328 50.767L5.817 51.131C5.71433 51.0003 5.57667 50.8533 5.404 50.69C5.23133 50.522 5.04467 50.3563 4.844 50.193C4.64333 50.025 4.44733 49.8757 4.256 49.745ZM3.143 47.092H3.822V48.002H3.143V47.092ZM0.462 47.589H6.559V48.961H5.887V48.191H1.106V48.961H0.462V47.589ZM10.115 50.053L10.619 49.689C10.7823 49.8383 10.9573 49.9993 11.144 50.172C11.3353 50.3447 11.5197 50.5197 11.697 50.697C11.879 50.8743 12.047 51.047 12.201 51.215C12.3597 51.3783 12.4927 51.5253 12.6 51.656L12.054 52.09C11.956 51.9547 11.83 51.803 11.676 51.635C11.5267 51.4623 11.3633 51.285 11.186 51.103C11.0133 50.9163 10.8337 50.7343 10.647 50.557C10.4603 50.375 10.283 50.207 10.115 50.053ZM10.164 47.092H10.85V48.597C10.85 48.8257 10.836 49.0637 10.808 49.311C10.78 49.5583 10.7287 49.8103 10.654 50.067C10.5793 50.3237 10.4673 50.578 10.318 50.83C10.1733 51.0773 9.98433 51.3177 9.751 51.551C9.51767 51.7843 9.23067 52.0013 8.89 52.202C8.862 52.1553 8.82 52.1017 8.764 52.041C8.708 51.9757 8.64967 51.9127 8.589 51.852C8.52833 51.7913 8.47 51.7423 8.414 51.705C8.74533 51.5277 9.01833 51.3387 9.233 51.138C9.44767 50.9327 9.618 50.7227 9.744 50.508C9.87 50.2887 9.96333 50.0693 10.024 49.85C10.0847 49.626 10.122 49.409 10.136 49.199C10.1547 48.9843 10.164 48.7813 10.164 48.59V47.092ZM7.658 48.275H12.999V48.926H8.323V53.602H7.658V48.275ZM12.705 48.275H13.356V52.783C13.356 52.9743 13.3303 53.1237 13.279 53.231C13.2323 53.3383 13.1413 53.42 13.006 53.476C12.8753 53.5273 12.698 53.5577 12.474 53.567C12.2547 53.581 11.9887 53.588 11.676 53.588C11.6667 53.5273 11.6503 53.455 11.627 53.371C11.6037 53.2917 11.5757 53.2123 11.543 53.133C11.515 53.0537 11.4847 52.9837 11.452 52.923C11.606 52.9277 11.7553 52.9323 11.9 52.937C12.0493 52.9417 12.18 52.944 12.292 52.944C12.404 52.9393 12.4833 52.937 12.53 52.937C12.5953 52.9323 12.6397 52.9183 12.663 52.895C12.691 52.8717 12.705 52.8297 12.705 52.769V48.275ZM16.177 49.969H20.748V50.606H16.177V49.969ZM17.017 48.205H20.461V48.835H17.017V48.205ZM18.165 47.092H18.823V50.305H18.165V47.092ZM17.003 47.19L17.668 47.316C17.6073 47.638 17.528 47.9577 17.43 48.275C17.3367 48.5877 17.2293 48.8793 17.108 49.15C16.9867 49.416 16.8537 49.6517 16.709 49.857C16.667 49.8197 16.611 49.78 16.541 49.738C16.471 49.6913 16.3987 49.647 16.324 49.605C16.2493 49.5583 16.184 49.521 16.128 49.493C16.3427 49.2223 16.5223 48.8817 16.667 48.471C16.8163 48.0603 16.9283 47.6333 17.003 47.19ZM18.774 50.375H19.418V52.671C19.418 52.7737 19.4297 52.8413 19.453 52.874C19.4763 52.902 19.5253 52.916 19.6 52.916C19.6187 52.916 19.649 52.916 19.691 52.916C19.733 52.916 19.7773 52.916 19.824 52.916C19.8753 52.916 19.9243 52.916 19.971 52.916C20.0177 52.916 20.0503 52.916 20.069 52.916C20.125 52.916 20.167 52.8927 20.195 52.846C20.223 52.7947 20.2417 52.6967 20.251 52.552C20.265 52.4027 20.2743 52.181 20.279 51.887C20.3257 51.9197 20.3817 51.9547 20.447 51.992C20.517 52.0247 20.5893 52.055 20.664 52.083C20.7387 52.1063 20.804 52.1273 20.86 52.146C20.8413 52.5007 20.8063 52.7783 20.755 52.979C20.7083 53.175 20.636 53.3103 20.538 53.385C20.44 53.4643 20.3047 53.504 20.132 53.504C20.104 53.504 20.0597 53.504 19.999 53.504C19.9383 53.504 19.8753 53.504 19.81 53.504C19.7447 53.504 19.6817 53.504 19.621 53.504C19.565 53.504 19.523 53.504 19.495 53.504C19.299 53.504 19.1497 53.4783 19.047 53.427C18.9443 53.3803 18.872 53.2963 18.83 53.175C18.7927 53.0537 18.774 52.888 18.774 52.678V50.375ZM17.346 50.48H18.011C17.9877 50.8533 17.948 51.1987 17.892 51.516C17.836 51.8287 17.745 52.1157 17.619 52.377C17.4977 52.6337 17.325 52.8623 17.101 53.063C16.8817 53.2683 16.5923 53.4433 16.233 53.588C16.2097 53.5367 16.1747 53.476 16.128 53.406C16.086 53.3407 16.037 53.2753 15.981 53.21C15.9297 53.1493 15.8783 53.1003 15.827 53.063C16.149 52.9463 16.4057 52.804 16.597 52.636C16.7883 52.468 16.9353 52.2767 17.038 52.062C17.1407 51.8473 17.213 51.6093 17.255 51.348C17.297 51.082 17.3273 50.7927 17.346 50.48ZM14.567 47.617L14.959 47.169C15.1037 47.2343 15.253 47.3137 15.407 47.407C15.561 47.5003 15.7057 47.596 15.841 47.694C15.9763 47.792 16.086 47.8853 16.17 47.974L15.75 48.478C15.6707 48.3893 15.5657 48.2937 15.435 48.191C15.3043 48.0883 15.162 47.9857 15.008 47.883C14.854 47.7803 14.707 47.6917 14.567 47.617ZM14.238 49.507L14.602 49.031C14.7467 49.0963 14.8983 49.1733 15.057 49.262C15.2203 49.346 15.3743 49.4347 15.519 49.528C15.6637 49.6213 15.7803 49.7077 15.869 49.787L15.484 50.319C15.3953 50.235 15.281 50.144 15.141 50.046C15.001 49.948 14.8517 49.8523 14.693 49.759C14.539 49.6657 14.3873 49.5817 14.238 49.507ZM14.434 53.105C14.5413 52.923 14.6603 52.7083 14.791 52.461C14.9217 52.209 15.0547 51.9453 15.19 51.67C15.3253 51.39 15.449 51.117 15.561 50.851L16.051 51.229C15.9483 51.481 15.8387 51.74 15.722 52.006C15.6053 52.2673 15.4863 52.5287 15.365 52.79C15.2483 53.0467 15.1317 53.287 15.015 53.511L14.434 53.105ZM23.415 48.212H24.899V48.667H23.415V48.212ZM23.303 47.365H25.228V49.535H23.289V49.066H24.612V47.841H23.303V47.365ZM25.62 48.212H27.125V48.667H25.62V48.212ZM23.996 51.11H27.314V51.572H23.996V51.11ZM23.996 51.957H27.314V52.426H23.996V51.957ZM23.947 52.832H27.699V53.371H23.947V52.832ZM25.501 47.365H27.475V49.535H25.494V49.066H26.852V47.841H25.501V47.365ZM24.066 49.465L24.696 49.661C24.5887 49.8803 24.4603 50.1067 24.311 50.34C24.1617 50.5733 24.0007 50.795 23.828 51.005C23.6553 51.2103 23.478 51.3947 23.296 51.558C23.2353 51.4973 23.1607 51.4273 23.072 51.348C22.9833 51.2687 22.904 51.2057 22.834 51.159C23.002 51.0143 23.1653 50.8463 23.324 50.655C23.4827 50.4637 23.6273 50.2653 23.758 50.06C23.8887 49.8547 23.9913 49.6563 24.066 49.465ZM24.234 50.193H27.524V50.711H24.234V53.595H23.646V50.599L24.031 50.193H24.234ZM25.641 49.528L26.306 49.71C26.208 49.878 26.11 50.046 26.012 50.214C25.914 50.3773 25.8253 50.5173 25.746 50.634L25.228 50.473C25.3027 50.3423 25.3797 50.1883 25.459 50.011C25.5383 49.829 25.599 49.668 25.641 49.528ZM25.284 50.536H25.9V53.021H25.284V50.536ZM21.588 47.624L21.959 47.134C22.0943 47.19 22.2367 47.2577 22.386 47.337C22.5353 47.4163 22.6777 47.498 22.813 47.582C22.9483 47.666 23.058 47.7477 23.142 47.827L22.75 48.373C22.6707 48.2937 22.5657 48.2097 22.435 48.121C22.309 48.0277 22.1713 47.9367 22.022 47.848C21.8727 47.7593 21.728 47.6847 21.588 47.624ZM21.231 49.521L21.595 49.024C21.735 49.0707 21.882 49.1313 22.036 49.206C22.19 49.276 22.3347 49.353 22.47 49.437C22.6053 49.5163 22.7173 49.5933 22.806 49.668L22.428 50.214C22.344 50.1393 22.2343 50.06 22.099 49.976C21.9637 49.892 21.8213 49.8103 21.672 49.731C21.5227 49.6517 21.3757 49.5817 21.231 49.521ZM21.399 53.112C21.5063 52.93 21.623 52.7153 21.749 52.468C21.875 52.2207 22.001 51.9593 22.127 51.684C22.2577 51.4087 22.3767 51.138 22.484 50.872L23.009 51.271C22.911 51.5137 22.8037 51.7657 22.687 52.027C22.575 52.2883 22.4607 52.545 22.344 52.797C22.2273 53.0443 22.1107 53.28 21.994 53.504L21.399 53.112ZM32.592 47.834V48.366H33.607V47.834H32.592ZM30.982 47.834V48.366H31.983V47.834H30.982ZM29.407 47.834V48.366H30.38V47.834H29.407ZM28.777 47.379H34.272V48.828H28.777V47.379ZM28.455 49.164H34.552V49.668H28.455V49.164ZM29.106 52.804H34.72V53.322H29.106V52.804ZM28.826 50.116H29.498V53.595H28.826V50.116ZM30.723 51.068V51.397H33.362V51.068H30.723ZM30.723 51.761V52.09H33.362V51.761H30.723ZM30.723 50.396V50.711H33.362V50.396H30.723ZM30.107 50.018H34.006V52.461H30.107V50.018ZM31.255 48.709L31.92 48.751C31.892 48.9937 31.8547 49.2527 31.808 49.528C31.766 49.7987 31.724 50.0297 31.682 50.221H31.045C31.087 50.0203 31.1267 49.78 31.164 49.5C31.2013 49.2153 31.2317 48.9517 31.255 48.709Z" fill="#2FB3BC"/>
<path d="M2 0V37.2227H32.7008V0H2ZM31.1197 1.58109V6.45479H3.58109V1.58109H31.1197ZM3.58109 35.6377V8.03587H31.1197V35.6377H3.58109Z" fill="#2FB3BC"/>
<path d="M17.6536 10.6719C17.6022 10.6719 17.5547 10.6719 17.5034 10.6719C17.452 10.6719 17.4045 10.6719 17.3532 10.6719C12.1474 10.6719 7.91406 14.9052 7.91406 20.111C7.91406 25.3167 12.1474 29.55 17.3532 29.55C17.4045 29.55 17.452 29.55 17.5034 29.55C17.5547 29.55 17.6022 29.55 17.6536 29.55C22.8593 29.55 27.0926 25.3167 27.0926 20.111C27.0926 14.9052 22.8593 10.6719 17.6536 10.6719ZM9.79556 20.107C9.79556 15.8262 13.2384 12.3399 17.4994 12.2569C21.7604 12.3399 25.2032 15.8262 25.2032 20.107C25.2032 24.3878 21.7604 27.8741 17.4994 27.9571C13.2384 27.8741 9.79556 24.3878 9.79556 20.107Z" fill="#2FB3BC"/>
</svg>
