<svg width="48" height="16" viewBox="0 0 48 16" fill="none" xmlns="http://www.w3.org/2000/svg">
<rect x="0.5" y="0.5" width="47" height="15" fill="white" stroke="#FF5B5B"/>
<path d="M6.75 5.71V6.2H11.22V5.71H6.75ZM6.75 4.56V5.04H11.22V4.56H6.75ZM5.72 3.85H12.3V6.91H5.72V3.85ZM4.54 7.33H13.44V8.19H4.54V7.33ZM9.08 8.63H12.43V9.46H9.08V8.63ZM6.01 8.67H8.34V9.42H6.01V8.67ZM6.01 9.93H8.34V10.68H6.01V9.93ZM10.26 9.38C10.5467 10.02 10.9833 10.5733 11.57 11.04C12.1567 11.5 12.8567 11.8267 13.67 12.02C13.5967 12.0867 13.52 12.17 13.44 12.27C13.36 12.37 13.2833 12.47 13.21 12.57C13.1367 12.6767 13.0767 12.7733 13.03 12.86C12.1633 12.6 11.4267 12.1967 10.82 11.65C10.2133 11.0967 9.74 10.4233 9.4 9.63L10.26 9.38ZM12.12 8.63H12.31L12.49 8.6L13.15 8.85C12.9433 9.54333 12.65 10.15 12.27 10.67C11.8967 11.1833 11.4567 11.62 10.95 11.98C10.4433 12.34 9.89333 12.63 9.3 12.85C9.24667 12.7167 9.16 12.5667 9.04 12.4C8.92667 12.24 8.82 12.11 8.72 12.01C9.11333 11.89 9.48667 11.73 9.84 11.53C10.2 11.3233 10.53 11.0833 10.83 10.81C11.13 10.5367 11.39 10.23 11.61 9.89C11.83 9.55 12 9.18333 12.12 8.79V8.63ZM4.45 11.4C4.78333 11.38 5.16 11.3533 5.58 11.32C6 11.2867 6.44333 11.25 6.91 11.21C7.37667 11.1633 7.84333 11.12 8.31 11.08L8.32 11.96C7.64667 12.0267 6.97667 12.0933 6.31 12.16C5.65 12.2267 5.05667 12.2833 4.53 12.33L4.45 11.4ZM7.78 7.61H8.81V12.87H7.78V7.61ZM5.35 7.63H6.33V11.71H5.35V7.63ZM18.41 4.03C18.37 4.19667 18.3367 4.34667 18.31 4.48C18.29 4.61333 18.27 4.74333 18.25 4.87C18.2233 5.02333 18.19 5.23333 18.15 5.5C18.1167 5.76667 18.0767 6.06667 18.03 6.4C17.99 6.73333 17.9467 7.07667 17.9 7.43C17.86 7.78333 17.82 8.13 17.78 8.47C17.74 8.81 17.71 9.12 17.69 9.4C17.67 9.67333 17.66 9.89667 17.66 10.07C17.66 10.5033 17.7867 10.8367 18.04 11.07C18.3 11.3033 18.6867 11.42 19.2 11.42C19.68 11.42 20.0867 11.3567 20.42 11.23C20.7533 11.0967 21.0067 10.9133 21.18 10.68C21.36 10.4467 21.45 10.1833 21.45 9.89C21.45 9.55667 21.36 9.22333 21.18 8.89C21.0067 8.55667 20.7467 8.23667 20.4 7.93L21.66 7.66C22 8.06667 22.25 8.45667 22.41 8.83C22.57 9.20333 22.65 9.60333 22.65 10.03C22.65 10.53 22.5067 10.9733 22.22 11.36C21.9333 11.74 21.53 12.0367 21.01 12.25C20.4967 12.4633 19.8833 12.57 19.17 12.57C18.67 12.57 18.22 12.49 17.82 12.33C17.4267 12.1767 17.1167 11.93 16.89 11.59C16.6633 11.25 16.55 10.8033 16.55 10.25C16.55 10.0433 16.5667 9.76667 16.6 9.42C16.6333 9.07333 16.6733 8.69333 16.72 8.28C16.7733 7.86667 16.8267 7.44667 16.88 7.02C16.9333 6.58667 16.98 6.17667 17.02 5.79C17.0667 5.40333 17.1033 5.07333 17.13 4.8C17.1433 4.58 17.15 4.41333 17.15 4.3C17.1567 4.18 17.1533 4.06667 17.14 3.96L18.41 4.03ZM14.94 5.29C15.2333 5.38333 15.5533 5.46333 15.9 5.53C16.2533 5.59 16.6133 5.63667 16.98 5.67C17.3467 5.69667 17.69 5.71 18.01 5.71C18.4033 5.71 18.77 5.7 19.11 5.68C19.45 5.65333 19.75 5.61667 20.01 5.57L19.98 6.64C19.6733 6.66667 19.3667 6.69 19.06 6.71C18.76 6.73 18.4 6.74 17.98 6.74C17.66 6.74 17.3167 6.72333 16.95 6.69C16.59 6.65667 16.2333 6.61 15.88 6.55C15.5267 6.48333 15.1967 6.41 14.89 6.33L14.94 5.29ZM14.72 7.78C15.0667 7.89333 15.4233 7.98333 15.79 8.05C16.1567 8.11667 16.52 8.16333 16.88 8.19C17.24 8.21 17.5833 8.22 17.91 8.22C18.23 8.22 18.5633 8.21 18.91 8.19C19.2633 8.17 19.6067 8.14 19.94 8.1L19.91 9.17C19.6167 9.20333 19.32 9.22667 19.02 9.24C18.72 9.25333 18.41 9.26 18.09 9.26C17.4567 9.26 16.84 9.22667 16.24 9.16C15.64 9.08667 15.1133 8.98667 14.66 8.86L14.72 7.78ZM24.2 4.39H32.95V5.31H24.2V4.39ZM27.97 3.52H29.07V4.85H27.97V3.52ZM24.61 8.4H31.96V9.29H25.66V12.87H24.61V8.4ZM31.55 8.4H32.62V11.71C32.62 11.9633 32.5867 12.1667 32.52 12.32C32.46 12.48 32.3367 12.6 32.15 12.68C31.97 12.76 31.7433 12.8067 31.47 12.82C31.2033 12.84 30.88 12.85 30.5 12.85C30.48 12.7033 30.4367 12.5333 30.37 12.34C30.3033 12.1467 30.2367 11.9833 30.17 11.85C30.4233 11.8567 30.6633 11.86 30.89 11.86C31.1167 11.86 31.27 11.8567 31.35 11.85C31.4233 11.85 31.4733 11.84 31.5 11.82C31.5333 11.7933 31.55 11.75 31.55 11.69V8.4ZM26.66 9.8H27.59V12.48H26.66V9.8ZM27.14 9.8H30.49V12.01H27.14V11.28H29.54V10.53H27.14V9.8ZM26.87 6.48V7.19H30.23V6.48H26.87ZM25.85 5.75H31.31V7.92H25.85V5.75ZM35.86 4.9C35.84 5.00667 35.8233 5.13333 35.81 5.28C35.7967 5.42 35.7833 5.56 35.77 5.7C35.7633 5.84 35.7567 5.95667 35.75 6.05C35.75 6.26333 35.75 6.49333 35.75 6.74C35.7567 6.98 35.7633 7.22667 35.77 7.48C35.7833 7.73333 35.8 7.98667 35.82 8.24C35.8667 8.74 35.94 9.18 36.04 9.56C36.14 9.94 36.2633 10.2367 36.41 10.45C36.5633 10.6633 36.75 10.77 36.97 10.77C37.09 10.77 37.2033 10.71 37.31 10.59C37.4233 10.4633 37.5267 10.3 37.62 10.1C37.72 9.89333 37.8067 9.67667 37.88 9.45C37.96 9.21667 38.0267 8.99333 38.08 8.78L38.98 9.85C38.7667 10.4233 38.55 10.88 38.33 11.22C38.1167 11.56 37.8967 11.8067 37.67 11.96C37.4433 12.1067 37.2033 12.18 36.95 12.18C36.5967 12.18 36.2633 12.0633 35.95 11.83C35.6433 11.59 35.3767 11.2067 35.15 10.68C34.9233 10.1467 34.7633 9.43667 34.67 8.55C34.6367 8.25 34.61 7.93 34.59 7.59C34.5767 7.25 34.5667 6.92667 34.56 6.62C34.56 6.31333 34.56 6.06 34.56 5.86C34.56 5.72667 34.5533 5.56667 34.54 5.38C34.5333 5.19333 34.5133 5.02667 34.48 4.88L35.86 4.9ZM40.92 5.14C41.1067 5.36667 41.2867 5.64 41.46 5.96C41.6333 6.28 41.79 6.62333 41.93 6.99C42.0767 7.35667 42.2033 7.73333 42.31 8.12C42.4233 8.5 42.5133 8.87333 42.58 9.24C42.6533 9.60667 42.7033 9.94667 42.73 10.26L41.56 10.72C41.52 10.3 41.4533 9.85333 41.36 9.38C41.2733 8.9 41.1567 8.42333 41.01 7.95C40.8633 7.47667 40.69 7.03 40.49 6.61C40.29 6.18333 40.0567 5.81667 39.79 5.51L40.92 5.14Z" fill="#FF5B5B"/>
</svg>
