<svg width="106" height="18" viewBox="0 0 106 18" fill="none" xmlns="http://www.w3.org/2000/svg">
<path d="M91.0438 17.4427L89.0893 15.0973C93.7801 13.2545 94.9528 10.5554 94.8783 5.58538L97.9683 5.6226C97.9497 6.2741 97.9497 6.75807 97.8194 8.02385C100.165 6.9256 101.021 5.51092 101.505 4.33822H88.959V1.49023H105.302C104.707 6.08796 102.827 8.47059 99.7367 10.2948L97.8008 8.24722C97.3354 11.7839 96.1813 14.9111 91.0438 17.4427Z" fill="white"/>
<path d="M83.0015 9.5496V17.5351H80.2466V11.3738C77.8268 12.7885 76.0584 13.3655 75.1277 13.6634L73.6758 11.3552C75.5372 10.7409 77.4731 10.0708 79.8371 8.52582C81.8102 7.24143 83.6158 5.69645 85.0491 3.81641L87.32 5.58476C86.7244 6.23626 85.3842 7.74402 83.0015 9.5496Z" fill="white"/>
<path d="M58.9327 1.60047H69.5987C69.7104 2.04721 69.9151 2.99654 69.9896 3.74111L70.9575 3.62943V4.28093H58.9327V1.60047ZM72.1675 2.9407L70.548 3.2013C70.4177 2.04721 70.306 1.67493 69.9524 0.427771L71.4601 0.223014C71.9255 1.54463 72.0744 2.27058 72.1675 2.9407ZM57.6855 6.29127H73.4705V9.06479H67.5883L67.5697 9.47431C67.4953 11.2054 66.8996 13.495 65.5408 14.8724C63.9027 16.5105 61.3898 17.1434 59.547 17.5157L58.2998 14.798C60.0682 14.5374 61.8738 14.1651 63.0092 13.253C64.3495 12.1734 64.4798 9.88382 64.4984 9.47431L64.517 9.06479H57.6855V6.29127ZM74.5315 2.92208L72.9492 3.16407C72.8189 2.19613 72.5583 1.2468 72.2419 0.316085L73.7683 0.111328C74.1592 1.07927 74.2336 1.47017 74.5315 2.92208Z" fill="white"/>
<path d="M52.6042 0.892578C53.721 0.892578 54.6517 1.80468 54.6517 2.95876C54.6517 4.09423 53.7396 5.02495 52.6042 5.02495C51.4501 5.02495 50.538 4.09423 50.538 2.95876C50.538 1.80468 51.4873 0.892578 52.6042 0.892578ZM52.6042 2.15835C52.1574 2.15835 51.7851 2.51202 51.7851 2.95876C51.7851 3.40551 52.1388 3.77779 52.6042 3.77779C53.0509 3.77779 53.4046 3.40551 53.4046 2.95876C53.4046 2.51202 53.0323 2.15835 52.6042 2.15835ZM40.4118 12.0798L38.0664 9.34346C38.7737 8.6175 38.9971 8.31967 41.1191 5.71367C42.6641 3.81502 43.6135 2.71678 45.0654 2.71678C46.3498 2.71678 47.448 3.7964 47.8389 4.22453L55.8803 12.9174L53.5721 15.6165L46.1822 7.07252C45.7355 6.56993 45.4749 6.25349 45.084 6.25349C44.6559 6.25349 44.3766 6.60716 44.1533 6.90499C43.539 7.7054 40.9516 11.3538 40.4118 12.0798Z" fill="white"/>
<path d="M32.0178 4.13302L35.2567 4.37501C35.1264 5.95722 34.9961 7.3719 34.81 8.9355C35.8896 9.38225 36.3177 9.62423 36.8389 9.90345L35.9268 13.0679C35.4243 12.77 35.3312 12.7142 34.2888 12.1185C33.2464 16.0834 30.5845 16.9396 28.8348 17.4795L27.0478 15.1341C28.2019 14.8921 30.7707 14.3895 31.5525 10.89C29.4118 10.2385 29.1885 10.164 28.2205 10.0151C27.6063 12.4722 26.4708 16.2509 23.1388 16.2509C21.0727 16.2509 19.7324 14.7618 19.7324 12.6397C19.7324 9.68007 22.3012 7.44636 25.8379 7.24161C26.0054 6.16198 26.1357 4.67284 26.1916 4.09579L20.8679 4.15164V1.32227H29.4863C29.3746 2.27159 28.8534 6.45981 28.7417 7.31606C30.2309 7.46498 31.6456 7.87449 31.8875 7.94895C31.962 6.38535 31.9806 5.41741 32.0178 4.13302ZM25.3539 9.81037C22.7479 10.1082 22.3198 11.8207 22.3198 12.5094C22.3198 12.9934 22.5059 13.4588 23.1202 13.4588C24.4791 13.4588 25.1119 10.8155 25.3539 9.81037Z" fill="white"/>
<path d="M1.61944 18V9.95864C1.1727 10.4612 1.00517 10.6287 0.725957 10.908L0 6.96174C1.58221 5.06308 2.45708 2.51293 2.75491 0.279215L5.49121 0.502586C5.39814 1.28439 5.17477 2.9969 4.35574 5.212V18H1.61944ZM5.58428 3.46225H11.001C10.0331 2.7363 9.34436 2.28956 8.13444 1.60083L10.8893 0C12.062 0.6515 13.4953 1.67528 14.4074 2.40124L12.6205 3.46225H17.6277V6.1241H13.03V8.97208H16.9762V11.6153H13.03V14.8542H17.9628V17.4788H5.15615V14.8542H10.1262V11.6153H6.19855V8.97208H10.1262V6.1241H5.58428V3.46225Z" fill="white"/>
</svg>
