<svg width="95" height="24" viewBox="0 0 95 24" fill="none" xmlns="http://www.w3.org/2000/svg">
<path d="M3 0.5H92C93.3807 0.500001 94.5 1.61929 94.5 3V21C94.5 22.3807 93.3807 23.5 92 23.5H3C1.61929 23.5 0.5 22.3807 0.5 21V3C0.5 1.61929 1.61929 0.5 3 0.5Z" fill="white" stroke="#BBBBBB"/>
<path d="M35.63 13.27H39.09V14.11H35.63V13.27ZM34.39 8.19H40.36V9.04H34.39V8.19ZM34.66 9.45H40.09V10.25H34.66V9.45ZM34.08 10.67H40.68V11.53H34.08V10.67ZM35.64 14.56H39.1V15.4H35.64V14.56ZM34.75 11.92H39.03V12.8H35.86V16.9H34.75V11.92ZM38.86 11.92H40V15.75C40 16.01 39.9667 16.2167 39.9 16.37C39.84 16.5233 39.7167 16.64 39.53 16.72C39.3567 16.8 39.1433 16.85 38.89 16.87C38.6367 16.89 38.3333 16.8967 37.98 16.89C37.96 16.7433 37.9167 16.57 37.85 16.37C37.79 16.1767 37.7267 16.01 37.66 15.87C37.8667 15.8833 38.07 15.89 38.27 15.89C38.4767 15.89 38.6133 15.89 38.68 15.89C38.8 15.89 38.86 15.8367 38.86 15.73V11.92ZM36.75 7.5H37.94V10.96H36.75V7.5ZM32.44 7.5H33.53V16.89H32.44V7.5ZM31.58 9.48L32.42 9.59C32.42 9.86333 32.4 10.17 32.36 10.51C32.3267 10.85 32.2833 11.1867 32.23 11.52C32.1767 11.8533 32.1133 12.15 32.04 12.41L31.17 12.11C31.2433 11.8767 31.3067 11.61 31.36 11.31C31.4133 11.0033 31.46 10.69 31.5 10.37C31.54 10.05 31.5667 9.75333 31.58 9.48ZM33.36 9.18L34.1 8.87C34.2133 9.09667 34.3267 9.34667 34.44 9.62C34.5533 9.88667 34.6367 10.1133 34.69 10.3L33.9 10.68C33.8533 10.4867 33.7767 10.2467 33.67 9.96C33.5633 9.67333 33.46 9.41333 33.36 9.18ZM45.92 11.37H48.97V12.32H45.92V11.37ZM45.32 7.93H49V8.98H46.41V16.89H45.32V7.93ZM48.4 7.93H49.51V9.82C49.51 10.0733 49.4767 10.28 49.41 10.44C49.3433 10.5933 49.21 10.71 49.01 10.79C48.8167 10.87 48.5833 10.92 48.31 10.94C48.0367 10.9533 47.7167 10.96 47.35 10.96C47.3233 10.8 47.2767 10.6233 47.21 10.43C47.15 10.2367 47.0833 10.07 47.01 9.93C47.1767 9.93667 47.34 9.94333 47.5 9.95C47.6667 9.95 47.8133 9.95 47.94 9.95C48.0667 9.94333 48.1533 9.94 48.2 9.94C48.2733 9.93333 48.3233 9.92333 48.35 9.91C48.3833 9.89 48.4 9.85333 48.4 9.8V7.93ZM47.18 12.08C47.3467 12.6333 47.5667 13.16 47.84 13.66C48.1133 14.16 48.44 14.61 48.82 15.01C49.2 15.4033 49.6233 15.72 50.09 15.96C49.9633 16.0667 49.8233 16.2133 49.67 16.4C49.5167 16.5867 49.3967 16.7567 49.31 16.91C48.8167 16.61 48.3767 16.23 47.99 15.77C47.6033 15.3033 47.2667 14.7767 46.98 14.19C46.7 13.5967 46.4633 12.9667 46.27 12.3L47.18 12.08ZM48.63 11.37H48.83L49.03 11.33L49.75 11.59C49.63 12.3433 49.4467 13.0567 49.2 13.73C48.9533 14.4033 48.6433 15.01 48.27 15.55C47.9033 16.0833 47.4667 16.54 46.96 16.92C46.8733 16.78 46.7533 16.6333 46.6 16.48C46.4467 16.3267 46.3033 16.2 46.17 16.1C46.63 15.78 47.0267 15.3867 47.36 14.92C47.7 14.4467 47.9733 13.9267 48.18 13.36C48.3933 12.7933 48.5433 12.2067 48.63 11.6V11.37ZM40.92 8.39H44.77V9.39H40.92V8.39ZM40.86 14.03H44.88V15.04H40.86V14.03ZM40.56 10.07H45.14V11.08H40.56V10.07ZM40.77 12.25H44.99V13.26H40.77V12.25ZM42.35 7.53H43.46V10.45H42.35V7.53ZM42.35 12.67H43.46V16.87H42.35V12.67ZM43.7 10.93L44.7 11.18C44.6 11.4067 44.5067 11.6267 44.42 11.84C44.3333 12.0533 44.25 12.2367 44.17 12.39L43.31 12.16C43.3567 12.04 43.4033 11.91 43.45 11.77C43.5033 11.6233 43.5533 11.4767 43.6 11.33C43.6467 11.1833 43.68 11.05 43.7 10.93ZM41.2 11.18L42.09 10.95C42.1833 11.1367 42.2667 11.3467 42.34 11.58C42.42 11.8067 42.47 12 42.49 12.16L41.56 12.42C41.54 12.2533 41.4933 12.0567 41.42 11.83C41.3533 11.5967 41.28 11.38 41.2 11.18ZM55.43 9.15C55.3633 9.65667 55.2767 10.1967 55.17 10.77C55.0633 11.3433 54.92 11.9233 54.74 12.51C54.5467 13.1833 54.32 13.7633 54.06 14.25C53.8 14.7367 53.5133 15.1133 53.2 15.38C52.8933 15.64 52.5567 15.77 52.19 15.77C51.8233 15.77 51.4833 15.6467 51.17 15.4C50.8633 15.1467 50.6167 14.8 50.43 14.36C50.25 13.92 50.16 13.42 50.16 12.86C50.16 12.28 50.2767 11.7333 50.51 11.22C50.7433 10.7067 51.0667 10.2533 51.48 9.86C51.9 9.46 52.3867 9.14667 52.94 8.92C53.5 8.69333 54.1033 8.58 54.75 8.58C55.37 8.58 55.9267 8.68 56.42 8.88C56.92 9.08 57.3467 9.35667 57.7 9.71C58.0533 10.0633 58.3233 10.4767 58.51 10.95C58.6967 11.4233 58.79 11.9333 58.79 12.48C58.79 13.18 58.6467 13.8067 58.36 14.36C58.0733 14.9133 57.6467 15.37 57.08 15.73C56.52 16.09 55.82 16.3367 54.98 16.47L54.23 15.28C54.4233 15.26 54.5933 15.2367 54.74 15.21C54.8867 15.1833 55.0267 15.1533 55.16 15.12C55.48 15.04 55.7767 14.9267 56.05 14.78C56.33 14.6267 56.5733 14.44 56.78 14.22C56.9867 13.9933 57.1467 13.73 57.26 13.43C57.38 13.13 57.44 12.8 57.44 12.44C57.44 12.0467 57.38 11.6867 57.26 11.36C57.14 11.0333 56.9633 10.75 56.73 10.51C56.4967 10.2633 56.2133 10.0767 55.88 9.95C55.5467 9.81667 55.1633 9.75 54.73 9.75C54.1967 9.75 53.7267 9.84667 53.32 10.04C52.9133 10.2267 52.57 10.47 52.29 10.77C52.01 11.07 51.7967 11.3933 51.65 11.74C51.51 12.0867 51.44 12.4167 51.44 12.73C51.44 13.0633 51.48 13.3433 51.56 13.57C51.64 13.79 51.7367 13.9567 51.85 14.07C51.97 14.1767 52.0967 14.23 52.23 14.23C52.37 14.23 52.5067 14.16 52.64 14.02C52.78 13.8733 52.9167 13.6533 53.05 13.36C53.1833 13.0667 53.3167 12.6967 53.45 12.25C53.6033 11.77 53.7333 11.2567 53.84 10.71C53.9467 10.1633 54.0233 9.63 54.07 9.11L55.43 9.15ZM61.69 10.45V11.07H65.88V10.45H61.69ZM61.69 12.05V12.68H65.88V12.05H61.69ZM61.69 8.86V9.48H65.88V8.86H61.69ZM60.53 7.82H67.1V13.72H60.53V7.82ZM64.24 12.92H65.47V15.31C65.47 15.47 65.4933 15.5733 65.54 15.62C65.5933 15.66 65.7133 15.68 65.9 15.68C65.94 15.68 66.0033 15.68 66.09 15.68C66.1833 15.68 66.2867 15.68 66.4 15.68C66.5133 15.68 66.62 15.68 66.72 15.68C66.82 15.68 66.8967 15.68 66.95 15.68C67.0633 15.68 67.15 15.65 67.21 15.59C67.27 15.53 67.3133 15.4033 67.34 15.21C67.3667 15.0167 67.3867 14.7233 67.4 14.33C67.4867 14.3967 67.5933 14.4633 67.72 14.53C67.8533 14.5967 67.99 14.6533 68.13 14.7C68.2767 14.7467 68.4 14.7867 68.5 14.82C68.46 15.3467 68.39 15.7533 68.29 16.04C68.19 16.3333 68.0433 16.5367 67.85 16.65C67.6567 16.7633 67.3933 16.82 67.06 16.82C67.0067 16.82 66.9333 16.82 66.84 16.82C66.7533 16.82 66.6567 16.82 66.55 16.82C66.4433 16.82 66.3333 16.82 66.22 16.82C66.1133 16.82 66.0167 16.82 65.93 16.82C65.8433 16.82 65.7767 16.82 65.73 16.82C65.3367 16.82 65.03 16.7733 64.81 16.68C64.5967 16.5867 64.4467 16.43 64.36 16.21C64.28 15.99 64.24 15.6933 64.24 15.32V12.92ZM61.8 13.33H63.08C63.04 13.7833 62.9667 14.2 62.86 14.58C62.76 14.9533 62.5933 15.29 62.36 15.59C62.1333 15.89 61.81 16.15 61.39 16.37C60.97 16.5967 60.4233 16.7867 59.75 16.94C59.7167 16.8267 59.66 16.7033 59.58 16.57C59.5067 16.4433 59.4233 16.3133 59.33 16.18C59.2433 16.0533 59.1567 15.95 59.07 15.87C59.65 15.7633 60.1133 15.6333 60.46 15.48C60.8067 15.32 61.07 15.1367 61.25 14.93C61.4367 14.7233 61.5667 14.49 61.64 14.23C61.7133 13.9633 61.7667 13.6633 61.8 13.33ZM68.51 9.11H77.58V10.25H68.51V9.11ZM71.85 11.56H75.68V12.69H71.85V11.56ZM75.23 11.56H76.47C76.47 11.56 76.4667 11.5933 76.46 11.66C76.46 11.72 76.46 11.79 76.46 11.87C76.46 11.95 76.4533 12.02 76.44 12.08C76.38 12.9933 76.3133 13.74 76.24 14.32C76.1667 14.9 76.0833 15.3533 75.99 15.68C75.8967 16 75.7833 16.2333 75.65 16.38C75.4967 16.5467 75.3367 16.66 75.17 16.72C75.0033 16.78 74.8033 16.8233 74.57 16.85C74.3767 16.87 74.1233 16.8767 73.81 16.87C73.4967 16.87 73.1733 16.8633 72.84 16.85C72.8333 16.6767 72.79 16.4767 72.71 16.25C72.63 16.03 72.53 15.8367 72.41 15.67C72.7567 15.7033 73.09 15.7233 73.41 15.73C73.73 15.7367 73.96 15.74 74.1 15.74C74.2133 15.74 74.3067 15.7333 74.38 15.72C74.46 15.7 74.53 15.6633 74.59 15.61C74.6967 15.5233 74.7867 15.3333 74.86 15.04C74.94 14.7467 75.01 14.33 75.07 13.79C75.13 13.25 75.1833 12.5667 75.23 11.74V11.56ZM71.4 9.79H72.74C72.7133 10.3233 72.67 10.8633 72.61 11.41C72.5567 11.95 72.4633 12.4867 72.33 13.02C72.1967 13.5467 72.0033 14.05 71.75 14.53C71.4967 15.01 71.1633 15.4567 70.75 15.87C70.3367 16.2833 69.8133 16.65 69.18 16.97C69.0933 16.8033 68.9667 16.6233 68.8 16.43C68.64 16.2367 68.4833 16.0767 68.33 15.95C68.91 15.6833 69.3833 15.3733 69.75 15.02C70.1233 14.66 70.4167 14.2733 70.63 13.86C70.8433 13.44 71 13.0033 71.1 12.55C71.2067 12.0967 71.2767 11.6367 71.31 11.17C71.35 10.7033 71.38 10.2433 71.4 9.79ZM72.36 7.46H73.61V9.56H72.36V7.46Z" fill="#2FB3BC"/>
<path d="M20.5752 18.0146L16 13.5869V5L20.5752 8.3877V18.0146Z" fill="#2FB3BC"/>
<path d="M20.5752 8.40039L25.0703 5.00977V13.7793L20.5752 18.2744L16.0801 13.7793V5.00977L20.5752 8.40039Z" stroke="#2FB3BC" stroke-linecap="round" stroke-linejoin="round"/>
</svg>
