<svg width="20" height="20" viewBox="0 0 20 20" fill="none" xmlns="http://www.w3.org/2000/svg">
<path d="M17.859 1.42969C18.1377 1.42969 18.409 1.52857 18.6229 1.70803C19.125 2.12946 19.1908 2.88082 18.7694 3.38296L10.7012 12.9981C10.4746 13.268 10.1428 13.4229 9.79002 13.4229C9.51118 13.4229 9.23997 13.324 9.0261 13.1445C8.96973 13.0972 8.91875 13.0454 8.8728 12.99L8.87121 12.9882L8.86765 12.984C8.86482 12.9804 8.862 12.9771 8.85905 12.9734L4.3242 7.4326C3.90534 6.93046 3.97166 6.18107 4.47308 5.76024C4.68694 5.58079 4.95816 5.48215 5.23687 5.48215C5.58929 5.48215 5.92156 5.63704 6.14819 5.90678L6.15175 5.91145L9.80169 10.371L16.9478 1.85481C17.1744 1.58483 17.5063 1.42969 17.859 1.42969Z" fill="#2FB3BC"/>
<path d="M17.3805 17.38H1.90579V1.90561H14.6607L15.6313 0.749028C15.8992 0.42942 16.2282 0.176509 16.5933 0H0V19.2856H19.2864V5.44268L17.3805 7.71396V17.38Z" fill="#2FB3BC"/>
</svg>
