<svg width="56" height="47" viewBox="0 0 56 47" fill="none" xmlns="http://www.w3.org/2000/svg">
<path d="M1.96987 8.88686C2.74581 8.11153 3.81843 7.66699 4.91533 7.66699H50.736C51.8329 7.66699 52.9055 8.11153 53.6814 8.88686C54.4562 9.66292 54.9013 10.7355 54.9013 11.8323V41.7147C54.9013 42.8122 54.4562 43.8847 53.6814 44.6601C52.9055 45.4354 51.8329 45.88 50.736 45.88H4.91533C3.81843 45.88 2.74581 45.4354 1.96987 44.6601C1.19539 43.8847 0.75 42.8122 0.75 41.7147V11.8323C0.75 10.7355 1.19539 9.66292 1.96987 8.88686Z" stroke="#2FB3BC" stroke-width="1.5"/>
<line x1="0.75" y1="26.6475" x2="54.9013" y2="26.6475" stroke="#2FB3BC" stroke-width="1.5"/>
<line x1="13.5645" y1="27.3975" x2="13.5645" y2="45.8798" stroke="#2FB3BC" stroke-width="1.5"/>
<line x1="43.6973" y1="27.3975" x2="43.6973" y2="7.66676" stroke="#2FB3BC" stroke-width="1.5"/>
<path d="M27.8247 1C35.2824 1 41.3284 7.04618 41.3284 14.5036C41.3284 17.7014 40.2107 20.6356 38.3517 22.9498L27.8247 39.1408L17.297 22.9498C15.4382 20.6356 14.3203 17.7014 14.3203 14.5036C14.3203 7.04618 20.3665 1 27.8247 1Z" fill="#2FB3BC" stroke="white" stroke-width="2"/>
<path d="M27.8237 20.445C24.5477 20.445 21.8828 17.7801 21.8828 14.5038C21.8828 11.2276 24.5477 8.56348 27.8237 8.56348C31.0995 8.56348 33.7642 11.2276 33.7642 14.5038C33.7642 17.7801 31.0995 20.445 27.8237 20.445Z" fill="white"/>
</svg>
