<svg width="17" height="17" viewBox="0 0 17 17" fill="none" xmlns="http://www.w3.org/2000/svg">
<rect width="17" height="17" rx="3" fill="#ADACAC"/>
<path d="M9.38 4.28H10.14V11.81C10.14 12.0767 10.1733 12.25 10.24 12.33C10.3133 12.41 10.47 12.45 10.71 12.45C10.77 12.45 10.87 12.45 11.01 12.45C11.1567 12.45 11.32 12.45 11.5 12.45C11.68 12.45 11.8467 12.45 12 12.45C12.1533 12.45 12.2667 12.45 12.34 12.45C12.5 12.45 12.62 12.3967 12.7 12.29C12.78 12.1833 12.8367 11.9933 12.87 11.72C12.91 11.44 12.94 11.0467 12.96 10.54C13.06 10.6133 13.1767 10.68 13.31 10.74C13.45 10.8 13.5733 10.8433 13.68 10.87C13.64 11.4433 13.5833 11.9 13.51 12.24C13.4367 12.5733 13.31 12.8133 13.13 12.96C12.9567 13.1067 12.71 13.18 12.39 13.18C12.3433 13.18 12.26 13.18 12.14 13.18C12.02 13.18 11.8833 13.18 11.73 13.18C11.5767 13.18 11.4233 13.18 11.27 13.18C11.1233 13.18 10.99 13.18 10.87 13.18C10.7567 13.18 10.6767 13.18 10.63 13.18C10.31 13.18 10.0567 13.14 9.87 13.06C9.69 12.9867 9.56333 12.8467 9.49 12.64C9.41667 12.44 9.38 12.16 9.38 11.8V4.28ZM4.55 5.98H7.98V6.67H4.55V5.98ZM6.25 8.97L6.99 8.09V13.3H6.25V8.97ZM6.25 4.1H6.99V6.32H6.25V4.1ZM6.94 8.2C7.03333 8.26667 7.16667 8.37333 7.34 8.52C7.51333 8.66667 7.7 8.82667 7.9 9C8.10667 9.17333 8.29333 9.33333 8.46 9.48C8.62667 9.62667 8.75 9.73667 8.83 9.81L8.36 10.42C8.26 10.3067 8.13 10.1667 7.97 10C7.81667 9.83333 7.64667 9.66 7.46 9.48C7.28 9.3 7.10667 9.13333 6.94 8.98C6.77333 8.82 6.63333 8.69 6.52 8.59L6.94 8.2ZM7.78 5.98H7.93L8.07 5.95L8.49 6.23C8.23 6.85 7.88667 7.44333 7.46 8.01C7.04 8.57667 6.58 9.09 6.08 9.55C5.58667 10.0033 5.09 10.3833 4.59 10.69C4.57 10.6233 4.53667 10.5467 4.49 10.46C4.44333 10.3667 4.39333 10.28 4.34 10.2C4.29333 10.1133 4.24667 10.05 4.2 10.01C4.56 9.80333 4.91667 9.56 5.27 9.28C5.62333 9 5.96 8.69 6.28 8.35C6.6 8.01 6.89 7.65333 7.15 7.28C7.41 6.9 7.62 6.51667 7.78 6.13V5.98Z" fill="white"/>
</svg>
