<svg width="20" height="20" viewBox="0 0 20 20" fill="none" xmlns="http://www.w3.org/2000/svg">
<path d="M10 20C15.5228 20 20 15.5228 20 10C20 4.47715 15.5228 0 10 0C4.47715 0 0 4.47715 0 10C0 15.5228 4.47715 20 10 20Z" fill="#919191"/>
<path d="M10.6303 4.6706C8.03034 3.9806 5.36034 5.5206 4.66034 8.1206C3.96034 10.7106 5.51034 13.3906 8.11034 14.0906C9.58034 14.4806 11.0803 14.1506 12.2203 13.3206L14.1803 15.2806C14.4803 15.5806 14.9703 15.5806 15.2703 15.2806C15.5703 14.9806 15.5703 14.4906 15.2703 14.1906L13.3103 12.2306C13.6503 11.7606 13.9203 11.2306 14.0803 10.6406C14.7803 8.0506 13.2303 5.3706 10.6303 4.6706ZM12.6003 10.2406C12.1303 12.0106 10.2903 13.0806 8.51034 12.6006C6.73035 12.1206 5.67034 10.2906 6.15034 8.5106C6.31034 7.9306 6.61034 7.4206 7.01034 7.0206C7.83034 6.2006 9.04034 5.8306 10.2403 6.1506C12.0203 6.6306 13.0803 8.4606 12.6003 10.2406Z" fill="white"/>
<rect x="9" y="7" width="1" height="5" rx="0.5" fill="white"/>
<rect x="12" y="9" width="1" height="5" rx="0.5" transform="rotate(90 12 9)" fill="white"/>
</svg>
