<svg width="35" height="51" viewBox="0 0 35 51" fill="none" xmlns="http://www.w3.org/2000/svg">
<path d="M2.177 46.969H6.748V47.606H2.177V46.969ZM3.017 45.205H6.461V45.835H3.017V45.205ZM4.165 44.092H4.823V47.305H4.165V44.092ZM3.003 44.19L3.668 44.316C3.60733 44.638 3.528 44.9577 3.43 45.275C3.33667 45.5877 3.22933 45.8793 3.108 46.15C2.98667 46.416 2.85367 46.6517 2.709 46.857C2.667 46.8197 2.611 46.78 2.541 46.738C2.471 46.6913 2.39867 46.647 2.324 46.605C2.24933 46.5583 2.184 46.521 2.128 46.493C2.34267 46.2223 2.52233 45.8817 2.667 45.471C2.81633 45.0603 2.92833 44.6333 3.003 44.19ZM4.774 47.375H5.418V49.671C5.418 49.7737 5.42967 49.8413 5.453 49.874C5.47633 49.902 5.52533 49.916 5.6 49.916C5.61867 49.916 5.649 49.916 5.691 49.916C5.733 49.916 5.77733 49.916 5.824 49.916C5.87533 49.916 5.92433 49.916 5.971 49.916C6.01767 49.916 6.05033 49.916 6.069 49.916C6.125 49.916 6.167 49.8927 6.195 49.846C6.223 49.7947 6.24167 49.6967 6.251 49.552C6.265 49.4027 6.27433 49.181 6.279 48.887C6.32567 48.9197 6.38167 48.9547 6.447 48.992C6.517 49.0247 6.58933 49.055 6.664 49.083C6.73867 49.1063 6.804 49.1273 6.86 49.146C6.84133 49.5007 6.80633 49.7783 6.755 49.979C6.70833 50.175 6.636 50.3103 6.538 50.385C6.44 50.4643 6.30467 50.504 6.132 50.504C6.104 50.504 6.05967 50.504 5.999 50.504C5.93833 50.504 5.87533 50.504 5.81 50.504C5.74467 50.504 5.68167 50.504 5.621 50.504C5.565 50.504 5.523 50.504 5.495 50.504C5.299 50.504 5.14967 50.4783 5.047 50.427C4.94433 50.3803 4.872 50.2963 4.83 50.175C4.79267 50.0537 4.774 49.888 4.774 49.678V47.375ZM3.346 47.48H4.011C3.98767 47.8533 3.948 48.1987 3.892 48.516C3.836 48.8287 3.745 49.1157 3.619 49.377C3.49767 49.6337 3.325 49.8623 3.101 50.063C2.88167 50.2683 2.59233 50.4433 2.233 50.588C2.20967 50.5367 2.17467 50.476 2.128 50.406C2.086 50.3407 2.037 50.2753 1.981 50.21C1.92967 50.1493 1.87833 50.1003 1.827 50.063C2.149 49.9463 2.40567 49.804 2.597 49.636C2.78833 49.468 2.93533 49.2767 3.038 49.062C3.14067 48.8473 3.213 48.6093 3.255 48.348C3.297 48.082 3.32733 47.7927 3.346 47.48ZM0.567 44.617L0.959 44.169C1.10367 44.2343 1.253 44.3137 1.407 44.407C1.561 44.5003 1.70567 44.596 1.841 44.694C1.97633 44.792 2.086 44.8853 2.17 44.974L1.75 45.478C1.67067 45.3893 1.56567 45.2937 1.435 45.191C1.30433 45.0883 1.162 44.9857 1.008 44.883C0.854 44.7803 0.707 44.6917 0.567 44.617ZM0.238 46.507L0.602 46.031C0.746667 46.0963 0.898333 46.1733 1.057 46.262C1.22033 46.346 1.37433 46.4347 1.519 46.528C1.66367 46.6213 1.78033 46.7077 1.869 46.787L1.484 47.319C1.39533 47.235 1.281 47.144 1.141 47.046C1.001 46.948 0.851667 46.8523 0.693 46.759C0.539 46.6657 0.387333 46.5817 0.238 46.507ZM0.434 50.105C0.541333 49.923 0.660333 49.7083 0.791 49.461C0.921667 49.209 1.05467 48.9453 1.19 48.67C1.32533 48.39 1.449 48.117 1.561 47.851L2.051 48.229C1.94833 48.481 1.83867 48.74 1.722 49.006C1.60533 49.2673 1.48633 49.5287 1.365 49.79C1.24833 50.0467 1.13167 50.287 1.015 50.511L0.434 50.105ZM9.366 47.193H11.242V47.718H9.366V47.193ZM9.366 48.397H11.249V48.922H9.366V48.397ZM7.966 49.615H12.817V50.224H7.966V49.615ZM7.553 45.926H13.174V50.588H12.502V46.542H8.197V50.588H7.553V45.926ZM9.072 46.325H9.674V49.895H9.072V46.325ZM10.976 46.325H11.578V49.874H10.976V46.325ZM9.933 44.82L10.71 44.988C10.6353 45.2307 10.5583 45.478 10.479 45.73C10.4043 45.982 10.332 46.1967 10.262 46.374L9.66 46.213C9.69733 46.0823 9.73467 45.9353 9.772 45.772C9.80933 45.6087 9.842 45.443 9.87 45.275C9.898 45.107 9.919 44.9553 9.933 44.82ZM7.252 44.526H13.51V45.156H7.252V44.526ZM14.14 44.463H17.199V45.065H14.14V44.463ZM17.724 46.472H20.517V47.109H17.724V46.472ZM19.145 46.899H19.803V50.595H19.145V46.899ZM17.472 44.757L18.277 44.953C18.2723 45.009 18.2187 45.0463 18.116 45.065V46.661C18.116 46.9457 18.102 47.256 18.074 47.592C18.046 47.928 17.99 48.2733 17.906 48.628C17.822 48.978 17.6983 49.321 17.535 49.657C17.3717 49.9883 17.1547 50.294 16.884 50.574C16.856 50.5273 16.8117 50.4737 16.751 50.413C16.695 50.3523 16.6343 50.2963 16.569 50.245C16.5037 50.1937 16.4453 50.154 16.394 50.126C16.6413 49.874 16.835 49.601 16.975 49.307C17.1197 49.013 17.227 48.7143 17.297 48.411C17.367 48.103 17.4137 47.7997 17.437 47.501C17.4603 47.2023 17.472 46.92 17.472 46.654V44.757ZM14.385 45.709H15.015V47.557C15.015 47.781 15.0057 48.026 14.987 48.292C14.973 48.558 14.9427 48.8287 14.896 49.104C14.854 49.3793 14.791 49.6453 14.707 49.902C14.6277 50.1587 14.518 50.392 14.378 50.602C14.3453 50.56 14.2963 50.5133 14.231 50.462C14.1657 50.4107 14.098 50.3593 14.028 50.308C13.9627 50.2613 13.9067 50.224 13.86 50.196C14.0187 49.944 14.1353 49.664 14.21 49.356C14.2847 49.048 14.3313 48.7377 14.35 48.425C14.3733 48.1123 14.385 47.8207 14.385 47.55V45.709ZM19.831 44.169L20.412 44.666C20.1787 44.7827 19.915 44.8923 19.621 44.995C19.3317 45.0977 19.033 45.191 18.725 45.275C18.417 45.359 18.1183 45.4337 17.829 45.499C17.8103 45.4243 17.7777 45.3357 17.731 45.233C17.689 45.1257 17.6447 45.037 17.598 44.967C17.8687 44.9017 18.1417 44.827 18.417 44.743C18.697 44.6543 18.9583 44.561 19.201 44.463C19.4483 44.365 19.6583 44.267 19.831 44.169ZM14.749 45.709H17.031V47.977H14.749V47.382H16.394V46.304H14.749V45.709ZM24.808 44.106H25.48V49.923H24.808V44.106ZM22.96 49.706C23.2773 49.678 23.6483 49.6453 24.073 49.608C24.4977 49.566 24.948 49.5217 25.424 49.475C25.9 49.4237 26.3713 49.3723 26.838 49.321L26.852 49.965C26.4087 50.021 25.9583 50.0747 25.501 50.126C25.0483 50.182 24.6143 50.231 24.199 50.273C23.7837 50.3197 23.408 50.364 23.072 50.406L22.96 49.706ZM25.935 48.509L26.551 48.327C26.6537 48.5417 26.7587 48.7727 26.866 49.02C26.9733 49.2673 27.0737 49.5077 27.167 49.741C27.2603 49.9697 27.3327 50.1727 27.384 50.35L26.719 50.567C26.677 50.3943 26.6117 50.1913 26.523 49.958C26.439 49.72 26.3457 49.475 26.243 49.223C26.1403 48.9663 26.0377 48.7283 25.935 48.509ZM23.968 46.01V47.55H26.306V46.01H23.968ZM23.317 45.436H26.992V48.124H23.317V45.436ZM20.916 44.561L21.378 44.204C21.714 44.484 21.98 44.771 22.176 45.065C22.3767 45.359 22.526 45.6623 22.624 45.975C22.7267 46.2877 22.7943 46.605 22.827 46.927C22.8597 47.249 22.876 47.578 22.876 47.914C22.876 48.2453 22.8643 48.5673 22.841 48.88C22.8223 49.188 22.785 49.4633 22.729 49.706C22.6777 49.944 22.6007 50.1307 22.498 50.266C22.4467 50.3313 22.386 50.385 22.316 50.427C22.2507 50.469 22.1713 50.4993 22.078 50.518C21.952 50.546 21.8167 50.56 21.672 50.56C21.532 50.5647 21.3827 50.5647 21.224 50.56C21.2193 50.4573 21.2007 50.35 21.168 50.238C21.14 50.126 21.098 50.0233 21.042 49.93C21.21 49.9393 21.357 49.944 21.483 49.944C21.6137 49.944 21.7187 49.9393 21.798 49.93C21.896 49.916 21.9707 49.8763 22.022 49.811C22.078 49.7363 22.1223 49.6057 22.155 49.419C22.1877 49.2277 22.211 49.0013 22.225 48.74C22.239 48.474 22.246 48.194 22.246 47.9C22.246 47.5827 22.2297 47.277 22.197 46.983C22.1643 46.6843 22.1013 46.3973 22.008 46.122C21.9193 45.8467 21.7863 45.5783 21.609 45.317C21.4363 45.0557 21.2053 44.8037 20.916 44.561ZM22.302 46.731L22.792 47.025C22.6753 47.2537 22.533 47.4893 22.365 47.732C22.197 47.97 22.015 48.1963 21.819 48.411C21.6277 48.621 21.4363 48.803 21.245 48.957C21.1937 48.8777 21.126 48.789 21.042 48.691C20.958 48.593 20.8763 48.516 20.797 48.46C20.9837 48.3387 21.1727 48.1847 21.364 47.998C21.56 47.8067 21.7397 47.6013 21.903 47.382C22.0663 47.1627 22.1993 46.9457 22.302 46.731ZM22.617 44.225L23.198 44.519C22.96 44.925 22.6707 45.3217 22.33 45.709C21.994 46.0963 21.6417 46.4323 21.273 46.717C21.2403 46.6703 21.196 46.6213 21.14 46.57C21.0887 46.514 21.035 46.4603 20.979 46.409C20.923 46.3577 20.8693 46.3157 20.818 46.283C21.056 46.1103 21.287 45.912 21.511 45.688C21.7397 45.4593 21.9473 45.219 22.134 44.967C22.3253 44.715 22.4863 44.4677 22.617 44.225ZM28.049 45.401H33.936V46.052H28.049V45.401ZM27.811 49.636H34.139V50.301H27.811V49.636ZM30.604 44.092H31.297V45.765H30.604V44.092ZM32.242 46.339L32.998 46.479C32.928 46.7683 32.851 47.067 32.767 47.375C32.683 47.6783 32.5943 47.9817 32.501 48.285C32.4123 48.5837 32.3213 48.8683 32.228 49.139C32.1393 49.4097 32.0507 49.6523 31.962 49.867L31.325 49.713C31.4137 49.4937 31.5 49.2463 31.584 48.971C31.6727 48.691 31.7567 48.3993 31.836 48.096C31.92 47.7927 31.997 47.4917 32.067 47.193C32.137 46.8897 32.1953 46.605 32.242 46.339ZM28.973 46.542L29.603 46.374C29.7197 46.6727 29.8247 46.99 29.918 47.326C30.0113 47.662 30.0883 47.991 30.149 48.313C30.2143 48.6303 30.2587 48.9173 30.282 49.174L29.596 49.349C29.5867 49.097 29.5517 48.81 29.491 48.488C29.435 48.1613 29.3603 47.83 29.267 47.494C29.1783 47.1533 29.0803 46.836 28.973 46.542Z" fill="#2FB3BC"/>
<path d="M23.1073 31.8866H11.5574L10.5416 28.8113H8.87752L10.4151 33.4676H24.2496L25.7872 28.8113H24.1231L23.1073 31.8866ZM17.0241 35.9697H18.6051V33.6416H17.0241V35.9697ZM22.6685 21.2142H21.0875V22.2696H18.5419V17.7912C18.5419 17.2576 18.9767 16.8267 19.5064 16.8267C20.036 16.8267 20.4708 17.2615 20.4708 17.7912H22.0519C22.0519 16.388 20.9096 15.2456 19.5064 15.2456C18.1032 15.2456 16.9608 16.388 16.9608 17.7912V22.2696H14.1504V21.2142H12.5693V22.2696H8.39527V23.8507H27.1035V22.2696H22.6685V21.2142ZM8 0V21.4316H9.58109V1.58109H26.0521V21.4316H27.6332V0H8ZM8.39527 26.9536H27.1035V25.3725H8.39527V26.9536Z" fill="#2FB3BC"/>
</svg>
