<svg width="31" height="54" viewBox="0 0 31 54" fill="none" xmlns="http://www.w3.org/2000/svg">
<path d="M3.308 53V52.531C3.81667 52.0783 4.24133 51.6653 4.582 51.292C4.92267 50.914 5.177 50.564 5.345 50.242C5.51767 49.92 5.604 49.619 5.604 49.339C5.604 49.1523 5.57133 48.989 5.506 48.849C5.44533 48.7043 5.34967 48.5947 5.219 48.52C5.093 48.4407 4.932 48.401 4.736 48.401C4.53533 48.401 4.351 48.457 4.183 48.569C4.015 48.6763 3.861 48.8093 3.721 48.968L3.266 48.52C3.48533 48.2773 3.71633 48.0883 3.959 47.953C4.20633 47.8177 4.50033 47.75 4.841 47.75C5.15367 47.75 5.42667 47.8153 5.66 47.946C5.89333 48.072 6.073 48.2517 6.199 48.485C6.32967 48.7137 6.395 48.9843 6.395 49.297C6.395 49.6283 6.31333 49.9643 6.15 50.305C5.98667 50.641 5.76267 50.9817 5.478 51.327C5.19333 51.6677 4.869 52.013 4.505 52.363C4.64033 52.349 4.78267 52.3373 4.932 52.328C5.086 52.314 5.22367 52.307 5.345 52.307H6.64V53H3.308ZM10.1282 47.981H11.4302V48.513H10.1282V47.981ZM10.2752 51.684H12.9562V52.202H10.2752V51.684ZM10.2542 52.783H13.0822V53.336H10.2542V52.783ZM9.83419 47.183H10.4292V49.724H9.83419V47.183ZM9.38619 49.619C9.65685 49.5677 9.97652 49.5023 10.3452 49.423C10.7139 49.3437 11.0895 49.262 11.4722 49.178L11.5282 49.689C11.1875 49.773 10.8445 49.857 10.4992 49.941C10.1539 50.025 9.83885 50.102 9.55419 50.172L9.38619 49.619ZM11.6892 47.183H12.2912V49.297C12.2912 49.3903 12.3029 49.451 12.3262 49.479C12.3495 49.5023 12.4055 49.514 12.4942 49.514C12.5129 49.514 12.5479 49.514 12.5992 49.514C12.6505 49.514 12.7065 49.514 12.7672 49.514C12.8279 49.514 12.8839 49.514 12.9352 49.514C12.9865 49.514 13.0239 49.514 13.0472 49.514C13.0985 49.514 13.1382 49.5 13.1662 49.472C13.1942 49.4393 13.2129 49.3787 13.2222 49.29C13.2362 49.1967 13.2455 49.059 13.2502 48.877C13.3109 48.9237 13.3949 48.9703 13.5022 49.017C13.6095 49.059 13.7052 49.0893 13.7892 49.108C13.7705 49.36 13.7355 49.556 13.6842 49.696C13.6375 49.836 13.5675 49.934 13.4742 49.99C13.3855 50.0413 13.2665 50.067 13.1172 50.067C13.0892 50.067 13.0402 50.067 12.9702 50.067C12.9049 50.067 12.8325 50.067 12.7532 50.067C12.6785 50.067 12.6085 50.067 12.5432 50.067C12.4825 50.067 12.4359 50.067 12.4032 50.067C12.2119 50.067 12.0649 50.046 11.9622 50.004C11.8595 49.9573 11.7872 49.878 11.7452 49.766C11.7079 49.654 11.6892 49.5 11.6892 49.304V47.183ZM13.2152 47.589L13.6632 48.023C13.4392 48.163 13.1872 48.2913 12.9072 48.408C12.6319 48.5247 12.3682 48.6297 12.1162 48.723C12.1022 48.6623 12.0765 48.5923 12.0392 48.513C12.0019 48.429 11.9645 48.3567 11.9272 48.296C12.0859 48.2307 12.2445 48.1583 12.4032 48.079C12.5619 47.9997 12.7112 47.918 12.8512 47.834C12.9959 47.75 13.1172 47.6683 13.2152 47.589ZM11.1572 49.892L11.8292 50.025C11.7639 50.193 11.7009 50.3587 11.6402 50.522C11.5842 50.6807 11.5282 50.8183 11.4722 50.935L10.8982 50.809C10.9449 50.683 10.9939 50.5337 11.0452 50.361C11.1012 50.1837 11.1385 50.0273 11.1572 49.892ZM9.94619 50.585H13.4042V53.546H12.7602V51.138H10.5622V53.574H9.94619V50.585ZM7.54519 47.393H9.13419V47.988H8.12619V53.588H7.54519V47.393ZM8.93819 47.393H9.04319L9.14119 47.365L9.57519 47.617C9.51452 47.813 9.44685 48.0207 9.37219 48.24C9.30219 48.4547 9.22985 48.6717 9.15519 48.891C9.08519 49.1057 9.01519 49.3063 8.94519 49.493C9.16919 49.7777 9.31619 50.0437 9.38619 50.291C9.45619 50.5337 9.49119 50.76 9.49119 50.97C9.49585 51.1707 9.47485 51.3433 9.42819 51.488C9.38152 51.6327 9.30685 51.7423 9.20419 51.817C9.15752 51.8543 9.10385 51.8847 9.04319 51.908C8.98252 51.9267 8.91485 51.9407 8.84019 51.95C8.77485 51.9547 8.70252 51.9593 8.62319 51.964C8.54852 51.9687 8.47385 51.9687 8.39919 51.964C8.39452 51.88 8.37819 51.7843 8.35019 51.677C8.32685 51.5697 8.29419 51.474 8.25219 51.39C8.31752 51.3947 8.37819 51.3993 8.43419 51.404C8.49019 51.404 8.53919 51.4017 8.58119 51.397C8.66519 51.397 8.73285 51.3783 8.78419 51.341C8.83085 51.3037 8.86352 51.2453 8.88219 51.166C8.90085 51.0867 8.91019 50.9957 8.91019 50.893C8.90552 50.7157 8.86819 50.515 8.79819 50.291C8.73285 50.067 8.59052 49.8267 8.37119 49.57C8.42719 49.4113 8.48085 49.241 8.53219 49.059C8.58819 48.8723 8.63952 48.688 8.68619 48.506C8.73752 48.324 8.78419 48.1537 8.82619 47.995C8.86819 47.8317 8.90552 47.6917 8.93819 47.575V47.393ZM16.4982 48.24L17.1002 47.946C17.2542 48.114 17.4035 48.2983 17.5482 48.499C17.6929 48.6997 17.8235 48.898 17.9402 49.094C18.0569 49.29 18.1479 49.4673 18.2132 49.626L17.5692 49.976C17.5132 49.8127 17.4269 49.6307 17.3102 49.43C17.1982 49.2247 17.0722 49.0193 16.9322 48.814C16.7922 48.604 16.6475 48.4127 16.4982 48.24ZM14.2092 52.118C14.4519 52.0293 14.7295 51.922 15.0422 51.796C15.3549 51.67 15.6862 51.5347 16.0362 51.39C16.3909 51.2407 16.7409 51.0913 17.0862 50.942L17.2402 51.593C16.9182 51.733 16.5915 51.8777 16.2602 52.027C15.9335 52.1717 15.6139 52.3117 15.3012 52.447C14.9932 52.5777 14.7085 52.699 14.4472 52.811L14.2092 52.118ZM18.3672 51.327L18.8782 50.872C19.0415 51.0353 19.2142 51.2127 19.3962 51.404C19.5829 51.5907 19.7649 51.782 19.9422 51.978C20.1195 52.174 20.2852 52.363 20.4392 52.545C20.5932 52.727 20.7192 52.8927 20.8172 53.042L20.2572 53.574C20.1592 53.4247 20.0379 53.2567 19.8932 53.07C19.7485 52.8833 19.5899 52.6897 19.4172 52.489C19.2445 52.2837 19.0672 52.083 18.8852 51.887C18.7079 51.6863 18.5352 51.4997 18.3672 51.327ZM19.3332 47.47L20.0612 47.54C19.9725 48.3427 19.8465 49.0613 19.6832 49.696C19.5245 50.3307 19.3099 50.8953 19.0392 51.39C18.7685 51.88 18.4255 52.307 18.0102 52.671C17.5995 53.035 17.0955 53.3453 16.4982 53.602C16.4702 53.5553 16.4235 53.4947 16.3582 53.42C16.2929 53.35 16.2252 53.2777 16.1552 53.203C16.0899 53.1283 16.0292 53.0677 15.9732 53.021C16.5565 52.8063 17.0465 52.5357 17.4432 52.209C17.8399 51.8823 18.1642 51.4927 18.4162 51.04C18.6729 50.5873 18.8712 50.067 19.0112 49.479C19.1559 48.8863 19.2632 48.2167 19.3332 47.47ZM15.0352 47.491L15.7282 47.463L15.8682 52.062L15.1752 52.083L15.0352 47.491ZM24.2892 49.283H27.1802V49.948H24.2892V49.283ZM21.3282 52.587H27.6632V53.252H21.3282V52.587ZM23.9112 47.19H24.6182V52.944H23.9112V47.19Z" fill="#2FB3BC"/>
<path d="M0 0V37.2227H30.7007V0H0ZM14.0993 35.6377V28.6532H16.6014V35.6377H14.0993ZM29.1197 35.6377H18.1825V27.0722H12.5183V35.6377H1.58109V1.58109H29.1197V35.6416V35.6377Z" fill="#2FB3BC"/>
<path d="M9.28913 6.38672H6.12695V7.96781H9.28913V6.38672Z" fill="#2FB3BC"/>
<path d="M9.28913 13.834H6.12695V15.4151H9.28913V13.834Z" fill="#2FB3BC"/>
<path d="M9.28913 21.2773H6.12695V22.8584H9.28913V21.2773Z" fill="#2FB3BC"/>
<path d="M9.28913 28.7197H6.12695V30.3008H9.28913V28.7197Z" fill="#2FB3BC"/>
<path d="M16.9298 6.38672H13.7676V7.96781H16.9298V6.38672Z" fill="#2FB3BC"/>
<path d="M16.9298 13.834H13.7676V15.4151H16.9298V13.834Z" fill="#2FB3BC"/>
<path d="M16.9298 21.2773H13.7676V22.8584H16.9298V21.2773Z" fill="#2FB3BC"/>
<path d="M24.5743 6.38672H21.4121V7.96781H24.5743V6.38672Z" fill="#2FB3BC"/>
<path d="M24.5743 13.834H21.4121V15.4151H24.5743V13.834Z" fill="#2FB3BC"/>
<path d="M24.5743 21.2773H21.4121V22.8584H24.5743V21.2773Z" fill="#2FB3BC"/>
<path d="M24.5743 28.7197H21.4121V30.3008H24.5743V28.7197Z" fill="#2FB3BC"/>
</svg>
