<svg width="268" height="40" viewBox="0 0 268 40" fill="none" xmlns="http://www.w3.org/2000/svg">
<path d="M74 0.0810547L89 20L74 39.9189V40H0V0H74V0.0810547Z" fill="#E0E0E0"/>
<path d="M29.206 14.94H33.168V16.466H29.206V14.94ZM32.426 14.94H33.98C33.98 15.3787 33.9987 15.8827 34.036 16.452C34.0733 17.012 34.1527 17.614 34.274 18.258C34.3953 18.8927 34.5773 19.5507 34.82 20.232C35.0627 20.904 35.3893 21.576 35.8 22.248C36.22 22.9107 36.738 23.55 37.354 24.166C37.9793 24.782 38.7353 25.3513 39.622 25.874C39.51 25.958 39.3747 26.0793 39.216 26.238C39.0573 26.3967 38.9033 26.56 38.754 26.728C38.614 26.896 38.4973 27.0453 38.404 27.176C37.508 26.6253 36.7333 26.014 36.08 25.342C35.436 24.6607 34.8947 23.942 34.456 23.186C34.0173 22.4207 33.6627 21.6553 33.392 20.89C33.1213 20.1153 32.916 19.364 32.776 18.636C32.636 17.908 32.5427 17.2267 32.496 16.592C32.4493 15.9573 32.426 15.4067 32.426 14.94ZM31.88 17.922L33.602 18.23C33.2753 19.63 32.846 20.8947 32.314 22.024C31.782 23.1533 31.1427 24.152 30.396 25.02C29.6493 25.8787 28.7813 26.602 27.792 27.19C27.6987 27.0873 27.568 26.9567 27.4 26.798C27.232 26.6487 27.0593 26.4947 26.882 26.336C26.7047 26.1867 26.5507 26.0653 26.42 25.972C27.9133 25.2067 29.0987 24.1473 29.976 22.794C30.8533 21.4313 31.488 19.8073 31.88 17.922ZM41.078 17.096H51.858V18.636H41.078V17.096ZM51.242 17.096H52.796C52.796 17.096 52.796 17.1473 52.796 17.25C52.796 17.3433 52.7913 17.446 52.782 17.558C52.782 17.67 52.7773 17.7633 52.768 17.838C52.6933 19.2473 52.6187 20.4513 52.544 21.45C52.4693 22.4487 52.3853 23.2793 52.292 23.942C52.1987 24.5953 52.0913 25.1133 51.97 25.496C51.858 25.8787 51.7227 26.1587 51.564 26.336C51.368 26.588 51.1627 26.7607 50.948 26.854C50.7427 26.9473 50.4907 27.0127 50.192 27.05C49.94 27.0873 49.6087 27.1013 49.198 27.092C48.7873 27.092 48.372 27.0827 47.952 27.064C47.9427 26.8493 47.8867 26.588 47.784 26.28C47.6907 25.9813 47.5693 25.7247 47.42 25.51C47.8773 25.5567 48.2973 25.5847 48.68 25.594C49.072 25.594 49.3613 25.594 49.548 25.594C49.6973 25.594 49.8187 25.58 49.912 25.552C50.0147 25.524 50.108 25.4633 50.192 25.37C50.3133 25.2487 50.4253 25.0107 50.528 24.656C50.64 24.3013 50.7333 23.8113 50.808 23.186C50.892 22.5513 50.9667 21.758 51.032 20.806C51.1067 19.854 51.1767 18.72 51.242 17.404V17.096ZM45.46 14.17H47.056V16.928C47.056 17.572 47.0233 18.2533 46.958 18.972C46.902 19.6813 46.7807 20.4093 46.594 21.156C46.4073 21.9027 46.1227 22.64 45.74 23.368C45.3573 24.096 44.8487 24.796 44.214 25.468C43.5793 26.1307 42.7813 26.7373 41.82 27.288C41.7453 27.1573 41.638 27.0127 41.498 26.854C41.358 26.7047 41.2133 26.5553 41.064 26.406C40.9147 26.266 40.7747 26.154 40.644 26.07C41.54 25.5753 42.2773 25.034 42.856 24.446C43.444 23.8487 43.9107 23.228 44.256 22.584C44.6107 21.94 44.872 21.2913 45.04 20.638C45.208 19.9753 45.32 19.3313 45.376 18.706C45.432 18.0713 45.46 17.4787 45.46 16.928V14.17Z" fill="#262626"/>
<path d="M171 0.0810547L186 20L171 39.9189V40H97V0H171V0.0810547Z" fill="#E0E0E0"/>
<path d="M130.574 20.932H135.88V22.052H130.574V20.932ZM130.574 23.172H135.88V24.292H130.574V23.172ZM130.56 25.412H136.538V26.658H130.56V25.412ZM128.628 15.486H136.468V17.992H135.124V16.746H129.916V17.992H128.628V15.486ZM132.576 19.616H133.962V26.028H132.576V19.616ZM131.05 18.608H136.174V19.868H131.05V27.218H129.636V19.91L130.924 18.608H131.05ZM131.96 14.128L133.388 14.394C133.005 15.8873 132.464 17.222 131.764 18.398C131.073 19.5647 130.224 20.526 129.216 21.282C129.151 21.1793 129.053 21.058 128.922 20.918C128.801 20.778 128.675 20.638 128.544 20.498C128.413 20.358 128.292 20.246 128.18 20.162C129.132 19.518 129.921 18.678 130.546 17.642C131.181 16.606 131.652 15.4347 131.96 14.128ZM133.444 17.124L134.83 17.418C134.653 17.7913 134.475 18.16 134.298 18.524C134.121 18.888 133.953 19.2007 133.794 19.462L132.674 19.168C132.814 18.8787 132.959 18.5427 133.108 18.16C133.257 17.768 133.369 17.4227 133.444 17.124ZM123.686 15.01H128.712V16.382H123.686V15.01ZM125.212 19.112H128.446V25.524H125.212V24.222H127.172V20.414H125.212V19.112ZM125.184 15.724L126.598 15.934C126.467 16.9327 126.29 17.9127 126.066 18.874C125.842 19.826 125.562 20.7173 125.226 21.548C124.899 22.3693 124.507 23.0973 124.05 23.732C124.003 23.62 123.929 23.4707 123.826 23.284C123.733 23.0973 123.63 22.9153 123.518 22.738C123.415 22.5513 123.322 22.402 123.238 22.29C123.602 21.7767 123.91 21.1747 124.162 20.484C124.414 19.784 124.624 19.028 124.792 18.216C124.96 17.404 125.091 16.5733 125.184 15.724ZM124.624 19.112H125.842V26.616H124.624V19.112ZM145.456 15.22H146.814C146.749 15.7893 146.651 16.354 146.52 16.914C146.389 17.474 146.198 18.0153 145.946 18.538C145.703 19.0513 145.372 19.5273 144.952 19.966C144.532 20.4047 144.005 20.7873 143.37 21.114C143.286 20.946 143.16 20.7593 142.992 20.554C142.824 20.3393 142.665 20.176 142.516 20.064C143.085 19.7933 143.547 19.476 143.902 19.112C144.266 18.7387 144.551 18.342 144.756 17.922C144.971 17.4927 145.129 17.0493 145.232 16.592C145.335 16.1347 145.409 15.6773 145.456 15.22ZM143.006 17.516L143.706 16.466C144.173 16.6153 144.653 16.7973 145.148 17.012C145.652 17.2173 146.128 17.4367 146.576 17.67C147.033 17.894 147.416 18.1087 147.724 18.314L146.996 19.476C146.688 19.252 146.31 19.0187 145.862 18.776C145.423 18.5333 144.952 18.3 144.448 18.076C143.953 17.8427 143.473 17.656 143.006 17.516ZM148.69 14.702H150.09C150.09 14.702 150.09 14.7393 150.09 14.814C150.09 14.8793 150.09 14.9587 150.09 15.052C150.09 15.136 150.085 15.2107 150.076 15.276C150.039 16.34 149.992 17.2127 149.936 17.894C149.88 18.5753 149.81 19.098 149.726 19.462C149.651 19.826 149.553 20.0827 149.432 20.232C149.301 20.3907 149.166 20.5073 149.026 20.582C148.886 20.6473 148.718 20.694 148.522 20.722C148.354 20.75 148.13 20.764 147.85 20.764C147.579 20.764 147.285 20.7593 146.968 20.75C146.959 20.5447 146.917 20.316 146.842 20.064C146.777 19.8027 146.693 19.5833 146.59 19.406C146.851 19.4247 147.089 19.4387 147.304 19.448C147.528 19.448 147.691 19.448 147.794 19.448C147.99 19.4667 148.135 19.4153 148.228 19.294C148.303 19.2007 148.368 19.0047 148.424 18.706C148.48 18.4073 148.531 17.9547 148.578 17.348C148.625 16.7413 148.662 15.9387 148.69 14.94V14.702ZM144.546 22.234H145.932V25.384C145.932 25.5707 145.951 25.6873 145.988 25.734C146.035 25.7807 146.128 25.804 146.268 25.804C146.305 25.804 146.361 25.804 146.436 25.804C146.52 25.804 146.609 25.804 146.702 25.804C146.805 25.804 146.898 25.804 146.982 25.804C147.066 25.804 147.127 25.804 147.164 25.804C147.267 25.804 147.341 25.7713 147.388 25.706C147.444 25.6407 147.486 25.5007 147.514 25.286C147.542 25.0713 147.561 24.7447 147.57 24.306C147.654 24.3807 147.766 24.4553 147.906 24.53C148.055 24.5953 148.209 24.656 148.368 24.712C148.527 24.7587 148.671 24.8007 148.802 24.838C148.755 25.4353 148.676 25.8973 148.564 26.224C148.461 26.56 148.307 26.7887 148.102 26.91C147.906 27.0407 147.645 27.106 147.318 27.106C147.262 27.106 147.173 27.106 147.052 27.106C146.94 27.106 146.819 27.106 146.688 27.106C146.557 27.106 146.431 27.106 146.31 27.106C146.198 27.106 146.109 27.106 146.044 27.106C145.643 27.106 145.33 27.0547 145.106 26.952C144.891 26.8493 144.742 26.672 144.658 26.42C144.583 26.168 144.546 25.8273 144.546 25.398V22.234ZM143.146 22.752L144.336 23.06C144.299 23.48 144.233 23.9 144.14 24.32C144.056 24.74 143.939 25.1367 143.79 25.51C143.65 25.874 143.468 26.1913 143.244 26.462L142.138 25.79C142.334 25.5473 142.497 25.2673 142.628 24.95C142.768 24.6233 142.88 24.2733 142.964 23.9C143.048 23.5173 143.109 23.1347 143.146 22.752ZM144.84 21.17L145.708 20.302C146.016 20.4513 146.329 20.6287 146.646 20.834C146.963 21.0393 147.262 21.254 147.542 21.478C147.822 21.6927 148.051 21.898 148.228 22.094L147.304 23.074C147.136 22.8687 146.917 22.654 146.646 22.43C146.385 22.206 146.095 21.9867 145.778 21.772C145.461 21.548 145.148 21.3473 144.84 21.17ZM147.976 22.948L149.194 22.458C149.446 22.8033 149.675 23.1813 149.88 23.592C150.095 24.0027 150.277 24.4087 150.426 24.81C150.575 25.2113 150.683 25.5753 150.748 25.902L149.418 26.434C149.371 26.1073 149.278 25.7433 149.138 25.342C148.998 24.9407 148.825 24.53 148.62 24.11C148.424 23.6807 148.209 23.2933 147.976 22.948ZM143.174 14.702H149.334V15.962H143.174V14.702ZM138.092 18.426H142.152V19.574H138.092V18.426ZM138.134 14.604H142.11V15.738H138.134V14.604ZM138.092 20.316H142.152V21.464H138.092V20.316ZM137.448 16.466H142.53V17.67H137.448V16.466ZM138.736 22.248H142.166V26.462H138.736V25.258H140.906V23.452H138.736V22.248ZM138.064 22.248H139.31V27.036H138.064V22.248Z" fill="#262626"/>
<rect x="194" width="74" height="40" fill="#2FB3BC"/>
<path d="M220.29 18.146H227.654V19.504H220.29V18.146ZM217.742 20.68H230.258V22.094H217.742V20.68ZM221.214 21.786H222.838C222.773 22.4393 222.661 23.046 222.502 23.606C222.353 24.166 222.115 24.6747 221.788 25.132C221.471 25.5893 221.027 25.9953 220.458 26.35C219.889 26.7047 219.151 27.0033 218.246 27.246C218.199 27.1153 218.129 26.966 218.036 26.798C217.943 26.63 217.835 26.4667 217.714 26.308C217.602 26.1493 217.49 26.0187 217.378 25.916C218.181 25.7387 218.82 25.5193 219.296 25.258C219.781 24.9873 220.155 24.6793 220.416 24.334C220.677 23.9887 220.859 23.6013 220.962 23.172C221.074 22.7427 221.158 22.2807 221.214 21.786ZM224.812 21.562H226.324V25.132C226.324 25.3467 226.361 25.4867 226.436 25.552C226.511 25.608 226.674 25.636 226.926 25.636C226.991 25.636 227.089 25.636 227.22 25.636C227.36 25.636 227.514 25.636 227.682 25.636C227.85 25.636 228.009 25.636 228.158 25.636C228.307 25.636 228.419 25.636 228.494 25.636C228.653 25.636 228.774 25.5987 228.858 25.524C228.942 25.44 228.998 25.272 229.026 25.02C229.063 24.768 229.091 24.39 229.11 23.886C229.213 23.97 229.343 24.0493 229.502 24.124C229.67 24.1893 229.838 24.2547 230.006 24.32C230.183 24.3853 230.337 24.4367 230.468 24.474C230.412 25.1367 230.319 25.65 230.188 26.014C230.067 26.3873 229.885 26.644 229.642 26.784C229.399 26.924 229.063 26.994 228.634 26.994C228.55 26.994 228.419 26.994 228.242 26.994C228.074 26.994 227.887 26.994 227.682 26.994C227.477 26.994 227.285 26.994 227.108 26.994C226.931 26.994 226.805 26.994 226.73 26.994C226.217 26.994 225.82 26.938 225.54 26.826C225.269 26.7233 225.078 26.532 224.966 26.252C224.863 25.9813 224.812 25.6127 224.812 25.146V21.562ZM223.16 14.156H224.77V16.606H223.16V14.156ZM218.022 15.542H229.978V18.776H228.368V16.97H219.548V18.776H218.022V15.542ZM237.272 18.93H238.868V25.44C238.868 25.8787 238.803 26.2147 238.672 26.448C238.541 26.6813 238.313 26.854 237.986 26.966C237.659 27.078 237.249 27.148 236.754 27.176C236.259 27.204 235.667 27.218 234.976 27.218C234.929 27.0033 234.845 26.7467 234.724 26.448C234.603 26.1493 234.486 25.8973 234.374 25.692C234.719 25.7013 235.06 25.7107 235.396 25.72C235.741 25.7293 236.045 25.734 236.306 25.734C236.577 25.734 236.763 25.7293 236.866 25.72C237.015 25.72 237.118 25.6967 237.174 25.65C237.239 25.6033 237.272 25.5193 237.272 25.398V18.93ZM232.4 15.15H242.27V16.634H232.4V15.15ZM241.71 15.15H242.116L242.48 15.052L243.656 15.92C243.236 16.4333 242.755 16.956 242.214 17.488C241.682 18.02 241.122 18.524 240.534 19C239.946 19.476 239.367 19.8913 238.798 20.246C238.723 20.134 238.621 20.0127 238.49 19.882C238.369 19.7513 238.243 19.6253 238.112 19.504C237.981 19.3733 237.865 19.266 237.762 19.182C238.135 18.9487 238.513 18.6827 238.896 18.384C239.288 18.076 239.661 17.754 240.016 17.418C240.371 17.082 240.693 16.7507 240.982 16.424C241.281 16.0973 241.523 15.7987 241.71 15.528V15.15Z" fill="white"/>
</svg>
