<svg width="355" height="21" viewBox="0 0 355 21" fill="none" xmlns="http://www.w3.org/2000/svg">
<rect x="0.5" y="0.5" width="18.9438" height="20" fill="white" stroke="#2FB3BC"/>
<path d="M6.99042 15.2002V13.9162H8.92242V8.0362H7.31442V7.0522C7.74642 6.9722 8.11842 6.8762 8.43042 6.7642C8.75042 6.64419 9.04242 6.50019 9.30642 6.3322H10.4824V13.9162H12.1864V15.2002H6.99042Z" fill="#2FB3BC"/>
<path d="M88.75 10.5L83.3809 21H18.9473V0H83.3809L88.75 10.5Z" fill="#2FB3BC"/>
<path d="M38.743 7.7675C38.7343 7.8065 38.7278 7.85633 38.7235 7.917C38.7192 7.97333 38.7127 8.034 38.704 8.099C38.6997 8.15967 38.6953 8.216 38.691 8.268C38.6867 8.38067 38.6802 8.515 38.6715 8.671C38.6672 8.82267 38.6607 8.9895 38.652 9.1715C38.6477 9.34917 38.6433 9.529 38.639 9.711C38.639 9.88867 38.639 10.0598 38.639 10.2245C38.639 10.3935 38.6412 10.582 38.6455 10.79C38.6498 10.998 38.6542 11.2038 38.6585 11.4075C38.6628 11.6068 38.6672 11.7932 38.6715 11.9665C38.6758 12.1355 38.678 12.2698 38.678 12.3695C38.678 12.5992 38.6498 12.779 38.5935 12.909C38.5415 13.039 38.4678 13.13 38.3725 13.182C38.2815 13.234 38.171 13.26 38.041 13.26C37.9023 13.26 37.7507 13.2297 37.586 13.169C37.4213 13.1083 37.2653 13.026 37.118 12.922C36.9707 12.818 36.8493 12.6967 36.754 12.558C36.6587 12.4193 36.611 12.272 36.611 12.116C36.611 11.9167 36.6868 11.7195 36.8385 11.5245C36.9945 11.3252 37.1982 11.1432 37.4495 10.9785C37.7008 10.8138 37.9673 10.6795 38.249 10.5755C38.5437 10.4672 38.8448 10.3848 39.1525 10.3285C39.4602 10.2722 39.7397 10.244 39.991 10.244C40.316 10.244 40.6063 10.2982 40.862 10.4065C41.1177 10.5148 41.3192 10.6708 41.4665 10.8745C41.6138 11.0782 41.6875 11.3187 41.6875 11.596C41.6875 11.8517 41.6355 12.0813 41.5315 12.285C41.4318 12.4887 41.278 12.662 41.07 12.805C40.862 12.948 40.5998 13.0585 40.2835 13.1365C40.1362 13.1668 39.991 13.1885 39.848 13.2015C39.7093 13.2145 39.5793 13.2253 39.458 13.234L39.224 12.571C39.354 12.5753 39.4862 12.5753 39.6205 12.571C39.7548 12.5667 39.8827 12.5515 40.004 12.5255C40.186 12.4908 40.355 12.4367 40.511 12.363C40.667 12.285 40.7905 12.1832 40.8815 12.0575C40.9768 11.9275 41.0245 11.7715 41.0245 11.5895C41.0245 11.4205 40.979 11.2797 40.888 11.167C40.797 11.05 40.6735 10.9612 40.5175 10.9005C40.3615 10.8398 40.1838 10.8095 39.9845 10.8095C39.7028 10.8095 39.4233 10.8398 39.146 10.9005C38.8687 10.9568 38.5957 11.037 38.327 11.141C38.1277 11.219 37.9457 11.3122 37.781 11.4205C37.6163 11.5288 37.4863 11.6415 37.391 11.7585C37.2957 11.8712 37.248 11.9795 37.248 12.0835C37.248 12.1485 37.2697 12.2113 37.313 12.272C37.3563 12.3283 37.4083 12.3782 37.469 12.4215C37.534 12.4648 37.6012 12.4995 37.6705 12.5255C37.7398 12.5515 37.8027 12.5645 37.859 12.5645C37.924 12.5645 37.976 12.5428 38.015 12.4995C38.0583 12.4518 38.08 12.3738 38.08 12.2655C38.08 12.1442 38.0757 11.973 38.067 11.752C38.0627 11.531 38.0583 11.2883 38.054 11.024C38.0497 10.7553 38.0475 10.4975 38.0475 10.2505C38.0475 10.0642 38.0475 9.87133 38.0475 9.672C38.0518 9.46833 38.054 9.27333 38.054 9.087C38.0583 8.90067 38.0605 8.736 38.0605 8.593C38.0648 8.45 38.067 8.346 38.067 8.281C38.067 8.23333 38.0648 8.177 38.0605 8.112C38.0562 8.047 38.0518 7.98417 38.0475 7.9235C38.0432 7.8585 38.0367 7.8065 38.028 7.7675H38.743ZM40.6865 8.4825C40.8468 8.5605 41.0245 8.658 41.2195 8.775C41.4188 8.88767 41.6073 9.0025 41.785 9.1195C41.967 9.23217 42.1122 9.33183 42.2205 9.4185L41.902 9.9385C41.824 9.86483 41.72 9.78467 41.59 9.698C41.4643 9.61133 41.3278 9.5225 41.1805 9.4315C41.0375 9.3405 40.8967 9.256 40.758 9.178C40.6237 9.09567 40.5045 9.0285 40.4005 8.9765L40.6865 8.4825ZM36.7475 8.892C36.9338 8.91367 37.0942 8.92883 37.2285 8.9375C37.3628 8.94183 37.4907 8.944 37.612 8.944C37.7723 8.944 37.9543 8.93533 38.158 8.918C38.3617 8.90067 38.5675 8.879 38.7755 8.853C38.9878 8.827 39.1937 8.7945 39.393 8.7555C39.5967 8.71217 39.7808 8.66667 39.9455 8.619L39.9585 9.256C39.7852 9.295 39.5923 9.33183 39.38 9.3665C39.172 9.40117 38.9597 9.43367 38.743 9.464C38.5307 9.49 38.327 9.51167 38.132 9.529C37.9413 9.542 37.7723 9.5485 37.625 9.5485C37.43 9.5485 37.2653 9.54633 37.131 9.542C36.9967 9.53333 36.8753 9.52467 36.767 9.516L36.7475 8.892ZM45.581 10.66H47.791V12.6295H45.581V12.116H47.2125V11.167H45.581V10.66ZM45.3145 10.66H45.88V13.0065H45.3145V10.66ZM44.1835 8.723H45.9125V9.152H44.1835V8.723ZM47.193 8.723H48.9415V9.152H47.193V8.723ZM48.6815 7.7805H49.299V12.7725C49.299 12.9588 49.2752 13.1018 49.2275 13.2015C49.1842 13.3012 49.1018 13.3792 48.9805 13.4355C48.8592 13.4875 48.6988 13.5178 48.4995 13.5265C48.3002 13.5395 48.0553 13.546 47.765 13.546C47.7563 13.4853 47.739 13.416 47.713 13.338C47.6913 13.2643 47.6653 13.1885 47.635 13.1105C47.609 13.0368 47.5808 12.9718 47.5505 12.9155C47.6848 12.9242 47.817 12.9285 47.947 12.9285C48.0813 12.9285 48.1983 12.9285 48.298 12.9285C48.402 12.9285 48.4757 12.9285 48.519 12.9285C48.5797 12.9242 48.6208 12.9112 48.6425 12.8895C48.6685 12.8635 48.6815 12.8223 48.6815 12.766V7.7805ZM44.2355 7.7805H46.3025V10.1335H44.2355V9.6525H45.724V8.2615H44.2355V7.7805ZM49.0065 7.7805V8.255H47.414V9.659H49.0065V10.1335H46.829V7.7805H49.0065ZM43.891 7.7805H44.4955V13.5525H43.891V7.7805ZM52.2695 9.6265H55.5455V10.1725H52.2695V9.6265ZM52.172 12.753H55.5975V13.299H52.172V12.753ZM51.8925 10.9135H55.9485V13.5525H55.318V11.466H52.497V13.5525H51.8925V10.9135ZM53.8815 8.1315C53.7038 8.38717 53.4763 8.65367 53.199 8.931C52.9217 9.204 52.614 9.46617 52.276 9.7175C51.938 9.96883 51.5848 10.1942 51.2165 10.3935C51.1905 10.3458 51.1558 10.2917 51.1125 10.231C51.0692 10.1703 51.0237 10.1118 50.976 10.0555C50.9283 9.99483 50.8807 9.94283 50.833 9.8995C51.21 9.71317 51.574 9.48783 51.925 9.2235C52.276 8.95483 52.5902 8.67317 52.8675 8.3785C53.1492 8.08383 53.3723 7.8 53.537 7.527H54.1675C54.3452 7.76967 54.5423 8.00583 54.759 8.2355C54.98 8.46083 55.214 8.67533 55.461 8.879C55.7123 9.07833 55.968 9.25817 56.228 9.4185C56.4923 9.5745 56.7545 9.70883 57.0145 9.8215C56.9365 9.8995 56.8628 9.98833 56.7935 10.088C56.7242 10.1833 56.6613 10.2765 56.605 10.3675C56.3537 10.2332 56.098 10.0815 55.838 9.9125C55.578 9.73917 55.3267 9.55283 55.084 9.3535C54.8457 9.15417 54.6225 8.9505 54.4145 8.7425C54.2065 8.5345 54.0288 8.33083 53.8815 8.1315ZM62.858 7.9495C62.8537 7.98417 62.8493 8.03183 62.845 8.0925C62.8407 8.15317 62.8363 8.216 62.832 8.281C62.8277 8.346 62.8255 8.40667 62.8255 8.463C62.8212 8.59733 62.819 8.73383 62.819 8.8725C62.819 9.01117 62.8168 9.1455 62.8125 9.2755C62.8125 9.40117 62.8103 9.52033 62.806 9.633C62.8017 9.80633 62.7952 9.99483 62.7865 10.1985C62.7778 10.4022 62.767 10.5928 62.754 10.7705C62.741 10.9482 62.7237 11.0933 62.702 11.206C62.6717 11.362 62.6153 11.4682 62.533 11.5245C62.4507 11.5765 62.3315 11.6025 62.1755 11.6025C62.0975 11.6025 61.9978 11.5982 61.8765 11.5895C61.7595 11.5765 61.6447 11.5635 61.532 11.5505C61.4193 11.5332 61.3305 11.518 61.2655 11.505L61.2785 10.9395C61.3868 10.9612 61.4995 10.9807 61.6165 10.998C61.7378 11.0153 61.8332 11.024 61.9025 11.024C61.9762 11.024 62.0303 11.0132 62.065 10.9915C62.104 10.9698 62.1257 10.9243 62.13 10.855C62.1473 10.7727 62.1582 10.6643 62.1625 10.53C62.1712 10.3957 62.1798 10.2505 62.1885 10.0945C62.1972 9.93417 62.2015 9.78033 62.2015 9.633C62.2058 9.51167 62.208 9.38817 62.208 9.2625C62.208 9.1325 62.208 9.00033 62.208 8.866C62.208 8.73167 62.208 8.60383 62.208 8.4825C62.208 8.4305 62.2037 8.372 62.195 8.307C62.1907 8.23767 62.1863 8.1705 62.182 8.1055C62.1777 8.0405 62.1712 7.9885 62.1625 7.9495H62.858ZM60.2905 8.151C60.2818 8.23767 60.2732 8.32867 60.2645 8.424C60.2602 8.51933 60.258 8.6255 60.258 8.7425C60.258 8.86817 60.2558 9.035 60.2515 9.243C60.2515 9.44667 60.2493 9.66767 60.245 9.906C60.245 10.14 60.245 10.3718 60.245 10.6015C60.245 10.8312 60.245 11.037 60.245 11.219C60.245 11.401 60.2472 11.5418 60.2515 11.6415C60.2558 11.8105 60.2667 11.9513 60.284 12.064C60.3013 12.1767 60.3447 12.2655 60.414 12.3305C60.4833 12.3955 60.5917 12.4432 60.739 12.4735C60.8907 12.5038 61.0965 12.519 61.3565 12.519C61.5818 12.519 61.8158 12.5125 62.0585 12.4995C62.3012 12.4822 62.5308 12.4605 62.7475 12.4345C62.9642 12.4085 63.1462 12.3825 63.2935 12.3565L63.274 13.052C63.131 13.0693 62.9533 13.0845 62.741 13.0975C62.5287 13.1148 62.3055 13.13 62.0715 13.143C61.8375 13.156 61.6122 13.1625 61.3955 13.1625C61.0012 13.1625 60.687 13.1387 60.453 13.091C60.219 13.0433 60.0435 12.9653 59.9265 12.857C59.8095 12.7443 59.7315 12.597 59.6925 12.415C59.6535 12.233 59.6297 12.0077 59.621 11.739C59.621 11.6437 59.6188 11.5158 59.6145 11.3555C59.6145 11.1908 59.6145 11.0067 59.6145 10.803C59.6145 10.595 59.6145 10.3848 59.6145 10.1725C59.6145 9.96017 59.6145 9.75867 59.6145 9.568C59.6145 9.37733 59.6145 9.21267 59.6145 9.074C59.6145 8.931 59.6145 8.83133 59.6145 8.775C59.6145 8.658 59.6102 8.55183 59.6015 8.4565C59.5972 8.35683 59.5863 8.255 59.569 8.151H60.2905ZM58.2495 9.6655C58.3448 9.6655 58.4553 9.66333 58.581 9.659C58.711 9.65033 58.8453 9.6395 58.984 9.6265C59.1227 9.6135 59.322 9.594 59.582 9.568C59.842 9.542 60.1367 9.51383 60.466 9.4835C60.7997 9.45317 61.1442 9.42283 61.4995 9.3925C61.8592 9.35783 62.2058 9.3275 62.5395 9.3015C62.8732 9.2755 63.17 9.25383 63.43 9.2365C63.5167 9.23217 63.6098 9.22783 63.7095 9.2235C63.8092 9.21483 63.9023 9.20617 63.989 9.1975V9.8345C63.9543 9.83017 63.9023 9.83017 63.833 9.8345C63.768 9.8345 63.6965 9.8345 63.6185 9.8345C63.5448 9.8345 63.4798 9.83667 63.4235 9.841C63.2545 9.841 63.0465 9.84967 62.7995 9.867C62.5525 9.88433 62.2882 9.906 62.0065 9.932C61.7248 9.95367 61.4367 9.97967 61.142 10.01C60.8473 10.036 60.5635 10.0642 60.2905 10.0945C60.0218 10.1205 59.777 10.1465 59.556 10.1725C59.335 10.1942 59.1595 10.2137 59.0295 10.231C58.9602 10.2397 58.88 10.2505 58.789 10.2635C58.7023 10.2722 58.6157 10.283 58.529 10.296C58.4467 10.309 58.3773 10.3198 58.321 10.3285L58.2495 9.6655Z" fill="white"/>
<rect x="89.25" y="0.5" width="18.9438" height="20" fill="white" stroke="#2FB3BC"/>
<path d="M95.2484 15.2002V14.2882C96.0884 13.5362 96.7964 12.8482 97.3724 12.2242C97.9564 11.5922 98.3964 11.0082 98.6924 10.4722C98.9964 9.9282 99.1484 9.4202 99.1484 8.94819C99.1484 8.6442 99.0924 8.3802 98.9804 8.1562C98.8764 7.92419 98.7204 7.74419 98.5124 7.61619C98.3044 7.4882 98.0444 7.4242 97.7324 7.4242C97.3964 7.4242 97.0884 7.5162 96.8084 7.7002C96.5364 7.88419 96.2844 8.10819 96.0524 8.3722L95.1764 7.50819C95.5684 7.0842 95.9764 6.7562 96.4004 6.52419C96.8324 6.29219 97.3444 6.17619 97.9364 6.17619C98.4884 6.17619 98.9684 6.28819 99.3764 6.51219C99.7844 6.73619 100.1 7.04819 100.324 7.44819C100.556 7.8482 100.672 8.3202 100.672 8.8642C100.672 9.4162 100.532 9.9762 100.252 10.5442C99.9804 11.1122 99.6084 11.6842 99.1364 12.2602C98.6724 12.8282 98.1484 13.3962 97.5644 13.9642C97.7964 13.9402 98.0444 13.9202 98.3084 13.9042C98.5724 13.8802 98.8084 13.8682 99.0164 13.8682H101.08V15.2002H95.2484Z" fill="#2FB3BC"/>
<path d="M177.5 10.5L172.131 21H107.697V0H172.131L177.5 10.5Z" fill="#2FB3BC"/>
<path d="M128.352 8.437C128.586 8.463 128.85 8.4825 129.145 8.4955C129.444 8.5085 129.76 8.515 130.094 8.515C130.302 8.515 130.514 8.51067 130.731 8.502C130.948 8.49333 131.156 8.4825 131.355 8.4695C131.559 8.4565 131.741 8.44133 131.901 8.424V9.1C131.754 9.113 131.578 9.126 131.375 9.139C131.171 9.152 130.956 9.16283 130.731 9.1715C130.51 9.17583 130.298 9.178 130.094 9.178C129.765 9.178 129.457 9.1715 129.171 9.1585C128.885 9.1455 128.612 9.12817 128.352 9.1065V8.437ZM128.736 11.115C128.697 11.2363 128.666 11.3555 128.645 11.4725C128.623 11.5852 128.612 11.7 128.612 11.817C128.612 12.0467 128.729 12.2352 128.963 12.3825C129.197 12.5255 129.565 12.597 130.068 12.597C130.363 12.597 130.647 12.5883 130.92 12.571C131.197 12.5493 131.455 12.519 131.693 12.48C131.931 12.441 132.137 12.3955 132.311 12.3435L132.317 13.0585C132.148 13.0975 131.949 13.1343 131.719 13.169C131.489 13.208 131.236 13.2362 130.959 13.2535C130.686 13.2752 130.395 13.286 130.088 13.286C129.62 13.286 129.225 13.234 128.905 13.13C128.588 13.0303 128.348 12.883 128.183 12.688C128.018 12.493 127.936 12.2525 127.936 11.9665C127.936 11.7888 127.949 11.6242 127.975 11.4725C128.005 11.3165 128.036 11.1757 128.066 11.05L128.736 11.115ZM132.077 7.735C132.133 7.80867 132.194 7.89967 132.259 8.008C132.324 8.11633 132.386 8.22467 132.447 8.333C132.508 8.44133 132.56 8.53883 132.603 8.6255L132.174 8.814C132.109 8.67967 132.029 8.52583 131.934 8.3525C131.838 8.17917 131.745 8.03183 131.654 7.9105L132.077 7.735ZM132.818 7.462C132.874 7.54 132.937 7.63317 133.006 7.7415C133.075 7.84983 133.14 7.95817 133.201 8.0665C133.266 8.17483 133.318 8.268 133.357 8.346L132.935 8.5345C132.865 8.3915 132.781 8.23767 132.681 8.073C132.586 7.904 132.493 7.75883 132.402 7.6375L132.818 7.462ZM135.47 9.9515H137.03V10.517H135.47V9.9515ZM136.796 9.9515H137.394C137.394 9.9515 137.394 9.96667 137.394 9.997C137.394 10.0273 137.391 10.062 137.387 10.101C137.387 10.14 137.387 10.1725 137.387 10.1985C137.378 10.6708 137.368 11.0565 137.355 11.3555C137.342 11.6545 137.322 11.8842 137.296 12.0445C137.27 12.2005 137.233 12.3088 137.186 12.3695C137.129 12.4388 137.069 12.4887 137.004 12.519C136.939 12.5493 136.858 12.571 136.763 12.584C136.681 12.597 136.57 12.6035 136.432 12.6035C136.293 12.6035 136.146 12.6013 135.99 12.597C135.985 12.506 135.968 12.4063 135.938 12.298C135.907 12.1897 135.868 12.0965 135.821 12.0185C135.955 12.0315 136.081 12.0402 136.198 12.0445C136.315 12.0488 136.401 12.051 136.458 12.051C136.501 12.051 136.538 12.0467 136.568 12.038C136.603 12.025 136.633 12.0055 136.659 11.9795C136.689 11.9405 136.713 11.856 136.731 11.726C136.748 11.5917 136.761 11.3902 136.77 11.1215C136.783 10.8528 136.791 10.4953 136.796 10.049V9.9515ZM138.674 7.8715L139.051 7.501C139.181 7.566 139.318 7.64183 139.461 7.7285C139.604 7.81083 139.738 7.89533 139.864 7.982C139.989 8.06867 140.093 8.14883 140.176 8.2225L139.786 8.6385C139.708 8.56483 139.606 8.4825 139.48 8.3915C139.359 8.3005 139.227 8.2095 139.084 8.1185C138.945 8.0275 138.808 7.94517 138.674 7.8715ZM139.539 9.6005L140.156 9.75C139.883 10.595 139.506 11.336 139.025 11.973C138.548 12.61 137.983 13.1257 137.329 13.52C137.303 13.4723 137.261 13.416 137.205 13.351C137.149 13.2903 137.092 13.2275 137.036 13.1625C136.98 13.1018 136.928 13.052 136.88 13.013C137.526 12.6663 138.072 12.2027 138.518 11.622C138.964 11.0413 139.305 10.3675 139.539 9.6005ZM135.509 8.5605H140.533V9.165H135.509V8.5605ZM135.099 8.5605H135.743V10.426C135.743 10.6643 135.734 10.9222 135.717 11.1995C135.699 11.4768 135.667 11.7607 135.619 12.051C135.571 12.337 135.502 12.6143 135.411 12.883C135.32 13.1517 135.199 13.3922 135.047 13.6045C135.017 13.5655 134.967 13.5178 134.898 13.4615C134.833 13.4052 134.765 13.351 134.696 13.299C134.631 13.2513 134.575 13.2145 134.527 13.1885C134.705 12.9285 134.833 12.6382 134.911 12.3175C134.993 11.9925 135.045 11.6653 135.067 11.336C135.088 11.0067 135.099 10.7012 135.099 10.4195V8.5605ZM137.777 7.5205H138.421C138.416 8.0925 138.436 8.64283 138.479 9.1715C138.522 9.69583 138.585 10.1833 138.668 10.634C138.75 11.0847 138.847 11.4768 138.96 11.8105C139.073 12.1442 139.198 12.4042 139.337 12.5905C139.48 12.7768 139.625 12.87 139.773 12.87C139.859 12.87 139.924 12.779 139.968 12.597C140.011 12.415 140.041 12.1138 140.059 11.6935C140.132 11.7628 140.219 11.83 140.319 11.895C140.418 11.96 140.509 12.0077 140.592 12.038C140.557 12.4237 140.507 12.7227 140.442 12.935C140.377 13.1473 140.286 13.2947 140.169 13.377C140.056 13.4593 139.909 13.5005 139.727 13.5005C139.502 13.5005 139.296 13.4247 139.11 13.273C138.928 13.1213 138.763 12.9068 138.616 12.6295C138.473 12.3522 138.349 12.0272 138.245 11.6545C138.145 11.2818 138.061 10.8723 137.992 10.426C137.922 9.97967 137.87 9.51167 137.836 9.022C137.801 8.528 137.781 8.0275 137.777 7.5205ZM144.927 10.3675L145.421 10.1205C145.542 10.2722 145.662 10.4368 145.779 10.6145C145.896 10.7878 146 10.9612 146.091 11.1345C146.186 11.3078 146.26 11.4638 146.312 11.6025L145.772 11.8885C145.729 11.7498 145.662 11.5938 145.571 11.4205C145.48 11.2428 145.378 11.063 145.265 10.881C145.157 10.6947 145.044 10.5235 144.927 10.3675ZM145.038 8.658H147.456V9.2365H145.038V8.658ZM147.196 8.658H147.787C147.787 8.658 147.787 8.6775 147.787 8.7165C147.787 8.7555 147.787 8.79883 147.787 8.8465C147.787 8.89417 147.787 8.931 147.787 8.957C147.761 9.68067 147.733 10.296 147.703 10.803C147.677 11.3057 147.646 11.7217 147.612 12.051C147.577 12.376 147.536 12.6317 147.488 12.818C147.44 13 147.384 13.1322 147.319 13.2145C147.237 13.3228 147.15 13.3965 147.059 13.4355C146.972 13.4745 146.864 13.5027 146.734 13.52C146.626 13.533 146.478 13.5395 146.292 13.5395C146.106 13.5395 145.915 13.5352 145.72 13.5265C145.716 13.4355 145.694 13.3315 145.655 13.2145C145.62 13.0975 145.575 12.9957 145.519 12.909C145.731 12.9263 145.926 12.9372 146.104 12.9415C146.286 12.9458 146.418 12.948 146.5 12.948C146.565 12.948 146.619 12.9415 146.663 12.9285C146.706 12.9112 146.745 12.8808 146.78 12.8375C146.836 12.7812 146.884 12.6663 146.923 12.493C146.966 12.3197 147.003 12.0748 147.033 11.7585C147.068 11.4378 147.098 11.0348 147.124 10.5495C147.15 10.0598 147.174 9.47267 147.196 8.788V8.658ZM145.194 7.5075L145.824 7.6505C145.737 7.9625 145.629 8.27233 145.499 8.58C145.369 8.88333 145.228 9.16717 145.077 9.4315C144.925 9.69583 144.767 9.92767 144.602 10.127C144.563 10.0923 144.509 10.0512 144.44 10.0035C144.375 9.95583 144.305 9.91033 144.232 9.867C144.162 9.81933 144.104 9.7825 144.056 9.7565C144.225 9.5745 144.381 9.36433 144.524 9.126C144.667 8.88767 144.795 8.62983 144.908 8.3525C145.02 8.07517 145.116 7.7935 145.194 7.5075ZM142.88 7.514L143.426 7.7155C143.339 7.87583 143.248 8.04483 143.153 8.2225C143.062 8.39583 142.968 8.56267 142.873 8.723C142.782 8.88333 142.693 9.022 142.607 9.139L142.191 8.9635C142.273 8.8335 142.355 8.684 142.438 8.515C142.524 8.346 142.607 8.17483 142.685 8.0015C142.763 7.82383 142.828 7.66133 142.88 7.514ZM143.66 8.268L144.193 8.489C144.037 8.736 143.865 8.996 143.679 9.269C143.497 9.53767 143.311 9.79983 143.12 10.0555C142.934 10.3068 142.756 10.5235 142.587 10.7055L142.204 10.5105C142.329 10.3632 142.459 10.1985 142.594 10.0165C142.728 9.83017 142.86 9.63517 142.99 9.4315C143.12 9.22783 143.241 9.02633 143.354 8.827C143.471 8.62767 143.573 8.44133 143.66 8.268ZM141.866 8.957L142.165 8.541C142.282 8.64067 142.401 8.75117 142.522 8.8725C142.648 8.99383 142.76 9.113 142.86 9.23C142.964 9.347 143.044 9.45533 143.101 9.555L142.782 10.0295C142.726 9.9255 142.648 9.81067 142.548 9.685C142.448 9.55933 142.338 9.43367 142.217 9.308C142.1 9.178 141.983 9.061 141.866 8.957ZM143.478 9.802L143.92 9.6135C144.011 9.75217 144.097 9.90383 144.18 10.0685C144.266 10.2288 144.342 10.387 144.407 10.543C144.472 10.699 144.52 10.8377 144.55 10.959L144.076 11.18C144.045 11.0587 143.998 10.92 143.933 10.764C143.872 10.6037 143.8 10.439 143.718 10.27C143.64 10.101 143.56 9.945 143.478 9.802ZM141.853 10.4C142.152 10.3913 142.507 10.3783 142.919 10.361C143.335 10.3437 143.759 10.3263 144.193 10.309L144.186 10.803C143.779 10.829 143.376 10.855 142.977 10.881C142.578 10.907 142.221 10.9287 141.905 10.946L141.853 10.4ZM143.614 11.388L144.076 11.2385C144.167 11.4378 144.253 11.6545 144.336 11.8885C144.418 12.1182 144.476 12.3175 144.511 12.4865L144.017 12.6555C143.987 12.4865 143.933 12.2828 143.855 12.0445C143.781 11.8062 143.701 11.5873 143.614 11.388ZM142.178 11.2775L142.698 11.3685C142.659 11.6762 142.6 11.9795 142.522 12.2785C142.448 12.5775 142.362 12.831 142.262 13.039C142.227 13.0173 142.182 12.9913 142.126 12.961C142.069 12.9307 142.009 12.9025 141.944 12.8765C141.883 12.8462 141.831 12.8245 141.788 12.8115C141.892 12.6122 141.974 12.376 142.035 12.103C142.1 11.83 142.147 11.5548 142.178 11.2775ZM142.932 10.66H143.478V13.559H142.932V10.66Z" fill="white"/>
<rect x="178" y="0.5" width="18.9438" height="20" fill="white" stroke="#2FB3BC"/>
<path d="M186.722 15.3682C186.258 15.3682 185.846 15.3122 185.486 15.2002C185.126 15.0882 184.806 14.9402 184.526 14.7562C184.246 14.5722 184.006 14.3642 183.806 14.1322L184.562 13.1362C184.826 13.3922 185.122 13.6122 185.45 13.7962C185.778 13.9802 186.158 14.0722 186.59 14.0722C186.91 14.0722 187.19 14.0202 187.43 13.9162C187.67 13.8122 187.854 13.6602 187.982 13.4602C188.118 13.2522 188.186 13.0082 188.186 12.7282C188.186 12.4162 188.11 12.1482 187.958 11.9242C187.814 11.6922 187.558 11.5162 187.19 11.3962C186.822 11.2682 186.31 11.2042 185.654 11.2042V10.0642C186.222 10.0642 186.666 10.0042 186.986 9.8842C187.314 9.7562 187.546 9.5842 187.682 9.36819C187.826 9.1442 187.898 8.8922 187.898 8.6122C187.898 8.24419 187.786 7.95619 187.562 7.74819C187.338 7.5322 187.026 7.4242 186.626 7.4242C186.298 7.4242 185.994 7.5002 185.714 7.6522C185.434 7.7962 185.162 7.9882 184.898 8.22819L184.094 7.25619C184.462 6.92819 184.858 6.6682 185.282 6.47619C185.706 6.27619 186.174 6.17619 186.686 6.17619C187.238 6.17619 187.722 6.26819 188.138 6.45219C188.562 6.6282 188.89 6.8882 189.122 7.23219C189.362 7.57619 189.482 8.00019 189.482 8.50419C189.482 8.9922 189.346 9.4122 189.074 9.7642C188.81 10.1082 188.446 10.3682 187.982 10.5442V10.6042C188.318 10.6922 188.622 10.8362 188.894 11.0362C189.166 11.2282 189.378 11.4762 189.53 11.7802C189.69 12.0762 189.77 12.4202 189.77 12.8122C189.77 13.3482 189.63 13.8082 189.35 14.1922C189.078 14.5682 188.71 14.8602 188.246 15.0682C187.79 15.2682 187.282 15.3682 186.722 15.3682Z" fill="#2FB3BC"/>
<path d="M266.25 10.5L260.881 21H196.447V0H260.881L266.25 10.5Z" fill="#2FB3BC"/>
<path d="M207.743 7.7675C207.734 7.8065 207.728 7.85633 207.724 7.917C207.719 7.97333 207.713 8.034 207.704 8.099C207.7 8.15967 207.695 8.216 207.691 8.268C207.687 8.38067 207.68 8.515 207.672 8.671C207.667 8.82267 207.661 8.9895 207.652 9.1715C207.648 9.34917 207.643 9.529 207.639 9.711C207.639 9.88867 207.639 10.0598 207.639 10.2245C207.639 10.3935 207.641 10.582 207.646 10.79C207.65 10.998 207.654 11.2038 207.659 11.4075C207.663 11.6068 207.667 11.7932 207.672 11.9665C207.676 12.1355 207.678 12.2698 207.678 12.3695C207.678 12.5992 207.65 12.779 207.594 12.909C207.542 13.039 207.468 13.13 207.373 13.182C207.282 13.234 207.171 13.26 207.041 13.26C206.902 13.26 206.751 13.2297 206.586 13.169C206.421 13.1083 206.265 13.026 206.118 12.922C205.971 12.818 205.849 12.6967 205.754 12.558C205.659 12.4193 205.611 12.272 205.611 12.116C205.611 11.9167 205.687 11.7195 205.839 11.5245C205.995 11.3252 206.198 11.1432 206.45 10.9785C206.701 10.8138 206.967 10.6795 207.249 10.5755C207.544 10.4672 207.845 10.3848 208.153 10.3285C208.46 10.2722 208.74 10.244 208.991 10.244C209.316 10.244 209.606 10.2982 209.862 10.4065C210.118 10.5148 210.319 10.6708 210.467 10.8745C210.614 11.0782 210.688 11.3187 210.688 11.596C210.688 11.8517 210.636 12.0813 210.532 12.285C210.432 12.4887 210.278 12.662 210.07 12.805C209.862 12.948 209.6 13.0585 209.284 13.1365C209.136 13.1668 208.991 13.1885 208.848 13.2015C208.709 13.2145 208.579 13.2253 208.458 13.234L208.224 12.571C208.354 12.5753 208.486 12.5753 208.621 12.571C208.755 12.5667 208.883 12.5515 209.004 12.5255C209.186 12.4908 209.355 12.4367 209.511 12.363C209.667 12.285 209.791 12.1832 209.882 12.0575C209.977 11.9275 210.025 11.7715 210.025 11.5895C210.025 11.4205 209.979 11.2797 209.888 11.167C209.797 11.05 209.674 10.9612 209.518 10.9005C209.362 10.8398 209.184 10.8095 208.985 10.8095C208.703 10.8095 208.423 10.8398 208.146 10.9005C207.869 10.9568 207.596 11.037 207.327 11.141C207.128 11.219 206.946 11.3122 206.781 11.4205C206.616 11.5288 206.486 11.6415 206.391 11.7585C206.296 11.8712 206.248 11.9795 206.248 12.0835C206.248 12.1485 206.27 12.2113 206.313 12.272C206.356 12.3283 206.408 12.3782 206.469 12.4215C206.534 12.4648 206.601 12.4995 206.67 12.5255C206.74 12.5515 206.803 12.5645 206.859 12.5645C206.924 12.5645 206.976 12.5428 207.015 12.4995C207.058 12.4518 207.08 12.3738 207.08 12.2655C207.08 12.1442 207.076 11.973 207.067 11.752C207.063 11.531 207.058 11.2883 207.054 11.024C207.05 10.7553 207.048 10.4975 207.048 10.2505C207.048 10.0642 207.048 9.87133 207.048 9.672C207.052 9.46833 207.054 9.27333 207.054 9.087C207.058 8.90067 207.061 8.736 207.061 8.593C207.065 8.45 207.067 8.346 207.067 8.281C207.067 8.23333 207.065 8.177 207.061 8.112C207.056 8.047 207.052 7.98417 207.048 7.9235C207.043 7.8585 207.037 7.8065 207.028 7.7675H207.743ZM209.687 8.4825C209.847 8.5605 210.025 8.658 210.22 8.775C210.419 8.88767 210.607 9.0025 210.785 9.1195C210.967 9.23217 211.112 9.33183 211.221 9.4185L210.902 9.9385C210.824 9.86483 210.72 9.78467 210.59 9.698C210.464 9.61133 210.328 9.5225 210.181 9.4315C210.038 9.3405 209.897 9.256 209.758 9.178C209.624 9.09567 209.505 9.0285 209.401 8.9765L209.687 8.4825ZM205.748 8.892C205.934 8.91367 206.094 8.92883 206.229 8.9375C206.363 8.94183 206.491 8.944 206.612 8.944C206.772 8.944 206.954 8.93533 207.158 8.918C207.362 8.90067 207.568 8.879 207.776 8.853C207.988 8.827 208.194 8.7945 208.393 8.7555C208.597 8.71217 208.781 8.66667 208.946 8.619L208.959 9.256C208.785 9.295 208.592 9.33183 208.38 9.3665C208.172 9.40117 207.96 9.43367 207.743 9.464C207.531 9.49 207.327 9.51167 207.132 9.529C206.941 9.542 206.772 9.5485 206.625 9.5485C206.43 9.5485 206.265 9.54633 206.131 9.542C205.997 9.53333 205.875 9.52467 205.767 9.516L205.748 8.892ZM211.942 9.386H217.565V10.751H216.967V9.9255H212.521V10.751H211.942V9.386ZM212.8 10.556H216.343V11.128H212.8V10.556ZM216.837 7.4815L217.259 7.982C216.912 8.047 216.531 8.10767 216.115 8.164C215.703 8.22033 215.272 8.27017 214.822 8.3135C214.375 8.3525 213.925 8.385 213.47 8.411C213.015 8.437 212.573 8.45867 212.144 8.476C212.139 8.398 212.122 8.307 212.092 8.203C212.061 8.099 212.031 8.0145 212.001 7.9495C212.43 7.93217 212.865 7.9105 213.307 7.8845C213.753 7.85417 214.191 7.8195 214.62 7.7805C215.053 7.7415 215.459 7.69817 215.836 7.6505C216.213 7.5985 216.546 7.54217 216.837 7.4815ZM212.56 8.606L213.093 8.45C213.184 8.57567 213.268 8.7165 213.346 8.8725C213.424 9.0285 213.48 9.16067 213.515 9.269L212.956 9.4445C212.926 9.33183 212.872 9.1975 212.794 9.0415C212.72 8.88117 212.642 8.736 212.56 8.606ZM214.282 8.463L214.835 8.346C214.904 8.48467 214.969 8.6385 215.03 8.8075C215.095 8.9765 215.138 9.12383 215.16 9.2495L214.581 9.3925C214.564 9.27117 214.527 9.12383 214.471 8.9505C214.414 8.77283 214.351 8.61033 214.282 8.463ZM216.434 8.333L217.077 8.4955C216.999 8.63417 216.917 8.775 216.83 8.918C216.748 9.05667 216.663 9.191 216.577 9.321C216.494 9.44667 216.416 9.55933 216.343 9.659L215.842 9.503C215.911 9.39467 215.983 9.27333 216.057 9.139C216.13 9.00033 216.2 8.86167 216.265 8.723C216.334 8.58 216.39 8.45 216.434 8.333ZM216.115 10.556H216.245L216.356 10.53L216.772 10.7835C216.572 11.2038 216.314 11.5678 215.998 11.8755C215.686 12.1832 215.326 12.4453 214.919 12.662C214.516 12.8743 214.081 13.0498 213.613 13.1885C213.145 13.3272 212.659 13.4333 212.157 13.507C212.135 13.4593 212.102 13.3987 212.059 13.325C212.02 13.2557 211.977 13.1885 211.929 13.1235C211.886 13.0585 211.842 13.0043 211.799 12.961C212.293 12.9003 212.765 12.8137 213.216 12.701C213.667 12.584 214.081 12.4345 214.458 12.2525C214.839 12.0662 215.17 11.843 215.452 11.583C215.734 11.3187 215.955 11.011 216.115 10.66V10.556ZM213.489 10.959C213.736 11.323 214.065 11.6393 214.477 11.908C214.889 12.1767 215.365 12.3955 215.907 12.5645C216.453 12.7335 217.047 12.8548 217.688 12.9285C217.645 12.9718 217.599 13.0282 217.552 13.0975C217.504 13.1668 217.458 13.2362 217.415 13.3055C217.376 13.3792 217.341 13.4442 217.311 13.5005C216.657 13.4095 216.054 13.2643 215.504 13.065C214.954 12.87 214.464 12.6165 214.035 12.3045C213.606 11.9882 213.246 11.6133 212.956 11.18L213.489 10.959ZM222.999 7.891C222.99 7.95167 222.983 8.01667 222.979 8.086C222.975 8.15533 222.97 8.22683 222.966 8.3005C222.966 8.3525 222.966 8.437 222.966 8.554C222.966 8.66667 222.966 8.7945 222.966 8.9375C222.97 9.0805 222.973 9.22783 222.973 9.3795C222.977 9.52683 222.979 9.66333 222.979 9.789C222.979 9.91467 222.979 10.0165 222.979 10.0945C222.979 10.4715 222.968 10.8182 222.947 11.1345C222.925 11.4508 222.871 11.7455 222.784 12.0185C222.697 12.2915 222.559 12.545 222.368 12.779C222.182 13.0087 221.922 13.2253 221.588 13.429L220.99 12.961C221.103 12.9133 221.224 12.8483 221.354 12.766C221.484 12.6793 221.592 12.5927 221.679 12.506C221.831 12.363 221.95 12.2135 222.037 12.0575C222.128 11.8972 222.195 11.7217 222.238 11.531C222.286 11.336 222.316 11.1215 222.329 10.8875C222.346 10.6492 222.355 10.3827 222.355 10.088C222.355 9.97533 222.353 9.8345 222.349 9.6655C222.349 9.4965 222.344 9.32317 222.336 9.1455C222.331 8.9635 222.327 8.79667 222.323 8.645C222.318 8.49333 222.314 8.3785 222.31 8.3005C222.305 8.2225 222.294 8.14667 222.277 8.073C222.264 7.99933 222.253 7.93867 222.245 7.891H222.999ZM220.542 9.1975C220.641 9.2105 220.747 9.2235 220.86 9.2365C220.973 9.2495 221.088 9.25817 221.205 9.2625C221.326 9.26683 221.445 9.269 221.562 9.269C221.835 9.269 222.117 9.2625 222.407 9.2495C222.702 9.2365 222.986 9.217 223.259 9.191C223.536 9.16067 223.783 9.12383 224 9.0805L223.993 9.7435C223.789 9.77383 223.553 9.79983 223.285 9.8215C223.016 9.84317 222.734 9.8605 222.44 9.8735C222.145 9.88217 221.855 9.8865 221.569 9.8865C221.473 9.8865 221.363 9.88433 221.237 9.88C221.116 9.87567 220.994 9.87133 220.873 9.867C220.752 9.86267 220.641 9.85833 220.542 9.854V9.1975ZM219.729 7.9885C219.712 8.05783 219.69 8.138 219.664 8.229C219.638 8.31567 219.616 8.3915 219.599 8.4565C219.551 8.66883 219.504 8.90933 219.456 9.178C219.413 9.44667 219.376 9.72617 219.346 10.0165C219.32 10.3068 219.309 10.5928 219.313 10.8745C219.322 11.1562 219.352 11.4162 219.404 11.6545C219.447 11.5332 219.499 11.3902 219.56 11.2255C219.621 11.0608 219.679 10.907 219.736 10.764L220.074 10.9785C220.017 11.1388 219.961 11.3143 219.905 11.505C219.848 11.6957 219.796 11.8777 219.749 12.051C219.701 12.22 219.664 12.3608 219.638 12.4735C219.629 12.5255 219.621 12.5818 219.612 12.6425C219.608 12.6988 219.606 12.7443 219.606 12.779C219.606 12.8137 219.608 12.8527 219.612 12.896C219.616 12.9393 219.621 12.9805 219.625 13.0195L219.06 13.0845C219.016 12.9502 218.964 12.7725 218.904 12.5515C218.847 12.3262 218.8 12.0792 218.761 11.8105C218.722 11.5418 218.702 11.2732 218.702 11.0045C218.702 10.6492 218.715 10.3068 218.741 9.9775C218.771 9.64817 218.804 9.34917 218.839 9.0805C218.878 8.8075 218.91 8.58217 218.936 8.4045C218.949 8.32217 218.958 8.23767 218.962 8.151C218.966 8.06433 218.969 7.98633 218.969 7.917L219.729 7.9885ZM227.848 8.385H230.168V8.983H227.848V8.385ZM224.799 7.904H228.017V8.476H224.799V7.904ZM225.599 9.23H227.23V9.789H225.599V9.23ZM225.599 10.582H227.23V11.1345H225.599V10.582ZM229.993 8.385H230.097L230.207 8.359L230.604 8.463C230.508 9.334 230.344 10.0923 230.11 10.738C229.876 11.3837 229.579 11.9318 229.219 12.3825C228.859 12.8288 228.441 13.1928 227.965 13.4745C227.917 13.3965 227.854 13.3077 227.776 13.208C227.698 13.1083 227.627 13.0303 227.562 12.974C227.991 12.7487 228.372 12.4302 228.706 12.0185C229.039 11.6025 229.317 11.102 229.538 10.517C229.759 9.92767 229.91 9.2625 229.993 8.5215V8.385ZM228.511 9.0025C228.623 9.6005 228.781 10.1595 228.985 10.6795C229.189 11.1952 229.447 11.6502 229.759 12.0445C230.071 12.4388 230.443 12.7508 230.877 12.9805C230.829 13.0195 230.777 13.0693 230.721 13.13C230.669 13.1907 230.617 13.2513 230.565 13.312C230.517 13.377 230.478 13.4355 230.448 13.4875C229.984 13.2188 229.59 12.8722 229.265 12.4475C228.94 12.0185 228.669 11.5245 228.452 10.9655C228.235 10.4022 228.06 9.78683 227.926 9.1195L228.511 9.0025ZM225.274 8.125H225.865V12.363H225.274V8.125ZM226.99 8.125H227.581V13.5395H226.99V8.125ZM224.656 12.155C224.868 12.129 225.113 12.0987 225.391 12.064C225.668 12.0293 225.963 11.9903 226.275 11.947C226.587 11.8993 226.899 11.8538 227.211 11.8105L227.243 12.376C226.805 12.4453 226.368 12.5168 225.93 12.5905C225.497 12.6598 225.111 12.7205 224.773 12.7725L224.656 12.155ZM233.262 7.8325C233.236 7.93217 233.208 8.0535 233.178 8.1965C233.147 8.33517 233.119 8.48033 233.093 8.632C233.067 8.78367 233.043 8.931 233.022 9.074C233.004 9.21267 232.991 9.334 232.983 9.438C233.056 9.29067 233.147 9.14117 233.256 8.9895C233.368 8.83783 233.498 8.69917 233.646 8.5735C233.793 8.44783 233.953 8.346 234.127 8.268C234.3 8.19 234.484 8.151 234.679 8.151C234.974 8.151 235.236 8.24417 235.466 8.4305C235.7 8.6125 235.884 8.8725 236.018 9.2105C236.152 9.5485 236.22 9.9515 236.22 10.4195C236.22 10.8702 236.152 11.2645 236.018 11.6025C235.884 11.9405 235.693 12.2265 235.446 12.4605C235.199 12.6945 234.904 12.8852 234.562 13.0325C234.22 13.1842 233.843 13.2968 233.431 13.3705L233.041 12.779C233.396 12.7227 233.726 12.6447 234.029 12.545C234.332 12.441 234.597 12.3002 234.822 12.1225C235.047 11.9448 235.221 11.7173 235.342 11.44C235.468 11.1627 235.531 10.8225 235.531 10.4195C235.531 10.0815 235.494 9.78683 235.42 9.5355C235.346 9.28417 235.238 9.08917 235.095 8.9505C234.952 8.81183 234.777 8.7425 234.569 8.7425C234.369 8.7425 234.179 8.8075 233.997 8.9375C233.815 9.0675 233.65 9.23433 233.503 9.438C233.36 9.64167 233.243 9.8605 233.152 10.0945C233.065 10.3285 233.013 10.5538 232.996 10.7705C232.987 10.8788 232.983 10.9915 232.983 11.1085C232.987 11.2255 233 11.362 233.022 11.518L232.385 11.5635C232.372 11.4422 232.356 11.2905 232.339 11.1085C232.322 10.9222 232.313 10.7228 232.313 10.5105C232.313 10.3545 232.32 10.1877 232.333 10.01C232.346 9.828 232.361 9.64383 232.378 9.4575C232.395 9.26683 232.415 9.08267 232.437 8.905C232.463 8.72733 232.484 8.56483 232.502 8.4175C232.519 8.30483 232.53 8.1965 232.534 8.0925C232.543 7.9885 232.549 7.891 232.554 7.8L233.262 7.8325ZM238.183 8.3785H243.35V12.129H242.713V8.9635H238.794V12.168H238.183V8.3785ZM238.586 9.789H243.032V10.3545H238.586V9.789ZM238.586 11.2125H243.032V11.804H238.586V11.2125ZM240.412 7.514H241.049V13.5395H240.412V7.514ZM244.533 9.49H246.464V9.9645H244.533V9.49ZM244.553 7.7285H246.438V8.2095H244.553V7.7285ZM244.533 10.3675H246.464V10.842H244.533V10.3675ZM244.228 8.593H246.678V9.087H244.228V8.593ZM244.8 11.258H246.47V13.1885H244.8V12.6945H245.937V11.752H244.8V11.258ZM244.52 11.258H245.047V13.468H244.52V11.258ZM246.828 7.917H250.117V8.3655H246.828V7.917ZM246.997 8.6905H250.019V9.1195H246.997V8.6905ZM246.665 9.477H250.253V9.932H246.665V9.477ZM248.16 7.514H248.739V9.8605H248.16V7.514ZM247.14 10.257H249.629V10.7055H247.705V13.5395H247.14V10.257ZM249.298 10.257H249.87V12.9415C249.87 13.0758 249.852 13.182 249.818 13.26C249.787 13.338 249.722 13.3987 249.623 13.442C249.532 13.4853 249.412 13.5092 249.265 13.5135C249.118 13.5222 248.94 13.5265 248.732 13.5265C248.723 13.4528 248.702 13.3683 248.667 13.273C248.637 13.1777 248.602 13.0953 248.563 13.026C248.702 13.0303 248.83 13.0325 248.947 13.0325C249.068 13.0325 249.148 13.0325 249.187 13.0325C249.23 13.0282 249.259 13.0195 249.272 13.0065C249.289 12.9935 249.298 12.9675 249.298 12.9285V10.257ZM247.387 11.089H249.59V11.5115H247.387V11.089ZM247.387 11.908H249.59V12.324H247.387V11.908Z" fill="white"/>
<rect x="285.197" width="69.8034" height="21" fill="#2FB3BC"/>
<rect x="266.75" y="0.5" width="18.9438" height="20" fill="white" stroke="#2FB3BC"/>
<path d="M276.288 15.2002V9.5842C276.288 9.3362 276.296 9.0442 276.312 8.7082C276.328 8.36419 276.34 8.06419 276.348 7.80819H276.3C276.188 8.04019 276.072 8.2762 275.952 8.51619C275.84 8.7482 275.72 8.9802 275.592 9.2122L274.032 11.6482H278.844V12.8602H272.484V11.7922L275.892 6.3322H277.752V15.2002H276.288Z" fill="#2FB3BC"/>
<path d="M297.47 4.385C297.453 4.29833 297.433 4.21817 297.412 4.1445C297.39 4.0665 297.366 3.99067 297.34 3.917L298.068 3.8C298.077 3.86067 298.085 3.9365 298.094 4.0275C298.107 4.11417 298.122 4.19433 298.14 4.268C298.148 4.32 298.166 4.42617 298.192 4.5865C298.222 4.74683 298.259 4.94617 298.302 5.1845C298.35 5.42283 298.4 5.6785 298.452 5.9515C298.508 6.2245 298.564 6.50183 298.621 6.7835C298.677 7.06083 298.729 7.323 298.777 7.57C298.824 7.817 298.865 8.0315 298.9 8.2135C298.939 8.39117 298.965 8.519 298.978 8.597C299 8.688 299.026 8.78767 299.056 8.896C299.086 9.00433 299.117 9.10833 299.147 9.208L298.4 9.3445C298.382 9.2275 298.367 9.11483 298.354 9.0065C298.345 8.9025 298.33 8.80283 298.309 8.7075C298.296 8.63817 298.272 8.51683 298.237 8.3435C298.207 8.16583 298.168 7.95567 298.12 7.713C298.077 7.47033 298.027 7.2125 297.971 6.9395C297.914 6.66217 297.86 6.387 297.808 6.114C297.756 5.83667 297.706 5.57883 297.659 5.3405C297.611 5.10217 297.57 4.8985 297.535 4.7295C297.505 4.5605 297.483 4.44567 297.47 4.385ZM295.663 5.2755C295.75 5.26683 295.841 5.26033 295.936 5.256C296.031 5.24733 296.129 5.23867 296.229 5.23C296.324 5.217 296.46 5.19967 296.638 5.178C296.816 5.152 297.015 5.12167 297.236 5.087C297.461 5.05233 297.693 5.01767 297.932 4.983C298.174 4.944 298.408 4.905 298.634 4.866C298.859 4.827 299.06 4.79233 299.238 4.762C299.42 4.73167 299.561 4.70783 299.661 4.6905C299.76 4.66883 299.858 4.64717 299.953 4.6255C300.048 4.60383 300.129 4.58433 300.194 4.567L300.317 5.2495C300.261 5.25383 300.183 5.26467 300.083 5.282C299.983 5.295 299.888 5.308 299.797 5.321C299.684 5.33833 299.533 5.36217 299.342 5.3925C299.156 5.4185 298.948 5.451 298.718 5.49C298.493 5.52467 298.259 5.5615 298.016 5.6005C297.778 5.6395 297.548 5.67633 297.327 5.711C297.11 5.74567 296.915 5.77817 296.742 5.8085C296.573 5.8345 296.445 5.85617 296.359 5.8735C296.263 5.89083 296.172 5.90817 296.086 5.9255C295.999 5.94283 295.904 5.9645 295.8 5.9905L295.663 5.2755ZM295.65 7.167C295.732 7.16267 295.832 7.154 295.949 7.141C296.07 7.128 296.177 7.115 296.268 7.102C296.385 7.08467 296.541 7.06083 296.736 7.0305C296.935 7.00017 297.158 6.9655 297.405 6.9265C297.652 6.8875 297.908 6.84633 298.172 6.803C298.436 6.75967 298.692 6.71633 298.939 6.673C299.19 6.62967 299.42 6.59067 299.628 6.556C299.836 6.52133 300.003 6.49317 300.129 6.4715C300.254 6.4455 300.367 6.42167 300.467 6.4C300.571 6.37833 300.662 6.3545 300.74 6.3285L300.876 7.011C300.802 7.01533 300.709 7.02833 300.597 7.05C300.488 7.06733 300.371 7.08683 300.246 7.1085C300.103 7.13017 299.925 7.15833 299.713 7.193C299.505 7.22333 299.275 7.26017 299.024 7.3035C298.772 7.3425 298.517 7.38367 298.257 7.427C297.997 7.466 297.745 7.50717 297.503 7.5505C297.264 7.5895 297.05 7.62633 296.859 7.661C296.668 7.69133 296.517 7.71733 296.404 7.739C296.274 7.76067 296.157 7.78233 296.053 7.804C295.953 7.82133 295.869 7.84083 295.8 7.8625L295.65 7.167ZM304.048 4.957C304.057 5.022 304.07 5.0935 304.087 5.1715C304.109 5.24517 304.128 5.32317 304.146 5.4055C304.176 5.51383 304.217 5.6655 304.269 5.8605C304.321 6.05117 304.38 6.26783 304.445 6.5105C304.514 6.74883 304.583 6.99367 304.653 7.245C304.722 7.49633 304.789 7.739 304.854 7.973C304.919 8.20267 304.975 8.40633 305.023 8.584C305.075 8.75733 305.114 8.88517 305.14 8.9675C305.153 9.0065 305.168 9.05417 305.186 9.1105C305.203 9.17117 305.22 9.23183 305.238 9.2925C305.259 9.35317 305.279 9.40517 305.296 9.4485L304.594 9.624C304.585 9.546 304.572 9.4615 304.555 9.3705C304.538 9.2795 304.516 9.19283 304.49 9.1105C304.464 9.02383 304.427 8.89167 304.38 8.714C304.332 8.532 304.276 8.324 304.211 8.09C304.146 7.85167 304.078 7.60467 304.009 7.349C303.944 7.09333 303.879 6.84633 303.814 6.608C303.749 6.36967 303.691 6.15733 303.639 5.971C303.587 5.78033 303.548 5.63733 303.522 5.542C303.5 5.45967 303.474 5.38383 303.444 5.3145C303.413 5.24517 303.383 5.18233 303.353 5.126L304.048 4.957ZM307.168 5.8995C307.099 6.03817 307.008 6.19633 306.895 6.374C306.787 6.54733 306.668 6.72717 306.538 6.9135C306.408 7.0955 306.278 7.26883 306.148 7.4335C306.018 7.59817 305.894 7.739 305.777 7.856L305.212 7.57C305.337 7.45733 305.467 7.32733 305.602 7.18C305.736 7.02833 305.862 6.8745 305.979 6.7185C306.1 6.55817 306.193 6.4195 306.258 6.3025C306.215 6.31117 306.124 6.33067 305.985 6.361C305.846 6.387 305.677 6.4195 305.478 6.4585C305.283 6.4975 305.069 6.54083 304.835 6.5885C304.605 6.63617 304.373 6.68383 304.139 6.7315C303.905 6.77917 303.682 6.82467 303.47 6.868C303.262 6.91133 303.08 6.95033 302.924 6.985C302.772 7.01533 302.659 7.03917 302.586 7.0565L302.43 6.4325C302.525 6.42383 302.616 6.41517 302.703 6.4065C302.794 6.3935 302.891 6.37833 302.995 6.361C303.043 6.35233 303.134 6.33717 303.268 6.3155C303.402 6.2895 303.565 6.25917 303.756 6.2245C303.946 6.1855 304.152 6.1465 304.373 6.1075C304.594 6.06417 304.815 6.023 305.036 5.984C305.257 5.94067 305.465 5.8995 305.66 5.8605C305.859 5.8215 306.028 5.789 306.167 5.763C306.31 5.73267 306.412 5.711 306.473 5.698C306.52 5.685 306.57 5.672 306.622 5.659C306.674 5.64167 306.717 5.62433 306.752 5.607L307.168 5.8995ZM311.205 5.204C311.235 5.269 311.274 5.3665 311.322 5.4965C311.369 5.62217 311.419 5.75867 311.471 5.906C311.527 6.049 311.577 6.1855 311.621 6.3155C311.668 6.4455 311.703 6.54517 311.725 6.6145L311.114 6.8355C311.096 6.7575 311.066 6.65567 311.023 6.53C310.979 6.4 310.932 6.26567 310.88 6.127C310.828 5.984 310.776 5.8475 310.724 5.7175C310.676 5.5875 310.633 5.4835 310.594 5.4055L311.205 5.204ZM313.577 5.62C313.547 5.70233 313.521 5.77383 313.499 5.8345C313.482 5.89517 313.467 5.9515 313.454 6.0035C313.367 6.35017 313.25 6.69033 313.103 7.024C312.96 7.35767 312.773 7.67183 312.544 7.9665C312.245 8.34783 311.904 8.67067 311.523 8.935C311.146 9.195 310.773 9.3965 310.405 9.5395L309.866 8.987C310.108 8.91767 310.36 8.818 310.62 8.688C310.88 8.558 311.129 8.402 311.367 8.22C311.61 8.038 311.82 7.8365 311.998 7.6155C312.145 7.42917 312.279 7.21683 312.401 6.9785C312.522 6.73583 312.622 6.48017 312.7 6.2115C312.778 5.9385 312.832 5.6655 312.862 5.3925L313.577 5.62ZM309.69 5.542C309.729 5.61567 309.775 5.7175 309.827 5.8475C309.883 5.97317 309.939 6.10967 309.996 6.257C310.056 6.40433 310.113 6.54517 310.165 6.6795C310.217 6.81383 310.258 6.9265 310.288 7.0175L309.67 7.245C309.645 7.16267 309.606 7.05217 309.554 6.9135C309.502 6.7705 309.445 6.62317 309.385 6.4715C309.328 6.31983 309.272 6.18117 309.216 6.0555C309.164 5.9255 309.118 5.828 309.079 5.763L309.69 5.542ZM316.476 3.9365C316.58 3.99283 316.697 4.06433 316.827 4.151C316.957 4.23333 317.091 4.32 317.23 4.411C317.369 4.49767 317.499 4.58217 317.62 4.6645C317.746 4.7425 317.845 4.80967 317.919 4.866L317.536 5.425C317.453 5.36433 317.351 5.29283 317.23 5.2105C317.109 5.12817 316.981 5.04367 316.847 4.957C316.712 4.87033 316.58 4.788 316.45 4.71C316.32 4.62767 316.205 4.55617 316.106 4.4955L316.476 3.9365ZM315.404 8.571C315.642 8.52767 315.887 8.4735 316.138 8.4085C316.389 8.33917 316.639 8.25683 316.886 8.1615C317.133 8.06183 317.371 7.95133 317.601 7.83C317.96 7.622 318.296 7.39017 318.608 7.1345C318.92 6.87883 319.202 6.60583 319.453 6.3155C319.704 6.02517 319.917 5.72617 320.09 5.4185L320.487 6.1075C320.192 6.5495 319.826 6.972 319.388 7.375C318.955 7.778 318.474 8.13117 317.945 8.4345C317.724 8.56017 317.484 8.67717 317.224 8.7855C316.968 8.89383 316.712 8.987 316.457 9.065C316.205 9.14733 315.982 9.20583 315.787 9.2405L315.404 8.571ZM315.488 5.412C315.592 5.464 315.711 5.53117 315.846 5.6135C315.98 5.6915 316.116 5.77383 316.255 5.8605C316.394 5.94717 316.524 6.0295 316.645 6.1075C316.766 6.18117 316.866 6.24617 316.944 6.3025L316.567 6.881C316.48 6.82033 316.376 6.74883 316.255 6.6665C316.134 6.58417 316.006 6.49967 315.872 6.413C315.737 6.32633 315.603 6.24617 315.469 6.1725C315.339 6.0945 315.222 6.02733 315.118 5.971L315.488 5.412ZM325.849 5.906C325.84 5.94067 325.832 5.97967 325.823 6.023C325.814 6.06633 325.806 6.10533 325.797 6.14C325.788 6.231 325.771 6.361 325.745 6.53C325.723 6.69467 325.697 6.87667 325.667 7.076C325.637 7.27533 325.606 7.47467 325.576 7.674C325.546 7.869 325.518 8.04883 325.492 8.2135C325.47 8.37817 325.45 8.506 325.433 8.597H324.738C324.751 8.519 324.768 8.40633 324.79 8.259C324.816 8.10733 324.844 7.9405 324.874 7.7585C324.904 7.5765 324.933 7.39233 324.959 7.206C324.985 7.01967 325.006 6.85067 325.024 6.699C325.045 6.543 325.056 6.42383 325.056 6.3415C324.982 6.3415 324.876 6.3415 324.738 6.3415C324.599 6.3415 324.445 6.3415 324.276 6.3415C324.107 6.3415 323.94 6.3415 323.776 6.3415C323.615 6.3415 323.477 6.3415 323.36 6.3415C323.243 6.3415 323.165 6.3415 323.126 6.3415C323.03 6.3415 322.931 6.34367 322.827 6.348C322.727 6.35233 322.634 6.35667 322.547 6.361V5.685C322.603 5.68933 322.664 5.69583 322.729 5.7045C322.798 5.70883 322.868 5.71317 322.937 5.7175C323.006 5.7175 323.067 5.7175 323.119 5.7175C323.175 5.7175 323.264 5.7175 323.386 5.7175C323.507 5.7175 323.641 5.7175 323.789 5.7175C323.94 5.7175 324.094 5.7175 324.25 5.7175C324.406 5.7175 324.547 5.7175 324.672 5.7175C324.798 5.7175 324.896 5.7175 324.965 5.7175C325.004 5.7175 325.05 5.71533 325.102 5.711C325.154 5.70667 325.203 5.70017 325.251 5.6915C325.299 5.68283 325.333 5.67417 325.355 5.6655L325.849 5.906ZM321.943 8.3435C322.029 8.35217 322.122 8.36083 322.222 8.3695C322.322 8.37383 322.424 8.376 322.528 8.376C322.588 8.376 322.707 8.376 322.885 8.376C323.063 8.376 323.273 8.376 323.516 8.376C323.763 8.376 324.018 8.376 324.282 8.376C324.551 8.376 324.807 8.376 325.05 8.376C325.292 8.376 325.5 8.376 325.674 8.376C325.847 8.376 325.962 8.376 326.018 8.376C326.092 8.376 326.185 8.37383 326.298 8.3695C326.41 8.36517 326.506 8.35867 326.584 8.35V9.013C326.54 9.00867 326.484 9.00433 326.415 9C326.35 9 326.282 9 326.213 9C326.144 9 326.083 9 326.031 9C325.975 9 325.856 9 325.674 9C325.496 9 325.284 9 325.037 9C324.794 9 324.538 9 324.27 9C324.001 9 323.743 9 323.496 9C323.253 9 323.045 9 322.872 9C322.699 9 322.584 9 322.528 9C322.424 9 322.328 9 322.242 9C322.155 9.00433 322.055 9.00867 321.943 9.013V8.3435ZM332.518 3.8845C332.574 3.95817 332.633 4.04917 332.694 4.1575C332.759 4.26583 332.821 4.37417 332.882 4.4825C332.943 4.59083 332.995 4.68833 333.038 4.775L332.616 4.957C332.551 4.827 332.468 4.67533 332.369 4.502C332.273 4.32867 332.182 4.18133 332.096 4.06L332.518 3.8845ZM333.253 3.605C333.309 3.68733 333.37 3.78267 333.435 3.891C333.504 3.99933 333.571 4.10767 333.636 4.216C333.701 4.32 333.753 4.411 333.792 4.489L333.37 4.6775C333.3 4.53883 333.216 4.385 333.116 4.216C333.021 4.047 332.928 3.90183 332.837 3.7805L333.253 3.605ZM328.846 7.0175C328.915 6.83983 328.982 6.65133 329.047 6.452C329.116 6.25267 329.179 6.04683 329.236 5.8345C329.292 5.61783 329.34 5.40333 329.379 5.191C329.422 4.97867 329.454 4.775 329.476 4.58L330.211 4.7295C330.198 4.78583 330.182 4.84867 330.165 4.918C330.148 4.983 330.13 5.048 330.113 5.113C330.1 5.178 330.087 5.23433 330.074 5.282C330.052 5.386 330.022 5.52033 329.983 5.685C329.948 5.84533 329.905 6.01867 329.853 6.205C329.801 6.387 329.745 6.57333 329.684 6.764C329.628 6.95033 329.567 7.12367 329.502 7.284C329.424 7.48767 329.333 7.69783 329.229 7.9145C329.125 8.12683 329.015 8.33483 328.898 8.5385C328.781 8.74217 328.664 8.9285 328.547 9.0975L327.838 8.7985C328.042 8.52983 328.232 8.23517 328.41 7.9145C328.588 7.5895 328.733 7.2905 328.846 7.0175ZM332.05 6.816C331.985 6.647 331.911 6.46717 331.829 6.2765C331.751 6.08583 331.669 5.89517 331.582 5.7045C331.5 5.5095 331.417 5.3275 331.335 5.1585C331.253 4.9895 331.177 4.84433 331.108 4.723L331.777 4.502C331.842 4.62333 331.916 4.7685 331.998 4.9375C332.085 5.1065 332.171 5.2885 332.258 5.4835C332.345 5.67417 332.429 5.86483 332.512 6.0555C332.594 6.24617 332.668 6.42383 332.733 6.5885C332.793 6.7445 332.858 6.92 332.928 7.115C333.001 7.31 333.073 7.5115 333.142 7.7195C333.216 7.92317 333.283 8.1225 333.344 8.3175C333.404 8.50817 333.456 8.6815 333.5 8.8375L332.759 9.078C332.702 8.83967 332.635 8.5905 332.557 8.3305C332.479 8.0705 332.397 7.8105 332.31 7.5505C332.228 7.2905 332.141 7.04567 332.05 6.816ZM337.205 5.204C337.235 5.269 337.274 5.3665 337.322 5.4965C337.369 5.62217 337.419 5.75867 337.471 5.906C337.527 6.049 337.577 6.1855 337.621 6.3155C337.668 6.4455 337.703 6.54517 337.725 6.6145L337.114 6.8355C337.096 6.7575 337.066 6.65567 337.023 6.53C336.979 6.4 336.932 6.26567 336.88 6.127C336.828 5.984 336.776 5.8475 336.724 5.7175C336.676 5.5875 336.633 5.4835 336.594 5.4055L337.205 5.204ZM339.577 5.62C339.547 5.70233 339.521 5.77383 339.499 5.8345C339.482 5.89517 339.467 5.9515 339.454 6.0035C339.367 6.35017 339.25 6.69033 339.103 7.024C338.96 7.35767 338.773 7.67183 338.544 7.9665C338.245 8.34783 337.904 8.67067 337.523 8.935C337.146 9.195 336.773 9.3965 336.405 9.5395L335.866 8.987C336.108 8.91767 336.36 8.818 336.62 8.688C336.88 8.558 337.129 8.402 337.367 8.22C337.61 8.038 337.82 7.8365 337.998 7.6155C338.145 7.42917 338.279 7.21683 338.401 6.9785C338.522 6.73583 338.622 6.48017 338.7 6.2115C338.778 5.9385 338.832 5.6655 338.862 5.3925L339.577 5.62ZM335.69 5.542C335.729 5.61567 335.775 5.7175 335.827 5.8475C335.883 5.97317 335.939 6.10967 335.996 6.257C336.056 6.40433 336.113 6.54517 336.165 6.6795C336.217 6.81383 336.258 6.9265 336.288 7.0175L335.67 7.245C335.645 7.16267 335.606 7.05217 335.554 6.9135C335.502 6.7705 335.445 6.62317 335.385 6.4715C335.328 6.31983 335.272 6.18117 335.216 6.0555C335.164 5.9255 335.118 5.828 335.079 5.763L335.69 5.542ZM346.246 4.944C346.211 4.996 346.179 5.05883 346.149 5.1325C346.118 5.20617 346.09 5.2755 346.064 5.3405C346.008 5.5485 345.928 5.77817 345.824 6.0295C345.72 6.28083 345.592 6.53867 345.44 6.803C345.288 7.063 345.115 7.31217 344.92 7.5505C344.621 7.91883 344.264 8.2525 343.848 8.5515C343.436 8.8505 342.927 9.117 342.32 9.351L341.716 8.8115C342.136 8.68583 342.504 8.54067 342.821 8.376C343.141 8.207 343.423 8.02283 343.666 7.8235C343.913 7.62417 344.131 7.41183 344.322 7.1865C344.487 7.00017 344.634 6.79433 344.764 6.569C344.898 6.33933 345.013 6.11183 345.109 5.8865C345.208 5.65683 345.275 5.451 345.31 5.269H342.996L343.243 4.684C343.299 4.684 343.395 4.684 343.529 4.684C343.668 4.684 343.824 4.684 343.997 4.684C344.175 4.684 344.348 4.684 344.517 4.684C344.69 4.684 344.84 4.684 344.966 4.684C345.096 4.684 345.182 4.684 345.226 4.684C345.317 4.684 345.405 4.67967 345.492 4.671C345.579 4.658 345.652 4.64067 345.713 4.619L346.246 4.944ZM344.095 3.943C344.03 4.03833 343.965 4.14233 343.9 4.255C343.839 4.36767 343.791 4.4565 343.757 4.5215C343.622 4.7685 343.451 5.03067 343.243 5.308C343.039 5.58533 342.803 5.85833 342.535 6.127C342.266 6.39133 341.965 6.63617 341.631 6.8615L341.059 6.4325C341.341 6.2635 341.592 6.08367 341.813 5.893C342.034 5.70233 342.225 5.51167 342.385 5.321C342.55 5.126 342.691 4.93967 342.808 4.762C342.925 4.58433 343.022 4.424 343.1 4.281C343.139 4.216 343.182 4.12717 343.23 4.0145C343.278 3.8975 343.315 3.79133 343.341 3.696L344.095 3.943ZM296.352 11.437C296.586 11.463 296.85 11.4825 297.145 11.4955C297.444 11.5085 297.76 11.515 298.094 11.515C298.302 11.515 298.514 11.5107 298.731 11.502C298.948 11.4933 299.156 11.4825 299.355 11.4695C299.559 11.4565 299.741 11.4413 299.901 11.424V12.1C299.754 12.113 299.578 12.126 299.375 12.139C299.171 12.152 298.956 12.1628 298.731 12.1715C298.51 12.1758 298.298 12.178 298.094 12.178C297.765 12.178 297.457 12.1715 297.171 12.1585C296.885 12.1455 296.612 12.1282 296.352 12.1065V11.437ZM296.736 14.115C296.697 14.2363 296.666 14.3555 296.645 14.4725C296.623 14.5852 296.612 14.7 296.612 14.817C296.612 15.0467 296.729 15.2352 296.963 15.3825C297.197 15.5255 297.565 15.597 298.068 15.597C298.363 15.597 298.647 15.5883 298.92 15.571C299.197 15.5493 299.455 15.519 299.693 15.48C299.931 15.441 300.137 15.3955 300.311 15.3435L300.317 16.0585C300.148 16.0975 299.949 16.1343 299.719 16.169C299.489 16.208 299.236 16.2362 298.959 16.2535C298.686 16.2752 298.395 16.286 298.088 16.286C297.62 16.286 297.225 16.234 296.905 16.13C296.588 16.0303 296.348 15.883 296.183 15.688C296.018 15.493 295.936 15.2525 295.936 14.9665C295.936 14.7888 295.949 14.6242 295.975 14.4725C296.005 14.3165 296.036 14.1757 296.066 14.05L296.736 14.115ZM300.077 10.735C300.133 10.8087 300.194 10.8997 300.259 11.008C300.324 11.1163 300.386 11.2247 300.447 11.333C300.508 11.4413 300.56 11.5388 300.603 11.6255L300.174 11.814C300.109 11.6797 300.029 11.5258 299.934 11.3525C299.838 11.1792 299.745 11.0318 299.654 10.9105L300.077 10.735ZM300.818 10.462C300.874 10.54 300.937 10.6332 301.006 10.7415C301.075 10.8498 301.14 10.9582 301.201 11.0665C301.266 11.1748 301.318 11.268 301.357 11.346L300.935 11.5345C300.865 11.3915 300.781 11.2377 300.681 11.073C300.586 10.904 300.493 10.7588 300.402 10.6375L300.818 10.462ZM304.782 12.8475V13.3285H307.012V12.8475H304.782ZM304.782 11.9635V12.438H307.012V11.9635H304.782ZM304.25 11.5215H307.571V13.7705H304.25V11.5215ZM304.516 14.1215H307.324V16.546H306.739V14.5895H305.081V16.546H304.516V14.1215ZM306.765 10.5075L307.376 10.6895C307.281 10.8585 307.185 11.0253 307.09 11.19C306.995 11.3503 306.904 11.489 306.817 11.606L306.31 11.4305C306.388 11.3048 306.47 11.1553 306.557 10.982C306.648 10.8043 306.717 10.6462 306.765 10.5075ZM304.49 10.722L305.004 10.5335C305.095 10.6678 305.183 10.8195 305.27 10.9885C305.361 11.1532 305.424 11.294 305.459 11.411L304.919 11.6385C304.884 11.5128 304.826 11.3655 304.744 11.1965C304.661 11.0232 304.577 10.865 304.49 10.722ZM304.848 15.0055H306.993V15.454H304.848V15.0055ZM304.848 15.883H306.993V16.3445H304.848V15.883ZM305.602 11.7295H306.148V13.517H305.602V11.7295ZM302.339 14.999L302.878 15.1225C302.8 15.3955 302.694 15.6598 302.56 15.9155C302.425 16.1712 302.284 16.3857 302.137 16.559C302.102 16.5287 302.055 16.4918 301.994 16.4485C301.938 16.4095 301.879 16.3705 301.819 16.3315C301.762 16.2968 301.712 16.2665 301.669 16.2405C301.816 16.0845 301.949 15.896 302.066 15.675C302.183 15.454 302.274 15.2287 302.339 14.999ZM303.132 15.194L303.587 14.9925C303.695 15.1528 303.801 15.3305 303.905 15.5255C304.013 15.7162 304.091 15.8808 304.139 16.0195L303.658 16.2535C303.628 16.1582 303.584 16.0498 303.528 15.9285C303.472 15.8028 303.409 15.6772 303.34 15.5515C303.27 15.4215 303.201 15.3023 303.132 15.194ZM302.547 12.4575V13.192H303.379V12.4575H302.547ZM302.547 13.66V14.4075H303.379V13.66H302.547ZM302.547 11.255V11.9895H303.379V11.255H302.547ZM302.02 10.7545H303.925V14.9015H302.02V10.7545ZM308.735 13.452H313.785V14.0045H308.735V13.452ZM308.41 15.8115H314.097V16.364H308.41V15.8115ZM308.955 14.6285H313.564V15.155H308.955V14.6285ZM309.775 11.3135V12.4185H312.706V11.3135H309.775ZM309.164 10.7675H313.343V12.971H309.164V10.7675ZM310.899 13.6925H311.543V16.0975H310.899V13.6925Z" fill="white"/>
</svg>
