<svg width="375" height="92" viewBox="0 0 375 92" fill="none" xmlns="http://www.w3.org/2000/svg">
<path d="M0 0V72H154.5L187.5 91L220.5 72H375V0H0Z" fill="#FFF8F0"/>
<path d="M123.295 20.23C123.675 20.23 124.16 20.23 124.75 20.23C125.34 20.22 125.96 20.2 126.61 20.17C127.26 20.13 127.86 20.07 128.41 19.99C128.79 19.94 129.16 19.88 129.52 19.81C129.89 19.74 130.24 19.67 130.57 19.6C130.91 19.52 131.215 19.435 131.485 19.345C131.765 19.255 132 19.17 132.19 19.09L133.42 20.74C133.16 20.8 132.935 20.855 132.745 20.905C132.555 20.955 132.395 20.995 132.265 21.025C131.955 21.105 131.62 21.185 131.26 21.265C130.9 21.335 130.53 21.4 130.15 21.46C129.77 21.52 129.385 21.58 128.995 21.64C128.425 21.72 127.82 21.78 127.18 21.82C126.54 21.86 125.92 21.895 125.32 21.925C124.72 21.945 124.2 21.96 123.76 21.97L123.295 20.23ZM123.94 30.565C124.82 30.165 125.54 29.68 126.1 29.11C126.67 28.53 127.09 27.865 127.36 27.115C127.64 26.355 127.78 25.505 127.78 24.565C127.78 24.565 127.78 24.455 127.78 24.235C127.78 24.005 127.78 23.665 127.78 23.215C127.78 22.755 127.78 22.175 127.78 21.475L129.745 21.25C129.745 21.51 129.745 21.79 129.745 22.09C129.745 22.38 129.745 22.67 129.745 22.96C129.745 23.25 129.745 23.515 129.745 23.755C129.745 23.985 129.745 24.175 129.745 24.325C129.745 24.465 129.745 24.535 129.745 24.535C129.745 25.535 129.62 26.485 129.37 27.385C129.13 28.285 128.725 29.115 128.155 29.875C127.585 30.625 126.815 31.29 125.845 31.87L123.94 30.565ZM122.17 23.815C122.38 23.835 122.605 23.855 122.845 23.875C123.085 23.895 123.32 23.905 123.55 23.905C123.69 23.905 123.955 23.905 124.345 23.905C124.735 23.905 125.205 23.905 125.755 23.905C126.315 23.905 126.915 23.905 127.555 23.905C128.195 23.905 128.835 23.905 129.475 23.905C130.115 23.905 130.715 23.905 131.275 23.905C131.835 23.905 132.315 23.905 132.715 23.905C133.115 23.905 133.385 23.905 133.525 23.905C133.635 23.905 133.775 23.9 133.945 23.89C134.115 23.88 134.285 23.87 134.455 23.86C134.635 23.84 134.78 23.825 134.89 23.815V25.75C134.69 25.73 134.47 25.715 134.23 25.705C134 25.695 133.78 25.69 133.57 25.69C133.43 25.69 133.16 25.69 132.76 25.69C132.37 25.69 131.89 25.69 131.32 25.69C130.76 25.69 130.155 25.69 129.505 25.69C128.865 25.69 128.22 25.69 127.57 25.69C126.93 25.69 126.33 25.69 125.77 25.69C125.21 25.69 124.735 25.69 124.345 25.69C123.955 25.69 123.7 25.69 123.58 25.69C123.35 25.69 123.105 25.695 122.845 25.705C122.585 25.715 122.36 25.73 122.17 25.75V23.815ZM138.955 22.87C139.125 22.9 139.325 22.92 139.555 22.93C139.785 22.94 139.98 22.945 140.14 22.945H147.01C147.19 22.945 147.385 22.94 147.595 22.93C147.805 22.92 148 22.9 148.18 22.87V24.76C147.99 24.74 147.79 24.725 147.58 24.715C147.37 24.705 147.18 24.7 147.01 24.7H140.14C139.98 24.7 139.785 24.705 139.555 24.715C139.325 24.725 139.125 24.74 138.955 24.76V22.87ZM142.48 30.55V23.905H144.445V30.55H142.48ZM138.19 29.44C138.38 29.46 138.585 29.48 138.805 29.5C139.025 29.52 139.23 29.53 139.42 29.53H147.715C147.925 29.53 148.125 29.52 148.315 29.5C148.515 29.47 148.695 29.45 148.855 29.44V31.405C148.695 31.375 148.495 31.355 148.255 31.345C148.025 31.335 147.845 31.33 147.715 31.33H139.42C139.24 31.33 139.04 31.335 138.82 31.345C138.6 31.355 138.39 31.375 138.19 31.405V29.44ZM158.575 22.09C158.645 22.25 158.735 22.48 158.845 22.78C158.965 23.07 159.09 23.385 159.22 23.725C159.35 24.055 159.465 24.37 159.565 24.67C159.665 24.97 159.745 25.205 159.805 25.375L158.005 26.005C157.965 25.815 157.895 25.575 157.795 25.285C157.695 24.995 157.585 24.69 157.465 24.37C157.345 24.04 157.225 23.725 157.105 23.425C156.985 23.125 156.88 22.875 156.79 22.675L158.575 22.09ZM164.11 23.185C164.03 23.425 163.96 23.63 163.9 23.8C163.85 23.97 163.8 24.13 163.75 24.28C163.56 25.04 163.3 25.8 162.97 26.56C162.64 27.31 162.22 28.015 161.71 28.675C161.01 29.575 160.215 30.34 159.325 30.97C158.445 31.59 157.565 32.065 156.685 32.395L155.11 30.79C155.66 30.64 156.24 30.42 156.85 30.13C157.46 29.83 158.05 29.47 158.62 29.05C159.19 28.63 159.68 28.165 160.09 27.655C160.43 27.225 160.73 26.735 160.99 26.185C161.26 25.625 161.48 25.03 161.65 24.4C161.83 23.76 161.95 23.13 162.01 22.51L164.11 23.185ZM155.095 22.885C155.195 23.075 155.305 23.32 155.425 23.62C155.555 23.92 155.685 24.235 155.815 24.565C155.945 24.895 156.07 25.215 156.19 25.525C156.32 25.835 156.42 26.095 156.49 26.305L154.66 26.995C154.6 26.795 154.51 26.535 154.39 26.215C154.28 25.895 154.155 25.56 154.015 25.21C153.875 24.85 153.74 24.52 153.61 24.22C153.49 23.92 153.385 23.69 153.295 23.53L155.095 22.885ZM179.485 21.67C179.405 21.81 179.32 21.98 179.23 22.18C179.14 22.37 179.06 22.56 178.99 22.75C178.86 23.19 178.675 23.695 178.435 24.265C178.205 24.825 177.915 25.41 177.565 26.02C177.225 26.62 176.83 27.2 176.38 27.76C175.66 28.62 174.82 29.4 173.86 30.1C172.91 30.8 171.73 31.43 170.32 31.99L168.55 30.4C169.57 30.1 170.45 29.755 171.19 29.365C171.93 28.975 172.575 28.56 173.125 28.12C173.675 27.67 174.165 27.195 174.595 26.695C174.945 26.305 175.265 25.865 175.555 25.375C175.845 24.875 176.095 24.38 176.305 23.89C176.515 23.4 176.655 22.97 176.725 22.6H171.67L172.36 20.905C172.5 20.905 172.715 20.905 173.005 20.905C173.305 20.905 173.64 20.905 174.01 20.905C174.39 20.905 174.76 20.905 175.12 20.905C175.49 20.905 175.81 20.905 176.08 20.905C176.36 20.905 176.55 20.905 176.65 20.905C176.88 20.905 177.11 20.89 177.34 20.86C177.58 20.83 177.785 20.785 177.955 20.725L179.485 21.67ZM174.595 19.3C174.415 19.56 174.24 19.84 174.07 20.14C173.9 20.44 173.77 20.67 173.68 20.83C173.34 21.43 172.92 22.055 172.42 22.705C171.93 23.345 171.37 23.97 170.74 24.58C170.11 25.18 169.44 25.73 168.73 26.23L167.035 24.985C167.695 24.575 168.275 24.155 168.775 23.725C169.285 23.295 169.725 22.87 170.095 22.45C170.465 22.02 170.78 21.61 171.04 21.22C171.31 20.82 171.54 20.465 171.73 20.155C171.85 19.965 171.975 19.72 172.105 19.42C172.235 19.11 172.335 18.83 172.405 18.58L174.595 19.3ZM190.795 18.91C190.785 18.99 190.77 19.12 190.75 19.3C190.74 19.47 190.73 19.645 190.72 19.825C190.71 19.995 190.7 20.12 190.69 20.2C190.68 20.4 190.675 20.67 190.675 21.01C190.675 21.34 190.675 21.71 190.675 22.12C190.675 22.53 190.675 22.945 190.675 23.365C190.685 23.775 190.69 24.165 190.69 24.535C190.7 24.895 190.705 25.195 190.705 25.435L188.83 24.805C188.83 24.615 188.83 24.365 188.83 24.055C188.83 23.735 188.83 23.39 188.83 23.02C188.83 22.64 188.825 22.265 188.815 21.895C188.815 21.525 188.81 21.19 188.8 20.89C188.79 20.59 188.78 20.365 188.77 20.215C188.75 19.905 188.725 19.635 188.695 19.405C188.665 19.165 188.64 19 188.62 18.91H190.795ZM182.32 20.77C182.76 20.77 183.26 20.765 183.82 20.755C184.38 20.745 184.965 20.735 185.575 20.725C186.185 20.715 186.785 20.705 187.375 20.695C187.965 20.685 188.52 20.68 189.04 20.68C189.56 20.67 190.01 20.665 190.39 20.665C190.77 20.665 191.185 20.665 191.635 20.665C192.085 20.655 192.53 20.65 192.97 20.65C193.41 20.65 193.81 20.65 194.17 20.65C194.54 20.65 194.825 20.65 195.025 20.65L195.01 22.42C194.54 22.4 193.92 22.385 193.15 22.375C192.38 22.355 191.44 22.345 190.33 22.345C189.65 22.345 188.96 22.355 188.26 22.375C187.56 22.385 186.865 22.4 186.175 22.42C185.485 22.44 184.82 22.465 184.18 22.495C183.54 22.515 182.935 22.545 182.365 22.585L182.32 20.77ZM190.435 25.21C190.435 26.03 190.335 26.71 190.135 27.25C189.945 27.79 189.655 28.2 189.265 28.48C188.875 28.75 188.39 28.885 187.81 28.885C187.53 28.885 187.235 28.825 186.925 28.705C186.625 28.585 186.345 28.41 186.085 28.18C185.825 27.95 185.615 27.665 185.455 27.325C185.305 26.985 185.23 26.585 185.23 26.125C185.23 25.555 185.365 25.065 185.635 24.655C185.905 24.235 186.265 23.91 186.715 23.68C187.175 23.44 187.68 23.32 188.23 23.32C188.89 23.32 189.44 23.47 189.88 23.77C190.33 24.06 190.665 24.455 190.885 24.955C191.115 25.455 191.23 26.02 191.23 26.65C191.23 27.14 191.15 27.65 190.99 28.18C190.83 28.71 190.565 29.23 190.195 29.74C189.835 30.24 189.345 30.695 188.725 31.105C188.115 31.515 187.35 31.85 186.43 32.11L184.825 30.52C185.465 30.39 186.06 30.22 186.61 30.01C187.16 29.8 187.64 29.535 188.05 29.215C188.47 28.895 188.795 28.5 189.025 28.03C189.265 27.56 189.385 26.995 189.385 26.335C189.385 25.855 189.265 25.495 189.025 25.255C188.795 25.015 188.515 24.895 188.185 24.895C187.995 24.895 187.81 24.94 187.63 25.03C187.45 25.12 187.305 25.255 187.195 25.435C187.085 25.615 187.03 25.835 187.03 26.095C187.03 26.435 187.145 26.71 187.375 26.92C187.615 27.12 187.885 27.22 188.185 27.22C188.425 27.22 188.635 27.145 188.815 26.995C189.005 26.845 189.13 26.595 189.19 26.245C189.25 25.895 189.2 25.425 189.04 24.835L190.435 25.21ZM199.3 19.57C199.51 19.6 199.735 19.62 199.975 19.63C200.215 19.64 200.445 19.645 200.665 19.645C200.825 19.645 201.065 19.645 201.385 19.645C201.705 19.635 202.065 19.625 202.465 19.615C202.875 19.605 203.28 19.595 203.68 19.585C204.08 19.575 204.44 19.565 204.76 19.555C205.09 19.535 205.345 19.52 205.525 19.51C205.835 19.48 206.08 19.455 206.26 19.435C206.44 19.405 206.575 19.375 206.665 19.345L207.64 20.68C207.47 20.79 207.295 20.9 207.115 21.01C206.935 21.12 206.76 21.24 206.59 21.37C206.39 21.51 206.15 21.695 205.87 21.925C205.59 22.145 205.29 22.38 204.97 22.63C204.66 22.88 204.355 23.125 204.055 23.365C203.765 23.605 203.5 23.82 203.26 24.01C203.51 23.95 203.75 23.91 203.98 23.89C204.21 23.86 204.445 23.845 204.685 23.845C205.535 23.845 206.295 24.01 206.965 24.34C207.645 24.67 208.18 25.12 208.57 25.69C208.97 26.25 209.17 26.895 209.17 27.625C209.17 28.415 208.97 29.13 208.57 29.77C208.17 30.41 207.565 30.92 206.755 31.3C205.955 31.68 204.95 31.87 203.74 31.87C203.05 31.87 202.425 31.77 201.865 31.57C201.315 31.37 200.88 31.085 200.56 30.715C200.24 30.345 200.08 29.91 200.08 29.41C200.08 29 200.19 28.62 200.41 28.27C200.64 27.91 200.955 27.62 201.355 27.4C201.765 27.18 202.235 27.07 202.765 27.07C203.455 27.07 204.035 27.21 204.505 27.49C204.985 27.76 205.35 28.125 205.6 28.585C205.86 29.045 205.995 29.55 206.005 30.1L204.25 30.34C204.24 29.79 204.1 29.35 203.83 29.02C203.57 28.68 203.22 28.51 202.78 28.51C202.5 28.51 202.275 28.585 202.105 28.735C201.935 28.875 201.85 29.04 201.85 29.23C201.85 29.51 201.99 29.735 202.27 29.905C202.55 30.075 202.915 30.16 203.365 30.16C204.215 30.16 204.925 30.06 205.495 29.86C206.065 29.65 206.49 29.355 206.77 28.975C207.06 28.585 207.205 28.125 207.205 27.595C207.205 27.145 207.065 26.75 206.785 26.41C206.515 26.07 206.145 25.805 205.675 25.615C205.205 25.425 204.675 25.33 204.085 25.33C203.505 25.33 202.975 25.405 202.495 25.555C202.015 25.695 201.56 25.9 201.13 26.17C200.71 26.43 200.295 26.75 199.885 27.13C199.485 27.5 199.085 27.915 198.685 28.375L197.32 26.965C197.59 26.745 197.895 26.5 198.235 26.23C198.575 25.95 198.92 25.66 199.27 25.36C199.63 25.06 199.965 24.78 200.275 24.52C200.595 24.25 200.865 24.025 201.085 23.845C201.295 23.675 201.54 23.475 201.82 23.245C202.1 23.015 202.39 22.78 202.69 22.54C202.99 22.29 203.275 22.055 203.545 21.835C203.815 21.605 204.04 21.41 204.22 21.25C204.07 21.25 203.875 21.255 203.635 21.265C203.395 21.275 203.13 21.285 202.84 21.295C202.56 21.305 202.275 21.315 201.985 21.325C201.705 21.335 201.44 21.35 201.19 21.37C200.95 21.38 200.75 21.39 200.59 21.4C200.39 21.41 200.18 21.425 199.96 21.445C199.74 21.465 199.54 21.49 199.36 21.52L199.3 19.57ZM217.66 19.195C217.6 19.405 217.535 19.655 217.465 19.945C217.405 20.225 217.36 20.45 217.33 20.62C217.26 20.96 217.17 21.375 217.06 21.865C216.96 22.355 216.85 22.875 216.73 23.425C216.61 23.965 216.485 24.49 216.355 25C216.215 25.52 216.05 26.09 215.86 26.71C215.68 27.33 215.48 27.955 215.26 28.585C215.05 29.215 214.835 29.82 214.615 30.4C214.395 30.98 214.18 31.495 213.97 31.945L211.87 31.24C212.1 30.86 212.335 30.395 212.575 29.845C212.825 29.295 213.07 28.71 213.31 28.09C213.55 27.46 213.77 26.835 213.97 26.215C214.17 25.585 214.34 25.01 214.48 24.49C214.57 24.13 214.66 23.765 214.75 23.395C214.84 23.025 214.92 22.665 214.99 22.315C215.07 21.965 215.135 21.64 215.185 21.34C215.245 21.03 215.29 20.765 215.32 20.545C215.35 20.265 215.37 19.985 215.38 19.705C215.39 19.425 215.385 19.195 215.365 19.015L217.66 19.195ZM213.835 21.445C214.445 21.445 215.08 21.415 215.74 21.355C216.4 21.295 217.065 21.21 217.735 21.1C218.405 20.98 219.07 20.845 219.73 20.695V22.57C219.11 22.72 218.45 22.845 217.75 22.945C217.05 23.045 216.36 23.125 215.68 23.185C215 23.235 214.375 23.26 213.805 23.26C213.445 23.26 213.12 23.255 212.83 23.245C212.54 23.225 212.26 23.21 211.99 23.2L211.945 21.325C212.335 21.365 212.67 21.395 212.95 21.415C213.23 21.435 213.525 21.445 213.835 21.445ZM218.545 23.74C218.965 23.69 219.43 23.655 219.94 23.635C220.45 23.605 220.945 23.59 221.425 23.59C221.855 23.59 222.29 23.6 222.73 23.62C223.18 23.64 223.625 23.675 224.065 23.725L224.02 25.525C223.65 25.475 223.24 25.43 222.79 25.39C222.35 25.35 221.9 25.33 221.44 25.33C220.92 25.33 220.425 25.345 219.955 25.375C219.485 25.395 219.015 25.435 218.545 25.495V23.74ZM219.355 27.505C219.295 27.715 219.245 27.935 219.205 28.165C219.165 28.395 219.145 28.59 219.145 28.75C219.145 28.92 219.18 29.075 219.25 29.215C219.32 29.355 219.43 29.48 219.58 29.59C219.73 29.69 219.935 29.77 220.195 29.83C220.465 29.88 220.8 29.905 221.2 29.905C221.7 29.905 222.21 29.88 222.73 29.83C223.25 29.78 223.78 29.705 224.32 29.605L224.245 31.51C223.825 31.57 223.36 31.62 222.85 31.66C222.34 31.71 221.785 31.735 221.185 31.735C219.925 31.735 218.96 31.525 218.29 31.105C217.63 30.685 217.3 30.1 217.3 29.35C217.3 29 217.325 28.65 217.375 28.3C217.435 27.95 217.495 27.63 217.555 27.34L219.355 27.505ZM222.46 19.63C222.59 19.81 222.725 20.025 222.865 20.275C223.015 20.525 223.16 20.775 223.3 21.025C223.44 21.275 223.555 21.495 223.645 21.685L222.445 22.21C222.345 22 222.23 21.77 222.1 21.52C221.97 21.27 221.835 21.02 221.695 20.77C221.555 20.52 221.415 20.305 221.275 20.125L222.46 19.63ZM224.23 18.955C224.37 19.135 224.515 19.355 224.665 19.615C224.815 19.865 224.96 20.115 225.1 20.365C225.25 20.605 225.365 20.815 225.445 20.995L224.26 21.505C224.1 21.185 223.91 20.83 223.69 20.44C223.47 20.05 223.255 19.715 223.045 19.435L224.23 18.955ZM237.67 19.075C237.65 19.235 237.635 19.405 237.625 19.585C237.615 19.755 237.605 19.925 237.595 20.095C237.585 20.235 237.58 20.45 237.58 20.74C237.59 21.02 237.595 21.34 237.595 21.7C237.595 22.05 237.595 22.41 237.595 22.78C237.595 23.14 237.595 23.475 237.595 23.785C237.605 24.095 237.61 24.335 237.61 24.505C237.61 25.395 237.575 26.205 237.505 26.935C237.445 27.655 237.305 28.32 237.085 28.93C236.875 29.54 236.55 30.105 236.11 30.625C235.68 31.145 235.09 31.645 234.34 32.125L232.615 30.76C232.895 30.64 233.205 30.47 233.545 30.25C233.885 30.02 234.155 29.79 234.355 29.56C234.645 29.26 234.88 28.945 235.06 28.615C235.24 28.285 235.38 27.92 235.48 27.52C235.59 27.12 235.66 26.675 235.69 26.185C235.73 25.695 235.75 25.13 235.75 24.49C235.75 24.22 235.75 23.88 235.75 23.47C235.75 23.06 235.745 22.635 235.735 22.195C235.725 21.755 235.715 21.35 235.705 20.98C235.695 20.6 235.68 20.31 235.66 20.11C235.65 19.92 235.625 19.73 235.585 19.54C235.555 19.35 235.525 19.195 235.495 19.075H237.67ZM231.76 22C232 22.03 232.245 22.06 232.495 22.09C232.745 22.11 232.995 22.13 233.245 22.15C233.505 22.16 233.765 22.165 234.025 22.165C234.675 22.165 235.355 22.15 236.065 22.12C236.775 22.09 237.46 22.045 238.12 21.985C238.78 21.915 239.355 21.835 239.845 21.745L239.83 23.695C239.36 23.745 238.805 23.795 238.165 23.845C237.525 23.885 236.85 23.92 236.14 23.95C235.44 23.97 234.75 23.98 234.07 23.98C233.86 23.98 233.62 23.975 233.35 23.965C233.08 23.955 232.81 23.945 232.54 23.935C232.27 23.925 232.01 23.915 231.76 23.905V22ZM230.215 19.33C230.155 19.51 230.09 19.72 230.02 19.96C229.95 20.19 229.895 20.385 229.855 20.545C229.765 20.955 229.67 21.45 229.57 22.03C229.47 22.6 229.385 23.195 229.315 23.815C229.245 24.435 229.21 25.045 229.21 25.645C229.21 26.235 229.26 26.76 229.36 27.22C229.46 26.99 229.575 26.715 229.705 26.395C229.835 26.065 229.96 25.76 230.08 25.48L231.01 26.08C230.87 26.51 230.73 26.955 230.59 27.415C230.46 27.865 230.345 28.295 230.245 28.705C230.145 29.105 230.06 29.45 229.99 29.74C229.96 29.85 229.935 29.98 229.915 30.13C229.905 30.27 229.9 30.385 229.9 30.475C229.9 30.545 229.9 30.64 229.9 30.76C229.91 30.88 229.92 30.99 229.93 31.09L228.265 31.255C228.155 30.955 228.03 30.545 227.89 30.025C227.76 29.495 227.645 28.915 227.545 28.285C227.455 27.645 227.41 27.015 227.41 26.395C227.41 25.575 227.435 24.785 227.485 24.025C227.545 23.265 227.615 22.575 227.695 21.955C227.775 21.325 227.84 20.81 227.89 20.41C227.93 20.2 227.955 19.98 227.965 19.75C227.975 19.51 227.985 19.295 227.995 19.105L230.215 19.33ZM242.035 20.71C242.335 20.7 242.62 20.69 242.89 20.68C243.16 20.66 243.365 20.645 243.505 20.635C243.815 20.615 244.195 20.585 244.645 20.545C245.105 20.495 245.615 20.445 246.175 20.395C246.745 20.345 247.35 20.295 247.99 20.245C248.63 20.195 249.295 20.14 249.985 20.08C250.505 20.03 251.02 19.99 251.53 19.96C252.05 19.92 252.54 19.89 253 19.87C253.47 19.84 253.88 19.82 254.23 19.81L254.245 21.73C253.975 21.73 253.665 21.735 253.315 21.745C252.965 21.755 252.615 21.775 252.265 21.805C251.925 21.825 251.62 21.87 251.35 21.94C250.9 22.06 250.48 22.265 250.09 22.555C249.7 22.835 249.36 23.17 249.07 23.56C248.79 23.94 248.57 24.355 248.41 24.805C248.25 25.245 248.17 25.69 248.17 26.14C248.17 26.63 248.255 27.065 248.425 27.445C248.605 27.815 248.845 28.135 249.145 28.405C249.455 28.665 249.815 28.885 250.225 29.065C250.635 29.235 251.075 29.365 251.545 29.455C252.025 29.545 252.52 29.605 253.03 29.635L252.325 31.69C251.695 31.65 251.08 31.55 250.48 31.39C249.89 31.23 249.335 31.01 248.815 30.73C248.295 30.45 247.84 30.11 247.45 29.71C247.07 29.3 246.765 28.835 246.535 28.315C246.315 27.785 246.205 27.195 246.205 26.545C246.205 25.825 246.32 25.165 246.55 24.565C246.78 23.955 247.065 23.425 247.405 22.975C247.755 22.515 248.1 22.16 248.44 21.91C248.16 21.95 247.82 21.99 247.42 22.03C247.03 22.07 246.605 22.12 246.145 22.18C245.695 22.23 245.235 22.285 244.765 22.345C244.295 22.405 243.84 22.475 243.4 22.555C242.97 22.625 242.58 22.695 242.23 22.765L242.035 20.71ZM252.1 23.2C252.23 23.38 252.365 23.595 252.505 23.845C252.655 24.085 252.8 24.33 252.94 24.58C253.08 24.82 253.2 25.04 253.3 25.24L252.16 25.75C251.97 25.33 251.785 24.96 251.605 24.64C251.435 24.32 251.23 23.995 250.99 23.665L252.1 23.2ZM253.78 22.51C253.91 22.69 254.05 22.9 254.2 23.14C254.36 23.37 254.515 23.61 254.665 23.86C254.815 24.1 254.94 24.315 255.04 24.505L253.915 25.045C253.715 24.645 253.52 24.29 253.33 23.98C253.15 23.67 252.935 23.35 252.685 23.02L253.78 22.51ZM91.57 44.175H105.46V46.14H91.57V44.175ZM112.345 39.765H117.865V41.265H112.345V39.765ZM114.235 47.7H118.69V49.125H114.235V47.7ZM114.19 50.25H118.75V51.735H114.19V50.25ZM111.865 42.54H120.52V44.07H111.865V42.54ZM114.415 38.265H116.08V43.455H114.415V38.265ZM108.685 38.265L110.245 38.82C110.045 39.21 109.835 39.61 109.615 40.02C109.395 40.42 109.18 40.81 108.97 41.19C108.76 41.56 108.56 41.885 108.37 42.165L107.17 41.67C107.35 41.36 107.535 41.01 107.725 40.62C107.915 40.23 108.095 39.825 108.265 39.405C108.445 38.985 108.585 38.605 108.685 38.265ZM110.38 40.05L111.85 40.71C111.48 41.27 111.08 41.86 110.65 42.48C110.22 43.1 109.79 43.695 109.36 44.265C108.93 44.835 108.52 45.335 108.13 45.765L107.095 45.195C107.375 44.855 107.665 44.475 107.965 44.055C108.275 43.625 108.575 43.18 108.865 42.72C109.165 42.25 109.445 41.785 109.705 41.325C109.965 40.865 110.19 40.44 110.38 40.05ZM106.375 41.775L107.26 40.56C107.51 40.8 107.77 41.06 108.04 41.34C108.31 41.62 108.56 41.9 108.79 42.18C109.02 42.46 109.19 42.72 109.3 42.96L108.34 44.325C108.23 44.085 108.065 43.815 107.845 43.515C107.635 43.215 107.4 42.915 107.14 42.615C106.88 42.305 106.625 42.025 106.375 41.775ZM109.87 43.635L111.13 43.125C111.33 43.445 111.515 43.795 111.685 44.175C111.865 44.555 112.025 44.93 112.165 45.3C112.305 45.66 112.405 45.985 112.465 46.275L111.1 46.875C111.06 46.595 110.975 46.27 110.845 45.9C110.715 45.52 110.565 45.135 110.395 44.745C110.235 44.355 110.06 43.985 109.87 43.635ZM106.33 44.835C107 44.805 107.79 44.765 108.7 44.715C109.61 44.655 110.535 44.595 111.475 44.535L111.505 46.005C110.625 46.075 109.745 46.145 108.865 46.215C107.995 46.275 107.21 46.335 106.51 46.395L106.33 44.835ZM110.29 47.4L111.535 47.025C111.715 47.435 111.875 47.89 112.015 48.39C112.165 48.89 112.26 49.315 112.3 49.665L110.965 50.1C110.935 49.74 110.855 49.31 110.725 48.81C110.605 48.3 110.46 47.83 110.29 47.4ZM106.975 47.07L108.415 47.325C108.335 48.045 108.215 48.755 108.055 49.455C107.905 50.145 107.725 50.73 107.515 51.21C107.415 51.14 107.285 51.065 107.125 50.985C106.965 50.905 106.8 50.83 106.63 50.76C106.46 50.68 106.315 50.62 106.195 50.58C106.415 50.13 106.585 49.59 106.705 48.96C106.825 48.33 106.915 47.7 106.975 47.07ZM108.61 45.645H110.17V52.35H108.61V45.645ZM118.825 38.55L120.4 39.06C119.67 41 118.645 42.695 117.325 44.145C116.015 45.585 114.39 46.79 112.45 47.76C112.38 47.63 112.28 47.485 112.15 47.325C112.03 47.165 111.9 47.01 111.76 46.86C111.62 46.71 111.49 46.59 111.37 46.5C113.2 45.65 114.745 44.54 116.005 43.17C117.275 41.8 118.215 40.26 118.825 38.55ZM114.91 45.15H118.735V46.62H114.91V52.335H113.275V46.065L114.145 45.15H114.91ZM117.97 45.15H119.695V52.35H117.97V45.15ZM127.72 40.515C128.18 40.575 128.695 40.62 129.265 40.65C129.845 40.67 130.43 40.68 131.02 40.68C131.62 40.67 132.195 40.65 132.745 40.62C133.295 40.58 133.77 40.54 134.17 40.5V42.435C133.71 42.475 133.205 42.51 132.655 42.54C132.105 42.56 131.54 42.57 130.96 42.57C130.38 42.57 129.81 42.56 129.25 42.54C128.7 42.51 128.19 42.475 127.72 42.435V40.515ZM128.92 46.92C128.86 47.17 128.815 47.395 128.785 47.595C128.755 47.785 128.74 47.98 128.74 48.18C128.74 48.34 128.78 48.49 128.86 48.63C128.94 48.76 129.06 48.875 129.22 48.975C129.39 49.065 129.605 49.135 129.865 49.185C130.135 49.225 130.46 49.245 130.84 49.245C131.51 49.245 132.14 49.215 132.73 49.155C133.32 49.085 133.945 48.985 134.605 48.855L134.635 50.88C134.155 50.97 133.6 51.04 132.97 51.09C132.35 51.14 131.615 51.165 130.765 51.165C129.475 51.165 128.515 50.95 127.885 50.52C127.255 50.08 126.94 49.475 126.94 48.705C126.94 48.415 126.96 48.115 127 47.805C127.05 47.485 127.115 47.135 127.195 46.755L128.92 46.92ZM125.41 39.51C125.37 39.61 125.325 39.75 125.275 39.93C125.225 40.11 125.175 40.285 125.125 40.455C125.085 40.625 125.055 40.755 125.035 40.845C125.005 41.055 124.955 41.33 124.885 41.67C124.825 42 124.76 42.375 124.69 42.795C124.63 43.205 124.57 43.625 124.51 44.055C124.45 44.485 124.4 44.9 124.36 45.3C124.33 45.7 124.315 46.05 124.315 46.35C124.315 46.49 124.315 46.65 124.315 46.83C124.325 47.01 124.345 47.175 124.375 47.325C124.445 47.155 124.52 46.985 124.6 46.815C124.68 46.645 124.76 46.475 124.84 46.305C124.92 46.125 124.99 45.955 125.05 45.795L125.98 46.53C125.84 46.94 125.695 47.38 125.545 47.85C125.405 48.32 125.275 48.765 125.155 49.185C125.045 49.595 124.96 49.935 124.9 50.205C124.88 50.315 124.86 50.44 124.84 50.58C124.83 50.72 124.825 50.83 124.825 50.91C124.825 50.99 124.825 51.085 124.825 51.195C124.835 51.315 124.845 51.425 124.855 51.525L123.115 51.645C122.965 51.125 122.83 50.435 122.71 49.575C122.59 48.705 122.53 47.76 122.53 46.74C122.53 46.18 122.555 45.61 122.605 45.03C122.655 44.45 122.715 43.895 122.785 43.365C122.855 42.825 122.92 42.335 122.98 41.895C123.05 41.455 123.11 41.09 123.16 40.8C123.18 40.59 123.205 40.355 123.235 40.095C123.275 39.825 123.3 39.57 123.31 39.33L125.41 39.51ZM142.54 38.82C142.53 38.9 142.515 39.025 142.495 39.195C142.475 39.355 142.455 39.52 142.435 39.69C142.425 39.85 142.415 39.995 142.405 40.125C142.385 40.415 142.365 40.735 142.345 41.085C142.335 41.425 142.325 41.78 142.315 42.15C142.305 42.51 142.295 42.875 142.285 43.245C142.285 43.615 142.285 43.975 142.285 44.325C142.285 44.735 142.29 45.19 142.3 45.69C142.31 46.18 142.32 46.67 142.33 47.16C142.35 47.64 142.36 48.08 142.36 48.48C142.37 48.88 142.375 49.19 142.375 49.41C142.375 50.03 142.305 50.51 142.165 50.85C142.035 51.19 141.845 51.425 141.595 51.555C141.345 51.695 141.055 51.765 140.725 51.765C140.365 51.765 139.98 51.69 139.57 51.54C139.16 51.4 138.775 51.2 138.415 50.94C138.065 50.68 137.775 50.38 137.545 50.04C137.325 49.69 137.215 49.315 137.215 48.915C137.215 48.435 137.395 47.96 137.755 47.49C138.125 47.01 138.61 46.57 139.21 46.17C139.82 45.77 140.475 45.45 141.175 45.21C141.845 44.96 142.535 44.78 143.245 44.67C143.955 44.55 144.595 44.49 145.165 44.49C145.935 44.49 146.63 44.62 147.25 44.88C147.87 45.13 148.365 45.5 148.735 45.99C149.105 46.48 149.29 47.07 149.29 47.76C149.29 48.34 149.18 48.875 148.96 49.365C148.74 49.855 148.385 50.28 147.895 50.64C147.415 50.99 146.775 51.265 145.975 51.465C145.635 51.535 145.295 51.585 144.955 51.615C144.625 51.655 144.31 51.685 144.01 51.705L143.32 49.77C143.66 49.77 143.985 49.765 144.295 49.755C144.615 49.735 144.905 49.705 145.165 49.665C145.575 49.585 145.945 49.465 146.275 49.305C146.605 49.145 146.865 48.935 147.055 48.675C147.245 48.415 147.34 48.105 147.34 47.745C147.34 47.405 147.245 47.115 147.055 46.875C146.875 46.635 146.62 46.45 146.29 46.32C145.96 46.19 145.575 46.125 145.135 46.125C144.505 46.125 143.865 46.19 143.215 46.32C142.575 46.45 141.96 46.63 141.37 46.86C140.93 47.03 140.535 47.23 140.185 47.46C139.835 47.68 139.56 47.91 139.36 48.15C139.16 48.39 139.06 48.62 139.06 48.84C139.06 48.96 139.095 49.075 139.165 49.185C139.245 49.285 139.345 49.375 139.465 49.455C139.585 49.535 139.705 49.6 139.825 49.65C139.955 49.69 140.065 49.71 140.155 49.71C140.295 49.71 140.41 49.67 140.5 49.59C140.59 49.5 140.635 49.33 140.635 49.08C140.635 48.81 140.625 48.425 140.605 47.925C140.595 47.415 140.58 46.85 140.56 46.23C140.55 45.61 140.545 44.995 140.545 44.385C140.545 43.965 140.545 43.54 140.545 43.11C140.555 42.68 140.56 42.27 140.56 41.88C140.56 41.49 140.56 41.145 140.56 40.845C140.57 40.545 140.575 40.31 140.575 40.14C140.575 40.03 140.57 39.89 140.56 39.72C140.55 39.55 140.535 39.38 140.515 39.21C140.505 39.03 140.49 38.9 140.47 38.82H142.54ZM146.815 40.44C147.195 40.62 147.62 40.84 148.09 41.1C148.57 41.36 149.025 41.62 149.455 41.88C149.895 42.13 150.245 42.355 150.505 42.555L149.605 44.085C149.415 43.925 149.165 43.745 148.855 43.545C148.555 43.345 148.225 43.14 147.865 42.93C147.515 42.72 147.175 42.525 146.845 42.345C146.515 42.155 146.23 42.005 145.99 41.895L146.815 40.44ZM137.62 41.265C138.06 41.315 138.445 41.35 138.775 41.37C139.115 41.38 139.42 41.385 139.69 41.385C140.08 41.385 140.51 41.37 140.98 41.34C141.45 41.3 141.93 41.25 142.42 41.19C142.91 41.12 143.385 41.04 143.845 40.95C144.315 40.86 144.74 40.76 145.12 40.65L145.165 42.51C144.745 42.61 144.29 42.7 143.8 42.78C143.31 42.85 142.815 42.915 142.315 42.975C141.825 43.035 141.355 43.08 140.905 43.11C140.465 43.14 140.08 43.155 139.75 43.155C139.25 43.155 138.84 43.15 138.52 43.14C138.2 43.13 137.91 43.11 137.65 43.08L137.62 41.265ZM156.31 45.48H161.38V50.22H156.31V48.75H159.685V46.965H156.31V45.48ZM155.53 45.48H157.195V51.075H155.53V45.48ZM153.085 41.01H156.835V42.225H153.085V41.01ZM160.045 41.01H163.825V42.225H160.045V41.01ZM163.075 38.835H164.905V50.19C164.905 50.69 164.845 51.08 164.725 51.36C164.605 51.64 164.39 51.855 164.08 52.005C163.76 52.155 163.36 52.25 162.88 52.29C162.4 52.33 161.81 52.35 161.11 52.35C161.1 52.17 161.06 51.97 160.99 51.75C160.92 51.53 160.845 51.305 160.765 51.075C160.685 50.855 160.595 50.665 160.495 50.505C160.795 50.525 161.095 50.54 161.395 50.55C161.695 50.55 161.96 50.55 162.19 50.55C162.43 50.54 162.6 50.535 162.7 50.535C162.84 50.535 162.935 50.51 162.985 50.46C163.045 50.4 163.075 50.3 163.075 50.16V38.835ZM153.22 38.835H157.975V44.445H153.22V43.08H156.28V40.2H153.22V38.835ZM164.05 38.835V40.2H160.69V43.11H164.05V44.46H158.98V38.835H164.05ZM152.2 38.835H153.985V52.35H152.2V38.835ZM169.9 40.275C169.86 40.455 169.825 40.66 169.795 40.89C169.775 41.12 169.755 41.345 169.735 41.565C169.725 41.785 169.72 41.965 169.72 42.105C169.71 42.435 169.705 42.775 169.705 43.125C169.715 43.475 169.725 43.835 169.735 44.205C169.755 44.565 169.78 44.925 169.81 45.285C169.88 46.005 169.98 46.64 170.11 47.19C170.24 47.74 170.41 48.17 170.62 48.48C170.83 48.78 171.095 48.93 171.415 48.93C171.585 48.93 171.75 48.835 171.91 48.645C172.08 48.455 172.23 48.21 172.36 47.91C172.5 47.6 172.62 47.275 172.72 46.935C172.83 46.595 172.925 46.275 173.005 45.975L174.505 47.805C174.175 48.675 173.845 49.37 173.515 49.89C173.195 50.4 172.86 50.77 172.51 51C172.16 51.22 171.78 51.33 171.37 51.33C170.83 51.33 170.315 51.15 169.825 50.79C169.345 50.43 168.935 49.85 168.595 49.05C168.255 48.24 168.015 47.165 167.875 45.825C167.825 45.365 167.785 44.88 167.755 44.37C167.735 43.86 167.72 43.375 167.71 42.915C167.71 42.455 167.71 42.075 167.71 41.775C167.71 41.565 167.7 41.315 167.68 41.025C167.66 40.735 167.63 40.475 167.59 40.245L169.9 40.275ZM177.4 40.62C177.68 40.96 177.95 41.375 178.21 41.865C178.47 42.355 178.71 42.88 178.93 43.44C179.15 44 179.345 44.575 179.515 45.165C179.685 45.745 179.82 46.315 179.92 46.875C180.03 47.425 180.1 47.93 180.13 48.39L178.15 49.155C178.1 48.545 178.01 47.88 177.88 47.16C177.75 46.44 177.575 45.715 177.355 44.985C177.135 44.255 176.87 43.565 176.56 42.915C176.26 42.265 175.905 41.705 175.495 41.235L177.4 40.62ZM184.765 43.095H192.28V44.685H184.765V43.095ZM184.57 50.22H192.325V51.81H184.57V50.22ZM183.775 46.185H193.345V52.365H191.485V47.76H185.545V52.365H183.775V46.185ZM188.455 40.035C188.045 40.625 187.525 41.225 186.895 41.835C186.275 42.445 185.58 43.03 184.81 43.59C184.05 44.15 183.26 44.655 182.44 45.105C182.36 44.965 182.255 44.805 182.125 44.625C182.005 44.445 181.87 44.27 181.72 44.1C181.58 43.92 181.44 43.77 181.3 43.65C182.17 43.22 183 42.705 183.79 42.105C184.59 41.505 185.305 40.87 185.935 40.2C186.565 39.53 187.065 38.89 187.435 38.28H189.31C189.71 38.85 190.16 39.395 190.66 39.915C191.16 40.435 191.685 40.92 192.235 41.37C192.795 41.82 193.375 42.22 193.975 42.57C194.575 42.92 195.17 43.215 195.76 43.455C195.54 43.685 195.33 43.945 195.13 44.235C194.93 44.515 194.75 44.795 194.59 45.075C194.01 44.775 193.425 44.43 192.835 44.04C192.245 43.64 191.675 43.22 191.125 42.78C190.585 42.33 190.085 41.875 189.625 41.415C189.165 40.945 188.775 40.485 188.455 40.035ZM203.665 49.59C204.325 49.49 204.93 49.345 205.48 49.155C206.03 48.965 206.505 48.72 206.905 48.42C207.315 48.12 207.63 47.755 207.85 47.325C208.07 46.885 208.18 46.37 208.18 45.78C208.18 45.49 208.125 45.21 208.015 44.94C207.905 44.67 207.74 44.43 207.52 44.22C207.31 44 207.055 43.83 206.755 43.71C206.455 43.59 206.115 43.53 205.735 43.53C204.785 43.53 203.9 43.78 203.08 44.28C202.26 44.77 201.485 45.405 200.755 46.185V44.055C201.655 43.215 202.56 42.625 203.47 42.285C204.39 41.945 205.25 41.775 206.05 41.775C206.82 41.775 207.515 41.945 208.135 42.285C208.765 42.625 209.265 43.1 209.635 43.71C210.005 44.32 210.19 45.025 210.19 45.825C210.19 46.585 210.07 47.27 209.83 47.88C209.59 48.49 209.235 49.025 208.765 49.485C208.295 49.945 207.71 50.335 207.01 50.655C206.31 50.965 205.495 51.215 204.565 51.405L203.665 49.59ZM200.26 43.08C200.1 43.09 199.895 43.115 199.645 43.155C199.395 43.185 199.125 43.22 198.835 43.26C198.555 43.29 198.27 43.325 197.98 43.365C197.69 43.405 197.42 43.44 197.17 43.47L196.975 41.55C197.195 41.56 197.4 41.565 197.59 41.565C197.79 41.555 198.02 41.545 198.28 41.535C198.52 41.515 198.805 41.49 199.135 41.46C199.475 41.42 199.815 41.375 200.155 41.325C200.505 41.275 200.83 41.22 201.13 41.16C201.43 41.1 201.665 41.04 201.835 40.98L202.435 41.745C202.345 41.865 202.24 42.015 202.12 42.195C202.01 42.375 201.895 42.56 201.775 42.75C201.655 42.93 201.55 43.09 201.46 43.23L200.575 46.05C200.415 46.28 200.215 46.57 199.975 46.92C199.745 47.27 199.5 47.64 199.24 48.03C198.98 48.42 198.725 48.795 198.475 49.155C198.225 49.515 198 49.83 197.8 50.1L196.615 48.465C196.805 48.225 197.025 47.95 197.275 47.64C197.525 47.32 197.78 46.985 198.04 46.635C198.31 46.275 198.575 45.92 198.835 45.57C199.095 45.21 199.335 44.875 199.555 44.565C199.785 44.245 199.975 43.97 200.125 43.74L200.155 43.35L200.26 43.08ZM200.08 40.185C200.08 39.965 200.08 39.745 200.08 39.525C200.08 39.295 200.06 39.065 200.02 38.835L202.21 38.91C202.16 39.14 202.1 39.475 202.03 39.915C201.96 40.345 201.89 40.84 201.82 41.4C201.76 41.96 201.7 42.55 201.64 43.17C201.59 43.78 201.545 44.39 201.505 45C201.475 45.61 201.46 46.18 201.46 46.71C201.46 47.12 201.46 47.535 201.46 47.955C201.47 48.375 201.48 48.805 201.49 49.245C201.5 49.685 201.52 50.14 201.55 50.61C201.56 50.74 201.575 50.92 201.595 51.15C201.615 51.39 201.635 51.595 201.655 51.765H199.585C199.605 51.595 199.615 51.395 199.615 51.165C199.625 50.945 199.63 50.775 199.63 50.655C199.64 50.165 199.65 49.71 199.66 49.29C199.67 48.87 199.675 48.425 199.675 47.955C199.685 47.485 199.7 46.94 199.72 46.32C199.73 46.09 199.745 45.8 199.765 45.45C199.785 45.09 199.805 44.7 199.825 44.28C199.855 43.85 199.885 43.415 199.915 42.975C199.945 42.535 199.97 42.125 199.99 41.745C200.02 41.355 200.04 41.025 200.05 40.755C200.07 40.475 200.08 40.285 200.08 40.185ZM222.475 39.225C222.465 39.305 222.455 39.425 222.445 39.585C222.435 39.735 222.425 39.895 222.415 40.065C222.405 40.235 222.395 40.39 222.385 40.53C222.385 40.86 222.38 41.18 222.37 41.49C222.37 41.8 222.365 42.095 222.355 42.375C222.355 42.645 222.35 42.91 222.34 43.17C222.33 43.61 222.315 44.07 222.295 44.55C222.275 45.03 222.25 45.475 222.22 45.885C222.19 46.295 222.15 46.63 222.1 46.89C222.02 47.28 221.88 47.545 221.68 47.685C221.48 47.815 221.185 47.88 220.795 47.88C220.625 47.88 220.39 47.87 220.09 47.85C219.8 47.82 219.51 47.785 219.22 47.745C218.94 47.705 218.71 47.675 218.53 47.655L218.575 45.99C218.805 46.04 219.055 46.085 219.325 46.125C219.605 46.165 219.815 46.185 219.955 46.185C220.105 46.185 220.215 46.165 220.285 46.125C220.365 46.075 220.41 45.98 220.42 45.84C220.45 45.65 220.47 45.41 220.48 45.12C220.5 44.83 220.515 44.515 220.525 44.175C220.545 43.825 220.56 43.485 220.57 43.155C220.57 42.885 220.57 42.615 220.57 42.345C220.57 42.065 220.57 41.78 220.57 41.49C220.57 41.19 220.57 40.895 220.57 40.605C220.57 40.475 220.56 40.325 220.54 40.155C220.53 39.975 220.52 39.8 220.51 39.63C220.5 39.46 220.485 39.325 220.465 39.225H222.475ZM216.58 39.675C216.54 39.925 216.515 40.17 216.505 40.41C216.495 40.64 216.49 40.915 216.49 41.235C216.49 41.505 216.485 41.865 216.475 42.315C216.475 42.765 216.47 43.255 216.46 43.785C216.46 44.305 216.455 44.83 216.445 45.36C216.445 45.88 216.445 46.355 216.445 46.785C216.445 47.215 216.45 47.555 216.46 47.805C216.47 48.175 216.495 48.48 216.535 48.72C216.585 48.95 216.685 49.13 216.835 49.26C216.985 49.39 217.22 49.48 217.54 49.53C217.87 49.58 218.315 49.605 218.875 49.605C219.365 49.605 219.885 49.59 220.435 49.56C220.985 49.52 221.515 49.47 222.025 49.41C222.535 49.35 222.98 49.29 223.36 49.23L223.285 51.27C222.955 51.31 222.545 51.345 222.055 51.375C221.565 51.415 221.055 51.445 220.525 51.465C219.995 51.495 219.49 51.51 219.01 51.51C218.04 51.51 217.265 51.455 216.685 51.345C216.105 51.235 215.665 51.05 215.365 50.79C215.065 50.53 214.865 50.18 214.765 49.74C214.665 49.3 214.605 48.755 214.585 48.105C214.585 47.885 214.58 47.59 214.57 47.22C214.57 46.85 214.57 46.44 214.57 45.99C214.57 45.53 214.57 45.06 214.57 44.58C214.57 44.1 214.57 43.645 214.57 43.215C214.58 42.775 214.585 42.39 214.585 42.06C214.585 41.73 214.585 41.49 214.585 41.34C214.585 41.03 214.575 40.74 214.555 40.47C214.535 40.2 214.505 39.935 214.465 39.675H216.58ZM211.555 43.065C211.775 43.065 212.05 43.055 212.38 43.035C212.71 43.015 213.065 42.99 213.445 42.96C213.745 42.93 214.19 42.89 214.78 42.84C215.37 42.78 216.04 42.715 216.79 42.645C217.54 42.575 218.32 42.505 219.13 42.435C219.95 42.355 220.735 42.285 221.485 42.225C222.235 42.165 222.9 42.115 223.48 42.075C223.69 42.055 223.925 42.04 224.185 42.03C224.455 42.01 224.7 41.99 224.92 41.97V43.815C224.84 43.805 224.71 43.8 224.53 43.8C224.35 43.8 224.16 43.805 223.96 43.815C223.77 43.815 223.61 43.82 223.48 43.83C223.09 43.84 222.615 43.865 222.055 43.905C221.495 43.935 220.895 43.98 220.255 44.04C219.615 44.09 218.96 44.15 218.29 44.22C217.63 44.28 216.995 44.345 216.385 44.415C215.775 44.485 215.225 44.545 214.735 44.595C214.245 44.645 213.855 44.685 213.565 44.715C213.405 44.735 213.21 44.765 212.98 44.805C212.75 44.835 212.52 44.87 212.29 44.91C212.07 44.94 211.895 44.965 211.765 44.985L211.555 43.065ZM227.035 40.71C227.335 40.7 227.62 40.69 227.89 40.68C228.16 40.66 228.365 40.645 228.505 40.635C228.815 40.615 229.195 40.585 229.645 40.545C230.105 40.495 230.615 40.445 231.175 40.395C231.745 40.345 232.35 40.295 232.99 40.245C233.63 40.195 234.295 40.14 234.985 40.08C235.505 40.03 236.02 39.99 236.53 39.96C237.05 39.92 237.54 39.89 238 39.87C238.47 39.84 238.88 39.82 239.23 39.81L239.245 41.73C238.975 41.73 238.665 41.735 238.315 41.745C237.965 41.755 237.615 41.775 237.265 41.805C236.925 41.825 236.62 41.87 236.35 41.94C235.9 42.06 235.48 42.265 235.09 42.555C234.7 42.835 234.36 43.17 234.07 43.56C233.79 43.94 233.57 44.355 233.41 44.805C233.25 45.245 233.17 45.69 233.17 46.14C233.17 46.63 233.255 47.065 233.425 47.445C233.605 47.815 233.845 48.135 234.145 48.405C234.455 48.665 234.815 48.885 235.225 49.065C235.635 49.235 236.075 49.365 236.545 49.455C237.025 49.545 237.52 49.605 238.03 49.635L237.325 51.69C236.695 51.65 236.08 51.55 235.48 51.39C234.89 51.23 234.335 51.01 233.815 50.73C233.295 50.45 232.84 50.11 232.45 49.71C232.07 49.3 231.765 48.835 231.535 48.315C231.315 47.785 231.205 47.195 231.205 46.545C231.205 45.825 231.32 45.165 231.55 44.565C231.78 43.955 232.065 43.425 232.405 42.975C232.755 42.515 233.1 42.16 233.44 41.91C233.16 41.95 232.82 41.99 232.42 42.03C232.03 42.07 231.605 42.12 231.145 42.18C230.695 42.23 230.235 42.285 229.765 42.345C229.295 42.405 228.84 42.475 228.4 42.555C227.97 42.625 227.58 42.695 227.23 42.765L227.035 40.71ZM237.1 43.2C237.23 43.38 237.365 43.595 237.505 43.845C237.655 44.085 237.8 44.33 237.94 44.58C238.08 44.82 238.2 45.04 238.3 45.24L237.16 45.75C236.97 45.33 236.785 44.96 236.605 44.64C236.435 44.32 236.23 43.995 235.99 43.665L237.1 43.2ZM238.78 42.51C238.91 42.69 239.05 42.9 239.2 43.14C239.36 43.37 239.515 43.61 239.665 43.86C239.815 44.1 239.94 44.315 240.04 44.505L238.915 45.045C238.715 44.645 238.52 44.29 238.33 43.98C238.15 43.67 237.935 43.35 237.685 43.02L238.78 42.51ZM243.46 40.23C244.56 40.36 245.57 40.44 246.49 40.47C247.42 40.49 248.28 40.47 249.07 40.41C249.76 40.35 250.42 40.26 251.05 40.14C251.68 40.02 252.3 39.865 252.91 39.675L253.15 41.4C252.61 41.55 252.025 41.68 251.395 41.79C250.765 41.9 250.12 41.985 249.46 42.045C248.69 42.105 247.8 42.135 246.79 42.135C245.79 42.125 244.715 42.065 243.565 41.955L243.46 40.23ZM243.19 43.38C244.1 43.46 244.97 43.515 245.8 43.545C246.63 43.575 247.41 43.575 248.14 43.545C248.87 43.515 249.535 43.475 250.135 43.425C250.945 43.355 251.64 43.255 252.22 43.125C252.8 42.985 253.305 42.855 253.735 42.735L254.035 44.505C253.585 44.615 253.09 44.72 252.55 44.82C252.01 44.92 251.435 45.005 250.825 45.075C250.185 45.135 249.45 45.185 248.62 45.225C247.8 45.255 246.935 45.265 246.025 45.255C245.115 45.235 244.205 45.2 243.295 45.15L243.19 43.38ZM248.2 40.65C248.13 40.37 248.05 40.095 247.96 39.825C247.87 39.545 247.77 39.26 247.66 38.97L249.685 38.745C249.745 39.215 249.82 39.68 249.91 40.14C250.01 40.59 250.12 41.025 250.24 41.445C250.37 41.865 250.495 42.27 250.615 42.66C250.735 43 250.89 43.39 251.08 43.83C251.28 44.26 251.495 44.695 251.725 45.135C251.955 45.565 252.185 45.955 252.415 46.305C252.515 46.445 252.615 46.58 252.715 46.71C252.825 46.83 252.95 46.95 253.09 47.07L252.175 48.45C251.895 48.39 251.545 48.33 251.125 48.27C250.715 48.21 250.285 48.155 249.835 48.105C249.395 48.055 248.99 48.01 248.62 47.97L248.77 46.545C249.08 46.575 249.415 46.605 249.775 46.635C250.145 46.665 250.44 46.695 250.66 46.725C250.26 46.055 249.915 45.4 249.625 44.76C249.345 44.12 249.11 43.525 248.92 42.975C248.8 42.625 248.7 42.325 248.62 42.075C248.54 41.815 248.465 41.575 248.395 41.355C248.335 41.125 248.27 40.89 248.2 40.65ZM246.07 46.86C245.89 47.11 245.735 47.37 245.605 47.64C245.475 47.9 245.41 48.195 245.41 48.525C245.41 49.075 245.665 49.475 246.175 49.725C246.695 49.965 247.45 50.085 248.44 50.085C249.15 50.085 249.82 50.055 250.45 49.995C251.09 49.935 251.675 49.855 252.205 49.755L252.1 51.66C251.58 51.75 250.995 51.82 250.345 51.87C249.695 51.92 249.065 51.945 248.455 51.945C247.455 51.945 246.59 51.84 245.86 51.63C245.14 51.42 244.58 51.095 244.18 50.655C243.78 50.205 243.575 49.625 243.565 48.915C243.555 48.435 243.615 48.005 243.745 47.625C243.885 47.235 244.04 46.86 244.21 46.5L246.07 46.86ZM264.955 38.865C264.935 39.015 264.915 39.185 264.895 39.375C264.885 39.555 264.875 39.74 264.865 39.93C264.855 40.13 264.845 40.4 264.835 40.74C264.825 41.07 264.82 41.435 264.82 41.835C264.82 42.235 264.82 42.63 264.82 43.02C264.82 43.41 264.82 43.765 264.82 44.085C264.82 44.505 264.83 44.975 264.85 45.495C264.87 46.005 264.895 46.525 264.925 47.055C264.965 47.575 264.995 48.065 265.015 48.525C265.045 48.975 265.06 49.35 265.06 49.65C265.06 50.07 264.95 50.455 264.73 50.805C264.51 51.145 264.18 51.415 263.74 51.615C263.31 51.815 262.765 51.915 262.105 51.915C260.905 51.915 259.995 51.695 259.375 51.255C258.755 50.815 258.445 50.2 258.445 49.41C258.445 48.9 258.59 48.455 258.88 48.075C259.18 47.685 259.605 47.38 260.155 47.16C260.715 46.94 261.38 46.83 262.15 46.83C262.97 46.83 263.735 46.92 264.445 47.1C265.165 47.27 265.82 47.495 266.41 47.775C267 48.055 267.525 48.35 267.985 48.66C268.445 48.97 268.835 49.25 269.155 49.5L268.075 51.18C267.715 50.84 267.31 50.505 266.86 50.175C266.42 49.845 265.935 49.545 265.405 49.275C264.885 49.005 264.33 48.79 263.74 48.63C263.16 48.46 262.545 48.375 261.895 48.375C261.375 48.375 260.97 48.465 260.68 48.645C260.4 48.825 260.26 49.045 260.26 49.305C260.26 49.495 260.32 49.66 260.44 49.8C260.56 49.94 260.735 50.045 260.965 50.115C261.195 50.185 261.485 50.22 261.835 50.22C262.105 50.22 262.335 50.19 262.525 50.13C262.725 50.07 262.88 49.96 262.99 49.8C263.1 49.64 263.155 49.415 263.155 49.125C263.155 48.905 263.145 48.59 263.125 48.18C263.115 47.77 263.1 47.32 263.08 46.83C263.06 46.33 263.04 45.84 263.02 45.36C263 44.88 262.99 44.455 262.99 44.085C262.99 43.725 262.99 43.35 262.99 42.96C263 42.56 263.005 42.165 263.005 41.775C263.005 41.385 263.005 41.03 263.005 40.71C263.015 40.38 263.02 40.11 263.02 39.9C263.02 39.76 263.01 39.59 262.99 39.39C262.98 39.18 262.96 39.005 262.93 38.865H264.955ZM258.73 40.275C259 40.315 259.3 40.355 259.63 40.395C259.96 40.435 260.295 40.475 260.635 40.515C260.985 40.545 261.315 40.57 261.625 40.59C261.935 40.6 262.205 40.605 262.435 40.605C263.455 40.605 264.47 40.575 265.48 40.515C266.5 40.445 267.555 40.32 268.645 40.14L268.63 41.865C268.12 41.935 267.53 42 266.86 42.06C266.19 42.12 265.475 42.17 264.715 42.21C263.965 42.24 263.21 42.255 262.45 42.255C262.14 42.255 261.755 42.245 261.295 42.225C260.845 42.195 260.395 42.16 259.945 42.12C259.495 42.07 259.105 42.025 258.775 41.985L258.73 40.275ZM258.655 43.515C258.895 43.555 259.18 43.595 259.51 43.635C259.84 43.675 260.175 43.705 260.515 43.725C260.865 43.745 261.195 43.765 261.505 43.785C261.815 43.795 262.07 43.8 262.27 43.8C263.2 43.8 264.04 43.78 264.79 43.74C265.55 43.7 266.26 43.65 266.92 43.59C267.58 43.53 268.215 43.46 268.825 43.38L268.81 45.15C268.29 45.21 267.785 45.26 267.295 45.3C266.815 45.34 266.32 45.375 265.81 45.405C265.31 45.435 264.77 45.455 264.19 45.465C263.61 45.475 262.96 45.48 262.24 45.48C261.95 45.48 261.59 45.475 261.16 45.465C260.73 45.445 260.29 45.42 259.84 45.39C259.4 45.36 259.01 45.325 258.67 45.285L258.655 43.515ZM280.795 38.91C280.785 38.99 280.77 39.12 280.75 39.3C280.74 39.47 280.73 39.645 280.72 39.825C280.71 39.995 280.7 40.12 280.69 40.2C280.68 40.4 280.675 40.67 280.675 41.01C280.675 41.34 280.675 41.71 280.675 42.12C280.675 42.53 280.675 42.945 280.675 43.365C280.685 43.775 280.69 44.165 280.69 44.535C280.7 44.895 280.705 45.195 280.705 45.435L278.83 44.805C278.83 44.615 278.83 44.365 278.83 44.055C278.83 43.735 278.83 43.39 278.83 43.02C278.83 42.64 278.825 42.265 278.815 41.895C278.815 41.525 278.81 41.19 278.8 40.89C278.79 40.59 278.78 40.365 278.77 40.215C278.75 39.905 278.725 39.635 278.695 39.405C278.665 39.165 278.64 39 278.62 38.91H280.795ZM272.32 40.77C272.76 40.77 273.26 40.765 273.82 40.755C274.38 40.745 274.965 40.735 275.575 40.725C276.185 40.715 276.785 40.705 277.375 40.695C277.965 40.685 278.52 40.68 279.04 40.68C279.56 40.67 280.01 40.665 280.39 40.665C280.77 40.665 281.185 40.665 281.635 40.665C282.085 40.655 282.53 40.65 282.97 40.65C283.41 40.65 283.81 40.65 284.17 40.65C284.54 40.65 284.825 40.65 285.025 40.65L285.01 42.42C284.54 42.4 283.92 42.385 283.15 42.375C282.38 42.355 281.44 42.345 280.33 42.345C279.65 42.345 278.96 42.355 278.26 42.375C277.56 42.385 276.865 42.4 276.175 42.42C275.485 42.44 274.82 42.465 274.18 42.495C273.54 42.515 272.935 42.545 272.365 42.585L272.32 40.77ZM280.435 45.21C280.435 46.03 280.335 46.71 280.135 47.25C279.945 47.79 279.655 48.2 279.265 48.48C278.875 48.75 278.39 48.885 277.81 48.885C277.53 48.885 277.235 48.825 276.925 48.705C276.625 48.585 276.345 48.41 276.085 48.18C275.825 47.95 275.615 47.665 275.455 47.325C275.305 46.985 275.23 46.585 275.23 46.125C275.23 45.555 275.365 45.065 275.635 44.655C275.905 44.235 276.265 43.91 276.715 43.68C277.175 43.44 277.68 43.32 278.23 43.32C278.89 43.32 279.44 43.47 279.88 43.77C280.33 44.06 280.665 44.455 280.885 44.955C281.115 45.455 281.23 46.02 281.23 46.65C281.23 47.14 281.15 47.65 280.99 48.18C280.83 48.71 280.565 49.23 280.195 49.74C279.835 50.24 279.345 50.695 278.725 51.105C278.115 51.515 277.35 51.85 276.43 52.11L274.825 50.52C275.465 50.39 276.06 50.22 276.61 50.01C277.16 49.8 277.64 49.535 278.05 49.215C278.47 48.895 278.795 48.5 279.025 48.03C279.265 47.56 279.385 46.995 279.385 46.335C279.385 45.855 279.265 45.495 279.025 45.255C278.795 45.015 278.515 44.895 278.185 44.895C277.995 44.895 277.81 44.94 277.63 45.03C277.45 45.12 277.305 45.255 277.195 45.435C277.085 45.615 277.03 45.835 277.03 46.095C277.03 46.435 277.145 46.71 277.375 46.92C277.615 47.12 277.885 47.22 278.185 47.22C278.425 47.22 278.635 47.145 278.815 46.995C279.005 46.845 279.13 46.595 279.19 46.245C279.25 45.895 279.2 45.425 279.04 44.835L280.435 45.21Z" fill="#FE8B00"/>
<path d="M375 72H220.237L187.502 91L154.763 72H0" stroke="#FE8B00" stroke-miterlimit="10"/>
<path d="M0 1L375 1.00003" stroke="#FE8B00"/>
</svg>
